<?xml version="1.0" encoding="utf-8"?>
<!-- Generator: Adobe Illustrator 26.3.1, SVG Export Plug-In . SVG Version: 6.00 Build 0)  -->
<svg version="1.1" id="Layer_1" xmlns="http://www.w3.org/2000/svg" xmlns:xlink="http://www.w3.org/1999/xlink" x="0px" y="0px"
	 width="24px" height="24px" viewBox="0 0 384 384" enable-background="new 0 0 384 384" xml:space="preserve">
<path d="M203.2,0c7.4,1,14.9,1.7,22.2,3c30.7,5.2,58.4,17.6,83.2,36.5c4.2,3.2,5.2,7.4,2.6,11c-2.6,3.7-7.3,4.2-11.5,0.9
	c-19.6-14.9-41.3-25.6-65.4-31.4C139.9-2.8,44.3,53.6,20.9,147.9c-16.6,67,1.1,125.4,50.7,173.8c0.8,0.8,1.7,1.4,2.2,1.9
	c19.8-61.7,60.5-96.1,126.7-93.5c51.8,2,96.6,40.3,108.9,94c1-0.8,1.9-1.4,2.6-2.1c33.6-31.5,52.6-70.2,56.3-116.2
	c3-37.1-5.2-71.7-23.9-103.8c-0.4-0.6-0.7-1.3-1.1-2c-2-4-1-8,2.5-10.2c3.6-2.2,8.2-1.3,10.3,2.7c5.2,10.1,10.6,20.1,14.9,30.6
	c7.1,17.2,10.9,35.3,12.2,53.8c0.1,1,0.4,1.9,0.6,2.9c0,8,0,16,0,24c-0.3,2.5-0.6,4.9-0.9,7.4c-4.4,40.4-19.6,76.2-46.4,106.8
	c-29.8,34-67,55-111.6,62.9c-7,1.2-14,2-21.1,2.9c-8,0-16,0-24,0c-1-0.2-1.9-0.5-2.9-0.6c-32.6-2.5-62.8-12.5-90.1-30.7
	C41.2,322,13,279.5,2.9,225.1C1.6,218.1,1,211,0,204c0-8,0-16,0-24c1.2-8.5,2.1-17.1,3.7-25.5C18.1,77.9,81.7,15.6,158.5,2.9
	c7.1-1.2,14.3-2,21.5-2.9C187.8,0,195.5,0,203.2,0z M186.9,369c39.9,0,72.8-9.8,101.8-28.7c7.8-5.1,7.8-5.1,5.7-14.2
	c-13.2-56.8-68.7-91.8-125.5-79.1c-41.2,9.2-72.8,42.2-80.3,83.6c-0.6,3.3,0.1,5.3,3.1,7.3C122,358.6,155.5,368.7,186.9,369z
	 M259.5,147.1c0,37.2-30.4,67.4-67.6,67.4c-37.2,0-67.4-30.4-67.4-67.6c0-37.2,30.4-67.4,67.6-67.4
	C229.3,79.5,259.5,109.9,259.5,147.1z M244.5,146.9c0-28.9-23.6-52.4-52.5-52.4c-28.9,0-52.5,23.5-52.5,52.4
	c0,29,23.6,52.7,52.7,52.6C221,199.4,244.5,175.8,244.5,146.9z M330.2,61.5c-4.1-0.1-7.7,3.3-7.7,7.5c0,4,3.3,7.4,7.3,7.5
	c4.1,0.1,7.7-3.3,7.7-7.5C337.5,65,334.2,61.6,330.2,61.5z"/>
</svg>
