<?xml version="1.0" encoding="utf-8"?>
<!-- Generator: Adobe Illustrator 26.3.1, SVG Export Plug-In . SVG Version: 6.00 Build 0)  -->
<svg version="1.1" id="Layer_1" xmlns="http://www.w3.org/2000/svg" xmlns:xlink="http://www.w3.org/1999/xlink" x="0px" y="0px"
	 width="24px" height="24px" viewBox="0 0 384 384" enable-background="new 0 0 384 384" xml:space="preserve">
<path d="M384,8.3c0,24.5,0,48.9,0,73.5c-0.3,0.5-0.7,1-1,1.5c-2.6,5.1-7.7,7.7-12.6,6.5c-5.4-1.3-8.9-5.6-8.9-11.5
	c-0.1-12,0-24,0-36c0-1,0-1.9,0-3.8c-23.4,22.9-46.1,45.1-68.8,67.3c37,47.1,24.8,107.8-13.3,140.1c-38.2,32.4-94.2,32.1-131.3-0.6
	c-37.7-33.4-46.1-85.5-21.6-126.4c6.6,3.2,12.2,7.6,16.8,13.2c0.5,0.6-0.1,2.5-0.6,3.6c-11.6,25.5-10.2,50.3,4.4,74.1
	c17.5,28.6,49.6,42.6,82.4,36.2c31.6-6.1,56.6-32.2,62.1-64.9c7.3-43.3-24.6-85.8-68.1-90.2c-7.7-0.8-15.7,0.3-23.5,0.4
	c-1,0-2.4-0.1-3-0.7c-5.4-5.5-10.6-11.2-15.8-16.8c22.6-9.5,61.1-10.7,95.6,16.2c22.7-22.2,45.4-44.4,68.8-67.4c-8.3,0-15.7,0-23,0
	c-5.4,0-10.7,0-16.1,0c-6.4,0-10.9-3.3-12.2-8.9c-1.2-5.2,1.5-10,7.2-12.9c0.3-0.2,0.5-0.5,0.8-0.7c24.5,0,49,0,73.5,0
	C378.6,2.9,381.3,5.6,384,8.3z M145.5,315.9c-7.2-0.1-14.5,0-21.7,0c-3.7,0-7.4,0-11.1,0c0-15.9,0-31.3,0-46.5
	c7.3-1.7,14.4-3.3,21.6-5c-5.8-6.1-10.9-11.8-16.2-17.2c-0.7-0.7-2.4-0.7-3.6-0.7c-8.5,0-17.1,1.3-25.3,0
	C45,239.6,16,198.2,23.9,154c8.8-49.1,62.8-77.6,108.4-57.5c36.8,16.3,61,62.5,39.7,105.9c-0.5,0.9-0.7,2.7-0.2,3.3
	c4.6,5.5,10.2,9.8,16.7,13c0.5-0.6,0.8-1,1-1.4c11-20.2,15.3-41.5,11.5-64.4c-7.7-46.5-46.1-81.6-93.4-85.2
	c-45-3.5-88,25.5-102.4,69.5c-2.5,7.5-3.5,15.5-5.2,23.3c0,5.5,0,11,0,16.5c0.9,5.1,1.7,10.3,2.9,15.4c9.8,40.5,43.6,70.7,85,76.2
	c0.6,0.1,1.2,0.2,1.9,0.4c0,15.6,0,31,0,46.8c-11,0-21.8,0-32.6,0c-4.5,0-8.1,1.6-10.5,5.4c-4.7,7.5,0.6,16.9,9.7,17.1
	c11,0.2,22,0,33.6,0c0,1.3,0,2.5,0,3.7c0,9,0.3,18-0.1,27c-0.3,7,1.9,12.1,8.3,15.1c2,0,4,0,6,0c6.5-3,8.6-8.1,8.3-15.1
	c-0.4-10.1-0.1-20.2-0.1-30.6c1.6,0,2.8,0,4,0c9.7,0,19.5,0.1,29.2,0c6.7-0.1,11.7-4.8,11.7-11.1C157.4,320.9,152.4,316,145.5,315.9
	z"/>
</svg>
