<?xml version="1.0" encoding="utf-8"?>
<!-- Generator: Adobe Illustrator 26.3.1, SVG Export Plug-In . SVG Version: 6.00 Build 0)  -->
<svg version="1.1" id="Layer_1" xmlns="http://www.w3.org/2000/svg" xmlns:xlink="http://www.w3.org/1999/xlink" x="0px" y="0px"
	 width="24px" height="24px" viewBox="0 0 384 384" enable-background="new 0 0 384 384" xml:space="preserve">
<path d="M0,303.8c0-74.5,0-149,0-223.5c5.4-13.1,10.1-16.3,24.3-16.3c70.1,0,140.1,0,210.2,0c42.5,0,84.9,0,127.4,0
	c6,0,11.7,1,15.7,5.6c2.7,3.1,4.3,7.2,6.4,10.8c0,74.5,0,149,0,223.5c-5.3,13.1-10.1,16.3-24.3,16.3c-76.7,0-153.4,0-230,0
	c-36,0-71.9,0-107.9,0c-5.8,0-11.5-1.1-15.4-5.6C3.7,311.4,2.1,307.4,0,303.8z M369,88.3c-1.7,1.2-2.8,2-3.9,2.8
	c-50.3,37.7-100.6,75.4-150.8,113.1c-14.2,10.6-30.3,10.6-44.3,0.1C119.5,166.5,69,128.6,18.5,90.8c-1-0.8-2.1-1.5-3.4-2.4
	c0,68.7,0,136.8,0,205.7c1.4-1.7,2.4-2.8,3.3-3.9c23.7-29.3,47.5-58.7,71.2-88c2.8-3.4,5.4-6.9,8.3-10.1c2.8-3,7.1-3.2,10.1-0.7
	c2.9,2.4,3.4,6.5,1.3,9.8c-0.5,0.8-1.2,1.6-1.8,2.4c-26.4,32.6-52.8,65.3-79.2,97.9c-0.9,1.1-1.7,2.2-2.7,3.5
	c111.2,0,221.8,0,332.8,0c-0.9-1.3-1.6-2.2-2.3-3c-21.7-26.8-43.4-53.6-65.1-80.4c-5.3-6.6-10.8-13.2-16-19.8
	c-2.7-3.5-2.2-7.8,0.9-10.4c3.1-2.6,7.4-2.2,10.4,1c0.6,0.6,1.1,1.4,1.7,2c26,32.1,52.1,64.3,78.1,96.4c0.8,1,1.6,1.9,2.9,3.3
	C369,225.1,369,157,369,88.3z M27.5,78.9c1.2,1,1.8,1.5,2.4,2c50,37.5,99.9,75,149.9,112.4c7.7,5.8,17.1,5.6,25-0.3
	c49.7-37.2,99.3-74.5,149-111.8c0.8-0.6,1.5-1.3,2.7-2.3C246.5,78.9,137.5,78.9,27.5,78.9z"/>
</svg>
