<?xml version="1.0" encoding="utf-8"?>
<!-- Generator: Adobe Illustrator 26.3.1, SVG Export Plug-In . SVG Version: 6.00 Build 0)  -->
<svg version="1.1" id="Layer_1" xmlns="http://www.w3.org/2000/svg" xmlns:xlink="http://www.w3.org/1999/xlink" x="0px" y="0px"
	 width="24px" height="24px" viewBox="0 0 384 384" enable-background="new 0 0 384 384" xml:space="preserve">
<path d="M90.3,157.7c0-1.3,0-2.8,0-4.2c0.1-15.5-0.4-31,0.4-46.5c2.1-43.1,31.2-79.5,72.6-91.6C216.7-0.3,272.1,29.2,289,82.1
	c3.4,10.7,4.7,21.7,4.7,32.9c0,12.9,0,25.8,0,38.6c0,1.4,0,2.7,0,4.1c3.3,0.6,6.2,0.8,9.1,1.6c15,3.9,24.6,16.8,24.8,33.4
	c0.1,13.6,0,27.3,0,40.9c0,34.5,0,69,0,103.5c0,14.5-5.6,25.9-19.1,32.1c-4.8,2.2-10.6,3.3-15.9,3.4c-67.1,0.2-134.2,0.2-201.4,0.1
	c-20.4,0-34.6-14.1-34.8-34.7c-0.1-15.9,0-31.8,0-47.6c0-32.4,0-64.8,0-97.1c0-16.9,9.1-29.5,24.3-33.8
	C83.6,158.7,86.8,158.4,90.3,157.7z M192,180.7c-33,0-66,0-99,0c-10.4,0-14,3.5-14,13.9c0,47.3,0,94.5,0,141.8
	c0,10.1,3.7,13.8,13.8,13.8c66.1,0,132.2,0,198.4,0c10.1,0,13.8-3.7,13.9-13.8c0-47.4,0-94.8,0-142.1c0-9.9-3.7-13.6-13.6-13.6
	C258.3,180.7,225.1,180.7,192,180.7z M271,158c0-15.8,0.1-31.3,0-46.8c0-3.5-0.4-7-0.9-10.4c-5.8-42.7-47.8-73.3-90.3-65.9
	c-39.4,6.8-66.1,37.8-66.7,77.8c-0.2,14.1-0.1,28.3,0,42.4c0,1,0.2,1.9,0.3,3.1C165.8,158,218.1,158,271,158z M180.7,294.1
	c0-0.4,0-0.7,0-1.1c0-3.7,1.1-8.1-0.3-11.1c-1.4-2.8-5.6-4.2-8.5-6.2c-12.6-8.9-17.2-25.8-11.2-40.5c5.7-14.1,20.8-22.5,36.1-20.2
	c15.7,2.4,26.6,13.3,28.8,28.7c2.2,15.1-5.6,29-20,35.4c-1.7,0.8-2.4,1.7-2.4,3.6c0.1,7.1,0.1,14.2,0,21.4
	c-0.1,7.6-4.2,12.1-11.2,12.2c-7,0-11.2-4.5-11.3-12.1C180.7,300.9,180.7,297.5,180.7,294.1z M191.8,259.7c6.8,0.1,11.4-4.3,11.5-11
	c0.1-6.7-4.4-11.4-11-11.5c-6.7-0.1-11.4,4.4-11.5,11.1C180.7,255.1,185,259.6,191.8,259.7z"/>
</svg>
