<?xml version="1.0" encoding="utf-8"?>
<!-- Generator: Adobe Illustrator 26.3.1, SVG Export Plug-In . SVG Version: 6.00 Build 0)  -->
<svg version="1.1" id="Layer_1" xmlns="http://www.w3.org/2000/svg" xmlns:xlink="http://www.w3.org/1999/xlink" x="0px" y="0px"
	 width="24px" height="24px" viewBox="0 0 409.6 409.6" enable-background="new 0 0 409.6 409.6" xml:space="preserve">
<path d="M0.4,273.6c2.5-10.6,9.5-17.1,19.2-21.3c5-2.1,9.8-4.9,14.6-7.3c3-1.5,4.7-3.8,4.5-7.3c0-0.3,0-0.5,0-0.8
	c0.9-7.2-0.6-12.9-6.8-17.9c-6.9-5.7-10.6-14-11.6-23c-1.3-13.4-2.8-27.1,4.1-39.4c3.2-5.8,8.2-10.6,12.7-15.6
	c1.6-1.7,2.7-2.8,2.2-5.3c-1.9-10.1,2.5-20.3,11-25.5c9.1-5.6,18.4-5.5,27.5,0.2c8.5,5.3,12.8,15.7,10.7,25.6
	c-0.5,2.2,0.1,3.3,1.8,4.6c11.5,8.8,17.6,20.4,17.8,34.9c0.1,7.2,0.1,14.4-0.8,21.5c-1.4,10.7-7.1,19.4-15.4,26.2
	c-2,1.7-3.3,3.3-2.9,6c0.2,1,0.2,2.1,0,3.2c-1,7.3,1.4,12.2,8.7,14.9c4.1,1.5,5.1,5.2,3.4,8.4c-1.6,3-4.7,3.9-8.6,2.1
	c-2.7-1.2-5.2-2.6-8.1-4.1c-4.4,4.4-9,8.9-13.3,13.5c-0.9,1-1.1,2.9-1.1,4.4c-0.1,18.2,0,36.5,0,54.7c0,1.2,0,2.4-0.1,3.6
	c-0.3,3.4-2.3,5.5-5.6,5.7c-3.4,0.2-5.5-1.8-6.1-5.1c-0.3-1.3-0.2-2.6-0.2-4c0-18.4,0.1-36.7-0.1-55.1c0-1.9-1-4.1-2.3-5.5
	c-3.8-4.3-7.9-8.3-11.8-12.3c-9.1,4.7-17.9,9.1-27.5,14c4.3,4.1,8,7.9,11.9,11.4c6.9,6.3,10.2,14,9.8,23.4c-0.3,8.5,0,17-0.1,25.5
	c0,4.8-2.1,7.5-5.8,7.6c-3.8,0.1-6.2-2.8-6.2-7.7c0-8.9-0.1-17.8,0-26.7c0.1-5.2-1.6-9.3-5.3-12.8c-2.6-2.4-4.9-5.1-8.1-8.4
	c-0.1,2.4-0.2,3.6-0.2,4.9c0,14.1,0,28.2,0,42.3c0,3.3-0.2,6.5-3.9,7.9c-3.7,1.5-5.9-0.9-8.1-3.3C0.4,312.5,0.4,293.1,0.4,273.6z
	 M31.7,188.8c0,18.4,15.3,33.3,33.3,32.5c20.1-0.9,31.9-19,30.7-30.2c-19.7,2.2-27.5,0.1-43.1-11.3c-0.8-0.6-2.7-0.7-3.7-0.2
	C43.3,182.4,37.8,185.5,31.7,188.8z M31.9,175.9c4.5-2.9,8.7-5.2,12.3-8.1c6.5-5.3,8-5.3,13.9,0.6c10.7,10.5,23.3,14.1,37.8,10
	c2-17.7-12-33.2-31-34.6C48.1,142.6,32.3,157.3,31.9,175.9z M63.9,257.5c4.6-4.7,8.9-9,13.1-13.4c0.5-0.5,0.7-1.4,0.6-2.2
	c-0.2-3.4-0.5-6.8-0.7-9.6c-8.7,0-17.3,0-26,0c-0.2,2.8-0.4,6.3-0.5,9.7c0,0.8,0.4,1.8,1,2.4C55.4,248.8,59.5,253,63.9,257.5z
	 M50.9,132.6c9,0,17.4,0,26.1,0c0.6-4.7-1.2-9.2-5.9-12.2c-4.5-3-9.3-3.1-13.9-0.2C52.5,123,50.4,127.3,50.9,132.6z M282.1,249
	c-6.1,5.9-12.1,10.9-17,16.7c-2.1,2.4-2.8,6.6-2.9,10c-0.3,16.9-0.1,33.8-0.1,50.7c0,6.3-2.1,9.4-6.2,9.3c-4-0.1-5.8-3-5.8-9.2
	c0-16.6,0.2-33.3-0.1-49.9c-0.1-9.1,2.9-16.6,9.4-22.8c5.7-5.4,11.1-11,17.3-17.1c-2.7-1.7-4.8-3.4-7.2-4.5
	c-10.1-4.6-20.4-9.1-30.5-13.7c-2-0.9-3.3-0.8-4.9,0.8c-7.1,7.2-14.4,14.2-21.3,21.6c-1.3,1.3-1.9,3.7-1.9,5.7
	c-0.1,26.5-0.1,53-0.1,79.4c0,1.6,0,3.2-0.3,4.8c-0.5,3.3-2.7,5-5.8,4.9c-3.1-0.1-5.2-1.8-5.6-5.1c-0.2-1.6-0.2-3.2-0.2-4.8
	c0-26.3-0.1-52.7,0-79c0-2.9-0.8-5-2.9-7c-6.9-6.6-13.6-13.5-20.3-20.3c-1.5-1.5-2.7-2-4.8-1c-10.3,4.7-20.6,9.2-30.9,13.8
	c-2.3,1-4.3,2.6-6.7,4.1c0.9,1.1,1.5,2,2.2,2.7c5.2,5.3,10.5,10.6,15.8,15.8c5.4,5.4,8.4,11.8,8.4,19.6c-0.1,18,0,35.9,0,53.9
	c0,4.7-2.4,7.5-6,7.4c-3.6,0-5.9-2.8-5.9-7.5c-0.1-17.2-0.2-34.3,0-51.5c0.1-5.9-1.7-10.5-6-14.5c-4.5-4.2-8.7-8.8-13-13.3
	c-0.4,0.2-0.7,0.4-1.1,0.5c0,1.4,0,2.8,0,4.2c0,24.2,0,48.4,0,72.7c0,1.5,0,2.9-0.2,4.4c-0.4,3.1-2.4,4.8-5.3,5
	c-2.9,0.2-5.2-1.3-6-4.2c-0.4-1.4-0.5-2.9-0.5-4.3c0-24.9-0.1-49.8,0-74.7c0-14.9,6.8-25.6,20.6-31.7c10.3-4.5,20.6-9.3,31-13.7
	c4.2-1.8,6-4.5,6.2-9.1c0.2-4.9-0.9-8.5-4.7-12.2c-9.7-9.4-14-21.3-14.6-34.8c-0.1-1.6-1.3-3.2-2.1-4.7c-1.2-2.2-3.3-4.2-3.6-6.5
	c-1.7-15.2-1-30.1,8.2-43.3c8.7-12.4,20.5-20.2,35.6-21.7c14.1-1.4,28.3-2.1,41.4,4.6c18.4,9.5,27.8,24.9,28.6,45.5
	c0.2,4.3-1.3,8-4.6,11c-1,1-1.5,2.9-1.7,4.5c-0.8,7.9-0.8,16-2.3,23.7c-1.8,9.5-7.4,17.3-14.4,23.8c-5.2,4.8-3.5,15.8,3,18.8
	c10.5,4.8,21.1,9.4,31.7,14.1c13.6,6,20.3,16.6,20.4,31.4c0.1,25,0,50,0,75c0,1.4,0.2,3.4-0.6,4.2c-1.5,1.7-3.6,3.7-5.7,4
	c-2.8,0.4-5-1.7-5.5-4.7c-0.2-1.4-0.2-2.9-0.2-4.4c0-24.2,0-48.4,0-72.7C282.1,252.3,282.1,250.9,282.1,249z M159.9,137.9
	c3.5-2.3,6.2-4.1,8.9-5.9c3.2-2.1,6.5-1.8,8.6,0.8c2,2.5,1.6,6.1-1.2,8.5c-2.2,1.9-4.6,3.7-7.2,4.9c-2.7,1.3-3.5,3-3,5.6
	c0.9,4.1,1.3,8.4,2.7,12.4c6.1,18.2,27.8,29.1,46.2,23.7c20.9-6.2,31.5-25.1,28.3-48c-1.1,0.1-2.3,0.1-3.4,0.2
	c-14.2,0.9-28.3,0.4-41.3-6.1c-6-3-11.4-7.1-16.8-11.2c-2.7-2.1-2.5-5.9-0.4-8.2c2.1-2.4,5.4-2.6,8.3-0.5c0.6,0.5,1.2,1,1.8,1.5
	c17.5,14.4,37.6,14.4,58.8,10.9c-0.4-15.2-6.3-26.8-19-34.7c-11.7-7.3-24.7-6.2-37.6-5.2c-6.7,0.5-12.8,3.3-18.2,7.4
	C160.9,104.9,158.3,120.1,159.9,137.9z M204.8,231.8c7.1-7.2,13.9-13.9,20.6-20.8c0.6-0.6,1.3-1.6,1.2-2.3c-0.8-3.7-1.9-7.3-2.9-11
	c-12.7,4.9-25.4,4.6-37.8,0.1c-1,3.7-1.9,7-2.6,10.3c-0.2,0.8,0.2,2.1,0.7,2.7C190.7,217.7,197.6,224.5,204.8,231.8z M312.4,234.5
	c-1.5,0.7-2.5,1.3-3.6,1.8c-2.9,1.2-5.3,0.4-7-2c-1.8-2.6-1.9-5.9,0.8-7.5c5.5-3.4,5.4-8.4,5.1-13.6c-0.1-1.2-0.6-2.6-1.4-3.5
	c-8-8.1-11.7-17.9-11.3-29.2c0.1-2.6,0.3-4.9-3.2-5.7c-1.2-0.3-2.8-2.5-2.9-3.9c-0.4-10.6-1.4-21.3,4-31.2
	c7.4-13.7,19.1-20.4,34.4-20.6c7.4-0.1,15.1-0.2,22.1,1.7c17.3,4.5,27.6,18.9,27.9,37.2c0.1,3.2,0,6.4,0,9.6c0,5.4-1,6.7-6.1,8.5
	c-0.3,4-0.4,8.1-0.9,12.2c-1,8.1-4.6,14.9-10.2,20.7c-4.3,4.5-2.7,14.3,2.8,17.1c10.2,5.2,20.4,10.3,30.7,15.3
	c10.7,5.2,15.8,13.6,15.7,25.5c-0.1,20,0,39.9,0,59.9c0,1.1,0.1,2.1-0.1,3.2c-0.4,3.4-3,6-6,5.7c-3.3-0.3-5.3-2.2-5.8-5.6
	c-0.2-1.2-0.1-2.4-0.1-3.6c0-19.7,0-39.4,0-59.1c0-1.7-0.1-3.3-0.3-5.9c-7.2,6.9-14.2,12.2-13.5,23.2c0.9,14.3,0.3,28.7,0.1,43.1
	c0,2.2-1.1,5.2-2.7,6.6c-3.7,3.2-8.9,0.2-9.1-5.1c-0.2-5-0.1-10.1-0.1-15.2c0-10.6,0.1-21.3,0-31.9c-0.2-8.5,2.7-15.6,8.8-21.4
	c2.8-2.6,5.7-5.1,9-8.1c-12.7-6.4-24.3-12.2-36.4-18.3c-4.3,4.4-8.9,8.8-13.1,13.5c-0.9,1-1,2.9-1.1,4.4c-0.1,24.6,0,49.2-0.1,73.8
	c0,1.7-0.1,3.5-0.5,5.1c-0.8,3-3.1,4.4-6,4.2c-2.9-0.2-4.9-2-5.3-5.1c-0.2-1.4-0.1-2.9-0.1-4.4c0-24.5,0-49,0-73.4
	c0-2.6-0.7-4.5-2.6-6.3C320.2,242.7,316.4,238.6,312.4,234.5z M358.5,175.2c-1.1-0.2-2.2-0.3-3.3-0.6c-9.1-2.3-18.5-4-27.2-7.3
	c-5.3-2-8.5-0.9-13.5,1.2c-7.8,3.4-8.4,8.7-7.5,15.4c0,0.4,0,0.8,0.1,1.2c1.2,15.5,17.1,26.7,32.1,22.6
	C353.2,203.8,360.5,191.7,358.5,175.2z M364.8,163.5c1.9-15.9-5.7-29-19.5-31.5c-8.1-1.5-16.8-1.4-24.9,0c-13.7,2.4-22.7,17.4-19,31
	c4.5-3.1,8.8-5.8,12.8-9c4.5-3.5,5.6-3.8,10.7-1.1C337.4,159.4,350.6,162.7,364.8,163.5z M319.4,218.1c0.2,2.7-0.5,5.6,0.6,6.8
	c3.9,4.6,8.5,8.7,13,13.2c3.6-3.7,6.8-7.3,10.4-10.4c3-2.6,3.9-5.4,2.1-9.4C337.1,221.2,328.6,221.1,319.4,218.1z"/>
</svg>
