<svg xmlns="http://www.w3.org/2000/svg" viewBox="0 0 297.7 325.71">
  <g id="Layer_2" data-name="Layer 2">
    <g id="Layer_1-2" data-name="Layer 1">
      <path
        d="M181.13,260.83a52,52,0,0,0-5.79,13.71,70.4,70.4,0,0,0-1.33,7.24c-.47,2.69-1,5.38-1.41,8.08-.65,4.19-1.28,8.38-2.21,12.52-1.52,6.78-3.39,13.45-7.34,19.3-1.23,1.83-2.68,3.54-5.15,3.92a8.22,8.22,0,0,1-8.06-3.31c-1.85-2.31-2.61-5.13-3.52-7.91a93.32,93.32,0,0,1-2.58-11c-.62-3.1-1-6.26-1.39-9.4-.53-4.12-1.08-8.24-1.61-12.37-.39-3.06-.63-6.15-1.29-9.17-.59-2.72-1.28-5.41-1.92-8.11a.45.45,0,0,0-.39-.38c-.11-5.13-3.67-7.95-7.2-10.78a13.49,13.49,0,0,0-6.27-2.81c-.3-.05-.61-.22-1,0a1.76,1.76,0,0,0,1.21,1,16.16,16.16,0,0,1,4,2.38,3.87,3.87,0,0,1,1.59,3.16,17.08,17.08,0,0,1-1.12,6.58,87,87,0,0,0-3.78,14.71,41.52,41.52,0,0,0-.24,10.15c.4,5.12,1.15,10.22,1.18,15.37a42.94,42.94,0,0,1-1.65,10.86c-.69,2.72-2.85,3.88-5.28,4.71-1.35.45-2.85.6-3.77,1.91a9.6,9.6,0,0,1-5.62-4.71,23.07,23.07,0,0,1-2.84-9.65c-.18-1.78-.54-3.53-.74-5.3-.27-2.36-.48-4.73-.68-7.1-.43-4.88-.52-9.77-.78-14.65-.19-3.49-.46-7-.74-10.46s-.64-7.1-1.2-10.63a76.06,76.06,0,0,0-3.29-13.89c-1.3-3.62-2.53-7.28-4-10.84-2.43-5.76-5.14-11.41-7.1-17.35a88.47,88.47,0,0,1-3.19-11.21,39.7,39.7,0,0,0-1-4.56c-.29-.49.17-.72.38-1a12.5,12.5,0,0,0,1.69-2.72,8.21,8.21,0,0,0,.77-1.8c.2-.68-.17-1.28-.27-1.91,0-.23-.08-.46-.12-.69a3.14,3.14,0,0,1-.18-1.66c1.4-2.79,2.81-5.56,4.38-8.25a13.14,13.14,0,0,0,1.51-5.36c.8-7.1,1.81-14.17,2.58-21.26.21-1.93.51-3,2.59-3.66s3.06-2.64,3.28-4.86c0-.32,0-.64,0-1,0-.95.44-1.36,1.4-1.36,1.67,0,3.35,0,5,0a2.94,2.94,0,0,0,1.28-.19c.31-.17.72-.28.61-.75s-.56-.52-1-.53c-2-.05-3.89,0-5.83,0a3.29,3.29,0,0,1-1.75-.24,9.9,9.9,0,0,1-1-1.45,4.87,4.87,0,0,0-4.29-2.15c-2.39.08-4.79,0-7.18,0-.54,0-1.13.11-1.57-.37.34-.33.76-.2,1.14-.21a27.61,27.61,0,0,1,4.55,0c2.43.39,4-.84,5.62-2.34a27.68,27.68,0,0,1,14.76-7.25,34.89,34.89,0,0,1,7.85-.11,54,54,0,0,0,8.71-.13,25,25,0,0,0,7.82-1.88,22.85,22.85,0,0,1,5.71-2,22.06,22.06,0,0,1,6.88.13c3.85.62,7.48,2.11,11.29,2.88a12.39,12.39,0,0,0,7-.12c.53,0,.64.29.64.72-.16.56-.65.77-1.08,1a35.41,35.41,0,0,1-7.35,3.37,9.24,9.24,0,0,0-2.07.89,1.53,1.53,0,0,0-.89,1.66,3.45,3.45,0,0,0,2.66,2.5,20.39,20.39,0,0,0,9.82,0c1.91-.42,3.77-1,5.72-1.25a6.52,6.52,0,0,1,2,0,7.27,7.27,0,0,0,3.08-.13,2.91,2.91,0,0,0,2.45-2.59c.52-1.9,0-3.76-.29-5.62.29-1.29,1.08-2.41,1.33-3.72,2.26.55,4.61.76,6.82,1.53,1,.34,1.62.34,1.85-.81.6.13.52.64.54,1,.08,1.11.34,2.21.42,3.32s.5,1.72,1.62,1.82a1.24,1.24,0,0,1,.55.21c.63.79.3,1.69.22,2.52a19.16,19.16,0,0,0-.13,2.62c.45,3.13,3.51,4.38,5.8,4.22a9.31,9.31,0,0,0,6.45-3.5A2,2,0,0,0,208,137a8.33,8.33,0,0,0-.38-2.52c-.11-.39-.35-.81,0-1.2,1.2-.45,2.36,0,3.48.28,3.49.79,7,1.83,9.59,4.4a36.44,36.44,0,0,1,6.28,8.34,49.85,49.85,0,0,1,5.27,13.62,3.59,3.59,0,0,1,0,.47c-.36.54-1,.48-1.5.59-4.81.94-7.62,4.14-7.69,9a13.66,13.66,0,0,0,3.87,9.43,19,19,0,0,0,6.12,4.91c.32.13.68.29.69.74-.84.83-.55,2-.69,2.94a97.82,97.82,0,0,1-5,19.36c-2.76,7.77-5.66,15.48-8.36,23.27A81.49,81.49,0,0,0,216.36,245a58.43,58.43,0,0,0-.6,12c.19,3.8.36,7.6.84,11.39.34,2.71.57,5.44.84,8.17a106.48,106.48,0,0,1,.63,15.25,88.8,88.8,0,0,1-1.06,11,43.23,43.23,0,0,1-4.21,12.49c-1.29,2.52-2.76,5-5.25,6.55-1,.63-2.08,1.23-3.35.67a1.85,1.85,0,0,0-.31-2c-2.51-3.61-3.12-7.71-3.13-12a76.69,76.69,0,0,0-.26-10.17c-.35-2.57-.75-5.13-1.28-7.67a128.7,128.7,0,0,0-6.61-21c-.86-2.15-2.12-4.12-3-6.28a31.25,31.25,0,0,1-1.72-5.6,4.5,4.5,0,0,1,1.43-4.54,32.71,32.71,0,0,1,5.4-3.74,4.4,4.4,0,0,0,1.67-1.32,1.12,1.12,0,0,0,.16-1.24c-.32-.49-.8-.27-1.19-.11-4,1.56-7.64,3.63-10.29,7.15-1.51,2-3.16,3.93-3.69,6.5A.58.58,0,0,1,181.13,260.83Z"
        fill="#fefdf3" />
      <path
        d="M48.79,232.29c-.38-.34-.08-.84-.36-1.34l-2.81,1.39c-.21.47-.67.53-1.08.65a37.23,37.23,0,0,1-20.74.33,4.19,4.19,0,0,1-1.53-.66c-2.36-1.83-5-3.3-7.22-5.29-.52-.46-1.15-.89-1.26-1.68-.06-.36-.42-.32-.63-.47a1.8,1.8,0,0,1-.82-2.33A44.52,44.52,0,0,1,20,209.22a36.38,36.38,0,0,1,3.65-4.09,2.15,2.15,0,0,0,.49-2.11c-.24-1.87.24-3.11,2.28-3.56A3.68,3.68,0,0,0,28.88,197a103.9,103.9,0,0,1,10-17,2.74,2.74,0,0,0,.82-1.67c.81.3.76,1.08.82,1.7.36,3.75,2.83,6.1,5.42,8.39.54.49,1.1.75,1.76.08.48-.49,1-.18,1.55.07a12.63,12.63,0,0,0,3.81,1.34,4,4,0,0,0,.83.12c2.75,0,3.78-1.1,3.67-3.66,0-.52-.2-1-.19-1.54.06-2.81,1.61-4.89,3.4-6.84a41.33,41.33,0,0,0,5,.32,2.4,2.4,0,0,0,2.09-1.12,8.76,8.76,0,0,0,1.52-3.58c.15-1.17,1.11-2,1.3-3.15,2.63-1.62,5.56-2.65,8.25-4.15.52-.28,1-.59,1.54-.88.51.23,1,.47,1.15,1.1a12.77,12.77,0,0,1-.51,2.93c-.25,1.57-.62,3.12-.89,4.7a11,11,0,0,1-2.44,5.47,1.92,1.92,0,0,0-1.08.47c-2,1.51-4.07,2.82-6.07,4.27a11.2,11.2,0,0,1-5.67,2,11.65,11.65,0,0,0-1.18.21.8.8,0,0,0-.71,1c.52,3.3-.18,6.51-.9,9.7-.17.79,0,.9.76,1.24,1.79.77,3.24-.06,4.8-.5s3.17-1.13,4.83-1.47c1,.12,1.06,1,1.39,1.69.29,2,.94,3.88,1.38,5.83a13.58,13.58,0,0,0,.15,1.43,1.89,1.89,0,0,1-1.31,2.23,8.84,8.84,0,0,0-1.21.73c-.37.18-.77.34-1.13.55a72.34,72.34,0,0,1-13.69,5.66,18.34,18.34,0,0,1-3.47.16,5.08,5.08,0,0,1-4.1-2.93,59.82,59.82,0,0,1-1.91-6.68c-.5-2.26.06-4.52.47-6.76a8.89,8.89,0,0,0,.37-2.19c-2.2,5.54-1.1,10.89,1.12,16.16.07.44-.22.75-.41,1.09a2.41,2.41,0,0,0-.46,1.1c0,2.64-1.07,5.2-.57,7.88.41,2.21.06,4.46.32,6.68C49.21,230.21,49.38,231.34,48.79,232.29Z"
        fill="#f6f6f6" />
      <path
        d="M195.18,132.79c-.44,0-.87-.11-1.3-.14-.83-.05-1.11-.52-1.2-1.31-.18-1.69-.46-3.36-.71-5a1.18,1.18,0,0,1-.34-.87c-.51-5.17-1.85-10.21-2.52-15.36a5.92,5.92,0,0,1-.11-1.19,6.81,6.81,0,0,0-1.48-5.14,2.86,2.86,0,0,1-.29-2.65,5.93,5.93,0,0,0,.07-2.48c-.46-3.08-1.07-6.13-1.63-9.22a16.93,16.93,0,0,0-.91,2.74q-1.06,3.74-2.19,7.46a2.91,2.91,0,0,0,0,2.21,1.75,1.75,0,0,1-.2,1.92,2.93,2.93,0,0,0-.46,2.16c.58,5,.92,9.93,1.44,14.88.12,1.15.12,2.31.26,3.46a1.64,1.64,0,0,1-.26,1.37c.24,1.42-.7,2.43-1.24,3.58-.2.52-.69.64-1.14.79a9.14,9.14,0,0,1-2.93.53c-2.56,0-5.12,0-7.67,0-1,0-2,0-2.64-1.06a1.06,1.06,0,0,0-.49-.74,4.86,4.86,0,0,1-.37-2.87c.28-6.38.41-12.76.32-19.14,0-4.14-.51-8.28-.09-12.43a.91.91,0,0,1,.5-.64c2.74-1.71,4.76-4.18,7-6.5,2.85-3,5.83-5.89,8.78-8.8.28-.28.63-.88,1.14-.2.35,2.59.85,5.16,1.24,7.75.17-2.95-1-5.76-.88-8.71a1.62,1.62,0,0,1,.61-1c1.69-1.63,3.24-3.39,4.91-5a1.66,1.66,0,0,1,.81-.49,46.38,46.38,0,0,0,9.8-1.3,24,24,0,0,0,3.2-1c.47-.22.94-.49,1.46-.14a114.61,114.61,0,0,1-.15,16.26c-.34,5.29-1.09,10.52-1.87,15.76-.21,1.45.5,2.88.85,4.3,1.7,6.84,3,13.76,4.2,20.69.18,1.06.3,2.13.5,3.19a1.3,1.3,0,0,1-.32,1.1,7.43,7.43,0,0,1-1.87,1.84.88.88,0,0,1-.36.46,15.09,15.09,0,0,1-11.26,1.08A.69.69,0,0,1,195.18,132.79Z"
        fill="#1fdb92" />
      <path
        d="M278,203.48c.11,0,.27,0,.33.12.92,1.35,2.32,1.21,3.7,1.28,4.65.22,7.9,2.4,9.67,6.8,1.6,4,3.37,7.89,5,11.83.36.84.83,1.68.15,2.58a1,1,0,0,1-.38.59c-2.18,1.3-4.14,3-6.5,4-.86.37-1.41.85-1.38,1.84a1.89,1.89,0,0,1-.13.7,6.47,6.47,0,0,0,.86,6.26c.35.53.88,1.06.73,1.82.8,4,1.58,8.07,2.41,12.1.19.95-.65,1.15-1,1.68a2.74,2.74,0,0,1-1.14.84c-2.69,1.34-5.61,1.62-8.55,2s-6.12.38-9.17.65a10.46,10.46,0,0,1-2.37-.22,107.9,107.9,0,0,1-11.31-1.71,1.22,1.22,0,0,1-.78-.5c-1.13-.25-1.4-1-1.25-2,.62-4.33,1.24-8.66,2-13,.28-1.56,1.1-3.1.36-4.74a2,2,0,0,1,.4-1.23c.49-.78.18-1.09-.6-1.35a14.61,14.61,0,0,1-8.25-6.9,2,2,0,0,1-.41-1.57c0-.71.13-1.31.93-1.6s.85-1,1.06-1.63a55,55,0,0,1,3.54-8.55,4.73,4.73,0,0,1,2.23-2.21c2.78-1.34,5.55-2.72,8.34-4.05a2.07,2.07,0,0,0,1.27-1.31,1.71,1.71,0,0,1,1-.6c2.6-.75,5.22-1.4,7.86-2A1.71,1.71,0,0,1,278,203.48Z"
        fill="#1fdb92" />
      <path
        d="M291.42,256a86.35,86.35,0,0,1-2.16,16.18c-.55,2.49-1.15,5-1.72,7.44-.05.2-.17.4-.13.58.67,3.34,0,6.74.58,10.13.7,3.94.89,8,1.32,12,.32,3.05.6,6.11,1,9.14a2.87,2.87,0,0,1-.82,2.57c-1.77,1.44-3.6,2.58-6.08,2.07-1.64-.33-3.3-.6-4.94-1a2,2,0,0,0-1.89.36c-3,2.39-6.5,2.63-10.12,2a19.29,19.29,0,0,1-5.38-1.95c-.46-.23-.95-.44-1.15-1a3.24,3.24,0,0,1-.11-2.89c1.47-2.83,1.05-5.66.31-8.58A177.42,177.42,0,0,1,256,282.17c-.39-3,.13-6.12.33-9.18.25-3.73.72-7.44,1.12-11.16.18-1.74.41-3.47.62-5.21a57.07,57.07,0,0,0,9.62,1.73c1.82.18,3.63.46,5.47.46a68.69,68.69,0,0,0,14.92-1.71,6.35,6.35,0,0,0,1.78-.7A1.84,1.84,0,0,1,291.42,256Z"
        fill="#1fdb92" />
      <path
        d="M13.79,225.69a16.7,16.7,0,0,0,3.4,3c1.48,1,3,2,4.37,3.13,2,1.62,4.4,1.8,6.74,2.1a37.05,37.05,0,0,0,17.32-1.57q.87,6.45,1.73,12.89a3.48,3.48,0,0,1,.56,2.12c.15,1.13.33,2.25.52,3.37.86,3.36.44,6.72-.09,10.07-.3,1.92-.67,3.84-1.09,5.75s-.66,3.69-1,5.54c-.38,2.27-.73,4.55-1,6.85a2.63,2.63,0,0,0,.46,1.9c.92,1.37.88,1.67-.14,3.09a38,38,0,0,1-6.77,3.75,10.3,10.3,0,0,1-9.31-.42c-1.09-.62-2.43-.85-3.17-2a33,33,0,0,1,1-6.09c.47-2.34,1-4.66,1.56-7,.6-1.84.91-3.76,1.34-5.65.65-3.23,1.36-6.45,1.71-9.73a1.66,1.66,0,0,0-.67-1.75,1.79,1.79,0,0,1-.64-2,4.44,4.44,0,0,0,.19-2.11,54.72,54.72,0,0,0-2.18-5.53c-.77-1.75-1.31-3.58-1.92-5.38a25.83,25.83,0,0,0-1.37-3.41c-.24.57.09,1,.23,1.41,1,3.09,2.4,6.06,3,9.29-.14,1.29-.58,2.52-.77,3.8a82.83,82.83,0,0,0-.92,8.9c-.23,2.21-.21,4.45-.51,6.65.15,1.84-.32,3.65-.24,5.48-.11,3.38-.53,6.73-.49,10.11a1.39,1.39,0,0,1-1.27,1.48c-.43.09-.86.17-1.29.23-2.8.6-5.56,1.46-8.49,1.26a11.81,11.81,0,0,1-5.06-1.28,4.39,4.39,0,0,1-1-.71c-1.2-1.11-1.23-2.39-.83-3.93,1-4,1.58-8.13,2.4-12.19.77-3.87,1.23-7.8,2-11.67a9.94,9.94,0,0,0,.27-1.72,12.37,12.37,0,0,0,.26-1.35,10,10,0,0,0,.08-2.68c0-1.07,0-2.14,0-3.22a1.94,1.94,0,0,1,.37-1.23,36.86,36.86,0,0,0,.23-5.36c.1-4.37.16-8.75.26-13.13C13.6,226.37,13.46,226,13.79,225.69Z"
        fill="#1fdb92" />
      <path
        d="M159.86,40.51c-1.34-.55-1.14-1.42-.73-2.57a90,90,0,0,1,4.94-11.2,6.12,6.12,0,0,1,4.75-3.7,8.54,8.54,0,0,0,1.37-.4,1.11,1.11,0,0,1,1.11.18,8.78,8.78,0,0,0,5,1.31c1,.35,1.31,1.36,2,2a10.24,10.24,0,0,0,1.35,1.68c.47-.81.85-1.63,1.24-2.43,1-2.11,1.93-4.27,2.93-6.4.3-.65.37-1.36.61-2a4.19,4.19,0,0,0,3-.84,2.82,2.82,0,0,1,3.27,0,2,2,0,0,0,2,.13,8.52,8.52,0,0,1,6.77-.49c2.28.7,4.74.16,7.11.13,1,0,2,0,3-.13s1.46.15,1.3,1.21a1.73,1.73,0,0,0,.1.58c.41,1.28,0,2.53-.19,3.77-.29,2.61-.75,5.2-1.19,7.78a1.75,1.75,0,0,1-1.68,1.57c-2.19.43-4.36,1-6.54,1.48-1.46.33-1.49.41-1.21,1.85.54,2.82,1.23,5.61,1.86,8.42a7.35,7.35,0,0,1,.26,1.4,2,2,0,0,1-.86,1.25c-2.49,2.29-4.78,4.8-7.17,7.2-3.2,3.22-6.64,6.21-9.77,9.51a2,2,0,0,1-.86.62,17,17,0,0,0-2.85-.31,1.66,1.66,0,0,1-1.27-.57,17.53,17.53,0,0,1-2.47-2.76,38.94,38.94,0,0,0-4.84-6.23,3.93,3.93,0,0,1-1-1.5,4.13,4.13,0,0,1,.31-2.45c.14-.33.37-.68,0-1-1-1-1-2.29-1.45-3.48-.11-.34-.12-.71-.41-1a24.38,24.38,0,0,1-8.67-1.91A1.82,1.82,0,0,1,159.86,40.51Z"
        fill="#1fdb92" />
      <path
        d="M240.59,236.12c-.77,3.71-1.08,7.49-1.56,11.24-.69,5.3-1.24,10.61-1.84,15.92-.77,6.85-1.48,13.71-2.31,20.56-.6,5-1.38,9.87-2,14.81q-1.17,9.08-2.26,18.16c-.35,2.95-1.15,3.72-4.09,4.42a6.75,6.75,0,0,1-6.95-2.07,3.38,3.38,0,0,1-.94-2.84c.66-6.42,1.21-12.86,1.89-19.28.73-6.74,1.59-13.46,2.33-20.2s1.33-13.25,2-19.86c.91-8.29,1.62-16.59,2.74-24.85.14-1,.2-2.06.26-3.09a9.94,9.94,0,0,1,1-4.27c.69-1.3,1.26-2.66,1.89-4,.75.71.7,1.73,1,2.62a18.87,18.87,0,0,0,.93,2.44,3.17,3.17,0,0,0,2,1.86,5.44,5.44,0,0,1,3.66,3.78C239,233.11,240,234.51,240.59,236.12Z"
        fill="#595ea3" />
      <path
        d="M183.56,62.22,202,44c.26-.92,1.14-1.3,1.69-2,1-1.24,2.36-2.12,3.41-3.33.16-.19.4-.29.57,0a22.21,22.21,0,0,1-.87,7.07,11.13,11.13,0,0,1-1.23,2.31,3.56,3.56,0,0,0-.24,4,5.31,5.31,0,0,1,.47,3.77l-.24.6A5.74,5.74,0,0,1,204,58.36c-2.93,2.74-5.7,5.66-8.59,8.43-1,1-1.76,2.27-3,3a4.48,4.48,0,0,1-1.32,1l-6,6.1a.42.42,0,0,1-.35-.39c-.19.44,0,1-.5,1.35-4.43,4.2-8.62,8.64-12.88,13a17.77,17.77,0,0,1-4.2,3.33,50.45,50.45,0,0,0-5.52,3.51c-1.77,1.23-2,1.26-3.66.06-1.09-.42-1.5-1.58-2.4-2.21-.83-1.64.35-2.76,1-4,2.84-5.29,7.2-9.29,11.35-13.48.5-.49,1.15-.89,1.31-1.66a11.16,11.16,0,0,1,2.9-3.11,9.93,9.93,0,0,0,2.72-3.22c.42-.5,1.17-.44,1.58-.95a.42.42,0,0,1,.31.13c.39,2,2,3,3.14,4.49.8,1,2,.69,3.11.5.57,0,1.17,0,1.4-.73a1.33,1.33,0,0,1,.21-.26c.55-.62.25-1.28,0-1.9-.49-1.26-1-2.5-1.4-3.81-.11-.38-.26-.81.07-1.12s.67,0,1,.15a3.06,3.06,0,0,0,2.65.08A8.81,8.81,0,0,1,183.56,62.22Z"
        fill="#595ea3" />
      <path
        d="M73.69,198.3c-.55-.39-.14-1.48-1.13-1.56.35-1.55,1.39-2.75,2.17-4.07a150.64,150.64,0,0,0,7.91-15,9.67,9.67,0,0,0,.69-2.28,148.27,148.27,0,0,1,3.74-17.81,20.08,20.08,0,0,1,.75-2.14,3.82,3.82,0,0,1,4.65-2.4,2.61,2.61,0,0,0,1.47.15,4.44,4.44,0,0,0-3.85-1.29c-1.07,0-2.14.15-3.21.27a3.44,3.44,0,0,1-2.31-.41,9.34,9.34,0,0,1-2.76-4.59A6.43,6.43,0,0,1,86,139.7c2.76,0,5.52.08,8.26,0,3-.14,4.79,1.34,5.9,3.93.12.11,0-.07.1.06.73,1.62,2.14,1.55,3.57,1.48,1,0,2,0,3,0,.46,0,1,0,1.3.4a47.5,47.5,0,0,1-6.2.09c-.89,0-1.24.18-1.24,1.18,0,3.74-1.5,5.64-5.19,6.63-.49.13-.51.38-.54.76-.47,5.8-1.38,11.55-2.07,17.32-.21,1.74-.46,3.48-.59,5.23a15,15,0,0,1-2.08,7c-1.49,2.44-2.76,5-4.13,7.53-.57.72-1.14,1.44-1.64,2.21A5.29,5.29,0,0,1,81,195.56a.88.88,0,0,1-1.08-.29c-.25-.41,0-.76.25-1.08a11.47,11.47,0,0,0,1.4-1.63c.16-.28.31-.61,0-.89s-.6-.06-.84.13c-1.17.91-2.45,1.65-3.66,2.5a7,7,0,0,0-2,2.68C74.86,197.58,74.62,198.35,73.69,198.3Z"
        fill="#595ea3" />
      <path
        d="M69,313.33l-10.84.05c-2.37,0-4.75,0-7.12,0-.62,0-.69.34-.75.82q-.56,4.74-1.17,9.46c-.2,1.53-.63,1.9-2.16,1.95-.72,0-1.44,0-2.15,0a3,3,0,0,1-.09-1.88c2.4-18.07,4.68-36.16,7-54.24q1.5-11.44,3-22.91a2,2,0,0,1,.41-1.22l5-.05a11,11,0,0,1,.8,5.52c-1.48.24-1.71,1.3-1.88,2.56-.5,3.68-1,7.36-1.55,11-.26,1.79-.18,1.82,1.58,1.77,1.25,0,2.54-.45,3.77.17a17.1,17.1,0,0,1,.63,5.87,2.36,2.36,0,0,1-1.5.28c-1.23,0-2.47,0-3.71,0-2,0-2,0-2.27,2-.48,3.27-.76,6.57-1.26,9.85-.14.94-.4,1.87-.45,2.83-.06,1.14.11,1.35,1.25,1.36,3,0,6,.08,9-.14a2.18,2.18,0,0,1,1.4.18,10.85,10.85,0,0,1,.75,5.9,1.1,1.1,0,0,1-.77.27c-2.76,0-5.5.19-8.25.2-5.26,0-4.12-.47-4.92,3.94a72.07,72.07,0,0,0-.93,7.48c-.07.79.18,1.13,1,1.12,4.39-.06,8.79.15,13.18-.12a7,7,0,0,1,2.37.11,1.08,1.08,0,0,1,.51.77c.19,1.37.43,2.74.54,4.12A1.19,1.19,0,0,1,69,313.33Z"
        fill="#9f6741" />
      <path
        d="M60.79,178.08c-.9,1.17-1.52,2.52-2.45,3.71a4.7,4.7,0,0,0-.49,3.59c.71,3.75-1.46,5.61-5.22,4.74A14.08,14.08,0,0,1,49,188.69c-.53-.3-1-.47-1.33.32s-.9.41-1.28.1c-2.94-2.49-5.79-5-6.18-9.24a3.5,3.5,0,0,0-.47-1.58,5.73,5.73,0,0,1,2.41-4.83,42,42,0,0,0,8.94-10.61c3.18-5.3,11.31-6.28,15.88-2a6,6,0,0,1,2.23,4.8,12.38,12.38,0,0,1-3.56,5.66c-.52.45-.56,1.47-1.24,1.49s-.55-1.1-1-1.55-.77-.29-1.08.15a2.35,2.35,0,0,0-.2,2.17C62.65,175.32,62,176.76,60.79,178.08Z"
        fill="#172545" />
      <path
        d="M8.77,283.06l.76.54c.34,1-.24,2-.23,3a9.2,9.2,0,0,0,.3,2.72c.22.89.94,1.14,1.72,1.24a13.39,13.39,0,0,0,5.35-.1,14,14,0,0,1,5.7-.36,20.13,20.13,0,0,0,4.18,0,2.67,2.67,0,0,1,1.49.32,9.27,9.27,0,0,0,7.05,1c2.51-.72,5-.32,7.49,0,.83.1,1.66.18,2.5.2,1.42,0,1.67.37,1.41,1.79a1.56,1.56,0,0,1-.62,1.12,2.62,2.62,0,0,1-1.17.19q-15.44,0-30.87,0c-.48,0-1,0-1.44,0a1,1,0,0,0-1.08.89c-.66,3.54-1.1,7.1-1.47,10.68-.08.8.26,1,1,1,7-.23,14-.13,21.06,0,3.5.06,7-.11,10.53-.14a3.29,3.29,0,0,1,1.75.25.69.69,0,0,1,.27.63,33.35,33.35,0,0,1-.54,4.35,1,1,0,0,1-.43.69c-3.54.32-7.09.22-10.63.21-7.61,0-15.22,0-22.82-.1-1.43,0-1.67.36-1.76,1.61-.19,2.42-.6,4.81-.88,7.22-.41,3.5-.65,3.71-4.19,3.47A2.21,2.21,0,0,1,3,323.7q2.49-19.2,5-38.41C8.11,284.53,7.85,283.57,8.77,283.06Z"
        fill="#9f6741" />
      <path
        d="M72.81,208.31a2.31,2.31,0,0,1,1.07-.7,1.7,1.7,0,0,0,1.3-2.16A10.14,10.14,0,0,1,79.31,204c-5.63,10.58-10.41,21.56-15.68,32.31a3.63,3.63,0,0,1-3.13,2.41,1.26,1.26,0,0,0-1.16.83c-.49,1-1,1.89-1.49,2.86a3.3,3.3,0,0,1-3.26,2,7.8,7.8,0,0,1-5.05-1.84,1.77,1.77,0,0,1-.17-1.49,11.67,11.67,0,0,1,1.1-3.4c.57-1.09,1-1.27,2.12-.8s2.26,1,3.4,1.49a8,8,0,0,0,1.67.55,2.82,2.82,0,0,0-1.58-1.32A11.74,11.74,0,0,1,52,235.36c-1.57-1.18-1.79-2.32-.69-4q1.41-2.16,2.74-4.35c.82-1.33,1.62-2.67,2.3-4.06a23,23,0,0,1,7.71-8.82q3.81-2.69,7.76-5.18A8.54,8.54,0,0,0,72.81,208.31Z"
        fill="#595ea3" />
      <path
        d="M181.13,260.83c.11-2.39,1.63-4.1,2.87-5.94,2.69-4,6.55-6.44,10.91-8.22a8.71,8.71,0,0,1,1-.34c.87-.23,1.37.27,1.17,1.18a3.1,3.1,0,0,1-1.68,1.93,46.53,46.53,0,0,0-5.28,3.46,4.68,4.68,0,0,0-1.85,5.22c.85,3.83,2.77,7.19,4.25,10.75a125.19,125.19,0,0,1,6.53,19.84,79.62,79.62,0,0,1,2,20,19.11,19.11,0,0,0,3.05,11.61,6.89,6.89,0,0,1,.63,1.41c.21.54-.08.73-.58.72-2.55-.67-3.76-2.44-4.22-4.94-1.57-8.57-3.13-17.16-5.18-25.63-2.16-8.95-5.06-17.68-9.77-25.67C183.9,264.34,182.44,262.63,181.13,260.83Z"
        fill="#595ea3" />
      <path
        d="M205.84,55.88c-.44-1.18,0-2.53-.7-3.66a3.55,3.55,0,0,1,.52-3.6A15.82,15.82,0,0,0,209,40.11c.16-1.26.4-2.51.49-3.78a43.31,43.31,0,0,1,1.28-6c.29-.88.12-1.2-.83-1-.27.05-.65.16-.78-.29q.84-5.78,1.67-11.54c2.57.19,5.15.32,7.71.58,3.1.31,3.51.77,3.8,3.84,0,.44.06.87.09,1.31a2.74,2.74,0,0,1,.17,2.08,45.89,45.89,0,0,1-3.53,11.16,54.38,54.38,0,0,0-3.3,8.73,3.85,3.85,0,0,1-.57,1.17c0,1.74,0,3.47,0,5.2A2.53,2.53,0,0,1,214,53.89a.35.35,0,0,1-.13-.3c-.13,0-.09.14-.11.22a2.89,2.89,0,0,1-.26.63c-1.2,1.35-2.35,1.64-3.85.94a17.21,17.21,0,0,0,.4-2.67,13.94,13.94,0,0,1-.42,2.65c-.82.57-1.39-.7-2-.35S206.71,56.14,205.84,55.88Z"
        fill="#9f6741" />
      <path
        d="M184.54,73.58c.14,1.23-.74.9-1.4.91-.42-.13-.95-.07-1.12-.64a13.05,13.05,0,0,1-2.08-4.45,15.57,15.57,0,0,0,2,4.52c-.58.63-1.16.38-1.68,0a3.83,3.83,0,0,1-1.38-2.57,9.71,9.71,0,0,0-.42-1.29c-.07-.3-.23-.58-.23-.72a6.18,6.18,0,0,0,.26.86,5.37,5.37,0,0,1,.34,1.12c-.61.58-.92,0-1.25-.36a7.09,7.09,0,0,1-.91-1.8c-.49-2.47-2.44-3.4-4.47-4.3-.7-.31-1.53-.49-1.95-1.26A59.5,59.5,0,0,1,158.8,52.49c-1.29-1.54-2-3.05-1.21-5.1.59-1.63,1-3.33,1.68-5a5.64,5.64,0,0,0,.59-1.92,41.67,41.67,0,0,0,8,2.24c.69.09,1.33-.21,2,0a19.66,19.66,0,0,1-1.45,4.87c-.31.88-.2,1.37.63,1.84s1.76.76,2.25,1.66a56.37,56.37,0,0,1,6.27,8,17.05,17.05,0,0,0,2.31,2.42,1.3,1.3,0,0,0,1.12.26,5.37,5.37,0,0,1,2.57.43,4,4,0,0,1,1.08,1.4,4.35,4.35,0,0,0,2.1,2.49c.24.14.56.28.52.6s-.42.46-.72.54c-1.13.31-2.09-.25-3.15-.78a15.26,15.26,0,0,0,1.3,4.22,14.64,14.64,0,0,1,.55,1.7c.1.43.1.9-.45,1.1-1.07-1-1.33-2.49-2-3.74a4.46,4.46,0,0,1-.14-.71c0,.25.1.45.09.67C183.29,71,184,72.28,184.54,73.58Z"
        fill="#9f6741" />
      <path
        d="M114.82,321.23c-.08-.58.26-.87.71-1.12a11.35,11.35,0,0,1,2.79-1.05c3.15-.82,5.21-2.6,5.64-6,.35-2.68,1.16-5.28,1.21-8a82.86,82.86,0,0,0-.56-10.21c-.54-5.07-1.13-10.15-.51-15.25.3-2.56.9-5.08,1.38-7.62.78-4.07,2.72-7.82,3.43-11.92a15.69,15.69,0,0,0,.07-4.64,1.09,1.09,0,0,0-.49-.76,15.91,15.91,0,0,0-4.71-3c-1.24-.42-1.43-.73-1.66-1.83a14.26,14.26,0,0,1,7,2.4,23.61,23.61,0,0,1,7.29,7.43,4.67,4.67,0,0,1,.69,4.29,41.73,41.73,0,0,0-7.32,17.2c-1.08,5.8-1.79,11.64-2.36,17.52a98,98,0,0,1-2.21,14.64c-.22.85-.45,1.7-.75,2.52C122.83,320.34,119.49,322.19,114.82,321.23Z"
        fill="#595ea3" />
      <path
        d="M63.49,245.07c.84,0,1.68,0,2.51,0s1.16.34,1.22,1.08c.45,5.53,1.5,11,2.22,16.46,1,7.27,2,14.52,2.77,21.82.57,5.82,1.82,11.55,2.43,17.37s1.7,11.26,2.27,16.93c.19,1.9.56,3.78.86,5.67.13.79.07,1.3-1,1.18-1.22-.13-2.46-.13-3.69-.19-.44-.33-.4-.84-.46-1.31-.77-5.86-1.4-11.74-2.13-17.6-1-8.37-2-16.73-3-25.1-1.17-9.8-2.36-19.59-3.49-29.39-.19-1.62-.4-3.25-.59-4.87A3.71,3.71,0,0,1,63.49,245.07Z"
        fill="#9f6741" />
      <path
        d="M215.24,46.4c.6-3.45,2.1-6.58,3.46-9.77a44.73,44.73,0,0,0,3.59-11.23c.09-.71.12-1.43.18-2.14a4.49,4.49,0,0,0,1.65-1.34l9.34-9.28c2-2,3.4-2,5.39,0,.92.94,1.86,1.86,2.79,2.79A3,3,0,0,1,241.7,20q-5.12,5.15-10.25,10.26L216.21,45.53C215.9,45.84,215.56,46.11,215.24,46.4Z"
        fill="#595ea3" />
      <path
        d="M264.84,189.61a3.41,3.41,0,0,1,1.43-4.42,20.22,20.22,0,0,1,7.66-2,21,21,0,0,1,5.13.13c.49.1.57-.19.74-.55a11.7,11.7,0,0,1,1.2-2.05,3.33,3.33,0,0,1,5.34-.21c.37.42.68.84,1.34.79a.84.84,0,0,1,.71.37c.4,1.31,1.94,2.18,1.52,3.79-.08.31.08.43.19.62a1.91,1.91,0,0,1-.56,2.8c-.61.49-1.34.79-1.63,1.65a1.27,1.27,0,0,1-1.16.75,20.59,20.59,0,0,0-3.24.49c-.72.1-.86.35-.87.92a18.68,18.68,0,0,1-1.06,5.12,7,7,0,0,1-3.76,4.55,1.7,1.7,0,0,1-1.95-.51,3.48,3.48,0,0,1-.24-4.35,4.14,4.14,0,0,0,1.11-2.2,1.22,1.22,0,0,0-.45-1.29,1.35,1.35,0,0,0-1.47,0,4.08,4.08,0,0,0-1.49,1.84c-.16.31-.3.74-.72.71a.83.83,0,0,1-.68-.88c0-1.93-1.26-3.23-2.25-4.66a16.23,16.23,0,0,1-1.18-2.22c-.57-1.18-1.08-1.25-2.14-.5C265.81,188.7,265.56,189.44,264.84,189.61Z"
        fill="#172545" />
      <path
        d="M43.51,313.13l.7-5.61a3.88,3.88,0,0,1,0-2.45c.41-3.38.92-6.75,1.46-10.11a1,1,0,0,1,.26-.53,3.59,3.59,0,0,0,.08-.35c.49-2,.49-2-1.58-2.1a32.07,32.07,0,0,1-4-.46c-2.18-.37-4.25.19-6.37.5a8.72,8.72,0,0,1-6.25-1.35,1,1,0,0,0-.76-.23,21.48,21.48,0,0,1-5.83-.06c-2.2-.32-4.24.6-6.38.78a15.41,15.41,0,0,1-4.49-.39c-.69-.14-.87-.75-1-1.35a.62.62,0,0,1,.45-.11c2.57.75,5.06-.06,7.57-.36a32.35,32.35,0,0,1,7.16,0c1.72.17,1.8.17,2.37-1.48.12-.33.18-.79.63-.76s.43.57.46.95c.11,1.54.49,2,2,2.45a10.81,10.81,0,0,0,5.21.05,20.12,20.12,0,0,1,8.77.17,7.5,7.5,0,0,0,1,.14,1.2,1.2,0,0,0,1.52-1.21,47.86,47.86,0,0,1,.68-4.74c.54-4.12,1.15-8.24,1.68-12.37.16-1.88.45-3.73.78-5.59.7-5.23,1.38-10.47,1.91-15.73.19-1.25.32-2.5.44-3.75a2.75,2.75,0,0,1,.56-1.77l2.71,0a71,71,0,0,1-.89,7.81c-.55,4.7-1.2,9.39-1.81,14.09-.58,4.54-1.15,9.08-1.75,13.62s-1.22,9.14-1.82,13.72c-.67,5.21-1.31,10.43-2,15.64q-.93,7.33-1.9,14.68c0,.23-.12.46-.17.69-3.19.1-3.09.12-2.55-3S43.1,316.26,43.51,313.13Z"
        fill="#172545" />
      <path
        d="M250.41,225.26a14.21,14.21,0,0,0,9.33,8.38c.7.21.84.43.49,1s-.64,1.09-1,1.64c-.15,0-.36,0-.44.05-3.16,3.09-8.06,3-11.78-1-1.48-1.56-3.13-2.95-4.71-4.41a2.28,2.28,0,0,0-1-.66,28.33,28.33,0,0,1-3.77-3.06,8.21,8.21,0,0,0-2.47-1.37,5.82,5.82,0,0,1-4.08-5.66,5.6,5.6,0,0,1,.21-3.36c.51.4.1,1.07.44,1.4a5.77,5.77,0,0,1-.11-2.29,4.67,4.67,0,0,1,.87-2.66c.63,1,.32,2.22.72,3.13a15.48,15.48,0,0,1-.44-3.69c.15-.59.24-1.23,1-1.37s.87.59,1,1.11c.24.84.36,1.71.55,2.56a2.44,2.44,0,0,0,2.33,2.16c.58.09.72-.17.65-.66a5.52,5.52,0,0,1,0-2.36c.26-.93.84-1.14,1.59-.64.64,2.15,2,4.18,1.44,6.53-.46,1.88.44,2.67,1.9,3.44A10.67,10.67,0,0,0,249,225.1,7.62,7.62,0,0,1,250.41,225.26Z"
        fill="#9f6741" />
      <path
        d="M167.09,18.33c-.85.81-1.51.66-2.1-.33a15.75,15.75,0,0,1-1.21-2.54l-.9,1.29A2.73,2.73,0,0,1,162,15.4c-.29-.7-.27-1.46-1-2.09s-.07-1.59.09-2.39a4.56,4.56,0,0,1,.61-1.28,1,1,0,0,0-.16-1.4c-1.23-1.27-1.1-1.82.54-2.45a35.94,35.94,0,0,0,6.47-3.25c.34-.22,1.13-.32.65-1.1-.1-.16,0-.3.24-.29,1.36.05,2.53-.66,3.78-1a4.34,4.34,0,0,1,3.82.81,1.17,1.17,0,0,0,1.75-.1c.89-.82,1.41-.67,2.13.34a8.73,8.73,0,0,1,.9,1.81,4,4,0,0,0,2.49,2.7c.76.24.89.87.45,1.53A17.45,17.45,0,0,1,183.41,9c-.52.59-.31,1,.31,1.12s.73.54.55,1.07c-.12.34-.33.7.08,1,1.28.83.83,1.88.42,2.94-.22.54-.7,1-.73,1.6a5.64,5.64,0,0,1-3.15-3.83c0-.24,0-.48,0-.72,0-.87-.29-1.66-1.27-1.75s-1.33.7-1.58,1.5a2.66,2.66,0,0,0,0,1.19c.07.35.14.76-.22,1s-.78,0-1.08-.27a14.48,14.48,0,0,1-3.06-2.88c-.23,1.12-.93,1-1.68.84a8.63,8.63,0,0,1-3.53-1.69c-.54-.43-.83-.34-1,.35a22.65,22.65,0,0,1-.55,2.82c-.24.73-.64.93-1.25.25.1.69.54.49.92.43s.65.22.84.54a.55.55,0,0,1-.18.83c-1,.61-.54,1.33-.17,2a2.08,2.08,0,0,1,.12.32A.74.74,0,0,1,167.09,18.33Z"
        fill="#172545" />
      <path
        d="M63.49,245.07c.31,2.41.63,4.81.93,7.22q.92,7.53,1.81,15.06.78,6.47,1.54,12.93t1.55,13.05c.51,4.3,1,8.61,1.56,12.92q.95,7.71,1.86,15.42c.15,1.22.25,2.45.37,3.68-1.9.11-2,.07-2.48-1.67-.58-2.26-.53-4.62-.93-6.91a21,21,0,0,0-.71-3.44,41,41,0,0,0-.74-5.74,15.44,15.44,0,0,1-.84-4.19c-.39-2.56-.79-5.13-1-7.71a2.4,2.4,0,0,1,.11-1.3l-.74-5.74a2.05,2.05,0,0,1-.46-1.08c-.73-4.85-1.63-9.68-2.07-14.56a1.52,1.52,0,0,1,.09-.94,47,47,0,0,1-.68-5.66,26.5,26.5,0,0,1-.74-5.08c-.43-3.08-.77-6.18-1.31-9.25a1.61,1.61,0,0,1,.09-1.27c-.21-1.85-.43-3.71-.65-5.56A16.87,16.87,0,0,1,63.49,245.07Z"
        fill="#172545" />
      <path
        d="M8.77,283.06a64.38,64.38,0,0,0-.93,6.48c-.63,4.57-1.2,9.15-1.79,13.73s-1.21,9.23-1.8,13.85c-.36,2.8-.68,5.61-1,8.42l-1,0c-2.48,0-2.47,0-2.08-2.42,1-6.4,1.87-12.82,2.61-19.27.49-4.34,1.29-8.64,1.75-13,.72-6.76,2-13.45,2.86-20.2.87-6.58,1.5-13.18,2.5-19.75.25-1.65.39-3.32.51-5,.05-.72.12-1.13,1-.86a7.09,7.09,0,0,0,1.67.09c0,1.53,0,3.06,0,4.59a20,20,0,0,1-.31,2.67,4.07,4.07,0,0,1-.09,1c-.4.6.05,1.34-.29,1.95-.68,5-1.53,9.92-2.49,14.84a85.75,85.75,0,0,1-2.06,9.93C7.4,281.45,8.29,282.15,8.77,283.06Z"
        fill="#172545" />
      <path
        d="M260,314.55a19.09,19.09,0,0,0,10.32,2.93,10.2,10.2,0,0,0,6.35-2.43,1.41,1.41,0,0,1,1.38-.35c2.06.47,4.14.83,6.21,1.21a4.87,4.87,0,0,0,3.5-.94,6.38,6.38,0,0,1,1.8-.92l.45,4.35a4.35,4.35,0,0,1-3.53,2.7,13.13,13.13,0,0,1-7.85-.81,2.22,2.22,0,0,1-1.45-1.7,9.85,9.85,0,0,1-.4,2.71c-.26.88-1,1.14-1.84,1.33a24.25,24.25,0,0,1-7.26.33,65.64,65.64,0,0,0-7.28-.4,31,31,0,0,1-4.52-.33,8.3,8.3,0,0,1-4-1.58,12.58,12.58,0,0,0-1.72-1.28c-.42-1.74.12-2.67,1.79-3.07C254.62,315.67,257.35,315.33,260,314.55Z"
        fill="#595ea3" />
      <path
        d="M84.57,151.72a28,28,0,0,0,5.34-.19,5.21,5.21,0,0,1,3.87.91c.34.27.77.64.56,1.09s-.7.08-1,0a6.14,6.14,0,0,0-2.7-.22,3.07,3.07,0,0,0-2.42,2.06,73.75,73.75,0,0,0-3.13,12.13c-.56,2.89-.91,5.82-1.54,8.69a22.91,22.91,0,0,1-2.19,5c-2.38,4.92-5.14,9.64-7.94,14.34-.24.4-.54.78-.82,1.16a23.5,23.5,0,0,1-4.77,1.47,6.16,6.16,0,0,1,1.11-2.6c2.24-4.32,4.57-8.59,6.8-12.92a15.16,15.16,0,0,1,1.9-3.16c1.92-2.48,2.3-5.49,2.87-8.43.3-1.59.62-3.17.94-4.76a1.28,1.28,0,0,1,.29-1.42q1.08-4.86,2.14-9.71C84.09,154.05,84.33,152.88,84.57,151.72Z"
        fill="#172545" />
      <path
        d="M99.49,113.9a43.45,43.45,0,0,0-4.65-10.61,7.58,7.58,0,0,0-3.25-2.35c-.57-.28-1.16-.51-1.74-.78s-.62-.62,0-1,1.29-.78,2-1.14c2.31-1.25,3.54-3.41,4.84-5.56a22.32,22.32,0,0,0,2.56-7.45c2.11,6,3.56,12.37,11.1,14.12a4.42,4.42,0,0,1-2.33,1.16c-2.43.52-3.82,2.27-5.09,4.15a20.3,20.3,0,0,0-2.3,6.07C100.27,111.68,99.86,112.79,99.49,113.9Z"
        fill="#1fdb92" />
      <path
        d="M167,17.68l-.51-.79c-.48-.71-.53-1.3.4-1.68.23-.09.59-.21.3-.59s-.29-.56-.72-.51c-1.13.13-1.13.11-1.19-1.46l1,1.19c.86-1.5.46-3.27,1.3-4.76a10.06,10.06,0,0,0,4.26,2.4c1,.25,1.68.28,1.31-1.37a18.64,18.64,0,0,0,4.57,4c0-1.08-.35-2,.13-2.85s.89-1.41,1.83-1.23a1.56,1.56,0,0,1,1.4,1.69c-.31,2.46,1.5,3.57,2.9,5l.32.26a1,1,0,0,1,.12,1c-1.52,3.5-3.08,7-4.88,10.52L178,26.27a1.26,1.26,0,0,1,.32-1.11,6.27,6.27,0,0,0,1.32-4.75,5.15,5.15,0,0,1-3.29,3.86,6.5,6.5,0,0,1-4.8-1c-.45-.25-.93-.45-1.39-.67a11.16,11.16,0,0,1-3.1-4.31l-.06-.67a.53.53,0,0,1,.33-.06c.19,0,.39,0,.43-.25a.23.23,0,0,0-.16-.27c-.25-.06-.29.16-.38.32A1.14,1.14,0,0,1,167,17.68Z"
        fill="#9f6741" />
      <path
        d="M264.84,189.61a6,6,0,0,1,1.6-1.74c1-.72,1.75-.61,2.24.56a17.7,17.7,0,0,0,2.89,4.64,2.87,2.87,0,0,1,.48,1.69,3,3,0,0,0,.5,1.69,3.75,3.75,0,0,0,.84-1.35,3.43,3.43,0,0,1,1.29-1.38,1.73,1.73,0,0,1,1.82-.09c.66.4.64,1.06.56,1.7a4.17,4.17,0,0,1-1.15,2.31,2.77,2.77,0,0,0,1.34,4.54l.57.15c.06.38.12.77.19,1.15a87.41,87.41,0,0,0-10.23,2.43c-.13-.42-.28-.83-.37-1.26a1,1,0,0,0-1.13-.92c-2.07-.1-3-1.08-3.12-3.15a5.28,5.28,0,0,1,0-1.19,2.17,2.17,0,0,0-.7-2c-.93-.93-.85-1.31.19-2.09a2.92,2.92,0,0,1,.28-.21c1.47-.82,2.37-1.85,1.76-3.7A4.54,4.54,0,0,1,264.84,189.61Z"
        fill="#9f6741" />
      <path
        d="M233.74,185a21,21,0,0,1-8.05-6.78,13.63,13.63,0,0,1-2.85-9.38c.45-4.49,3.78-7.54,8.12-8.29l1.29-.22a18.77,18.77,0,0,1,13.56,6.14,15.59,15.59,0,0,1,4.38,9.84,9.28,9.28,0,0,1-2.38,6.68,8.5,8.5,0,0,1-5.39,3.22c-.41.07-.79.11-1,.51-1.23.05-2.51.41-3.61-.5A24,24,0,0,1,233.74,185Z"
        fill="#595ea3" />
      <path
        d="M239.89,213.58c-.94-.42-1.26.19-1.38.91a5.76,5.76,0,0,0,.13,2.14c.23,1.06,0,1.19-1,1a3.19,3.19,0,0,1-2.81-3.16c-.1-1,0-2.29-1.08-3,1.22-7,2.13-14.1,3.52-21.1.93-.42,1.89-.79,2.82-1.22.34-.15.68-.46,1.09-.16C240.69,197.14,240.6,205.38,239.89,213.58Z"
        fill="#595ea3" />
      <path
        d="M155.56,95.6c.58-.27.71.25,1,.55.48.55,1,1.1,1.43,1.66a1.85,1.85,0,0,1-.66,1.1c-4.45,4.06-8.7,8.33-13.26,12.28-1.86,1.61-4,1.7-6.3,1.37-1.1-.16-2.2-.34-3.3-.53a2.23,2.23,0,0,0-2.54,1.15,15.88,15.88,0,0,0-1.88,6.1,4.08,4.08,0,0,0,1.48,3.27,8.24,8.24,0,0,1,.62.56c.33.38.9.77.46,1.31s-.93.23-1.42,0a6,6,0,0,1-3.23-7.35c.37-1.29.7-2.6,1.12-3.88,1.14-3.43,3.2-4.58,6.7-3.8,1.08.24,2.19.4,3.27.63a4,4,0,0,0,3.88-1.34C147.14,104.33,151.34,100,155.56,95.6Z"
        fill="#172545" />
      <path
        d="M72.07,209c-1.94,1.33-3.83,2.73-5.83,4A26.53,26.53,0,0,0,56,224.23a62.22,62.22,0,0,1-4.44,7.38c-1,1.49-.83,2.37.58,3.44a12.26,12.26,0,0,0,4.27,2.33c.85.22,1.3,1.09,2,1.72a2,2,0,0,1-1.72-.09c-1.46-.65-2.94-1.25-4.38-1.93-.76-.36-1.15-.15-1.5.57a11.78,11.78,0,0,0-1.27,4.93,4,4,0,0,1-1.67-5.16,8.61,8.61,0,0,1,.76-1.48,2.84,2.84,0,0,0,.16-3.65,4.86,4.86,0,0,1,.57-3.1,2.5,2.5,0,0,1,.54-1.3C52.31,224,54.56,219.94,57,216a3.3,3.3,0,0,1,1.19-1.45,1.71,1.71,0,0,1,.93-.62,60.05,60.05,0,0,0,12-4.94c.21-.1.43-.17.65-.26S72.12,208.79,72.07,209Z"
        fill="#172545" />
      <path
        d="M73.69,198.3a3.7,3.7,0,0,0,1.43-1.85,6,6,0,0,1,2.27-2.7,30.32,30.32,0,0,0,3.33-2.3c.33-.27.74-.6,1.18-.24s.29.86.09,1.31c-.35.8-1.12,1.23-1.63,1.88-.17.22-.43.43-.28.73s.56.28.85.19a5.52,5.52,0,0,0,3.41-2.21c.43-.69.69-1.64,1.7-1.83l.36,1.43a9.76,9.76,0,0,1-2.74,3.94,11,11,0,0,0,2.22-2.73c.14-.21.17-.56.57-.49.2.62.57,1.2.34,1.9-.71.66-.76,1.8-1.71,2.29.3-.13.4-.64.87-.38a17.43,17.43,0,0,1-2.29,3.64,22.59,22.59,0,0,1-4.09,2.83,14,14,0,0,1-2.69.78,2.11,2.11,0,0,1-1.68-.22A29.86,29.86,0,0,1,73.69,198.3Z"
        fill="#9f6741" />
      <path
        d="M195.18,132.79c.78.08,1.58.14,2.36.26a16.19,16.19,0,0,0,9.47-1.67,5.83,5.83,0,0,0,.59,1.87c.23,1.28.81,2.5.67,3.85-3.13,3.65-8.31,5.57-12.27,2.22a4.14,4.14,0,0,1-1.08-1.24C194.58,136.3,195.29,134.56,195.18,132.79Z"
        fill="#595ea3" />
      <path
        d="M192.23,69.71c3.52-3.55,7-7.13,10.58-10.65a18.44,18.44,0,0,1,2.79-2.58c.53,2.77.85,5.57,1.42,8.33.22,1-.86,1.62-1.31,2.43A30.76,30.76,0,0,1,193.34,70,1.33,1.33,0,0,1,192.23,69.71Z"
        fill="#1fdb92" />
      <path
        d="M290.1,241.26q-1.25-2.31-2.5-4.61a.88.88,0,0,1-.06-.89,12.17,12.17,0,0,0,.84-3.82,1.31,1.31,0,0,1,.84-1.29c2.84-1.05,5.11-3.06,7.68-4.56a21.58,21.58,0,0,1,.8,4.21c0,2-1,3.45-2.28,4.84C293.62,237.16,292,239.36,290.1,241.26Z"
        fill="#9f6741" />
      <path
        d="M86.43,106.39c1.31,3.61,2.34,7.26,6.7,8.41-5,1-5.42,5.3-6.69,9.18-.37-1-.68-1.85-.92-2.68a24.41,24.41,0,0,0-1.06-2.39,6,6,0,0,0-3.59-3.43c-.42-.16-1.13-.41-.23-.88,3.11-1.62,4.57-4.38,5.4-7.61C86.07,106.85,86.2,106.74,86.43,106.39Z"
        fill="#1fdb93" />
      <path
        d="M60.79,178.08a11,11,0,0,1,.6-1.3,3.5,3.5,0,0,0,.35-3.41,2.23,2.23,0,0,1,.31-2.26c.61-.89,1.17-.9,1.69,0a10.26,10.26,0,0,1,.54,1.43,32.67,32.67,0,0,0,4.92-7,2.43,2.43,0,0,1-.12,1.28c-.69,2.54-.68,2.56,1.61,3.54.13.33.35.74.07,1-1,1-1,2.29-1.39,3.48a10.17,10.17,0,0,1-1.62,2.91,1.67,1.67,0,0,1-1.29.74A15.27,15.27,0,0,1,60.79,178.08Z"
        fill="#9f6741" />
      <path
        d="M250.17,319.37c.34-.33.62,0,.81.17a10.16,10.16,0,0,0,7.49,2.59c4.32-.08,8.58.64,12.89.57a21.12,21.12,0,0,0,3.9-.49,1.59,1.59,0,0,0,1.36-1.59,20.25,20.25,0,0,1,.5-3.11c.07,2.61,2.15,2.72,3.82,3.19a12.29,12.29,0,0,0,5.69,0A5.81,5.81,0,0,0,290,318.4a4.2,4.2,0,0,1-4,3.78,13.84,13.84,0,0,1-8-1.11c-.25-.13-.76-.6-.81.05-.2,2.62-2.22,2.55-4,2.76-3.32.38-6.6-.23-9.89-.54a28.24,28.24,0,0,0-5.59-.19C254.57,323.46,251.25,321.8,250.17,319.37Z"
        fill="#172545" />
      <path
        d="M291.42,256c-3.29,1.82-6.94,2.11-10.57,2.6a52.14,52.14,0,0,1-11.44.3c-1.59-.13-3.2-.33-4.79-.57-2-.3-4-.77-6-1.12a.65.65,0,0,1-.58-.63l.09-.55c3.22.39,6.32,1.45,9.63,1.5,1.87,0,3.74.58,5.66.55,3.9-.05,7.77-.54,11.63-.93a19.68,19.68,0,0,0,6.4-2.15Z"
        fill="#172645" />
      <path
        d="M231,220.25c.58,3,2.28,4.78,5.25,5.85,2,.73,3.57,2.58,5.07,4.24a48.91,48.91,0,0,0-.77,5.78c-.86-.29-.8-1.21-1.17-1.81a23,23,0,0,1-1.5-3.26,4.28,4.28,0,0,0-2.93-2.92c-2.25-.52-2.79-2.42-3.4-4.23-.34-1-.53-2.08-.78-3.12C230.84,220.58,230.81,220.36,231,220.25Z"
        fill="#172545" />
      <path
        d="M170.27,63.55c1.42.71,2.8,1.5,4.26,2.12a2.86,2.86,0,0,1,2,2.39,5,5,0,0,0,.29.9c0,.15,0,.29-.24.28a.32.32,0,0,0-.14,0c-1.33.51-2.63,0-3.93-.15a5.44,5.44,0,0,0-2.44-.07C169.19,67.18,170.08,65.38,170.27,63.55Z"
        fill="#1fdb92" />
      <path d="M52.41,245.27c-.23,1.84-.46,3.67-.7,5.51a3.84,3.84,0,0,1-3.55,0,35,35,0,0,1-.81-5.59Z" fill="#9f6741" />
      <path
        d="M175.05,70.1c.61.25.12.47,0,.66-1.74,2.08-3.85,3.77-5.76,5.67l.72-7a1.25,1.25,0,0,1,.79-.26A15.38,15.38,0,0,1,175.05,70.1Z"
        fill="#1fdb92" />
      <path
        d="M192.23,69.71A29.89,29.89,0,0,0,201,68.55a24.62,24.62,0,0,0,3.63-1.14c.31-.15.67-.51,1.09-.17,0,.34,0,.67-.05,1a55.54,55.54,0,0,1-7.06,2,33.42,33.42,0,0,1-7.53.63A3,3,0,0,1,192.23,69.71Z"
        fill="#172746" />
      <path
        d="M241.17,188.93c-1,.45-2.06.92-3.1,1.36-.25.1-.53.41-.81,0-.11-1.39.61-2.67.54-4.06,1.17.43,2.47-.1,3.61.5C241.28,187.47,241.55,188.23,241.17,188.93Z"
        fill="#182545" />
      <path
        d="M175.05,70.1c-1.73.08-3.35-.67-5.08-.67,0-.12.06-.25.08-.37.07-.75.65-.63,1.07-.53a35,35,0,0,0,5.3.74C176.29,70.09,175.62,70,175.05,70.1Z"
        fill="#192b48" />
      <path
        d="M75.2,204.27c1.5.16,2.88-.57,4.37-.56l-.26.31a16.31,16.31,0,0,1-4.13,1.43C75.05,205.05,74.81,204.66,75.2,204.27Z"
        fill="#1f2a49" />
      <path d="M232.73,212.78c.27,1.51.55,3,.82,4.52-1-1.17-.84-2.62-1.1-4C232.49,213.12,232.5,212.9,232.73,212.78Z"
        fill="#2c2f45" />
      <path d="M231.58,216l.49,3.45c-.77-.74-.64-1.69-.82-2.56A1.26,1.26,0,0,1,231.58,216Z" fill="#323346" />
      <path d="M81.7,164.92a3.15,3.15,0,0,1-.29,1.42c-.16-.46-.9-.37-.93-1C80.88,165.23,81.23,164.91,81.7,164.92Z"
        fill="#f9f8e5" />
      <path
        d="M213.54,54.44a7.23,7.23,0,0,1,.15-.81c0-.12.07-.38.24-.28s.08.35.11.54C213.89,54.09,213.84,54.37,213.54,54.44Z"
        fill="#383b4e" />
      <path
        d="M169.63,147.66a23.86,23.86,0,0,1-7.59-.72c-2.22-.58-4.35-1.5-6.53-2.26-4.29-1.48-8.56-3.17-13.17-3.17a31.25,31.25,0,0,0-12,2.41,21.15,21.15,0,0,1-8.8,2,19.94,19.94,0,0,1-10.6-3.92c-.42-.29-.83-.69-.56-1.31a1.29,1.29,0,0,1,1.4-.72,3.06,3.06,0,0,1,1,.26,23.94,23.94,0,0,0,19.49,1,25.35,25.35,0,0,1,16.07-.6,94.77,94.77,0,0,0,11.17,2.61,68.14,68.14,0,0,0,24.12-.78,16.84,16.84,0,0,0,4.62-1.58c.68-.36,1.33-.54,1.72.29a1.23,1.23,0,0,1-.77,1.75c-.95.43-1.93.75-2.91,1.1a59,59,0,0,1-9.8,3A26.17,26.17,0,0,1,169.63,147.66Z"
        fill="#595ea3" />
      <path
        d="M167.77,129.42a5.31,5.31,0,0,0,2.84.73c2.23,0,4.46,0,6.68,0a11.49,11.49,0,0,0,4.86-1,9.85,9.85,0,0,1,.45,5.78,2.91,2.91,0,0,1-2,1.19,12.86,12.86,0,0,1-4.28.33,17.49,17.49,0,0,0-6.57,1,16.66,16.66,0,0,1-11.7-.23,4,4,0,0,1-1.82-1.09c-.14-1.37.94-1.73,1.87-2.09,2-.78,4-1.4,5.88-2.35A18.32,18.32,0,0,0,167.77,129.42Z"
        fill="#595ea3" />
      <path
        d="M156.24,136.13a21.18,21.18,0,0,0,7.33,1.9,16,16,0,0,0,6-.89,18.86,18.86,0,0,1,7.63-1A9.52,9.52,0,0,0,182.6,135a3.25,3.25,0,0,1-3.87,3c-4-.34-7.76,1-11.61,1.6a16,16,0,0,1-8.7-.6A3,3,0,0,1,156.24,136.13Z"
        fill="#172545" />
      <path
        d="M194.92,138.08c.66.5,1.31,1,2,1.5a6.66,6.66,0,0,0,6.79.53,25.52,25.52,0,0,0,4.56-3,1.6,1.6,0,0,1-.35,1.34c-1.67,2.26-5.39,4.75-9.08,3.66A5.07,5.07,0,0,1,194.92,138.08Z"
        fill="#182646" />
      <path
        d="M108.08,145.53c-2,0-4-.15-6-.05-1.12.06-1.6-.3-1.74-1.34a2,2,0,0,0-.22-.55c2.58,0,5.16,0,7.74,0,.69,0,1.23.22,1.3.91S108.82,145.55,108.08,145.53Z"
        fill="#172545" />
      <path
        d="M86.45,193.43a10.45,10.45,0,0,1-3.35,3.79,30.85,30.85,0,0,0,3.3-4.51C86.41,193,86.43,193.19,86.45,193.43Z"
        fill="#262d45" />
      <path
        d="M86,197.24c-.6.24-.77,1-1.4,1.19-.35-.26-.13-.45,0-.6a6.75,6.75,0,0,0,1.72-2.4c.07-.16.2-.71.48-.1A6.05,6.05,0,0,1,86,197.24Z"
        fill="#3b3949" />
      <path
        d="M77.6,179.53c-2,4.33-4.41,8.48-6.62,12.72-1,2-2.13,4-3.19,6-1,.88-2.43.6-3.55,1.2a.43.43,0,0,1-.52-.21,1.17,1.17,0,0,0-1.48-.42c-.73.2-.79-.13-.63-.66a36.27,36.27,0,0,0,1.33-7.45,8,8,0,0,0-.2-3.08c-.25-.83.11-1.15.91-1.36,1-.27,2-.31,3-.48,2.24-.37,3.85-1.79,5.61-3,1.58-1.05,3.1-2.19,4.66-3.27C77.11,179.41,77.42,178.82,77.6,179.53Z"
        fill="#fefefe" />
      <path
        d="M58.2,214.59c-3,4.84-5.73,9.84-8.84,14.6a.72.72,0,0,1-.29-.73c.14-3.4-.36-6.79-.3-10.19,1.24-1.17.15-2.77.72-4.06.28-.64.67-1.23,1-1.85-.09-.25,0-.38.26-.45.62.06.57.7.87,1,1.51,1.75,3.47,1.73,5.49,1.5C57.51,214.4,57.89,214.16,58.2,214.59Z"
        fill="#fefefe" />
      <path
        d="M30,200.87c.63.2,1.27.37,1.88.63,2.07.87,4.06,1.94,6.37,2.18.73.08,1.85.29,1.87,1.12,0,1.08-1.23.87-2,1.09a37.11,37.11,0,0,1-6.41,1.57,3.56,3.56,0,0,0,2.24.87c.37,0,.82.18.79.57s-.51.41-.87.37a11,11,0,0,1-3.9-1.39c-.25-.13-.5-.27-.43-.63s.37-.38.64-.4a42.25,42.25,0,0,0,8.84-2.1c-3.49-.75-6.58-1.63-9.21-3.53Z"
        fill="#192746" />
      <path
        d="M50.76,211.91l-.26.45c-.85-.5-.82-1.44-1-2.21-.58-2-1.45-4-1.56-6.1-.14-2.71.69-5.32,1.12-8,0-.27,0-.73.47-.68s.5.53.5.83a5.24,5.24,0,0,1-.29,1.51,28,28,0,0,0-.86,5.53c-.2,1.68.55,3.18.93,4.76A22.67,22.67,0,0,1,50.76,211.91Z"
        fill="#192746" />
      <path
        d="M61.81,203c.45-.59.7-.9.93-1.21s.45-.68.81-.59.47.46.52.75c.19,1.12.72,2.2.53,3.38,0,.22,0,.7-.47.64s-.39-.33-.41-.65c-.06-.58-.19-1.17-.27-1.75s-.38-.57-.73-.18c-.13.14-.24.32-.38.46-.32.31-.68.61-1.16.41s-.44-.64-.42-1q.09-1.42.24-2.85c0-.3,0-.71.51-.63a.58.58,0,0,1,.47.81A5.81,5.81,0,0,0,61.81,203Z"
        fill="#1a2847" />
      <path
        d="M63,186a.25.25,0,0,1-.22.31.49.49,0,0,1-.53-.18,14.85,14.85,0,0,0-2.78-3,.49.49,0,0,1,0-.74.42.42,0,0,1,.63-.05A12.23,12.23,0,0,1,63,185.71,1.46,1.46,0,0,1,63,186Z"
        fill="#1e2c4b" />
      <path d="M72.07,209l-.26-.25a1.25,1.25,0,0,1,1-.46A1.36,1.36,0,0,1,72.07,209Z" fill="#3b4669" />
      <path
        d="M169.61,98.28a6.13,6.13,0,0,1,2.3,2.13,15.29,15.29,0,0,0,2.54,2.8c.88.64.74,1.25-.32,1.53a10.53,10.53,0,0,1-3.85.64c-.37,0-.88,0-.84-.62s.49-.54.9-.48a10.41,10.41,0,0,0,3.28-.37A17.47,17.47,0,0,1,169.61,98.28Z"
        fill="#172946" />
      <path
        d="M199.83,129.28a32.08,32.08,0,0,1-5.37-3.38c-.21-.14-.62-.19-.39-.58.15-.24.43-.11.66-.07a3.91,3.91,0,0,1,1.91.94,13.71,13.71,0,0,0,3.76,2.25c.42.19.74.41.72,1s-.44.59-.8.72c-1.08.39-2.17.78-3.25,1.15-.37.13-.75.16-.9-.3s.27-.59.6-.7Z"
        fill="#172846" />
      <path
        d="M184.22,77.9c.11-.52,0-1.08.37-1.55.32.07.31.4.48.59.39,2.9.8,5.79,1.17,8.7,0,.4.26,1.09-.53,1.06s-.38-.65-.44-1c-.27-1.81-.44-3.63-.82-5.41C184.29,79.47,184.42,78.67,184.22,77.9Z"
        fill="#172846" />
      <path
        d="M200,108a5.4,5.4,0,0,1-4-.56c-1.41-.63-2.84-1.2-4.25-1.83-.38-.16-1-.36-.67-.91s.7-.31,1.2-.06a50,50,0,0,0,6,2.54C198.87,107.35,199.55,107.34,200,108Z"
        fill="#172846" />
      <path
        d="M275.66,242.1c1.8.07,3.54-.5,5.33-.55.64,0,1.72-.51,1.79.46s-1,.54-1.58.53c-2,0-3.93.64-5.93.62-.16,0-.32.08-.47.07-.63-.07-1.49,0-1.68-.62s.7-.76,1.14-1c2.22-1.09,4.3-2.42,6.42-3.67a8.58,8.58,0,0,1,1.23-.43c.39-.15,1-.26.86-.82s-.64-.36-1-.32c-3.05.29-6.12.41-9,1.55a1,1,0,0,1-.22.08c-.37.09-.77.15-.88-.32s.2-.68.57-.78a31.54,31.54,0,0,1,11.49-1.46,2.23,2.23,0,0,1,1.45.46c.42.4.57.79-.07,1.12l-9.4,4.86a.81.81,0,0,1-.27.16C275.47,242.2,275.58,242.08,275.66,242.1Z"
        fill="#172645" />
      <path
        d="M263.55,217.43a62.16,62.16,0,0,1,1.62,6.49c.51,2.76-1.32,4.55-2.2,6.74-.29.74-.69,1.44-1,2.17-.16.39-.36.64-.8.45s-.45-.57-.22-1a56.59,56.59,0,0,1,2.69-5c.88-1.27.41-2.7.31-4a13.2,13.2,0,0,0-.62-3.16A5.48,5.48,0,0,1,263.55,217.43Z"
        fill="#172846" />
      <path
        d="M289.53,215.65a20.06,20.06,0,0,1,.73,3.93,56.43,56.43,0,0,1-.66,8.89,2.16,2.16,0,0,1-.14.57c-.19.4-.23,1.08-.93.78s-.18-.74,0-1.1a9.89,9.89,0,0,0,.51-3.27c.07-2.54.66-5.08,0-7.61A2.87,2.87,0,0,1,289.53,215.65Z"
        fill="#172746" />
      <path d="M275.66,242.1a.54.54,0,0,1-.8.15,1,1,0,0,1,.82-.34A1.23,1.23,0,0,0,275.66,242.1Z" fill="#1a6f64" />
      <path
        d="M272.56,285.72c.06-1.27-.46-2.47.15-3.62.06-.13,0-.39-.14-.56-1.12-2.11-.08-3.72,1.06-5.44a34.47,34.47,0,0,0,2.25-4.46A78.35,78.35,0,0,0,280,261.2c.12-.4.31-.82.84-.59s.36.62.23,1c-1.62,4.84-3.77,9.45-5.85,14.1-.54,1.19-1.62,2.06-2,3.38a1.71,1.71,0,0,0,.22,1.8,1.35,1.35,0,0,1,.22,1.78,2.33,2.33,0,0,0-.17,1.25c.23,4.42,1.07,8.77,1.4,13.16.37,5,1.62,9.8,2.36,14.71.07.48.12.95.16,1.43,0,.32,0,.7-.41.72s-.56-.26-.6-.61c-.1-.91-.13-1.84-.3-2.73-.92-4.89-1.92-9.75-2.35-14.72-.24-2.81-.69-5.6-1.08-8.4A5.86,5.86,0,0,1,272.56,285.72Z"
        fill="#172645" />
      <path
        d="M285.66,282.25c-1.07,1.32-2.61,2-4.1,3,1.27.27,2.4-.29,3.55-.2.41,0,1-.15,1,.48s-.6.65-1,.62c-1.47-.09-2.92.33-4.39.12-.38,0-.86.07-1-.45s.15-.8.58-1c1.51-.86,3-1.75,4.52-2.6C285,282.05,285.31,281.85,285.66,282.25Z"
        fill="#172846" />
      <path
        d="M262.24,285.43a1.06,1.06,0,0,1-.33-.22c-.17-.2,0-.38.12-.52a2,2,0,0,1,1.14-.6,50.29,50.29,0,0,0,5.64-1.86c.4-.15.82-.23,1,.29s-.2.66-.56.77l-6.56,2Z"
        fill="#172946" />
      <path
        d="M262.74,310a5.85,5.85,0,0,1,2.51,1.27c1,.59,2,1.22,3.06,1.85.35.21.53.53.29.9s-.6.16-.9-.05a23.89,23.89,0,0,0-3.22-2A3.8,3.8,0,0,1,262.74,310Z"
        fill="#172a47" />
      <path
        d="M47.33,284.52c-.22,1.73-.48,3.46-.67,5.2-.08.76-.34,1.13-1.19,1.1a9.19,9.19,0,0,1-2.35-.33c-2.57-.75-5.12-.42-7.69-.08a13.32,13.32,0,0,1-4.5.22c-3.08-.61-3.3-.81-3.36-3.87a1.52,1.52,0,0,0-.51,1.37c.06,1.14-.64,1.27-1.45,1.2-2-.19-4.05-.26-6.08-.25a52.57,52.57,0,0,0-6.26.83,8.85,8.85,0,0,1-4-.49,9.42,9.42,0,0,1,.23-5.82c3.53,1.64,7.15,1.51,10.83.6a11.63,11.63,0,0,1,2.54-.55,30.12,30.12,0,0,1,3.62,1.63c2.64,1.54,5.23,3.15,8.51,2.93a13.56,13.56,0,0,0,5.84-1.86l4.47-2.5A2.63,2.63,0,0,1,47.33,284.52Z"
        fill="#595ea3" />
      <path d="M29.33,272l-3.48.12c.09-1.86.19-3.73.28-5.59a41.1,41.1,0,0,1,4.44,0C30.16,268.35,29.74,270.17,29.33,272Z"
        fill="#9f6741" />
      <path
        d="M41.65,256.27c-2,0-4,0-6,0-.3,0-.83.19-.83-.35s.35-.64.84-.63c1.87,0,3.74-.13,5.6.06a3.39,3.39,0,0,1,1.26.36c.68.38.88.87.15,1.48a6.77,6.77,0,0,1-3.19,1.5,2.22,2.22,0,0,0-1.45.94c1,.08,1.92.17,2.82.23.39,0,.75.09.69.6s-.4.46-.81.43c-1.38-.12-2.76-.19-4.14-.26-.42,0-.87-.08-1-.52s.38-.44.61-.62a10.26,10.26,0,0,1,3.66-1.94,5.7,5.7,0,0,0,1.81-.86Z"
        fill="#172645" />
      <path d="M49,272.13a13.86,13.86,0,0,1-3,0l1-5.59,2.8,0Q49.39,269.34,49,272.13Z" fill="#9f6741" />
      <path
        d="M19.15,256.18a8.45,8.45,0,0,1-3.77-2.82c-.22-.3-.58-.67-.11-1a.63.63,0,0,1,1,.3c.79,1.56,2.32,2.1,3.75,2.77.31.15.73.17.78.64s-.36.68-.72.84a34.86,34.86,0,0,0-4.2,2c-.26.15-.64.58-.91.08s0-.85.48-1A33.45,33.45,0,0,1,19.15,256.18Z"
        fill="#172746" />
      <path
        d="M42,278.87c-.23,2.13-2.27,2.45-3.56,3.78,1.13-.09,2-.17,2.91-.23.32,0,.68,0,.75.39s-.26.65-.64.68a27.54,27.54,0,0,0-4.62.49.56.56,0,0,1-.71-.29.63.63,0,0,1,.27-.74c.81-.64,1.6-1.29,2.44-1.89C39.85,280.32,40.9,279.63,42,278.87Z"
        fill="#172746" />
      <path
        d="M31.13,250.63a28.52,28.52,0,0,1-3.58.17c.28-1.21.56-2.42.83-3.63,0-.69-.24-1.45.54-1.92C29.81,247,30.41,248.83,31.13,250.63Z"
        fill="#9e6842" />
      <path
        d="M28.92,245.25l-.54,1.92a95,95,0,0,0-3.45-10c-.22-.55,0-.92.52-1.25C26.92,238.94,27.68,242.19,28.92,245.25Z"
        fill="#172746" />
      <path d="M12.65,252.45a10.53,10.53,0,0,1,.41-2.67,7,7,0,0,1-.17,2.66C12.82,252.55,12.73,252.55,12.65,252.45Z"
        fill="#755242" />
      <path d="M12.37,255.38c.06-.67-.16-1.37.23-2a.18.18,0,0,1,.1.18c0,.07,0,.11,0,.11A3.46,3.46,0,0,1,12.37,255.38Z"
        fill="#865e43" />
      <path d="M12.66,253.67l-.06-.29c0-.31,0-.62.05-.93h.24A1.89,1.89,0,0,1,12.66,253.67Z" fill="#8f734a" />
      <path
        d="M175,47a3.36,3.36,0,0,1,2.39-1,100.47,100.47,0,0,1,11.11.19c.25,0,.64-.13.7.26s-.26.46-.5.61A23.7,23.7,0,0,0,184,50.29h3.62c-1,1.33-3.64,1.52-5.8.54a25.31,25.31,0,0,1,5-3.77C182.71,46.79,178.87,47,175,47Z"
        fill="#172745" />
      <path d="M176.38,24.27a7.49,7.49,0,0,0,3.35-4.56c.36,2,.31,3.85-1,5.44a7.42,7.42,0,0,0-.68,1.12Z"
        fill="#192645" />
      <path
        d="M207.55,38.55l2.2-2.21c-.35,4.32-.66,8.66-3.66,12.18a4.92,4.92,0,0,0-1,3.7,3.29,3.29,0,0,1,.06-4.1,12.11,12.11,0,0,0,2.09-7.33A18.74,18.74,0,0,1,207.55,38.55Z"
        fill="#182545" />
      <path
        d="M176.56,69.24l.24-.28a18.82,18.82,0,0,0,1,1.81c.18.25.37.89.93.38a.16.16,0,0,1,.25,0,6.33,6.33,0,0,0,1.3,2.37c.46.41.91.78,1.53.27a.16.16,0,0,1,.27,0l1,.69c-2.16.66-2.71.18-4.24-1.45A8.24,8.24,0,0,1,176.56,69.24Z"
        fill="#1a2746" />
      <path d="M184.54,73.58a11.62,11.62,0,0,1-1.87-3.88c.08-.1.16-.11.25,0,.63,1.27,1.25,2.54,1.87,3.8Z"
        fill="#313144" />
      <path d="M207.5,51.14a3.57,3.57,0,0,1,.1,2.61A4,4,0,0,1,207.5,51.14Z" fill="#473c43" />
      <path d="M209.67,55.36a9.16,9.16,0,0,1,.44-2.88,4.3,4.3,0,0,1-.42,2.9Z" fill="#2a2e44" />
      <path d="M211.57,55.16A3.76,3.76,0,0,1,212,53,4.11,4.11,0,0,1,211.57,55.16Z" fill="#272d44" />
      <path d="M182.11,73.8h-.27a9.58,9.58,0,0,1-2.11-5.19A26,26,0,0,0,182.11,73.8Z" fill="#393544" />
      <path d="M182.92,69.69h-.25l-.44-1.26A1.48,1.48,0,0,1,182.92,69.69Z" fill="#202945" />
      <path d="M179,71.15h-.25c-.31-.25-.26-.66-.43-1,.08-.1.1-.25.25-.28A3,3,0,0,1,179,71.15Z" fill="#413944" />
      <path d="M178.58,69.9l-.25.28c0-.34-.39-.62-.18-1C178.6,69.25,178.52,69.61,178.58,69.9Z" fill="#393544" />
      <path
        d="M170.91,20.92c1.31-1,2.5-1.83,3.67-2.72.44-.34.68-.29.83.26a3.07,3.07,0,0,1-.39,2.85c-.61.77-1.54.49-2.35.4A3.44,3.44,0,0,1,170.91,20.92Z"
        fill="#f5f5f5" />
      <path
        d="M172.85,12.47a5.27,5.27,0,0,0-3,1.56c-.3.35-.57.12-.83,0a.6.6,0,0,1-.26-.72C169.11,12.1,171.72,11.48,172.85,12.47Z"
        fill="#1c2745" />
      <path
        d="M171,19.63c-1.79,1-2.09.87-2.06-.75,0-.91-.67-1.72-.28-2.78a3.17,3.17,0,0,1,.72,1.92C169.56,18.87,168.92,20.27,171,19.63Z"
        fill="#232b44" />
      <path d="M171.82,16.39a1.15,1.15,0,0,1-.69-1.12.42.42,0,0,1,.54-.47c.51.13.64.56.65,1A.49.49,0,0,1,171.82,16.39Z"
        fill="#232b44" />
      <path d="M167,17.68c.08-.4-.25-.92.3-1.17.24-.11.45.09.6.28a.84.84,0,0,1,.17,1.09c-.45.6-.72-.13-1.08-.22Z"
        fill="#1e2845" />
      <path
        d="M265.45,200.18a1.43,1.43,0,0,1-1.4-1c-.23-.72-.21-1.27.77-1.27.35,0,.71-.12,1.06-.09.62.06,1.47-.36,1.78.4C267.9,198.84,266.31,200.18,265.45,200.18Z"
        fill="#f4f2f2" />
      <path
        d="M268.82,191.4c0,.4-.27.4-.49.3a4.14,4.14,0,0,0-2.21-.43c-.25,0-.48-.05-.53-.35a.64.64,0,0,1,.21-.65,1.74,1.74,0,0,1,1.71,0A2.18,2.18,0,0,1,268.82,191.4Z"
        fill="#1c2745" />
      <path d="M266,193.17c0-.45.06-.94.66-.89s.57.47.55.88-.19.93-.71.91S266.06,193.56,266,193.17Z" fill="#1c2745" />
      <path
        d="M229.12,179.8a14.25,14.25,0,0,1-5-9.37,7,7,0,0,1,6.94-7.66,15.55,15.55,0,0,1,11,4.06c.1.51-.26.81-.54,1.14a65.74,65.74,0,0,1-10.1,10c-.49.4-.81,1-1.34,1.36C229.83,179.53,229.6,179.92,229.12,179.8Z"
        fill="#1fdb92" />
      <path
        d="M246.13,171.34a10.59,10.59,0,0,1,2,8,6.73,6.73,0,0,1-5.86,5.47,13.75,13.75,0,0,1-8.81-1.85c.34-1.37,1.63-1.89,2.53-2.74,1.9-1.8,4.06-3.31,5.75-5.35a31.22,31.22,0,0,1,3.67-3.22A.83.83,0,0,1,246.13,171.34Z"
        fill="#1fdb92" />
      <path
        d="M229.12,179.8c2.38-2.23,4.85-4.36,7.23-6.59a84.72,84.72,0,0,0,5.77-6.38A7.89,7.89,0,0,1,244.4,169a1.44,1.44,0,0,1-.46.81c-2.92,3.09-5.84,6.19-9,9-1.13,1-2.1,2.32-3.68,2.73A6.22,6.22,0,0,1,229.12,179.8Z"
        fill="#f6f6f6" />
      <path
        d="M231.25,181.55c4.77-3.77,8.89-8.22,13.15-12.54a3.43,3.43,0,0,1,1.08,1.39c-.07,1-1,1.34-1.67,1.87-1.09.94-2.07,2-3.1,3-2.54,2.4-5.27,4.58-7.75,7a.47.47,0,0,1-.43.16A3,3,0,0,1,231.25,181.55Z"
        fill="#20db93" />
      <path
        d="M232.53,182.43a56.91,56.91,0,0,1,5.67-5.19c1-.74,1.76-1.72,2.66-2.56,1.53-1.44,3.08-2.85,4.62-4.28a1.56,1.56,0,0,1,.65.94,69.4,69.4,0,0,0-6.33,5.92c-1.52,1.55-3.29,2.84-4.94,4.27-.5.44-1,.94-1.43,1.41A1.57,1.57,0,0,1,232.53,182.43Z"
        fill="#f4f6f5" />
      <path
        d="M67.45,175.79c-.68-.15-.83-.78-.89-1.42,0-.45,1.48-1.15,2.36-1.17.35,0,.39.15.41.42A2.48,2.48,0,0,1,67.45,175.79Z"
        fill="#f5f4f3" />
      <path d="M68.47,169.59c0,.49-.16.92-.59,1s-.53-.4-.56-.75.09-.86.55-.91S68.38,169.31,68.47,169.59Z"
        fill="#252c44" />
    </g>
  </g>
</svg>
