<svg xmlns="http://www.w3.org/2000/svg" xmlns:xlink="http://www.w3.org/1999/xlink" viewBox="0 0 273.38 341.03">
  <defs>
    <clipPath id="clip-path" transform="translate(-0.03 0)">
      <rect width="274.22" height="341.09" fill="none" />
    </clipPath>
    <clipPath id="clip-path-2" transform="translate(-0.03 0)">
      <rect width="274.22" height="320.88" fill="none" />
    </clipPath>
    <clipPath id="clip-path-3" transform="translate(-0.03 0)">
      <rect y="32.88" width="255.56" height="304" fill="none" />
    </clipPath>
  </defs>
  <g id="Layer_2" data-name="Layer 2">
    <g id="Layer_1-2" data-name="Layer 1">
      <g clip-path="url(#clip-path)">
        <path
          d="M248.81,212h0l.6-.36a0,0,0,0,0,0,0,.12.12,0,0,0,.05,0,8.35,8.35,0,0,0,2-2.23l.31.07c3.66,1,7.54-1,10.29-3.59,5.38-5.16,7.79-12.64,9.39-19.93,1.75-7.94,2.79-16.25,1-24.18a20.13,20.13,0,0,0-2.45-6.41,19.18,19.18,0,0,0-8.21-6.92c-1.11-.53-2.24-1-3.4-1.42-1.87-.67-3.79-1.21-5.71-1.74.47-1.85,1-3.7,1.59-5.53a.32.32,0,0,1,.19.07,1.43,1.43,0,0,1,.5.09c.78.19,1.51.47,2.34.61a9.24,9.24,0,0,1,1.29.13h.17a2.05,2.05,0,0,1,.7,0,2.92,2.92,0,0,0,.66,0,10.58,10.58,0,0,0,2.22-.54,10.4,10.4,0,0,0,3-1.69,2.79,2.79,0,0,0,.4-.37,9.4,9.4,0,0,0,.66-.74,4.11,4.11,0,0,0,.85-1,12,12,0,0,0,1.4-2.8,6.06,6.06,0,0,0,.16-.61,2.86,2.86,0,0,1,.13-.58c.13-.24,0-.35.06-.55a6.82,6.82,0,0,0,.07-1,4.12,4.12,0,0,0,0-.93,5.52,5.52,0,0,1-.11-.91.37.37,0,0,0,0-.18c-.12-.25-.11-.6-.25-.85s-.2-.6-.33-.89-.1-.32-.16-.49a1.8,1.8,0,0,0-.25-.5c-.21-.31-.39-.64-.62-1a2,2,0,0,0-.49-.59,2.64,2.64,0,0,1-.3-.42c-.14-.2-.39-.37-.47-.58s-.26-.19-.41-.3-.41-.36-.62-.52a4.05,4.05,0,0,1-.57-.43c-.19-.2-.45-.18-.66-.34-.06,0-.17-.09-.21-.12a2.77,2.77,0,0,0-.74-.39,24.59,24.59,0,0,0-2.78-.82l-1.24-.35c-.57-.18-1.15-.31-1.72-.47l-1.47-.42h0a3.47,3.47,0,0,0-.71-.23,7.36,7.36,0,0,0-.71-.22l-1-.25c-.32-.08-.62-.16-.95-.21s-.64-.16-1-.24c-.14,0-.27,0-.4-.07s-.29-.1-.44-.14a2.36,2.36,0,0,0-.46-.1c-.09,0-.27-.12-.42-.14a5.55,5.55,0,0,1-1-.21l-.87-.22a1.45,1.45,0,0,0-.26-.07,3.4,3.4,0,0,1-.84-.18c-.32-.07-.62-.16-.92-.24-.08,0-.16-.07-.22-.09a5.62,5.62,0,0,1-1.22-.32l-.36-.07-.15,0c-.3-.16-.72-.18-1-.31a8.57,8.57,0,0,0-1.1-.31,8.28,8.28,0,0,0-3.67-.22,10.64,10.64,0,0,0-2.21.54,5,5,0,0,0-.91.41,7,7,0,0,0-.87.53l-.1.07c-.17.19-.43.34-.63.53s-.37.38-.57.58a8.22,8.22,0,0,0-.57.61,4,4,0,0,0-.49.67,6.53,6.53,0,0,0-.82,1.33l-.1.22a3.72,3.72,0,0,0-2.63.05c-1.39-.63-2.24-2-3.46-3a7.68,7.68,0,0,0-3.74-1.36,13.06,13.06,0,0,0-9.92,2.93c-3.19,2.7-4.86,6.73-6.73,10.47a51.3,51.3,0,0,0-3.75,8.45,12.08,12.08,0,0,0,.54,9c.13.24.27.46.41.67-.41.06-.81.12-1.22.21A12,12,0,0,0,198,149a5.36,5.36,0,0,0-.57-.17,4.5,4.5,0,0,0-.9-.08,1.67,1.67,0,0,0-1.22.86,1.79,1.79,0,0,0-.25.61,3,3,0,0,1-.32.64.31.31,0,0,0,0,.08h0c-.59.45-1.16.9-1.72,1.37-6.51,5.58-11.09,13.09-17.09,19.21a2.21,2.21,0,0,1-.93.66,5.43,5.43,0,0,1-1.66-.19,2,2,0,0,0-2,2.53,50.45,50.45,0,0,1-7,4.38,13.56,13.56,0,0,0,1,3.05l-13.95,9.68-4.39-.17c-3.91-.15-7.94-.29-11.71.63l27.53-21.54,1.13-.88h0l14.57-3-.07-3.88-9.52-2.54a18.59,18.59,0,0,0,9.39-9.91,8.23,8.23,0,0,0,.1-6.35c-1.13-2.36-3.73-3.59-6.19-4.45a51.66,51.66,0,0,0-26.29-2,30.28,30.28,0,0,0-8.87,3c.07-6.2.16-12.69.16-12.69a17.19,17.19,0,0,0-.43-3.72A5.66,5.66,0,0,0,134.9,121a6.23,6.23,0,0,0-1.63-.87,7.36,7.36,0,0,0-2.9-.5,8.14,8.14,0,0,0-5.33,2.52,15.87,15.87,0,0,0-3.21,5.08,2,2,0,0,0,.44,1.46,3.54,3.54,0,0,0,1.16,1,5.66,5.66,0,0,0,3.36.55,2.22,2.22,0,0,0,1.68-1.12,4.22,4.22,0,0,1,.42-.62,1.3,1.3,0,0,1,.8-.63,1.46,1.46,0,0,1,1.14.48v5.9a16.06,16.06,0,0,0-6.36-1.09c-4.32,0-7.83,1.17-7.84,2.61h0l2,12.7a4.27,4.27,0,0,0,.69,1.76,8.33,8.33,0,0,1-.93-.39c-1.17-.57-1.87.86-1.78,1.78a2.51,2.51,0,0,0,.52,1.3L112,153.91h0l-3.11-.87a5.61,5.61,0,0,0-2.64-.11l-2.8.53V129.92l11.85-1.66a4.66,4.66,0,0,0,1.49-.49,4.53,4.53,0,0,0,2-2.33,4.51,4.51,0,0,0,.28-1.54v-50a4.44,4.44,0,0,0-1.56-3.36,4.38,4.38,0,0,0-1.72-.9L113.31,69a4.62,4.62,0,0,0-1.7-.1l-7.82,1.07V69.3a2,2,0,0,0-.08-.59,2.68,2.68,0,0,1,.05-.8,5.54,5.54,0,0,1,.11-1.15,3,3,0,0,1-.08-.79V64.72a4,4,0,0,1,.06-1.1c.1-.41-.14-.73-.06-1.16,0-.11,0-.29,0-.37a4.23,4.23,0,0,0,.08-1.28V56.28c0-.87,0-1.75.07-2.62v-.1a4.51,4.51,0,0,0,.09-1.27c0-.42.07-.85.08-1.27,0-.57,0-1.16,0-1.73a13.25,13.25,0,0,0-.06-1.67,16.48,16.48,0,0,1,0-1.73c0-.23-.07-.46-.07-.69s.06-.52.07-.79a3.6,3.6,0,0,0-.06-.8c0-.15.11-.52.06-.77a8.52,8.52,0,0,1-.08-1.75V39.55a2.57,2.57,0,0,0,0-.48,4.9,4.9,0,0,1-.07-1.48c0-.54,0-1.08,0-1.63,0-.13.07-.28.06-.4,0-.51-.06-.76-.06-1s0-.54.06-1.06h.13l.09-.07,0,0,.09-.07,0-.06a.66.66,0,0,1,.09-.19,0,0,0,0,1,0,0,.19.19,0,0,1,0-.08c0-.16.08-.32.12-.49a2,2,0,0,1,.09-.33V26.92c.51,0,1,0,1.45,0,1-.08,2-.08,3.07-.08.56,0,1.1.07,1.65.08a18,18,0,0,0,1.8,0c1.22-.11,2.46-.06,3.68-.08.84,0,1.66,0,2.49-.06a9.43,9.43,0,0,1,1.68,0c.78.07,1.73,0,2.39.11a13.09,13.09,0,0,1,1.66-.08h2.62a17.82,17.82,0,0,1,2.31.06c.83.1,1.53-.13,2.4-.06.23,0,.61,0,.79,0a18.33,18.33,0,0,0,2.67.08h9.48l5.48.07h.2a19.71,19.71,0,0,0,2.66.09c.89,0,1.72.1,2.66.08h3.63c1.16,0,2.3,0,3.49-.07s2.39,0,3.61,0c.48,0,1-.07,1.44-.07s1.09.06,1.65.07a15.72,15.72,0,0,0,1.68-.06c.31,0,1.07.12,1.6.06,1.2-.13,2.46-.06,3.68-.08h3.23a8.17,8.17,0,0,0,1,0,24.32,24.32,0,0,1,3.08-.07c1.13,0,2.28,0,3.42,0,.28,0,.58.07.82.06a40.63,40.63,0,0,1,4.55,0c.41,0,.87,0,1.3,0,.19,0,.43,0,.53,0,1.23.16,2.68,0,3.85.08,1.39.11,2.74.08,4.1.07,4.31,0,8.65.1,12.95-.08h3.94l2,0h.91a1.24,1.24,0,0,1,.63.3L227,32.85c.09.11.18.26.24.32A27.46,27.46,0,0,1,229,35.42c.54.65,1.06,1.31,1.59,2-.66.26-1.33.53-2,.83a7.09,7.09,0,0,1-1.86.84.92.92,0,0,0-.24.13,2.56,2.56,0,0,1-1,.5,4.48,4.48,0,0,0-1,.37l-3.28,1.55-3.72,1.66h0l-.37-.09a1.54,1.54,0,0,0-.5.2l-.18.1a.71.71,0,0,0-.13.12c-.27.26-.76.29-1,.62-.56,0-1,.36-1.48.54a15.52,15.52,0,0,0-3.49,1.95,2.86,2.86,0,0,0-.56.64,3.5,3.5,0,0,1-.51.64c-.32.2-.12.48-.27.72a3.84,3.84,0,0,0-.41,1.28,2.73,2.73,0,0,0-.1,1.27,3.69,3.69,0,0,1,.12,1.24.4.4,0,0,0,.07.24c.31.3.28.78.55,1.08s.51.67.76,1c.14.18.23.4.37.57l.15.19a.31.31,0,0,0,.13.06.9.9,0,0,1,.28.08c0,.1-.18.2-.24.32s-.17.21-.24.33a1.09,1.09,0,0,0-.18.43,4.91,4.91,0,0,1-.25.44h0l-.12.13c-.24.23-.25.63-.54.79a1.71,1.71,0,0,1-.1.67,8.72,8.72,0,0,0-.24,1,3.18,3.18,0,0,1-.17.91c-.18.34.18.62.11,1,0,.09.05.24,0,.31a1.58,1.58,0,0,0,.12,1.09,6.86,6.86,0,0,0,2.14,3.2,7.1,7.1,0,0,0,1.94,1.21.11.11,0,0,1,.08,0c.26.32.73.26,1.1.35l.36.17a2.64,2.64,0,0,0,.48.14c.45.06.88.19,1.32.27a6.08,6.08,0,0,0,1.28.18,6.58,6.58,0,0,1,1.31.25c.18,0,.37,0,.54,0s.37.18.58.24a1.22,1.22,0,0,0,.63,0c.11,0,.35.26.56.21a3.81,3.81,0,0,1,1.34.18c.4.07.79.17,1.17.25.13,0,.28.1.37.07.39-.15.75.07,1.13.13s.68.13,1,.21l.09,0,.13,0h0c.09,0,.17.14.25.14l.6,0h.12l.15,0,.08,0,.69.25a2,2,0,0,0,.49,0h.2c.39.33,1,.2,1.37.42a4.36,4.36,0,0,0,1.46.41,35.39,35.39,0,0,0,4.7.88c.95.25,1.92.35,2.86.67a7.1,7.1,0,0,0,.79.22l.4.07c.15,0,.33,0,.5.06h-.07c.35,0,.71.06,1.06.09.06,0,.14,0,.16,0,.37-.2.78,0,1.14-.12a8.07,8.07,0,0,1,1.11-.22,10.87,10.87,0,0,0,1.12-.18l.55-.13.27-.07c.1-.06.28-.06.39-.16l.26-.19a5.31,5.31,0,0,1,.86-.26,8.68,8.68,0,0,0,2-.71,54.89,54.89,0,0,0,5.78-2.92c1.18-.56,2.32-1.21,3.55-1.72,1.05-.44,2.09-1,3.13-1.58a.75.75,0,0,0,.18-.08,7.29,7.29,0,0,1,1.24-.72c.4-.27.8-.51,1.23-.75a19.63,19.63,0,0,0,2.52-1.56,9.63,9.63,0,0,0,2.17-1.85,5.17,5.17,0,0,0,.83-1.29,2.94,2.94,0,0,0,.16-1.06,1.28,1.28,0,0,0,0-.56.36.36,0,0,0-.15-.08v0c.21-.08.41-.45.39-1.05a1.68,1.68,0,0,0-.11-.8c-.07-.16-.08-.55-.16-.83a3.76,3.76,0,0,0-.27-.62.34.34,0,0,1,0-.14,9.78,9.78,0,0,0-.61-1.55c-.19-.5-.35-1-.51-1.5a7.68,7.68,0,0,1-.34-1.69,11.47,11.47,0,0,1,.07-1.76,4.4,4.4,0,0,0,.07-1.25,2.11,2.11,0,0,1,.08-.79,2.1,2.1,0,0,0,0-.79,6.66,6.66,0,0,0-.29-1.71,8.82,8.82,0,0,0-.67-1.58c-.44-.33-.48-.91-.87-1.28-.14-.12-.24-.32-.43-.4a1.19,1.19,0,0,1-.34-.33,1.81,1.81,0,0,0-.63-.63A7.5,7.5,0,0,0,263,37.34c-.65-.12-1.37-.28-2.06-.37a10.34,10.34,0,0,0-2.08.06,6.43,6.43,0,0,1-1.16,0,8.78,8.78,0,0,1-3.53-.3c-.33-.07-.58-.06-.89-.12a5.93,5.93,0,0,1-.94-.37.53.53,0,0,0-.18-.05,1.78,1.78,0,0,1-.81-.19,3.6,3.6,0,0,1-1-.44c-.93-.14-1.81-.57-2.76-.78a3.15,3.15,0,0,0-.69-.16c-.61,0-1.25-.2-1.9-.19s-1.41-.12-2.12-.13a2.9,2.9,0,0,1-.59,0l-.09,0c-.44-.64-.89-1.27-1.34-1.89l-4.44-6a18.19,18.19,0,0,0-1.54-2,9,9,0,0,1-.9-1.23,9.75,9.75,0,0,0-.84-1.25l-1.93-2.6c-.32-.44-.62-.85-1-1.31A5.78,5.78,0,0,0,229,16.85a9,9,0,0,0-2.91-1.16,4.66,4.66,0,0,0-1.18,0,4.51,4.51,0,0,1-.9,0,7.85,7.85,0,0,0-1.68-.06c-2.17,0-4.33-.05-6.51.06-1.26.07-2.69,0-4,0s-2.7.09-4.07.09a16.93,16.93,0,0,1-2.25-.09c-2.52.06-5-.08-7.5-.08-.7,0-1.22.07-1.85.08s-1.38-.05-2.06-.08l-.37,0a7.76,7.76,0,0,1-1.67.06,15.48,15.48,0,0,1-2.26-.08c-1.84.18-3.79,0-5.68.08-.47,0-1.07,0-1.39,0-1.16.16-2.51,0-3.76.13s-2.79,0-4.2,0a9.14,9.14,0,0,1-1.17,0,11.88,11.88,0,0,0-1.69-.07c-.56,0-1.09-.07-1.65-.08l-8.51-.08h-2a15,15,0,0,1-1.9-.06,11.54,11.54,0,0,0-1.95,0,3.5,3.5,0,0,1-1.29,0,7.09,7.09,0,0,1-1.66.07c-2.65,0-5.24-.1-7.91-.09a28.19,28.19,0,0,1-4.11,0,2.44,2.44,0,0,0-.54,0,11.38,11.38,0,0,1-2.26,0,14.74,14.74,0,0,0-2.1-.06l-7.29.07h-11.1a16.4,16.4,0,0,0-1.7,0c-1,.09-2.21,0-3.21.1-1.43-.1-2.85-.12-4.27-.08-1.25,0-2.5,0-3.76,0V13.49l0-.15a.6.6,0,0,1-.06-.27V12.9h0a.11.11,0,0,0,0-.06.27.27,0,0,1-.07-.21h0a.62.62,0,0,0-.11-.17c0-.09-.08-.16-.13-.24s0,0,0,0l-.09,0a.48.48,0,0,0-.2-.07h0c0-.8,0-1.61,0-2.41S104,7.86,104,7c0-.52,0-1,0-1.35s-.18-2-.31-2.58a1.34,1.34,0,0,0-.27-.74,7.74,7.74,0,0,0-.41-.76,2.79,2.79,0,0,0-.51-.46l-.12-.1a3,3,0,0,0-1.54-.83A4.25,4.25,0,0,0,99.92,0c-.27,0-.53,0-.8,0H97.34a6.11,6.11,0,0,0-1,.05,3.32,3.32,0,0,0-1,.27,2.36,2.36,0,0,0-1.11.76,5.2,5.2,0,0,1-.57.58,1.68,1.68,0,0,0-.49.66A4.16,4.16,0,0,0,92.79,4c0,.56,0,1,0,1.56.23.46-.07.91,0,1.38a2.51,2.51,0,0,0,.06.55.85.85,0,0,1,0,.42,1.8,1.8,0,0,0-.06.8c0,1-.05,2.08.06,3.12a.62.62,0,0,1,0,.13h-.08s0,0-.07.06l0,0c-.11.12-.2.24-.31.35l-.14.14-.09.15v0a.34.34,0,0,1,0,.2c0,.09,0,.18-.07.27a.34.34,0,0,1,0,.1,5,5,0,0,0,0,.55.61.61,0,0,1-.18.45.5.5,0,0,1,0,.13h0s0,.08,0,.08a.33.33,0,0,1,0,.17.43.43,0,0,1,0,.11.87.87,0,0,1,.08.26.73.73,0,0,1-.08.25s0,.09,0,.11.07.22.07.33a5.75,5.75,0,0,1,0,.83,2.17,2.17,0,0,1-.06.8.7.7,0,0,0,.05.45.49.49,0,0,1-.06.53s0,.12,0,.18.12.11,0,.19,0,.12,0,.18a11.11,11.11,0,0,0,.09,1.16c0,.11-.08.22.07.3s0,.06,0,.06c-.23.1-.14.19,0,.29s0,.1,0,.14c0,.37,0,.74,0,1.1a1,1,0,0,1-.11.41c-.06.15-.2.31-.12.46a1,1,0,0,1,.06.42.92.92,0,0,0,0,.16.42.42,0,0,1,0,.42.11.11,0,0,0,0,.08.39.39,0,0,1,.06.15A4.46,4.46,0,0,0,92,25.26s0,0,0,.08a.59.59,0,0,1-.06.14c-.08.15.21.3,0,.45.13.08,0,.17.06.25s0,.18,0,.25,0,.16,0,.24,0,.07,0,.1,0,.18,0,.25-.09.18,0,.26a5.86,5.86,0,0,0,.08.94c0,.11-.07.22-.08.34a2.16,2.16,0,0,0,0,.36v.65a3,3,0,0,0,0,.3v0a.36.36,0,0,1,.08.19c0,.22,0,.44,0,.65s0,.43,0,.65v.83c0,.1,0,.19,0,.28v.05s0,0,0,0h0a.85.85,0,0,0,0,.16v.07l0,.13s0,.08,0,.12a.15.15,0,0,1,0,.07h0l.08,0,.17.11.07,0h0l.19,0a.19.19,0,0,0,.1,0l.24,0,.06,0h-.41c0,.06,0,.12,0,.18v.83l-.07,3.24v1a3.46,3.46,0,0,1-.06.91,2.64,2.64,0,0,0,0,.93c.05.26.11.41,0,.62a1.63,1.63,0,0,1,.07.79c0,1.26-.1,2.51-.09,3.78a6.5,6.5,0,0,1,0,2,.58.58,0,0,0,0,.26,2.62,2.62,0,0,1,0,1.08,3.35,3.35,0,0,0-.06,1l.07,3.49v5.31a4.25,4.25,0,0,0,0,.8c.09.47,0,1.06.1,1.54a10,10,0,0,0-.08,2c0,1.62.09,3.24-.07,4.84,0,.31,0,.64,0,1a4.72,4.72,0,0,1,0,.92.7.7,0,0,0,0,.45l0,.19a2.36,2.36,0,0,1,0,.37c0,.17,0,.35,0,.52l-54.13,7.4a4.66,4.66,0,0,0-1.49.49,4.39,4.39,0,0,0-1.22,1,4.2,4.2,0,0,0-.8,1.35,4.25,4.25,0,0,0-.29,1.54v5l-23.75,9a4.86,4.86,0,0,0-1.24-2,4.92,4.92,0,0,0-3.63-1.51,4.41,4.41,0,0,0-.52,0,4.58,4.58,0,0,0-.53,0,5.13,5.13,0,0,0-2,.39A5.16,5.16,0,0,0,.42,96.84a5.18,5.18,0,0,0-.39,2v17.63a5.09,5.09,0,0,0,.39,2,5,5,0,0,0,1.11,1.67,5.06,5.06,0,0,0,1.67,1.12,5.13,5.13,0,0,0,2,.39,4.61,4.61,0,0,0,.53,0,4.43,4.43,0,0,0,.52,0,5.07,5.07,0,0,0,4.62-2.93l23.88,7,0,8a4.4,4.4,0,0,0,2.39,3.93l1.25.64a4.19,4.19,0,0,0,2.22.47,2.56,2.56,0,0,0,.39,0l52.37-7.36V155.4L26.73,168.17a1.39,1.39,0,0,0-.79.48,1.28,1.28,0,0,0-.31.86v5.66a1.35,1.35,0,0,0,.22.76,1.41,1.41,0,0,0,.61.5,109.24,109.24,0,0,0,13.4,3.66v98c1.5,2.34,4.52,4.61,8.13,6.59,6.76,3.69,15.64,6.38,20.8,6.68A73.68,73.68,0,0,0,79.4,291a18.43,18.43,0,0,0,3.13,3.35,67.12,67.12,0,0,0,31.71,11.26,34.3,34.3,0,0,0,4.53.15c-.5,1.15-.77,2.34-1.15,3.51-.47,1.54-.91,3.09-1.26,4.66a9.3,9.3,0,0,0-.36,1.95,2.57,2.57,0,0,1-.12.55,3.27,3.27,0,0,0-.29,1.07,11.61,11.61,0,0,0-.24,1.55c0,.33-.24.91-.33,1.45a17.71,17.71,0,0,1-.51,2.53,3.94,3.94,0,0,0-.11.83c0,.14,0,.29,0,.44l0,.32,0,.35,0,.17a.71.71,0,0,0,.14.1l.28.16.26.17.15.1a8.48,8.48,0,0,0,1.08.67c.79.46,1.61.84,2.42,1.24,1.52.75,3,1.59,4.6,2.26,1.13.49,2.25,1.14,3.44,1.56a13.6,13.6,0,0,1,1.62.81c.88.44,1.83.81,2.72,1.23s1.74.81,2.62,1.18c1.17.49,2.32,1,3.54,1.36s2.41,1,3.62,1.46,2.41.81,3.52,1.34c1.79.56,3.47,1.29,5.26,1.84a5.39,5.39,0,0,0,2.38.44.44.44,0,0,0,.32-.07.13.13,0,0,0,0-.15h0a.21.21,0,0,0,.17.2,5.82,5.82,0,0,0,2.42-.58,2.29,2.29,0,0,1,.37-.12,3.57,3.57,0,0,0,1.18-.39,26.06,26.06,0,0,1,2.53-1c.47-.19.94-.35,1.41-.52s1-.39,1.41-.6a4.09,4.09,0,0,0,1.18-.44c1.12-.16,2.17-1,3.31-1.15a1.32,1.32,0,0,0,.39-.15,6.86,6.86,0,0,1,1.56-.65,16.47,16.47,0,0,1,1.67-.72c.23-.07.49-.2.68-.24a6.11,6.11,0,0,0,1.91-.71,1.6,1.6,0,0,1,.37-.12,4.14,4.14,0,0,0,1.07-.33l2.23-.84,2.38-.89c.71-.28,1.39-.59,2.1-.86l4.89-1.84c1.61-.58,3.17-1.25,4.81-1.75,1-.29,2-.72,2.93-1.1s1.71-.52,2.57-.9a12.11,12.11,0,0,1,2.43-.94,1.17,1.17,0,0,0,.26-.1,14.36,14.36,0,0,1,2.09-.91c.17-.07.43-.1.55-.17.57-.33,1.3-.51,1.84-.82l.69-.36.18-.1.25-.13a.68.68,0,0,0,.3-.44l.06-.4L246,306.17a2.38,2.38,0,0,0,.42-1.46s.1-7.25.1-7.25a2.86,2.86,0,0,0-.67-1.7,2.82,2.82,0,0,0-1.49-1c.1.21-29.81-10.7-29.81-10.7a5.39,5.39,0,0,0-4.39.37c-.14,0-6.6,2.36-13.59,4.95-.07-.09-.12-.18-.18-.26L195,287.38c-.47-.57-1-1.12-1.42-1.71A7.92,7.92,0,0,0,193,285l35.61-14.66a21.55,21.55,0,0,0,9.62.22,24.81,24.81,0,0,0,5.22-1.87,24.51,24.51,0,0,0,11.42-11.73l.16-.34a16.83,16.83,0,0,0,5.34-10.85,17.13,17.13,0,0,0-.13-4.11,6.2,6.2,0,0,0,3-1.86,6.91,6.91,0,0,0,1.17-3.74,10.91,10.91,0,0,0-.54-5.62,9.86,9.86,0,0,0-3.43-3.79c-.5-.37-1-.71-1.51-1.06l-20.64-7.21,5.26-3.16Zm-.67.2-.5.15ZM34.74,115.15l-23.39-6.88v-.34L34.8,99ZM98.61,261.36h0s0,0,0,0Zm32-113,.32-2.27v3.32q-.36.15-.72.27A4.36,4.36,0,0,0,130.56,148.31Zm-.05,42.3h0V176.5l25.05-5.1h.06Zm91.54,46.74h0a1.36,1.36,0,0,1,0-.2A1.36,1.36,0,0,1,222.05,237.35Zm13.66-97.47a8.7,8.7,0,0,1-.32-.9,16.06,16.06,0,0,1-.62-4.92,7.46,7.46,0,0,0,.82.5,3.84,3.84,0,0,0,.93.4c.18.08.39.14.58.21Z"
          transform="translate(-0.03 0)" fill="#efb8ab" />
      </g>
      <g clip-path="url(#clip-path-2)">
        <path
          d="M252.44,189.21c-.54,3-2.49,5.28-4.49,7.31-1,1-1.94,1.91-2.95,2.82a71.75,71.75,0,0,1-9.94,7.59,12.84,12.84,0,0,1-1.05-.86l-1.12-1c-.7-.67-1.41-1.4-2.1-2.17a104.9,104.9,0,0,1-7.22-9.08c-6.48,4.07-12.76,8.37-18.65,12.65l-.76.73a48.7,48.7,0,0,0-6.68-3.39c-4.32-1.64-9-1.93-13.56-2.91s-9.18-2.93-11.7-6.82a16.38,16.38,0,0,1,.74-5,3.76,3.76,0,0,1-1.41-.56,14.39,14.39,0,0,1-7.27-9.62,50.45,50.45,0,0,0,7-4.38,2,2,0,0,1,2-2.53,5.43,5.43,0,0,0,1.66.19,2.21,2.21,0,0,0,.93-.66c6-6.12,10.58-13.63,17.09-19.21a17.22,17.22,0,0,1,7.18-4,47.07,47.07,0,0,1,6.29-.5,21.87,21.87,0,0,1-.6,4.83c1,1.13,1.4,2.82,2.75,3.45a3.55,3.55,0,0,0,1.51.3,14.79,14.79,0,0,0,6.18-1.56,35.67,35.67,0,0,0,8.26-5.19h0a6.88,6.88,0,0,1,1.65-2.06,7.38,7.38,0,0,1,4.47-1.59,11.27,11.27,0,0,1,4.44.8,11.55,11.55,0,0,1,3.81,2.42,16.88,16.88,0,0,1,4.61,7.74,14.4,14.4,0,0,1,1.94,4.65Q249.31,175.3,252.44,189.21Zm-1.2-124.89a6.38,6.38,0,0,0-1.07-2.89c-.19-.28-.36-.63-.73-.76a.7.7,0,0,1-.26-.2.29.29,0,0,1-.1-.12s0,0,0-.06,0-.11,0-.13l-.06,0a.7.7,0,0,0,.14-.16l.11-.16c.06-.08.12-.18.18-.27s.22-.38.33-.58c-.12-.49.44-.66.47-1.09,0-.14.13-.28.06-.45a.45.45,0,0,1,.06-.36c.22-.16.21-.43.23-.65a5.4,5.4,0,0,0-.13-2.65c-.2-.48-.32-1-.49-1.55a5.7,5.7,0,0,0-.9-1.37,2.81,2.81,0,0,1-.46-.78,10.1,10.1,0,0,0-2.3-2,3.28,3.28,0,0,0-.75-.18,4.84,4.84,0,0,1-.75-.39.4.4,0,0,0-.15,0c-.22.14-.45,0-.68,0a1.72,1.72,0,0,1-.86-.25,16.32,16.32,0,0,1-2.21.06c-.18,0-.41,0-.53,0-.42.26-.93.14-1.38.31a6.27,6.27,0,0,1-1.55.19c-.15,0-.35.08-.43,0s-.42,0-.63,0-.41-.07-.61-.06c-1,0-2.07,0-3.09,0h-.73a1.44,1.44,0,0,1-.68-.11,1.05,1.05,0,0,0-.7,0c-.19.07-.32.14-.46,0-.16.18-.4.08-.6.06a19.8,19.8,0,0,1-2.72-.62c-.46-.1-1,0-1.38-.39a.21.21,0,0,0-.19,0,.84.84,0,0,1-.75-.24,1.51,1.51,0,0,0-.63-.4c-.79-.36-1.61-.73-2.44-1.14a18.9,18.9,0,0,0-2-.86c-.33-.13-.68-.25-1-.35a12.22,12.22,0,0,0-1.28-.32,1.54,1.54,0,0,0-.5.2l-.18.1a.71.71,0,0,0-.13.12c-.27.26-.76.29-1,.62-.56,0-1,.36-1.48.54a15.52,15.52,0,0,0-3.49,1.95,2.86,2.86,0,0,0-.56.64,3.5,3.5,0,0,1-.51.64c-.32.2-.12.48-.27.72a3.84,3.84,0,0,0-.41,1.28,2.73,2.73,0,0,0-.1,1.27,3.69,3.69,0,0,1,.12,1.24.4.4,0,0,0,.07.24c.31.3.28.78.55,1.08s.51.67.76,1c.14.18.23.4.37.57l.15.19a.31.31,0,0,0,.13.06.9.9,0,0,1,.28.08c0,.1-.18.2-.24.32s-.17.21-.24.33a1,1,0,0,0-.18.46,1.31,1.31,0,0,1-.37.55c-.24.23-.25.63-.54.79a1.71,1.71,0,0,1-.1.67,7.06,7.06,0,0,0-.24,1,3.12,3.12,0,0,1-.17.91c-.18.34.18.62.11,1,0,.09.05.24,0,.31a1.58,1.58,0,0,0,.12,1.09,6.86,6.86,0,0,0,2.14,3.2,7.1,7.1,0,0,0,1.94,1.21.11.11,0,0,1,.08,0c.26.32.73.26,1.1.35l.36.17a2.64,2.64,0,0,0,.48.14c.45.06.88.19,1.32.27a6.08,6.08,0,0,0,1.28.18,6.58,6.58,0,0,1,1.31.25c.18,0,.37,0,.54,0s.37.18.58.24a1.22,1.22,0,0,0,.63,0c.11,0,.35.26.56.21a3.81,3.81,0,0,1,1.34.18c.4.07.79.17,1.17.25.13,0,.28.1.37.07.39-.15.75.07,1.13.13s.82.17,1.24.27c.09,0,.18.15.27.15a3.74,3.74,0,0,1,1.64.37,2,2,0,0,0,.49,0c.07,0,.17,0,.2,0,.39.33,1,.2,1.37.42a4.36,4.36,0,0,0,1.46.41,35.39,35.39,0,0,0,4.7.88c.95.25,1.92.35,2.86.67a7.1,7.1,0,0,0,.79.22l.4.07c.15,0,.33,0,.5.06h-.07c.35,0,.71.06,1.06.09.06,0,.14,0,.16,0,.37-.2.78,0,1.14-.12a8.07,8.07,0,0,1,1.11-.22,10.87,10.87,0,0,0,1.12-.18l.55-.13.27-.07c.1-.06.28-.06.39-.16l.29-.21.24-.16.47-.29a2.79,2.79,0,0,0,.8-.69,4.27,4.27,0,0,0,.72-.87,10.39,10.39,0,0,0,1.11-2.46c0-.14.21-.37.28-.59a2.33,2.33,0,0,0,0-.53.61.61,0,0,1,0-.11,3.24,3.24,0,0,0,.2-1.31A5.39,5.39,0,0,0,251.24,64.32Zm21.23,97.41a20.13,20.13,0,0,0-2.45-6.41,19.18,19.18,0,0,0-8.21-6.92c-1.11-.53-2.24-1-3.4-1.42l.12.07a.72.72,0,0,1,.22.17,2.2,2.2,0,0,0,.67.58,5.36,5.36,0,0,1,1.38,1.39,9,9,0,0,1,.62.9l.59.95c.13.23.12.6.37.85.08.83.75,1.62.68,2.5a.85.85,0,0,0,.06.31,3.51,3.51,0,0,1,.29,1.23,6.84,6.84,0,0,1,.25,1.35,5.06,5.06,0,0,1,0,.54,4.43,4.43,0,0,0,.12,1.54.76.76,0,0,1,0,.3,2.42,2.42,0,0,0,0,.85l.07,1.82c0,.64,0,1.28.06,1.93s.08,1.14.09,1.71c0,1.33,0,2.66-.15,4a26,26,0,0,1-.47,3.84c-.17.74-.27,1.55-.43,2.33s-.4,1.29-.52,2A6,6,0,0,1,262,180a.66.66,0,0,0-.06.2,6.6,6.6,0,0,1-.4,1.69,2.37,2.37,0,0,0-.16.4c-.06.5-.32,1-.4,1.48a9.13,9.13,0,0,1-.39,1.45c-.14.4-.32.78-.47,1.19a1.78,1.78,0,0,0-.2.79,2.9,2.9,0,0,0-.38.84c-.45,1.24-.94,2.47-1.49,3.66-.08.2-.18.42-.24.6a5.55,5.55,0,0,1-.75,1.5,5,5,0,0,0-.59,1,3.74,3.74,0,0,1-.44.84c-.39.64-.84,1.25-1.26,1.85a6.17,6.17,0,0,1-1.58,1.52,2.73,2.73,0,0,0-.66.61,2.8,2.8,0,0,1-.53.61,8.27,8.27,0,0,1-.71.74,9.49,9.49,0,0,1-.83.58,1.72,1.72,0,0,0-.35.25,3.77,3.77,0,0,1-1.08.82,16.15,16.15,0,0,1-3,1.44,24.86,24.86,0,0,1-3.15,1,9.12,9.12,0,0,0-1.77.64,9.76,9.76,0,0,0-1,.59,97.33,97.33,0,0,0,11.78,3.14c3.66,1,7.54-1,10.29-3.59,5.38-5.16,7.79-12.64,9.39-19.93C273.23,178,274.27,169.66,272.47,161.73Zm-129.94.72L67.9,176.83,26,168.66l0-.07a1.26,1.26,0,0,0-.36.92v5.66a1.35,1.35,0,0,0,.22.76,1.41,1.41,0,0,0,.61.5c3.64,1.51,24.1,7,41.71,7.78,36.48-4,74-13.67,74-13.67a2,2,0,0,0,1.64-1.95l0-4.29a2,2,0,0,0-1.28-1.85Zm121.29,68a9.86,9.86,0,0,0-3.43-3.79l-27.92,7.81c.06-.7.11-1.39.13-2.08a19.61,19.61,0,0,0-1.66-9.62L248.83,212l.6-.36.06-.05h0l-.68-1.78-43.25,12.89a42.57,42.57,0,0,0,14.74,2.54c1,3.66,1.95,7.36,1.81,11.14,0,.31,0,.64-.06,1l-.1,0-1,.28-34.22,9.57-67.92,46c-1.83,1.23-4.21,1.09-6.38.8a67.08,67.08,0,0,1-28.48-10.84,19.88,19.88,0,0,1-5.84-5.45A9.8,9.8,0,0,1,77,275.47a11.82,11.82,0,0,0-1,4,17.91,17.91,0,0,0,.24,4.2,18.34,18.34,0,0,0,1.21,4,18.83,18.83,0,0,0,2.12,3.63,17.76,17.76,0,0,0,2.92,3,67.12,67.12,0,0,0,31.71,11.26,27.68,27.68,0,0,0,7.16-.12c5.09-.9,9.49-4,13.7-7L189.43,260,207,255.43l.91-.24.61-.15a7.74,7.74,0,0,0,.67,2.32,8.07,8.07,0,0,0,1.34,2,7.93,7.93,0,0,0,4.13,2.42,8.25,8.25,0,0,0,1.79.2,8.17,8.17,0,0,0,1.56-.15,8.41,8.41,0,0,0,1.5-.46,8,8,0,0,0,1.39-.74,7.65,7.65,0,0,0,1.21-1,8.35,8.35,0,0,0,1-1.21,8,8,0,0,0,.73-1.39,7.88,7.88,0,0,0,.46-1.5,8.27,8.27,0,0,0,.15-1.57,7.61,7.61,0,0,0-.13-1.43,22.32,22.32,0,0,0,1.93-2.08c16.69-4.3,32.8-8.45,33-8.53a7.72,7.72,0,0,0,3.9-2.16,6.91,6.91,0,0,0,1.17-3.74A10.91,10.91,0,0,0,263.82,230.42Zm5.26-99.76a4.12,4.12,0,0,0,0-.93,5.52,5.52,0,0,1-.11-.91.37.37,0,0,0,0-.18c-.12-.25-.11-.6-.25-.85s-.2-.6-.33-.89-.1-.32-.16-.49a1.8,1.8,0,0,0-.25-.5c-.21-.31-.39-.64-.62-1a2,2,0,0,0-.49-.59,2.64,2.64,0,0,1-.3-.42c-.14-.2-.39-.37-.47-.58s-.26-.19-.41-.3-.41-.36-.62-.52a4.05,4.05,0,0,1-.57-.43c-.19-.2-.45-.18-.66-.34-.06,0-.17-.09-.21-.12a2.77,2.77,0,0,0-.74-.39,24.59,24.59,0,0,0-2.78-.82l-1.26-.36c.29.09.57.19.85.3a2.31,2.31,0,0,1,.68.35s.14.07.19.11.44.13.61.32a3.42,3.42,0,0,0,.52.4c.2.14.39.31.58.47a3.37,3.37,0,0,0,.37.29c.08.19.31.34.43.53a2.07,2.07,0,0,0,.28.38,1.94,1.94,0,0,1,.44.55c.21.28.37.59.57.88a1.8,1.8,0,0,1,.23.46c.06.15.08.3.15.44s.18.55.3.82.11.56.23.79a.85.85,0,0,1,0,.17,4.59,4.59,0,0,0,.1.83,3.09,3.09,0,0,1,0,.86,4.64,4.64,0,0,1-.06.91c0,.19.06.3-.05.52a2.53,2.53,0,0,0-.12.53,3.58,3.58,0,0,1-.16.56,11,11,0,0,1-1.28,2.59,3.81,3.81,0,0,1-.78.92,6.62,6.62,0,0,1-.6.68,2,2,0,0,1-.37.34,9.07,9.07,0,0,1-2.74,1.55,9,9,0,0,1-2,.5,3,3,0,0,1-.6,0,1.78,1.78,0,0,0-.65,0h-.15a7.74,7.74,0,0,0-1.18-.12c-.77-.13-1.43-.39-2.15-.56a1,1,0,0,0-.46-.08.52.52,0,0,0-.34-.09,1.88,1.88,0,0,1-.53-.14,2.91,2.91,0,0,0-.5-.16l-.54-.15-2.28-.62-.44-.16a1.76,1.76,0,0,1-.44-.15,1.16,1.16,0,0,0-.32-.08,16.09,16.09,0,0,0-2.16-.48,2.49,2.49,0,0,1-.37-.09,10.41,10.41,0,0,0-1.54-.36,1.83,1.83,0,0,0-.6-.19,1.25,1.25,0,0,0-.46-.09l-.1,0-.54-.19a4.5,4.5,0,0,1-.51-.08c-.68-.18-1.33-.41-2-.56a2.61,2.61,0,0,0-.6-.19c-.37-.11-.73-.12-1.11-.25l-1.08-.39a3.37,3.37,0,0,1-.85-.37c-.27-.15-.54-.31-.8-.49a1.07,1.07,0,0,1-.37-.3,1,1,0,0,0-.2-.16,1,1,0,0,1-.26-.19c-.25-.14-.33-.45-.6-.56a8.17,8.17,0,0,1-.61-.71,6.86,6.86,0,0,1-.53-.76,1.11,1.11,0,0,1-.2-.37,1.18,1.18,0,0,0-.19-.39,1.49,1.49,0,0,1-.2-.29,7.47,7.47,0,0,0,.43,1.2,2,2,0,0,0,.35.69,1.3,1.3,0,0,1,.22.42,1.19,1.19,0,0,0,.21.42c.18.28.37.55.58.82s.43.52.66.76.39.46.66.62c.09,0,.17.16.28.2a.62.62,0,0,1,.22.17,1.2,1.2,0,0,0,.41.33,9.61,9.61,0,0,0,.87.53,3.84,3.84,0,0,0,.93.4c.18.08.39.14.58.21l-1.62,5.49c4.58,1.19,9.16,2.42,13.74,3.65l1.53-5.56,1.64.45.59.16a3.5,3.5,0,0,1,.55.17,1.86,1.86,0,0,0,.57.16.58.58,0,0,1,.38.09,1.43,1.43,0,0,1,.5.09c.78.19,1.51.47,2.34.61a9.24,9.24,0,0,1,1.29.13h.17a2.05,2.05,0,0,1,.7,0,2.92,2.92,0,0,0,.66,0,10.58,10.58,0,0,0,2.22-.54,10.4,10.4,0,0,0,3-1.69,2.79,2.79,0,0,0,.4-.37,9.4,9.4,0,0,0,.66-.74,4.11,4.11,0,0,0,.85-1,12,12,0,0,0,1.4-2.8,6.06,6.06,0,0,0,.16-.61,2.86,2.86,0,0,1,.13-.58c.13-.24,0-.35.06-.55A6.82,6.82,0,0,0,269.08,130.66Zm-135.48,135-.13-.13a1.67,1.67,0,0,1-.12.23L130,266a1.85,1.85,0,0,1-1.14-.06,1.76,1.76,0,0,1-.88-.71,16.92,16.92,0,0,1-.69-1.65,4.85,4.85,0,0,0-1.22-1.55,8.29,8.29,0,0,0-4.3-2,29.23,29.23,0,0,0,3.55-5.19c.74.61,1.46,1.18,2.17,1.7a9.73,9.73,0,0,0,1.28-1.72,6.18,6.18,0,0,0,.37-6.18,3.31,3.31,0,0,0-.48-.65l-.37.86a1.37,1.37,0,0,1-.31.48,1.22,1.22,0,0,1-.62.19,7,7,0,0,1-1.44.07c-1.38-.11-2.56-1-3.78-1.65s-2.75-1.13-3.94-.42a3,3,0,0,0,.09-.41,6,6,0,0,0-2.61,1.22,24.33,24.33,0,0,1-2.48,2.18,6.45,6.45,0,0,1-2.71.8c-3.73.41-7.61-.43-11.17.73A4.34,4.34,0,0,0,97,253.54a3.27,3.27,0,0,0-.37.75,6,6,0,0,0,.2,3.42c.56,2,1.54,4.08,3.42,5a9.77,9.77,0,0,0,3.14,7.21,19.17,19.17,0,0,0,6.91,4.09,39,39,0,0,0,11.82,2.49,6,6,0,0,1,1.63.22,8.85,8.85,0,0,1,1.39.75,4,4,0,0,0,2.55.69,2,2,0,0,0,1.21-.56,2,2,0,0,0,.62-1.19v0a8.67,8.67,0,0,0,5-6.73A5,5,0,0,0,133.6,265.69Zm112.24,30.07c-6.6,2.29-27.79,9.88-41.21,14.67,0,0,0,0,0,0a5.06,5.06,0,0,1,.11.86,44.35,44.35,0,0,1,.16,5.28,4.53,4.53,0,0,1-.14,1.22,2.55,2.55,0,0,1,0,1.1c-.09.56-.18,1.11-.26,1.67,0,0,0,.09,0,.13L246,306.17a2.38,2.38,0,0,0,.42-1.46s.1-7.25.1-7.25A2.86,2.86,0,0,0,245.84,295.76ZM8.8,95.18a5.08,5.08,0,0,0-1.21-.9,5,5,0,0,0-1.42-.51,5.41,5.41,0,0,0-1.5-.08,5,5,0,0,0-1.47.37,5.28,5.28,0,0,0-1.29.78A4.91,4.91,0,0,0,.9,96a4.87,4.87,0,0,0-.65,1.36A5.09,5.09,0,0,0,0,98.82v17.63a5.15,5.15,0,0,0,2.5,4.43,5.32,5.32,0,0,0,1.65.63,5,5,0,0,0,1.76,0A5.23,5.23,0,0,0,7.61,121,5.4,5.4,0,0,0,9,119.9a5.34,5.34,0,0,0,.94-1.5l24.79,7.3,0-10.55-23.87-7L34.8,99l0-10.84L10.15,97.56A5,5,0,0,0,8.8,95.18ZM246.29,40.73a4.44,4.44,0,0,0-.62-1.68c-.25-.36-.54-.69-.82-1l-.17-.23c-.54-.93-1.29-1.8-1.92-2.7s-1.25-1.79-1.89-2.67l-4.44-6a18.19,18.19,0,0,0-1.54-2,9,9,0,0,1-.9-1.23,9.75,9.75,0,0,0-.84-1.25l-1.93-2.6c-.32-.44-.62-.85-1-1.31A5.78,5.78,0,0,0,229,16.85a9,9,0,0,0-2.91-1.16,4.66,4.66,0,0,0-1.18,0,4.51,4.51,0,0,1-.9,0,7.85,7.85,0,0,0-1.68-.06c-2.17,0-4.33-.05-6.51.06-1.26.07-2.69,0-4,0s-2.7.09-4.07.09a16.93,16.93,0,0,1-2.25-.09c-2.52.06-5-.08-7.5-.08-.7,0-1.22.07-1.85.08s-1.38-.05-2.06-.08l-.37,0a7.76,7.76,0,0,1-1.67.06,15.48,15.48,0,0,1-2.26-.08c-1.84.18-3.79,0-5.68.08-.47,0-1.07,0-1.39,0-1.16.16-2.51,0-3.76.13s-2.79,0-4.2,0a9.14,9.14,0,0,1-1.17,0,13.57,13.57,0,0,0-1.69-.07c-.56,0-1.09-.07-1.65-.08l-8.51-.08h-2a15,15,0,0,1-1.9-.06,11.54,11.54,0,0,0-1.95,0,3.5,3.5,0,0,1-1.29,0,7.09,7.09,0,0,1-1.66.07c-2.65,0-5.24-.1-7.91-.09a28.19,28.19,0,0,1-4.11,0,2.44,2.44,0,0,0-.54,0,11.38,11.38,0,0,1-2.26,0,14.74,14.74,0,0,0-2.1-.06l-7.29.07h-11.1a16.4,16.4,0,0,0-1.7,0c-1,.09-2.21,0-3.21.1-1.43-.1-2.85-.12-4.27-.08s-2.73,0-4.11,0H104v-.33a1.21,1.21,0,0,0,0-.19,7,7,0,0,1-.09-1.37c0-.28,0-.58-.06-.88s0-.33,0-.49c0-.93,0-1.87,0-2.79S104,7.86,104,7c0-.52,0-1,0-1.35s-.18-2-.31-2.58a1.34,1.34,0,0,0-.27-.74c-.1-.13-.22-.52-.41-.76a2.79,2.79,0,0,0-.51-.46l-.12-.1a3,3,0,0,0-1.54-.83,3.64,3.64,0,0,0-.86-.17,7.14,7.14,0,0,0-.8,0H97.34a6.11,6.11,0,0,0-1,.05,3.32,3.32,0,0,0-1,.27,2.36,2.36,0,0,0-1.11.76,5.2,5.2,0,0,1-.57.58,1.68,1.68,0,0,0-.49.66A4.16,4.16,0,0,0,92.79,4c0,.56,0,1,0,1.56.23.46-.07.91,0,1.38a2.51,2.51,0,0,0,.06.55.85.85,0,0,1,0,.42,1.8,1.8,0,0,0-.06.8c0,1-.05,2.08.06,3.12a7.85,7.85,0,0,1,0,1.19c0,.25,0,.49,0,.73,0,.67.09,1.28.09,1.94a4,4,0,0,1-.09,1.08c.06,1.2-.08,2.38-.08,3.59,0,.33.07.57.08.88a4.58,4.58,0,0,1-.08,1,.55.55,0,0,0,0,.18,1.8,1.8,0,0,1,.06.8,3.56,3.56,0,0,1-.08,1.08A16.46,16.46,0,0,1,92.86,27a3.64,3.64,0,0,0,0,.66c.07.6.12,1.2.13,1.79a15,15,0,0,1,0,2A2.09,2.09,0,0,1,93,32a2.78,2.78,0,0,0-.07.81c0,.27-.06.53-.08.8v.82l-.07,3.24v1a3.46,3.46,0,0,1-.06.91,2.64,2.64,0,0,0,0,.93c.05.26.11.41,0,.62a1.63,1.63,0,0,1,.07.79c0,1.26-.1,2.51-.09,3.78a6.5,6.5,0,0,1,0,2,.58.58,0,0,0,0,.26,2.62,2.62,0,0,1,0,1.08,3.35,3.35,0,0,0-.06,1l.07,3.49v5.31a4.25,4.25,0,0,0,0,.8c.09.47,0,1.06.1,1.54a10,10,0,0,0-.08,2c0,1.62.09,3.24-.07,4.84,0,.31,0,.64,0,1a4.72,4.72,0,0,1,0,.92.7.7,0,0,0,0,.45l0,.19a2.36,2.36,0,0,1,0,.37c0,.35,0,.7,0,1.06l1.54-.22a8.42,8.42,0,0,0,1.41-.21,4.38,4.38,0,0,1,1.39-.17.92.92,0,0,0,.28,0,6.76,6.76,0,0,1,1.34-.26,7,7,0,0,1,1.44-.27c.26,0,.53,0,.79,0a4.13,4.13,0,0,0,.86-.11,4.34,4.34,0,0,1,.81-.19l1.15-.16v-1a2,2,0,0,0-.08-.59,2.68,2.68,0,0,1,.05-.8,5.54,5.54,0,0,1,.11-1.15,3,3,0,0,1-.08-.79V64.72a4,4,0,0,1,.06-1.1c.1-.41-.14-.73-.06-1.16,0-.11,0-.29,0-.37a4.23,4.23,0,0,0,.08-1.28V56.28c0-.87,0-1.75.07-2.62v-.1a4.51,4.51,0,0,0,.09-1.27c0-.42.07-.85.08-1.27,0-.57,0-1.16,0-1.73a13.25,13.25,0,0,0-.06-1.67,16.48,16.48,0,0,1,0-1.73c0-.23-.07-.46-.07-.69s.06-.52.07-.79a3.1,3.1,0,0,0-.07-.8c0-.15.12-.52.07-.77a8.52,8.52,0,0,1-.08-1.75c0-.52,0-1,0-1.54a1.93,1.93,0,0,0,0-.48,5.18,5.18,0,0,1-.06-1.47c0-.55,0-1.09,0-1.64,0-.13.06-.28.06-.4,0-.51-.06-.76-.06-1s0-.56.06-1.12a4.44,4.44,0,0,0,0-.63,2.11,2.11,0,0,1,0-.25c.06-.61.08-1.23.08-1.84a11.65,11.65,0,0,0,.07-2c0-.6,0-1.19,0-1.79h.25c.62,0,1.25,0,1.8,0,1-.08,2-.08,3.07-.08.56,0,1.1.07,1.65.08a18,18,0,0,0,1.8,0c1.22-.11,2.46-.06,3.68-.08.84,0,1.66,0,2.49-.06a9.43,9.43,0,0,1,1.68,0c.78.07,1.73,0,2.39.11a13.09,13.09,0,0,1,1.66-.08h2.62a17.82,17.82,0,0,1,2.31.06c.83.1,1.53-.13,2.4-.06.23,0,.61,0,.79,0a18.33,18.33,0,0,0,2.67.08h9.48l5.48.07h.2a19.71,19.71,0,0,0,2.66.09c.89,0,1.72.1,2.66.08h3.63c1.16,0,2.3,0,3.49-.07s2.39,0,3.61,0c.48,0,1-.07,1.44-.07s1.09.06,1.65.07a15.72,15.72,0,0,0,1.68-.06c.31,0,1.07.12,1.6.06,1.2-.13,2.46-.06,3.68-.08h3.23a8.17,8.17,0,0,0,1,0,24.32,24.32,0,0,1,3.08-.07c1.13,0,2.28,0,3.42,0,.28,0,.58.07.82.06a40.63,40.63,0,0,1,4.55,0c.41,0,.87,0,1.3,0,.19,0,.43,0,.53,0,1.23.16,2.68,0,3.85.08,1.39.11,2.74.08,4.1.07,4.31,0,8.65.1,12.95-.08h3.94l2,0h.91a1.24,1.24,0,0,1,.63.3L227,32.85c.09.11.18.26.24.32A25.35,25.35,0,0,1,229,35.42c.61.73,1.19,1.46,1.78,2.25,1.15,1.57,2.31,3.17,3.48,4.71a9.68,9.68,0,0,0,2,2.15,6.33,6.33,0,0,0,2.58,1.15,6.74,6.74,0,0,0,3,0,5.49,5.49,0,0,0,1.88-.88c.81-.55,1.12-.91,1.33-1a2.51,2.51,0,0,0,1-1.39A2.73,2.73,0,0,0,246.29,40.73Zm-153,90.61V155.4l10.11-1.94V129.92Zm39.14,12.88a3.17,3.17,0,0,0-.74,2.3,15.94,15.94,0,0,0,3.14,9.16c3.26,4.15,8.74,5.81,14,6.63,5.69.89,11.63,1,17.1-.76s10.44-5.75,12.43-11.16a8.23,8.23,0,0,0,.1-6.35c-1.13-2.36-3.73-3.59-6.19-4.44a51.52,51.52,0,0,0-26.29-2C140.8,138.56,135.58,140.47,132.45,144.22Z"
          transform="translate(-0.03 0)" fill="#595ea4" />
      </g>
      <path
        d="M219.57,143.45a4.76,4.76,0,0,1-3.63,0,5,5,0,0,1-1.76-1.34,5.13,5.13,0,0,1-1.36-2.75.6.6,0,0,1,.11-.53.65.65,0,0,1,.63-.08c3,.68,5.83,1.74,8.84,2.19A4.73,4.73,0,0,1,219.57,143.45Zm40.65,98.19-.93.3c-.22.08-16.33,4.23-33,8.53a22.32,22.32,0,0,1-1.93,2.08,7.61,7.61,0,0,1,.13,1.43,8.27,8.27,0,0,1-.15,1.57,7.88,7.88,0,0,1-.46,1.5,8,8,0,0,1-.73,1.39,8.35,8.35,0,0,1-1,1.21,7.65,7.65,0,0,1-1.21,1,8,8,0,0,1-1.39.74,8.41,8.41,0,0,1-1.5.46,8.17,8.17,0,0,1-1.56.15,8.25,8.25,0,0,1-1.79-.2,7.93,7.93,0,0,1-4.13-2.42,8.07,8.07,0,0,1-1.34-2,7.74,7.74,0,0,1-.67-2.32l-.61.15-.91.24L189.43,260,166.8,276a17.48,17.48,0,0,0,9.94,1.89c5-.48,9.65-2.69,14.06-5.09s8.73-5.07,13.5-6.61A61.77,61.77,0,0,1,217.83,264a21.77,21.77,0,0,0,20.38,6.59,24.81,24.81,0,0,0,5.22-1.87,24.51,24.51,0,0,0,11.42-11.73l.16-.34a16.83,16.83,0,0,0,5.34-10.85A17.13,17.13,0,0,0,260.22,241.64Zm-26.87-85.79c-.21,0-.41,0-.63-.07l-.48-.07a2.69,2.69,0,0,0-.75,0c-.14,0-.46-.15-.69-.11a7.31,7.31,0,0,1-1.62-.06c-.48,0-.94-.08-1.41-.13a2.18,2.18,0,0,0-.44,0,4.44,4.44,0,0,1-1.36-.06c-.5,0-1-.12-1.49-.18-.13,0-.25-.1-.35-.11a7.28,7.28,0,0,1-2-.27,2.82,2.82,0,0,0-.58,0h-.24a15.25,15.25,0,0,0-1.66-.34,9.62,9.62,0,0,0-1.76-.35c-1.89-.29-3.73-.79-5.61-1-1.12-.29-2.27-.47-3.38-.85-1-.31-2-.51-3-.78l-.17,0a4.72,4.72,0,0,1-1.23-.25,8.42,8.42,0,0,1-1.23-.27c-.83-.25-1.64-.52-2.47-.75s-1.53-.65-2.26-.83c-.46-.15-.83-.31-1.18-.39a4.5,4.5,0,0,0-.9-.08,1.73,1.73,0,0,0-1.22.86,1.79,1.79,0,0,0-.25.61,3,3,0,0,1-.32.64c-.07.17-.11.36-.17.55l-.05.11a10.51,10.51,0,0,0-.65,1.3c-.23.42-.48.82-.71,1.24-.51,1-1.05,1.9-1.61,2.84a3.49,3.49,0,0,0-.52,1,1.37,1.37,0,0,1-.37.55,2.29,2.29,0,0,0-.41.53l-.77,1.2-.78,1.19c-.05.48-.53.68-.7,1.08-.06.14-.2.27-.22.44a.73.73,0,0,1-.2.34,1.43,1.43,0,0,0-.46.6c-.51.81-1.09,1.58-1.52,2.44a11.9,11.9,0,0,1-1,1.5c-.36.51-.57,1.05-.91,1.56a3.34,3.34,0,0,1-.61.79c-.56,1-1.27,1.8-1.88,2.73-.17.26-.23.49-.37.74a5.46,5.46,0,0,1-.56.71.46.46,0,0,0-.09.15c0,.24-.22.45-.35.65l-.37.6a6.12,6.12,0,0,1-.5.64l.08.06c.38.14.71.26,1,.4l.36.15.28.14c.38.19.75.39,1.14.55a3.57,3.57,0,0,0,.56.26,12.73,12.73,0,0,1,1.56.58,12.26,12.26,0,0,1,1.7.76,1.82,1.82,0,0,1,.47.22,2,2,0,0,0,.65.37c.21.12.41.27.63.37,1.14.55,2.28,1.08,3.43,1.58l.82.34a3.6,3.6,0,0,1,.76.38,2.21,2.21,0,0,0,.8.32c.24,0,.39.05.54.23.22-.06.47.1.71.18,1.1.41,2.15.92,3.28,1.28a6.3,6.3,0,0,1,1.74.55.69.69,0,0,0,.24,0,2.19,2.19,0,0,1,1,.26,3.58,3.58,0,0,0,.88.32c1,.27,2.11.5,3.17.74,1.61.36,3.22.67,4.85.92a3.21,3.21,0,0,0,.76.06,13.52,13.52,0,0,0,1.42.08,6.71,6.71,0,0,0,1.88.3c.74.1,1.49.15,2.24.2l1.12.1.56.07.74.09.37,0,.46-.93a4.44,4.44,0,0,1,.42-.74c.27-.26.16-.48.32-.73s.43-.84.64-1.27a7.69,7.69,0,0,0,.58-1.19,3.8,3.8,0,0,1,.59-1.15,1.34,1.34,0,0,0,.12-.24c0-.43.37-.8.48-1.18a7.26,7.26,0,0,1,.54-1.25c.11-.21.26-.4.39-.62a3,3,0,0,0,.34-.72,11.58,11.58,0,0,1,.65-1.49,4.52,4.52,0,0,0,.43-1,1.91,1.91,0,0,1,.35-.66c.21-.28.31-.7.57-.9a2.1,2.1,0,0,1,.24-.69l.5-1a3.7,3.7,0,0,1,.5-.89c.26-.29.17-.67.4-1,.07-.09.1-.26.15-.31a3.55,3.55,0,0,0,.58-1l1.8-3.79c.35-.73.73-1.45,1.1-2.16a.36.36,0,0,1,0-.09,3.35,3.35,0,0,0,.57-1,10.35,10.35,0,0,0,.57-1c.2-.49.45-1,.67-1.46a12.74,12.74,0,0,0,.58-1.44,2.13,2.13,0,0,1,.14-.35l.18-.41c.21-.46.44-.93.64-1.38l.09-.23C234,155.85,233.64,155.88,233.35,155.85ZM115.68,125V76.06L44.57,85.49v48.89ZM220.47,51.18a.57.57,0,0,0,0-.26.43.43,0,0,0,0-.25.29.29,0,0,1-.06-.24.06.06,0,0,0,0,0c-.08-.06-.05-.15-.11-.22a.42.42,0,0,1-.11-.22.68.68,0,0,1,0-.14.31.31,0,0,0-.06-.13c-.1-.07-.12-.17-.18-.25s-.06-.12-.13-.16-.06-.07-.06-.12-.1-.1-.08-.19a.21.21,0,0,1-.11-.08,1,1,0,0,0-.14-.17s-.1-.07-.1-.15-.13,0-.16-.12,0,0,0,0-.08-.12-.14-.18a5.5,5.5,0,0,0-.64-.43l-.39-.24h0c0-.1-.13-.08-.19-.12l-.2-.11-.3-.08a.7.7,0,0,0-.29,0,1.53,1.53,0,0,1-.3,0l-.13,0a.65.65,0,0,1-.13,0,.17.17,0,0,0-.14,0s-.09,0-.14,0a.61.61,0,0,1-.3,0l-.26,0s-.07,0-.08,0-.17,0-.24.08a1.43,1.43,0,0,1-.28.07h-.07a.69.69,0,0,1-.36.13s-.05,0-.08.07l0,0c-.12,0-.2.09-.3.11a.6.6,0,0,0-.31.15,2.5,2.5,0,0,0-.78.74c-.17.14-.26.34-.43.5a1.85,1.85,0,0,0-.3.51s0,0,0,0-.05.15-.05.23a.93.93,0,0,1,0,.24,1.86,1.86,0,0,0-.13.46c0,.16-.13.3-.12.44a.65.65,0,0,0,0,.24c0,.14.06.28.08.42s-.06.08,0,.13,0,.08,0,.13a1.17,1.17,0,0,0,0,.11,0,0,0,0,1,0,0c0,.09,0,.18,0,.27a2.48,2.48,0,0,0,0,.27,2.57,2.57,0,0,0,.2.59c0,.06,0,.14.12.17a.13.13,0,0,1,0,.12.14.14,0,0,0,0,.12l.14.23a1.77,1.77,0,0,0,.16.22c.13,0,.06.16.13.2s0,.05.09.05a.06.06,0,0,1,0,0c0,.07,0,.09.07.13a1.49,1.49,0,0,0,.41.34.73.73,0,0,1,.26.2c.08.09.22.09.31.15a.24.24,0,0,1,.14.12c.19.07.34.23.54.3a.43.43,0,0,0,.16,0,.75.75,0,0,1,.15.09s0,0,0,0,.1,0,.15,0a.25.25,0,0,1,.17.08c.16-.06.31,0,.47,0s.08,0,.12,0,.19,0,.3-.05a1,1,0,0,1,.34,0s.07,0,.09,0,.09,0,.14,0l.14,0a3,3,0,0,0,.68-.14l.16-.06a.51.51,0,0,1,.17,0,.18.18,0,0,0,.14-.06s0-.08.1,0,.07-.07.11-.1a3.86,3.86,0,0,0,.56-.32c.1-.08.12-.22.27-.23s0,0,0,0a.15.15,0,0,1,.12-.14.24.24,0,0,0,.15-.11,3.45,3.45,0,0,0,.35-.5,4.11,4.11,0,0,0,.43-.8.2.2,0,0,0,0-.15c0-.09.08-.16,0-.26.11-.08.08-.22.12-.33.09-.27.05-.55.14-.82a.48.48,0,0,0,0-.17c0-.05,0-.12,0-.16S220.46,51.23,220.47,51.18ZM220.3,61a.8.8,0,0,0,0-.27.4.4,0,0,0-.05-.24.29.29,0,0,1-.05-.24.06.06,0,0,0,0,0c-.09-.06,0-.15-.11-.22a.43.43,0,0,1-.12-.22.68.68,0,0,0,0-.14.35.35,0,0,0-.06-.14c-.09-.06-.11-.16-.17-.24s-.06-.13-.14-.16,0-.08-.06-.12-.09-.1-.07-.2a.16.16,0,0,1-.11-.07,2.09,2.09,0,0,0-.14-.17c0-.05-.1-.07-.1-.15s-.14,0-.16-.12-.06,0-.06,0-.08-.13-.13-.17a4.62,4.62,0,0,0-.64-.45l-.39-.23h0c0-.1-.13-.08-.2-.12a.52.52,0,0,0-.19-.11L217,57a.61.61,0,0,0-.3,0,.92.92,0,0,1-.29,0s-.09,0-.13,0a.93.93,0,0,0-.13,0,.16.16,0,0,0-.15,0s-.08-.06-.13,0-.2,0-.3.06l-.27,0s-.07,0-.08,0-.16.06-.24.1l-.27.06s-.05,0-.08,0a.55.55,0,0,1-.35.12s-.06.05-.08.07l0,0c-.12,0-.2.09-.31.11a.57.57,0,0,0-.3.15,2.43,2.43,0,0,0-.79.74c-.16.14-.26.34-.43.5a1.92,1.92,0,0,0-.29.5s0,0,0,0-.06.14-.06.23a.69.69,0,0,1,0,.24,1.83,1.83,0,0,0-.12.46c0,.16-.13.29-.12.44a.64.64,0,0,0,0,.24,2.83,2.83,0,0,1,.07.42s-.05.08,0,.13,0,.08,0,.13a.3.3,0,0,0,0,.1s0,0,0,0,0,.18,0,.27a1.24,1.24,0,0,0,0,.27A2.91,2.91,0,0,0,212,63c0,.06,0,.13.12.17a.1.1,0,0,1,0,.11.15.15,0,0,0,0,.13l.14.23a1.43,1.43,0,0,0,.15.22c.13,0,.06.15.14.19s0,.06.08.06.06,0,.06.05,0,.09.07.12a1.48,1.48,0,0,0,.4.35.73.73,0,0,1,.27.2c.08.08.21.08.31.14a.24.24,0,0,1,.13.13c.2.06.35.22.55.29s.1,0,.16,0,.09.06.15.09h0c.05,0,.1,0,.14,0a.25.25,0,0,1,.18.08c.16-.06.31,0,.46,0s.09,0,.12,0,.2,0,.31-.06a.73.73,0,0,1,.33,0s.08,0,.1,0,.09,0,.14,0a.32.32,0,0,0,.14,0,2.65,2.65,0,0,0,.68-.14l.16-.05a.22.22,0,0,1,.16,0,.18.18,0,0,0,.15-.07s0-.08.09,0,.08-.07.11-.1a3.25,3.25,0,0,0,.57-.33c.1-.07.11-.22.27-.22a.07.07,0,0,0,0,0,.15.15,0,0,1,.12-.14.23.23,0,0,0,.14-.11,5.74,5.74,0,0,0,.36-.5A5.19,5.19,0,0,0,220,63a.22.22,0,0,0,0-.14c0-.09.07-.17,0-.27s.09-.21.13-.32c.08-.27,0-.56.14-.83a.43.43,0,0,0,0-.16c0-.06,0-.12,0-.17S220.29,61,220.3,61Zm26.31-6.47a.59.59,0,0,0,0-.26.67.67,0,0,0,0-.24.26.26,0,0,1-.06-.24s0,0,0,0,0-.16-.11-.22a.39.39,0,0,1-.11-.22.89.89,0,0,1,0-.14.42.42,0,0,0-.06-.14c-.09-.06-.11-.16-.18-.24s-.05-.12-.13-.16-.05-.07-.06-.13-.09-.1-.07-.18a.18.18,0,0,1-.11-.08,1.15,1.15,0,0,0-.14-.17c0-.05-.1-.08-.1-.15s-.14,0-.17-.12,0,0,0,0-.09-.13-.14-.18a6.62,6.62,0,0,0-.64-.44l-.39-.24h0c0-.1-.14-.08-.2-.12a.72.72,0,0,0-.19-.11l-.3-.08a.72.72,0,0,0-.29,0,1.06,1.06,0,0,1-.31,0s-.08,0-.12,0a.93.93,0,0,0-.13,0,.16.16,0,0,0-.15,0s-.08-.06-.13,0-.21,0-.3.06l-.27,0s-.07,0-.08,0-.16.06-.24.09l-.27.06s-.06,0-.08,0a.57.57,0,0,1-.35.14s-.06,0-.09.06l0,0c-.13,0-.2.09-.31.1a.84.84,0,0,0-.31.16,2.37,2.37,0,0,0-.77.74c-.17.14-.27.34-.43.49a1.9,1.9,0,0,0-.3.51.06.06,0,0,0,0,0c0,.1-.06.15-.06.23a.69.69,0,0,1-.05.24,2.42,2.42,0,0,0-.13.46c0,.16-.12.29-.11.44a.62.62,0,0,0,0,.23A2.31,2.31,0,0,1,238,55s0,.08,0,.13,0,.08,0,.13,0,.08,0,.11a0,0,0,0,1,0,0c0,.09,0,.18,0,.27a2.45,2.45,0,0,0,0,.27,4.1,4.1,0,0,0,.2.59c0,.06,0,.13.12.16a.16.16,0,0,1,.05.12.19.19,0,0,0,0,.13l.15.23a1.07,1.07,0,0,0,.15.22c.13,0,.06.15.14.19s0,.06.08.06.06,0,.06,0,0,.09.07.12a1.45,1.45,0,0,0,.4.34.79.79,0,0,1,.27.21c.08.08.22.08.3.15a.21.21,0,0,1,.14.12c.2.06.34.23.55.29.05,0,.1,0,.16,0a.34.34,0,0,1,.14.09h0c.05-.05.1,0,.14,0a.21.21,0,0,1,.17.08c.17-.06.32,0,.47,0s.09,0,.12,0,.2,0,.3-.06a1,1,0,0,1,.34,0s.07,0,.1,0,.09,0,.14,0a.32.32,0,0,0,.14,0,2.65,2.65,0,0,0,.68-.14l.16,0a.29.29,0,0,1,.16,0,.18.18,0,0,0,.15-.07s0-.08.1,0,.06-.07.1-.1a3.25,3.25,0,0,0,.57-.33c.1-.07.11-.21.26-.22a0,0,0,0,0,0,0,.14.14,0,0,1,.12-.14.24.24,0,0,0,.14-.12,3.64,3.64,0,0,0,.36-.49,5.15,5.15,0,0,0,.43-.8.4.4,0,0,0,0-.15c0-.09.07-.17,0-.26s.09-.22.13-.33c.08-.27.05-.56.14-.83a.48.48,0,0,0,0-.17s0-.11,0-.15S246.61,54.55,246.61,54.49Zm0,11.53a.57.57,0,0,0,0-.26.69.69,0,0,0,0-.25.26.26,0,0,1-.06-.24.06.06,0,0,0,0,0c-.09,0,0-.15-.11-.21a.41.41,0,0,1-.11-.23.7.7,0,0,1,0-.14.31.31,0,0,0-.06-.13c-.09-.06-.11-.17-.18-.24s-.05-.13-.13-.17-.05-.07-.06-.12-.09-.1-.07-.19a.15.15,0,0,1-.11-.08,1.07,1.07,0,0,0-.14-.16c0-.05-.1-.08-.1-.16s-.14,0-.17-.12,0,0,0,0-.09-.13-.14-.17a5.21,5.21,0,0,0-.64-.44,4.11,4.11,0,0,0-.39-.24h0c0-.09-.14-.07-.2-.11a.55.55,0,0,0-.19-.12l-.3-.08a1,1,0,0,0-.29,0,.8.8,0,0,1-.31,0l-.12,0a.5.5,0,0,1-.13,0,.19.19,0,0,0-.15,0s-.08-.05-.13,0a.65.65,0,0,1-.3.05l-.27,0s-.07,0-.08,0-.16.06-.24.1l-.27.06s-.06,0-.08,0a.63.63,0,0,1-.35.13s-.06,0-.09.06l0,0c-.13,0-.2.09-.31.11a1,1,0,0,0-.31.15,2.47,2.47,0,0,0-.77.74c-.17.14-.27.34-.43.5a1.63,1.63,0,0,0-.3.51,0,0,0,0,0,0,0c0,.1-.06.15-.06.24a.64.64,0,0,1-.05.23,2.42,2.42,0,0,0-.13.46c0,.17-.12.3-.11.44a.65.65,0,0,0,0,.24,2,2,0,0,1,.08.43s0,.07,0,.12,0,.09,0,.13,0,.08,0,.11,0,0,0,0,0,.18,0,.27a2.28,2.28,0,0,0,0,.27,3.72,3.72,0,0,0,.2.59c0,.07,0,.13.12.17a.13.13,0,0,1,.05.11.19.19,0,0,0,0,.13l.15.23a1.07,1.07,0,0,0,.15.22c.13,0,.06.15.14.2s0,0,.08,0,.06,0,.06,0,0,.09.07.12a1.33,1.33,0,0,0,.4.35.76.76,0,0,1,.27.2c.08.08.22.08.3.15a.21.21,0,0,1,.14.12c.2.06.34.23.55.29.05,0,.1,0,.16,0s.1.07.14.09h0c.05,0,.1,0,.14,0a.2.2,0,0,1,.17.09c.17-.07.32,0,.47,0s.09,0,.12,0,.2,0,.3,0a.79.79,0,0,1,.34,0s.07,0,.1,0,.09,0,.14,0a.32.32,0,0,0,.14,0,3.18,3.18,0,0,0,.68-.15l.16,0a.41.41,0,0,1,.16,0,.16.16,0,0,0,.15-.07s0-.07.1,0,.06-.07.1-.1a4,4,0,0,0,.57-.32c.1-.07.11-.22.26-.23a0,0,0,0,0,0,0,.16.16,0,0,1,.12-.14.22.22,0,0,0,.14-.11,4.54,4.54,0,0,0,.36-.5,4.73,4.73,0,0,0,.43-.8.37.37,0,0,0,0-.15c0-.09.07-.17,0-.26s.09-.22.13-.33c.08-.27.05-.55.14-.83a.43.43,0,0,0,0-.16s0-.12,0-.16S246.61,66.08,246.61,66Zm-122.3,71.65c3.8,0,6.89-.9,6.89-2s-3.09-2-6.89-2-6.88.9-6.88,2S120.51,137.67,124.31,137.67Z"
        transform="translate(-0.03 0)" fill="#f7f7f7" />
      <path
        d="M142.53,162.45,67.9,176.83,26,168.66l0-.07a1.35,1.35,0,0,1,.74-.42l79.49-15.24a5.61,5.61,0,0,1,2.64.11l33.49,9.35ZM175.92,144a5.28,5.28,0,0,0-.69-.81,1.38,1.38,0,0,0-.26-.23,2.15,2.15,0,0,1-.7-.57l-.12-.09-.28-.13a7.92,7.92,0,0,0-2.18-1.22.58.58,0,0,1-.12-.1l-.25-.18c-.25-.21-.63-.07-.84-.37-.19.06-.34-.07-.51-.13a2.54,2.54,0,0,0-.46-.17c-.2,0-.3-.12-.45-.16a.49.49,0,0,0-.21,0,.84.84,0,0,1-.51-.12c-.17-.07-.31-.2-.5-.14a16.94,16.94,0,0,0-1.85-.4c-.22-.05-.43-.15-.64-.21a6.19,6.19,0,0,0-.7-.14l-1.32-.23c-.2,0-.39-.07-.6-.09a2.38,2.38,0,0,1-.59,0,2.7,2.7,0,0,0-.63-.12l-.87-.1a5.31,5.31,0,0,1-1.06-.15,1,1,0,0,0-.79,0,.19.19,0,0,1-.15,0c-.16-.15-.37-.09-.56-.09a7.41,7.41,0,0,1-1.05-.07,5.82,5.82,0,0,0-.73-.07,3.61,3.61,0,0,0-.73-.07,2,2,0,0,0-1,.09,14,14,0,0,0-1.44.14c-.59,0-1.18.08-1.76.14-.25,0-.51,0-.72.15a.31.31,0,0,1-.21,0,.49.49,0,0,0-.41,0,1.57,1.57,0,0,0-.57.12c-.11.08-.35,0-.55,0a2.8,2.8,0,0,1-1,.07.52.52,0,0,0-.29.09.93.93,0,0,1-.61.13,1.49,1.49,0,0,0-.47,0,9.89,9.89,0,0,0-1,.28c-.6.19-1.23.28-1.82.53a8.47,8.47,0,0,0-1.31.46,2.26,2.26,0,0,1-.67.16,9.9,9.9,0,0,0-1,.37c-.34.11-.7.19-1,.33a5.52,5.52,0,0,0-1.24.68,9,9,0,0,1-1.3.69,10.58,10.58,0,0,1-1.2.76,10.57,10.57,0,0,1-.83.67,2.66,2.66,0,0,0-.83.87,1.16,1.16,0,0,0-.16.83.66.66,0,0,0,.45.48c.13.06.3.7.66.94a.57.57,0,0,1,.11.1.49.49,0,0,0,.33.35,4.21,4.21,0,0,1,.87.57l.48.31a1.92,1.92,0,0,0,.52.25c.13.06.19.29.41.24.26.41.87.27,1.14.66a.2.2,0,0,0,.14.08c.23-.06.4.14.61.19a2.16,2.16,0,0,1,.66.18,1.08,1.08,0,0,1,.24.11.94.94,0,0,0,.72.26.22.22,0,0,1,.14.05c.08.13.24.14.37.19s.57.17.85.26.61.17.92.24.56.06.83.12l1.9.38a16.46,16.46,0,0,1,1.86.34,26,26,0,0,1,2.14.34,1.51,1.51,0,0,1,1,.08.14.14,0,0,0,.11,0c.26-.14.56,0,.84,0,.07,0,.16.07.21.05.25-.07.52,0,.74,0a2.61,2.61,0,0,1,.74,0c.2,0,.4.07.61.09s.3,0,.4-.07a.72.72,0,0,0,.46.08c.64,0,1.28,0,1.92,0a1.12,1.12,0,0,0,.32,0,1.52,1.52,0,0,1,.82,0,1,1,0,0,0,.58,0,1.22,1.22,0,0,1,.46-.09c.36,0,.73,0,1.09-.11a2.41,2.41,0,0,1,1.1.15.58.58,0,0,0,.45,0,1.15,1.15,0,0,1,.4-.12c.17,0,.33-.11.5-.14h.5a.41.41,0,0,0,.22,0,1.26,1.26,0,0,1,.66-.18l1.63-.3a13.7,13.7,0,0,1,1.6-.29,2.72,2.72,0,0,0,.86-.25,2,2,0,0,1,1-.21c.1,0,.25-.08.37-.08s.17-.19.35-.14.25-.05.37-.09a9.69,9.69,0,0,0,2.2-1c.19-.1.45-.16.53-.4,0,0,.07-.06.09,0,.31.08.43-.13.51-.38,0-.06.14-.12.22-.2a4.41,4.41,0,0,0,1.33-2c.09-.32.2-.61.27-.93A1.43,1.43,0,0,0,175.92,144ZM104.07,33.46h0l.08-.07,0,0,.1-.07,0-.06a.56.56,0,0,1,.09-.19s0-.07,0,0a.29.29,0,0,1,0-.09,3.89,3.89,0,0,0,.12-.49,2,2,0,0,1,.09-.33V13.49l0-.15a.6.6,0,0,1-.06-.27.75.75,0,0,1,0-.15v0h0s0,0,0-.06a.27.27,0,0,1-.07-.21h0a.62.62,0,0,0-.11-.17c0-.08-.08-.16-.13-.24l0,0-.08,0h0a.52.52,0,0,0-.21-.07.48.48,0,0,1-.17-.05l.08,0-.15-.05-.21-.08,0,0h0a1.17,1.17,0,0,1-.27,0,.66.66,0,0,0-.27.06c-.08,0-.16-.14-.24,0-.2-.23-.43.19-.64-.06a.06.06,0,0,0-.08,0c-.09.15-.2.05-.31.07s-.21.13-.33.09-.1,0-.13,0a.25.25,0,0,0-.38,0s0,0-.07,0-.13-.06-.2-.06h-.91c-.14,0-.27.07-.42.07-.32,0-.64,0-1,0a3.29,3.29,0,0,1-.94-.07,1.88,1.88,0,0,0-.58,0c-.17,0-.32-.12-.49-.07s-.33.16-.48,0h-.06c-.12.16-.28.05-.42.07s-.08-.06-.1,0-.26,0-.37.05a.46.46,0,0,1-.36.07,2,2,0,0,1-.31-.07c-.07,0-.14-.05-.2.07-.06-.1-.14-.08-.21-.08h-.86a.2.2,0,0,1-.07.06l0,0c-.11.11-.2.24-.31.35l-.14.14-.09.15v0a.41.41,0,0,1,0,.19c0,.1,0,.18-.07.28s0,.06,0,.1a5,5,0,0,0,0,.55.54.54,0,0,1-.18.45c0,.05,0,.09,0,.15s0,.07,0,.07a.29.29,0,0,1,0,.16.6.6,0,0,1,0,.12.87.87,0,0,1,.08.26.73.73,0,0,1-.08.25s0,.09,0,.11.07.22.07.33a5.75,5.75,0,0,1,0,.83,2.15,2.15,0,0,1-.06.8.7.7,0,0,0,.05.45.49.49,0,0,1-.06.53s0,.12,0,.18.12.11,0,.19,0,.12,0,.18a11.11,11.11,0,0,0,.09,1.16c0,.11-.08.22.07.3s0,.06,0,.06c-.23.1-.14.19,0,.3s0,.09,0,.13c0,.37,0,.74,0,1.1a1,1,0,0,1-.11.41c-.06.15-.2.31-.12.46a1,1,0,0,1,.06.42.92.92,0,0,0,0,.16.42.42,0,0,1,0,.42.11.11,0,0,0,0,.08.47.47,0,0,1,.06.15A4.46,4.46,0,0,0,92,25.26s0,0,0,.08a.59.59,0,0,1-.06.14c-.08.16.21.3,0,.45.13.08,0,.17.06.25s0,.18,0,.25,0,.16,0,.24,0,.07,0,.1,0,.18,0,.25-.09.18,0,.26a5.86,5.86,0,0,0,.08.94c0,.11-.07.22-.08.34a2.16,2.16,0,0,0,0,.36v.65a3,3,0,0,0,0,.3.09.09,0,0,0,0,.05.3.3,0,0,1,.06.18v.66c0,.21,0,.43,0,.65v.17h0v.58s0,.12,0,.06a2.85,2.85,0,0,1,0,.29.06.06,0,0,0,0,0v0h0a.61.61,0,0,0,0,.14s0,.07,0,.08l0,.13,0,.12a.15.15,0,0,1,0,.07h0l.08,0,.17.12.06,0h0a1.36,1.36,0,0,1,.29.06l.24,0,.06,0a.3.3,0,0,0,.21-.08c.24.06.48-.1.72-.09s.59,0,.88,0c.12,0,.25.06.36-.07a.06.06,0,0,1,.1,0c.06.11.14.07.21.06s.18,0,.28-.06.18.07.27.07.33-.05.48.07.11,0,.15,0a.23.23,0,0,1,.31,0,.38.38,0,0,0,.23.06,2.74,2.74,0,0,0,.5-.07,7.3,7.3,0,0,0,.94-.09c.23-.06.46,0,.7-.07s.21,0,.32.06a5.09,5.09,0,0,0,.55,0c.18,0,.35.07.53.07a2,2,0,0,0,.69-.06c.23-.09.47,0,.72.07s.46-.07.69.08A6,6,0,0,1,104.07,33.46Zm159.85,130.8c0-.65,0-1.29-.06-1.93l-.07-1.82a2.42,2.42,0,0,1,0-.85.76.76,0,0,0,0-.3,4.43,4.43,0,0,1-.12-1.54,5.06,5.06,0,0,0,0-.54,6.84,6.84,0,0,0-.25-1.35,3.51,3.51,0,0,0-.29-1.23.85.85,0,0,1-.06-.31c.07-.88-.6-1.67-.68-2.5-.25-.25-.24-.62-.37-.85l-.59-.95a9,9,0,0,0-.62-.9,5.36,5.36,0,0,0-1.38-1.39,2.2,2.2,0,0,1-.67-.58.72.72,0,0,0-.22-.17l-.12-.07c-2.25-.8-4.57-1.43-6.88-2-5.79-1.55-11.59-3.11-17.37-4.62A37.05,37.05,0,0,0,231.7,146a11.88,11.88,0,0,1,3.87,1,12.22,12.22,0,0,1,3.32,2.22,16.88,16.88,0,0,1,4.61,7.74,14.4,14.4,0,0,1,1.94,4.65q3.87,13.71,7,27.62c-.54,3-2.49,5.28-4.49,7.31-.57.58-1.15,1.15-1.74,1.7-.24.23-.49.47-.74.69-.53.51-1.08,1-1.64,1.47l-1.25,1.07-.65.53c-.36.3-.73.59-1.11.89l-.21.16c-1,.82-2.12,1.6-3.2,2.35-.78.53-1.56,1.05-2.35,1.55a12.84,12.84,0,0,1-1.05-.86l-1.12-1a106.71,106.71,0,0,1-18.5,6.61,11.75,11.75,0,0,1-4.94,4.61l-.29.13c-.9.38-1.85.61-2.76.94a12.22,12.22,0,0,0-4.32,2.72,28.65,28.65,0,0,1,2,2.13,1.39,1.39,0,0,1,.28.49.46.46,0,0,1,0,.21,5.49,5.49,0,0,0,2.08.47,11.7,11.7,0,0,0,4.28-.53S249.35,212,249,211.94c2.65-1.78,4.35-5.23,3.36-8.27a6.15,6.15,0,0,0-1.49-2.39l.35-.27a8.27,8.27,0,0,0,.71-.74,2.8,2.8,0,0,0,.53-.61,2.21,2.21,0,0,1,.29-.32c.12-.1.24-.2.37-.29a6.17,6.17,0,0,0,1.58-1.52c.42-.6.87-1.21,1.26-1.85a3.74,3.74,0,0,0,.44-.84,5,5,0,0,1,.59-1,5.55,5.55,0,0,0,.75-1.5c.06-.18.16-.4.24-.6.55-1.19,1-2.42,1.49-3.66a2.9,2.9,0,0,1,.38-.84,1.78,1.78,0,0,1,.2-.79c.15-.41.33-.79.47-1.19a9.13,9.13,0,0,0,.39-1.45c.08-.47.34-1,.4-1.49a2.69,2.69,0,0,1,.16-.39,6.6,6.6,0,0,0,.4-1.69.66.66,0,0,1,.06-.2,6,6,0,0,0,.49-1.91c.12-.7.39-1.31.52-2s.26-1.59.43-2.33a26.15,26.15,0,0,0,.47-3.84c.11-1.31.15-2.64.15-4C264,165.4,263.94,164.83,263.92,164.26ZM117.57,243.74c0-.82-.07-1.64-.1-2.45l-12.24,10.06a42.65,42.65,0,0,0,5.3-.09,6.45,6.45,0,0,0,2.71-.8,24.33,24.33,0,0,0,2.48-2.18,6,6,0,0,1,2.61-1.22c.21-.91.37-1.84.51-2.78C118.41,244.11,118,243.93,117.57,243.74ZM221,228.11a20.82,20.82,0,0,1-3.66,2.11c-4.43,2-9.36,2.52-14.2,2.72-5.2.22-10.39.1-15.58-.14-5.7-.26-15.91-1-20.7-3.44a32.64,32.64,0,0,1-7.73,14.57,120.57,120.57,0,0,1-11.79,11.14c-3,2.66-6.12,5.45-8,9a21.19,21.19,0,0,1-4.59-.9q-.66,1.17-1.29,2.37a.86.86,0,0,1,.13.14,5,5,0,0,1,.89,3.91,8.67,8.67,0,0,1-5,6.73v0a2.07,2.07,0,0,1-1.83,1.75,4,4,0,0,1-2.55-.69,8.85,8.85,0,0,0-1.39-.75,6,6,0,0,0-1.63-.22A39,39,0,0,1,110.32,274a19.17,19.17,0,0,1-6.91-4.09,9.77,9.77,0,0,1-3.14-7.21c-1.75-.81-2.72-2.68-3.3-4.53C87.42,266,78.78,273,78.7,273A7.61,7.61,0,0,0,77,275.47a9.8,9.8,0,0,0,1.06,2.24,19.88,19.88,0,0,0,5.84,5.45A67.08,67.08,0,0,0,112.4,294c2.17.29,4.55.43,6.38-.8l67.92-46,34.22-9.57,0,.18c0,.07-.17.11,0,.23-.26.14.08.47-.23.6a.07.07,0,0,0,0,.07c.12.15,0,.22,0,.33s0,.25-.06.35,0,.1-.06.12a.26.26,0,0,0-.15.36.07.07,0,0,1,0,.07c-.11,0-.11.1-.14.17l-.2.41c-.07.14-.15.29-.21.44s-.07.3-.13.43c-.15.31-.31.61-.48.89a3.13,3.13,0,0,1-.55.84,1.88,1.88,0,0,0-.31.51c-.1.15-.3.22-.36.39s0,.37-.27.41c0,0,0,0,0,0,.05.2-.12.26-.2.4s-.09,0-.09.05-.17.21-.19.34a.54.54,0,0,1-.18.34.31.31,0,0,1-.18.09s-.05,0,0,.12c-.06-.1-.08-.07-.11-.08l-.22,0a2.65,2.65,0,0,0-.27,0h-.55a.33.33,0,0,0-.17,0,.53.53,0,0,1-.46,0,.36.36,0,0,0-.32,0,.33.33,0,0,1-.25.1c-.19.05-.39.08-.59.15a.84.84,0,0,1-.64-.08c-.11,0-.23,0-.27,0s-.12.11-.19.15a1.24,1.24,0,0,1-.23.17,1.45,1.45,0,0,1-.3.06s-.09,0-.1,0-.2.17-.31.24c-.26.16-.54.31-.79.47a4.86,4.86,0,0,1-.78.49c-.15,0-.25.22-.35.37a.71.71,0,0,1-.47.37c-.06,0-.09.12-.15.14s0,.17-.13.17-.09.1-.15.15a5.3,5.3,0,0,0-.71,1.1c-.06.1-.2.18-.12.34a.15.15,0,0,1,0,.06c-.25,0-.21.15-.14.32s0,.1,0,.15a5.62,5.62,0,0,0-.33,1.2,1.62,1.62,0,0,1-.2.42c-.09.15-.26.3-.2.47a1.49,1.49,0,0,1,0,.47.88.88,0,0,0,0,.17.53.53,0,0,1-.06.46s0,.05,0,.07a1,1,0,0,1,0,.17,8.93,8.93,0,0,0-.1,1.15l.91-.24a0,0,0,0,0,0,0c.19-.17.11-.4.15-.6a4.89,4.89,0,0,1,.27-1.42.72.72,0,0,0,.06-.29c0-.09,0-.21.08-.26s0-.16,0-.25a1.62,1.62,0,0,0,.12-.43c0-.14.11-.27.08-.4a.29.29,0,0,1,.14-.34s0,0,0-.07.06-.24.07-.37a.74.74,0,0,1,.16-.4c0-.06.14-.09.19-.15a.3.3,0,0,0,.15-.2c0-.2.16-.31.26-.44s.17-.15.17-.31.11-.12.2-.14.14-.2.31-.16a.25.25,0,0,1,.11-.21,3.22,3.22,0,0,0,.28-.24c.09-.06.15-.17.29-.15s.09-.24.23-.25.06-.06.09-.05.25-.08.35-.15a8.49,8.49,0,0,1,1.16-.6,4.61,4.61,0,0,1,.73-.19h0c.15.11.25,0,.36,0a1.15,1.15,0,0,0,.37,0,2,2,0,0,1,.47-.1,1.37,1.37,0,0,0,.45-.13,1.34,1.34,0,0,1,.49,0c.06,0,.12-.08.18-.07s.15.06.23.07a.33.33,0,0,0,.23,0s.1.12.28.09a1,1,0,0,1,.46,0,3.28,3.28,0,0,0,.31-.34l.37-.43c0-.05.09-.08.08-.12,0-.21.15-.29.23-.42s.19-.28.29-.41.12,0,.12-.06a1,1,0,0,1,.39-.56s0-.13.07-.19,0-.07,0-.08c.24-.07.2-.34.38-.44a1.11,1.11,0,0,0,.35-.5,7.12,7.12,0,0,0,.83-1.71,9.26,9.26,0,0,1,.58-1,4.26,4.26,0,0,0,.42-1s0-.05,0-.06c-.1-.18.06-.29.06-.44a1.38,1.38,0,0,1,.05-.45,3.72,3.72,0,0,0,.18-.88.87.87,0,0,1,.06-.32l.1,0c0-.32,0-.65.06-1A30.07,30.07,0,0,0,221,228.11Zm11.43,6.33,27.92-7.81c-.5-.37-1-.71-1.51-1.06l-20.64-7.21-7.3,4.38a19.63,19.63,0,0,1,1.66,9.62C232.58,233.05,232.53,233.74,232.47,234.44Zm11.88,60.32c.1.21-29.81-10.7-29.81-10.7a5.39,5.39,0,0,0-4.39.37c-.14,0-6.6,2.36-13.59,4.95.8,1.15,1.61,2.31,2.31,3.53a17.26,17.26,0,0,0,1,1.58,4.44,4.44,0,0,1,.28.53c.18.42.37.84.55,1.27s.43.82.64,1.23.32.66.51,1a4,4,0,0,1,.39,1.17c.19,1,.43,1.92.71,2.86s.52,1.94.8,2.9c.11.41.16.81.31,1.23a8.27,8.27,0,0,1,.3,1.56,10.78,10.78,0,0,0,.29,2.19c13.42-4.79,34.61-12.38,41.21-14.67A2.82,2.82,0,0,0,244.35,294.76Zm-38-148.7c-1.5,1.56-3,3.1-4.54,4.65a29.92,29.92,0,0,0-2,4,4,4,0,0,1,1.51.4l1.17-2.85a5.61,5.61,0,0,1,.56-1.09,5.39,5.39,0,0,1,.84-.88l1.85-1.66.67-.64A17.77,17.77,0,0,0,206.36,146.06Zm59-17a3.09,3.09,0,0,0,0-.86,4.59,4.59,0,0,1-.1-.83.85.85,0,0,0,0-.17c-.12-.23-.11-.55-.23-.79s-.18-.54-.3-.82-.09-.29-.15-.44a1.8,1.8,0,0,0-.23-.46c-.2-.29-.36-.6-.57-.88a1.94,1.94,0,0,0-.44-.55,2.07,2.07,0,0,1-.28-.38c-.12-.19-.35-.34-.43-.53a3.37,3.37,0,0,1-.37-.29c-.19-.16-.38-.33-.58-.47a3.42,3.42,0,0,1-.52-.4c-.17-.19-.41-.17-.61-.32s-.15-.07-.19-.11a2.31,2.31,0,0,0-.68-.35,20.73,20.73,0,0,0-2.55-.76l-1.47-.42h0a3.47,3.47,0,0,0-.71-.23,7.36,7.36,0,0,0-.71-.22l-1-.25c-.32-.08-.62-.16-.95-.21s-.64-.16-1-.24c-.14,0-.27,0-.4-.07s-.29-.1-.44-.14a2.36,2.36,0,0,0-.46-.1c-.09,0-.27-.12-.42-.14a5.55,5.55,0,0,1-1-.21l-.87-.22a1.45,1.45,0,0,0-.26-.07,3.4,3.4,0,0,1-.84-.18c-.32-.07-.62-.16-.92-.24-.08,0-.16-.07-.22-.09a5.62,5.62,0,0,1-1.22-.32l-.36-.07-.15,0c-.3-.16-.72-.18-1-.31a8.57,8.57,0,0,0-1.1-.31,8.28,8.28,0,0,0-3.67-.22,10.64,10.64,0,0,0-2.21.54,5,5,0,0,0-.91.41,7,7,0,0,0-.87.53l-.1.07c-.17.19-.43.34-.63.53s-.37.38-.57.58a8.22,8.22,0,0,0-.57.61,4,4,0,0,0-.49.67,6.53,6.53,0,0,0-.82,1.33,4.93,4.93,0,0,0-.31.75,3.43,3.43,0,0,0-.06.56,1,1,0,0,0,0,.3s.07.05.07.05v0c-.1,0-.21.22-.29.52a1,1,0,0,0-.08.42c0,.16-.05.31-.08.46a2.29,2.29,0,0,0,0,.37v.08a5,5,0,0,0,0,1q0,.47.06.93a8.75,8.75,0,0,0,.6,2,1.82,1.82,0,0,0,.33.63,1.18,1.18,0,0,1,.19.39,1.33,1.33,0,0,0,.2.37,6.86,6.86,0,0,0,.53.76,8.17,8.17,0,0,0,.61.71c.27.11.35.42.6.56a1,1,0,0,0,.26.19,1,1,0,0,1,.2.16,1.07,1.07,0,0,0,.37.3c.26.18.53.34.8.49a3.37,3.37,0,0,0,.85.37l1.08.39c.38.13.74.14,1.11.25a2.61,2.61,0,0,1,.6.19c.68.15,1.33.38,2,.56a4.5,4.5,0,0,0,.51.08l.54.19.1,0a1.25,1.25,0,0,1,.46.09,1.83,1.83,0,0,1,.6.19,10.41,10.41,0,0,1,1.54.36,2.49,2.49,0,0,0,.37.09,16.09,16.09,0,0,1,2.16.48,1.16,1.16,0,0,1,.32.08,1.76,1.76,0,0,0,.44.15l.44.16,2.28.62.54.15a2.91,2.91,0,0,1,.5.16,1.88,1.88,0,0,0,.53.14.52.52,0,0,1,.34.09,1,1,0,0,1,.46.08c.72.17,1.38.43,2.15.56a7.74,7.74,0,0,1,1.18.12h.15a1.78,1.78,0,0,1,.65,0,3,3,0,0,0,.6,0,9,9,0,0,0,2-.5,9.07,9.07,0,0,0,2.74-1.55,2,2,0,0,0,.37-.34,6.62,6.62,0,0,0,.6-.68,3.81,3.81,0,0,0,.78-.92,11,11,0,0,0,1.28-2.59,3.58,3.58,0,0,0,.16-.56,2.53,2.53,0,0,1,.12-.53c.11-.22,0-.33.05-.52A4.64,4.64,0,0,0,265.37,129Zm-133,6.68a.8.8,0,0,1-.07.34l-1.69,12.26a4.27,4.27,0,0,1-.48,1.49,4.51,4.51,0,0,1-1,1.23,4.41,4.41,0,0,1-1.35.81,4.71,4.71,0,0,1-1.54.28H123a4.4,4.4,0,0,1-1.52-.28,4.43,4.43,0,0,1-2.82-3.44l-2-12.7h0c0-1.44,3.52-2.61,7.84-2.61S132.32,134.27,132.32,135.71Zm-1.12-.05c0-1.11-3.08-2-6.89-2s-6.88.89-6.88,2,3.08,2,6.88,2S131.2,136.78,131.2,135.66Zm95.35,10.7c-.28.44-.57.88-.84,1.33l-1.23,2h0q-3.15,5.13-6,10.42a6,6,0,0,0,1.73.31q3.57-7,7.4-13.89A1.68,1.68,0,0,1,226.55,146.36Zm-52.31,52.17a.58.58,0,0,0-.72-.17s-.09,0-.11,0a.26.26,0,0,0-.35,0,2,2,0,0,1-.74.21,2.71,2.71,0,0,1-.41.09,2.78,2.78,0,0,0-.4.16c-.09.05-.25-.08-.34.08-.36-.15-.6.35-1,.17a.12.12,0,0,0-.12,0c-.1.17-.29.13-.43.19a1.13,1.13,0,0,1-.47.22c-.06,0-.13,0-.2,0a.53.53,0,0,0-.54.17.09.09,0,0,1-.1,0c-.12-.07-.21,0-.31,0l-.64.2c-.22.07-.45.13-.67.22s-.38.2-.57.26c-.46.17-.92.34-1.37.49a8,8,0,0,1-1.36.43,4,4,0,0,0-.81.3c-.24.1-.51.07-.73.21s-.38.32-.67.27a.09.09,0,0,0-.07,0c-.12.22-.37.21-.56.31,0,0-.13,0-.16,0s-.36.14-.49.27a1.29,1.29,0,0,1-.48.28c-.14,0-.3.06-.45.11s-.22.05-.25.19c-.12-.06-.23,0-.33.06l-1.33.59a.82.82,0,0,0-.2.12.89.89,0,0,1-.57.26.58.58,0,0,0-.39.17.66.66,0,0,1-.29.21c-.25.12-.51.22-.75.36a1.4,1.4,0,0,1-.83.13c-.14,0-.28,0-.33.1a.79.79,0,0,1-.25.2,2.43,2.43,0,0,1-.3.24,1.73,1.73,0,0,1-.37.11s-.13,0-.15.08-.26.22-.41.31l-1.09.63a7,7,0,0,1-1.08.58,1.68,1.68,0,0,0-.54.41,1,1,0,0,1-.7.41c-.08,0-.15.13-.24.16s-.05.2-.21.19-.16.1-.24.15a11.54,11.54,0,0,0-1.33,1.19c-.12.1-.3.16-.31.36,0,0,0,.06-.06.05-.27-.06-.31.1-.33.32,0,.05-.09.1-.15.14a13.38,13.38,0,0,0-1.16,1.22,2.15,2.15,0,0,1-.5.4c-.2.13-.46.24-.54.47a2.4,2.4,0,0,1-.34.55c-.05.07-.1.14-.14.21a1.08,1.08,0,0,1-.37.54.27.27,0,0,0-.06.1,2.09,2.09,0,0,1-.08.23,7.13,7.13,0,0,0-.9,1.62s0,.05-.07.08l-.16.17c-.2.16,0,.5-.32.6.06.16-.07.25-.13.38s-.16.22-.16.33-.13.2-.17.31a.28.28,0,0,0,0,.15c0,.16-.07.27-.14.37s-.2.19-.17.35c-.26.4-.33.89-.55,1.31-.08.14-.2.27-.28.42s-.16.32-.24.48l-.41.9c-.07.13-.14.27-.2.41s0,.33-.15.42a1.76,1.76,0,0,0-.24.42c-.1.19-.18.4-.28.59a2.7,2.7,0,0,1-.4.7.63.63,0,0,0-.21.55.1.1,0,0,1,0,.1c-.17.06-.17.24-.23.36a3.09,3.09,0,0,1-.36.7,2.25,2.25,0,0,0-.28.47,2.85,2.85,0,0,0-.31.46,1.23,1.23,0,0,0-.23.67,7.35,7.35,0,0,0-.38,1c-.2.4-.38.79-.56,1.2-.08.16-.22.31-.16.52a.18.18,0,0,1-.08.14c-.14,0-.15.15-.18.25a.84.84,0,0,0-.14.41c0,.1-.17.21-.23.34a1.36,1.36,0,0,1-.37.62.29.29,0,0,0-.07.22.54.54,0,0,1-.17.43.72.72,0,0,0-.2.29,6.86,6.86,0,0,0-.27.71c-.14.45-.39.85-.51,1.32a5.49,5.49,0,0,0-.37,1c0,.16-.18.28-.27.42a7.21,7.21,0,0,0-.36.74c-.13.24-.29.45-.41.69a3.84,3.84,0,0,0-.38,1,3.38,3.38,0,0,1-.52,1,2.9,2.9,0,0,1-.52.9,14.85,14.85,0,0,1-.73,1.36c-.15.38-.17.37,0,.72,0,0,0,0,0,0,.12-.23.23-.45.37-.67.4-.69.85-1.35,1.27-2,.64-1,1.22-2.09,1.89-3.1,0-.19.26-.25.28-.43s.08-.14,0-.23a.21.21,0,0,1,.06-.18c.15,0,.17-.17.21-.28a6.94,6.94,0,0,0,.51-1.23,2.31,2.31,0,0,1,.34-.75c.15-.25.15-.54.28-.79a.7.7,0,0,1,.27-.38,10.48,10.48,0,0,1,.73-1.36,2.32,2.32,0,0,0,.07-.38,1.1,1.1,0,0,1,.26-.34s0-.06,0-.08,0-.23.09-.34a.57.57,0,0,1,.26-.38c0-.42.3-.72.43-1.09,0-.09.12-.18.1-.26,0-.28.18-.49.21-.75a2.8,2.8,0,0,1,.35-.79c0-.08,0-.19.11-.21s.14-.19.21-.28a1.86,1.86,0,0,0,.21-.28l.82-1.54c.06-.12.11-.25.17-.37s.09-.24.23-.33a.47.47,0,0,0,.17-.35c0-.12,0-.21.12-.24-.08-.14,0-.24.08-.34.21-.5.55-.93.76-1.43.12-.26,0-.59.35-.77,0,0,0-.07,0-.1a.46.46,0,0,1,.17-.44.79.79,0,0,0,.24-.36c.2-.45.38-.92.59-1.36.33-.68.69-1.33,1-2a.63.63,0,0,0,.12-.32c0-.22.25-.37.24-.62.3-.14.35-.46.52-.69a8.75,8.75,0,0,1,1.24-1.61,1.87,1.87,0,0,0,.26-.3c.08-.11.17-.25.28-.27s.08-.22.19-.3.3-.31.44-.47a1.71,1.71,0,0,0,.41-.44.75.75,0,0,1,.42-.4.14.14,0,0,0,.09-.08c0-.23.27-.29.36-.45a1.43,1.43,0,0,1,.42-.46l.3-.16a.63.63,0,0,0,.28-.23,2.18,2.18,0,0,1,.54-.51c.13-.11.3-.17.36-.36a.46.46,0,0,1,.3-.16c.17,0,.28-.23.46-.19a.56.56,0,0,1,.23-.25c.15-.1.29-.2.45-.29s.24-.21.42-.21.2-.27.39-.3.09-.08.14-.08c.21,0,.34-.12.5-.2.56-.32,1.11-.64,1.68-.93.33-.16.68-.29,1-.43l0,0c.22.07.35-.11.52-.16a1.85,1.85,0,0,0,.52-.16c.22-.12.45-.2.67-.32a2.19,2.19,0,0,0,.61-.35,2.87,2.87,0,0,1,.66-.32c.09,0,.15-.14.24-.19s.23,0,.34-.06a.66.66,0,0,0,.29-.2c0-.06.24,0,.32-.07a1.55,1.55,0,0,1,.66-.37,6.39,6.39,0,0,1,.6-.26c.06,0,.16,0,.19-.09.12-.21.36-.22.54-.3a4.48,4.48,0,0,1,.65-.27c.05,0,.14,0,.18,0a1.57,1.57,0,0,1,.86-.33,1.28,1.28,0,0,0,.23-.14s.06-.08.09-.07c.29.06.51-.21.76-.21a1.89,1.89,0,0,0,.8-.23,19.78,19.78,0,0,0,2.46-.94,13.46,13.46,0,0,1,1.54-.42,11.3,11.3,0,0,0,1.38-.38s.06,0,.07,0c.14-.18.37-.13.54-.22a1.81,1.81,0,0,1,.54-.22c.39-.1.78-.16,1.15-.28s.78,0,1.11-.14a3.69,3.69,0,0,0,.56-.11,1.39,1.39,0,0,0,.35-.29c.06,0,.18-.12.18-.18A.74.74,0,0,0,174.24,198.53Z"
        transform="translate(-0.03 0)" fill="#1fdc93" />
      <g clip-path="url(#clip-path-3)">
        <path
          d="M103.94,33.46c0,.52-.06.81-.06,1.06h0a7.77,7.77,0,0,0-1-.09c-.21-.14-.43,0-.65-.08s-.46-.16-.68-.06a1.83,1.83,0,0,1-.66.06c-.16,0-.33-.06-.49-.07a4.47,4.47,0,0,1-.52,0c-.1,0-.21-.13-.31-.07s-.45,0-.65.08-.6.07-.89.09a2,2,0,0,1-.48.06.34.34,0,0,1-.22,0,.2.2,0,0,0-.29,0s-.11.06-.14,0a.56.56,0,0,0-.45-.07c-.09,0-.2-.12-.26-.07s-.18.05-.27.06-.14,0-.19-.06a.07.07,0,0,0-.1,0c-.1.13-.22.07-.34.07h-.83c-.23,0-.45.14-.68.08a.3.3,0,0,1-.22.1l-.31,0a2.45,2.45,0,0,1-.38,0v-.82c0-.07,0-.13,0-.19h.39a.27.27,0,0,0,.23-.08c.24.06.48-.09.72-.09a6.46,6.46,0,0,0,.88,0c.12,0,.25.06.36-.07a.06.06,0,0,1,.1,0c.06.11.14.07.21.06s.18,0,.28-.06.18.08.27.08.33-.06.48.06.11,0,.15,0a.23.23,0,0,1,.31,0,.38.38,0,0,0,.23.06,2.74,2.74,0,0,0,.5-.07,7.3,7.3,0,0,0,.94-.09c.23-.06.46,0,.7-.07s.21,0,.32.06a5.09,5.09,0,0,0,.55,0c.18,0,.35.07.53.07a2,2,0,0,0,.69-.06c.23-.09.47,0,.72.07s.46-.07.69.08A3.17,3.17,0,0,1,103.94,33.46Zm33.14,107.09c.07-6.2.16-12.69.16-12.69a17.19,17.19,0,0,0-.43-3.72A5.66,5.66,0,0,0,134.9,121a6.23,6.23,0,0,0-1.63-.87,7.36,7.36,0,0,0-2.9-.5,8.14,8.14,0,0,0-5.33,2.52,15.87,15.87,0,0,0-3.21,5.08,2,2,0,0,0,.44,1.46,3.54,3.54,0,0,0,1.16,1,5.66,5.66,0,0,0,3.36.55,2.18,2.18,0,0,0,1.67-1.12,5.78,5.78,0,0,1,.43-.62,1.3,1.3,0,0,1,.8-.63,1.46,1.46,0,0,1,1.14.48v5.9c.93.43,1.48,1,1.48,1.53a.8.8,0,0,1-.07.34l-1.37,10v3.32q-.36.15-.72.27a4.45,4.45,0,0,1-4,2.49H123a4.5,4.5,0,0,1-2.06-.52,4.4,4.4,0,0,1-1.59-1.44,8.33,8.33,0,0,1-.93-.39c-1.17-.57-1.87.86-1.78,1.78a3,3,0,0,0,1.48,2.22,7.52,7.52,0,0,0,2.59.93,25.75,25.75,0,0,0,11.52,0,15.12,15.12,0,0,0,1.62-.49h0a16.87,16.87,0,0,1-2.12-7.63,3.19,3.19,0,0,1,.73-2.29A15.33,15.33,0,0,1,137.08,140.55Zm18.58,30.8-.11.05h.06l-25.1,19.22,0,0s0,2.52,0,2.52a14.65,14.65,0,0,1,4.64-4.79,265.84,265.84,0,0,1,21.86-16l1.09-.67a2,2,0,0,0,.31-.13c.2-.08.42-.15.68-.23l1.09-.33,2.62-.43,1.13-.88ZM221,228.11a20.82,20.82,0,0,1-3.66,2.11c-4.43,2-9.36,2.52-14.2,2.72-5.2.22-10.39.1-15.58-.14-5.7-.26-15.91-1-20.7-3.44a32.64,32.64,0,0,1-7.73,14.57,120.57,120.57,0,0,1-11.79,11.14c-3,2.66-6.12,5.45-8,9a21.91,21.91,0,0,1-13.48-6.31,22.29,22.29,0,0,1-3.15-4,54.5,54.5,0,0,1,3.63-4.09l1.84-3.84a23.28,23.28,0,0,1-10.62-2.15c-.25-4.85-.18-9.71-.12-14.59.09-7.05.19-14.21,2.35-20.92s6.74-13,13.33-15.46c4.37-1.63,9.19-1.47,13.85-1.29,8.46.31,17,.57,25.24,2.34v.24c2.52,3.89,7.18,5.83,11.7,6.82s9.24,1.27,13.56,2.91a48.7,48.7,0,0,1,6.68,3.39,61,61,0,0,1-7.58,6.11,3.14,3.14,0,0,0-.85.73,3.23,3.23,0,0,0-.32,2.09c0-.05.06-.06.07-.1s0,0,0,0,0,0,0,0,0,0,0,0,0,0,0,0,.06,0,.07,0,0,0,0,0,0,0,0,0,0,0,0,0h0c0-.05,0,0,0-.05l.08-.08s0-.07,0-.07,0,0,0-.06H196s0,0,0,0,0,0,.06,0,0,0,.05,0,0,0,0,0,0,0,0,0,0,0,.07,0l.05,0s0,0,0,0,0,0,0,0l0,0a.05.05,0,0,0,0,0l0,0,0,0s.05,0,.06,0,0-.09.07-.1,0,0,0,0,0,0,0,0,0,0,0,0,0,0,0,0,0,0,0,0,0,0,0,0,0-.06,0,0h0s0,0,0,0h0l.07,0,0,0,0,0,0,0s.1-.08,0,0l.06,0a0,0,0,0,0,0,0l.1-.09s0,0,0,0l0,0s0,0,0,0l.11-.11h0s0,0,0,0l0,0h0v0s0,0,0,0h0c.08-.06.1-.07,0,0l.14-.1,0,0,.07,0h0c.07-.06.09-.07,0,0l.07-.06s.05,0,.05,0l.06,0a.08.08,0,0,0,0,0l0,0h0s0,0,0,0v0l.1-.09s0,0,0,0v0h0s.05,0,.05,0a0,0,0,0,0,0,0l.07-.05,0,0,.12-.08.07-.05s0,0,0,0l0,0s0,0,0,0a.21.21,0,0,0,.1-.06l.06,0,.06-.06h0l.08-.06.09-.06.05,0c-.08,0,.07,0,.08,0l0,0,.06,0h0s0,0,0,0l0,0,.15,0h.11l0,.05s0,0,0,0l-.06.07,0,.05h0a.16.16,0,0,1-.08.06.07.07,0,0,0,0,0l0,0h0l0,0,0,0s0,0,0,0-.07,0-.12.07-.1.11-.15.17,0,0-.07,0,0,0-.08,0h0a0,0,0,0,1,0,0s0,0-.06,0h0l0,0s-.05,0,0,.05,0,0,0,0l0,0s-.05,0,0,.06,0,0,0,0,0,0,0,0h0s0,0,0,0-.06,0,0,0,0,0,0,.06l0,0s0,0-.07,0,0,0-.05,0h0l-.1,0-.12.1s0,0-.06,0h0s0,.07,0,.05,0,0,0,0l0,0v0c-.06,0,0,0-.07,0s0,0,0,0,0,0,0,.05,0,0,0,.06,0,0,0,0h0a0,0,0,0,0,0,.05s0,0,0,.06h0s-.06,0-.05,0,0,0,0,0l0,0s0,.07,0,0,0,0,0,0,0,0,0,0-.1.06-.16.08,0,.06-.09,0,0,0,0,.06,0,0,0,0l-.15.12-.08.1s0,0,0,0,0,0,0,0v0c-.08,0,0,0-.05.05s-.11,0-.14.06,0,0,0,0,0,0,0,0,0,0,0,0,0,0-.06,0,0,0,0,0l-.14.07s0,0,0,0,0,0-.05,0h0a0,0,0,0,1,0,0s-.06,0-.05,0,0,0,0,.08,0,0,0,0-.09,0-.06.08-.05,0-.05,0,0,0,0,0,0,0,0,0,0,0-.05,0,0,0,0,0-.11,0-.13.06,0,0-.05,0,0,.06,0,.07-.06,0-.06.05,0,.05-.06.09,0,0,0,0,0,0,0,0,0,0,0,0-.08,0,0,0l0,0,0,0s0,0,0,0h0a2.85,2.85,0,0,1,0,.65,1.49,1.49,0,0,0-.13.59,1.6,1.6,0,0,0,.1.61,1.53,1.53,0,0,0,.31.52,1.72,1.72,0,0,0,.48.37s0,0,0-.07,0-.07,0-.13a.14.14,0,0,1,0-.06s0,0,0,0,0,0,0,0,0,0,0,0,0,0,.05,0l0,0s0,0,0-.05,0,0,0,0,0,0,0,0,0,0,0-.06l0-.05,0,0a.22.22,0,0,0,.09-.1c0-.07.07-.15.12-.23h0s0,0,0,0h0l0,0s0,0,.05-.05l0-.06s0,0,0,0,0,0,0,0l0,0,0,0,0-.05a.05.05,0,0,1,0,0l.05,0s0-.1,0-.12,0,0,0,0,0,0,0,0,0,0,0,0,0,0,0,0,0,0,0,0,0,0,0,0,0-.05,0-.05h0a.08.08,0,0,1,0-.07h0v0a.05.05,0,0,0,0,0h0l0,0v0s0,0,0,0l0,0a.2.2,0,0,0,0-.08s0,0,0,0h0s.06,0,.06,0l.09-.12s0,0,0,0-.05-.07,0,0h0s0,0,0-.06,0-.11.06-.14,0,0,0,0,0,0,0,0h0l0,0s0,0,0,0,0,0,0-.06.05,0,.08-.07a.31.31,0,0,0,.07-.09s0,0,0,0h0l0,0,0,0,0,0,0,0,.06,0v0h0a.33.33,0,0,0,.14-.19v0l.06-.07s0,0,0,0,0,0,0,0,0,0,0,0a0,0,0,0,0,0-.05s0,0,0-.06h0s0,0,0-.06h0c.06,0,0,0,0-.06s0,0,.07,0,0,0,.05,0,.07-.06.11-.08l.08-.1a.07.07,0,0,0,0-.06l0,0,0-.05s0,0,0,0h0s0-.05,0,0a0,0,0,0,0,0,0s0,0,0-.06,0,0,0,0,0,0,0,0,0-.09.07-.05,0,0,0,0,0,0,0-.05,0,0,0,0,0,0,0-.06,0,0,0,0h0s.07,0,.12,0a.47.47,0,0,1,.1.1.08.08,0,0,1,0,0l-.05,0,0,.08s0,0,0,.05h0v0a0,0,0,0,1,0,0,.13.13,0,0,0,0,.06s0,0,0,.06h0s0,.08-.09.09-.07.06-.11.09a.33.33,0,0,1,0,.06l0,0c-.06.09-.07.1,0,.05a.27.27,0,0,0-.07.08h0s0,.06-.07,0h0s0,0,0,0-.06,0-.06.06,0,0,0,0l0,0s0,0,0,.07h0a.07.07,0,0,0,0,.05l0,0,0,0h0l0,0h0s0,0,0,0h0c-.06.08-.07.09,0,0l-.06.07s0,0,0,0,0,0,0,0l0,.06h0a.16.16,0,0,0-.08.06l-.11.14s0,0,0,0h0s0,.05,0,.05,0,0-.05,0,0,0,0,0,0,0,0,0,0,0-.06,0,0,0,0,0,0,0,0,0,0,0,0,.07,0,0,0,0a0,0,0,0,0,0,0s0,0,0,.05-.05,0,0,.06,0,0,0,0,0,0,0,0,0,0,0,.05,0,0,0,0,0,.06,0,0,0,0,0,0l0,0c-.07,0-.07.1-.12.13s0,.07-.07.05,0,0,0,.07a.09.09,0,0,1,0,.05l-.1.16-.06.13s0,0,0,0,0,0,0,0,0,0,0,0,0,0,0,.06-.09.06-.11.1,0,0,0,0,0,0,0,0,0,0,0,0,0,0,0,0a0,0,0,0,0,0,0l-.11.12h0s0,0,0,0,0,0,0,0-.05,0,0,.07,0,0,0,.09,0,0,0,0-.06.05,0,.1,0,0,0,0,0,0,0,0h0s0,0,0,0,0,0,0,.05-.1,0-.1.1,0,0,0,0,0,.06,0,.08,0,0,0,.07,0,.07,0,.12,0,0,0,0,0,0,0,0,0,0,0,0-.08,0,0,0l0,.06a.08.08,0,0,0,0,0s0,0,0,0,0,0,0,0h0v.05a1,1,0,0,0,.08.45,1.27,1.27,0,0,0,.47.45,14.52,14.52,0,0,0,3,1.48s0,0,0,0,0,0,0-.07,0,0,0,0,0,0,0-.05l0-.06,0-.06a.3.3,0,0,1,0-.08v-.07c0-.06-.09-.1-.1-.17s0,0,0,0,0-.05,0-.05,0,0,0,0,0,0,0,0,0,0,0,0,0,0,0,0h0s0,0,0,0,0,0,0-.05v0s0,0,0,0,0,0,0-.05,0-.13-.07-.2c0,.09,0,0,0,0s0-.05,0-.08,0-.12,0,0a.4.4,0,0,0,0-.15h0v0a.28.28,0,0,0,0-.09v0h0v0a.21.21,0,0,0,0-.11v0s0-.05,0-.07a.22.22,0,0,0,0-.08s0,0,0,0V220s0,0,0,0,0,0,0-.06,0,.05,0,0h0a.69.69,0,0,0,0-.13.06.06,0,0,0,0,0s0-.06,0-.08,0,0,0,0,0,0,0,0l0-.05a.07.07,0,0,0,.06-.09v0a.71.71,0,0,1,.1-.14h0l.08-.13s0,0,0,0l.08-.1,0-.08,0-.05s0,0,0,0a.44.44,0,0,0,.08-.11l0,0h0a.08.08,0,0,1,0-.05l0-.06s0,0,0,0,.07-.1,0-.05l0,0v0l0,0,0,0h0l0,0a.3.3,0,0,0,.1-.17h0a.49.49,0,0,0,0-.12l0,0a.08.08,0,0,0,0-.08s0,0,0-.07,0,0,0,0,.05,0,0-.09,0,0,0,0,.05,0,.05-.09.06,0,.08-.06,0-.09.06-.11.08-.1.13-.15l.1-.17s0-.06,0-.08a.41.41,0,0,0,.05-.09l0-.08s0,0,0,0h0s0-.07,0-.07,0,0,0,0,0-.05,0-.07.05,0,0-.07,0,0,0,0,0-.11.09-.1,0,0,0,0a.14.14,0,0,1,0-.07.08.08,0,0,0,0-.05s0,0,0-.09,0-.05,0,0a0,0,0,0,0,0,0s.07,0,.13,0a.37.37,0,0,1,.12.07s0,0,0,.05,0,.06,0,.08,0,.05,0,.08-.09.06-.11.12l-.08.13a.1.1,0,0,0,0,.09s-.05,0,0,.08h0a.66.66,0,0,1-.12.17c-.06,0-.08.12-.13.17s-.12.22-.17.32a.11.11,0,0,1-.08.09s0,.08-.08.08h0s0,0,0,0-.06,0-.07.11,0,0,0,0a.16.16,0,0,0-.06.08s0,0,0,.09l0,0s0,0,0,.08-.06.05,0,.1,0,0,0,0a0,0,0,0,1,0,.05l0,0s0,0,0,0-.05.06,0,.09,0,.05,0,.07a.21.21,0,0,1,0,.06l0,.07a0,0,0,0,1,0,0s0,0,0,0,0,.07-.06.05h0a.58.58,0,0,0-.1.12l-.15.22s0,.05-.06.05h0s0,.07,0,.07,0,0-.05.05a.09.09,0,0,0,0,.06s0,0,0,.06,0,0-.06,0,0,0,0,0,0,0,0,.07,0,.05,0,.1,0,0,0,0l0,0a.06.06,0,0,0,0,.08s0,.05,0,.07v0s0,0,0,.07,0,0,0,.07a.21.21,0,0,1,0,.08s.07,0,0,0,0,0,0,0,0,0,0,.06,0,.17,0,.25.06.07,0,.12,0,.06.08.08,0,0,0,0l.12.29.11.18a.06.06,0,0,1,0,.06s0,.05,0,.05h0c-.05.07,0,.08,0,.1s0,.16.06.22,0,0,0,0,0,0,0,0,0,0,0,0,0,0,0,.06a.08.08,0,0,0,0,0,.36.36,0,0,0,0,.11l.3.1a9.55,9.55,0,0,1,2.27,1.56,1.08,1.08,0,0,0,.43.3.84.84,0,0,0,.89-.43,1.4,1.4,0,0,0,.32-.85,5.49,5.49,0,0,0,2.08.47,8.23,8.23,0,0,0,1.11,0,42.55,42.55,0,0,0,12.72,1.87C220.55,226.2,220.81,227.16,221,228.11Zm-46.73-29.19a.74.74,0,0,0-.07-.39.58.58,0,0,0-.72-.17s-.09,0-.11,0a.27.27,0,0,0-.36,0,2.06,2.06,0,0,1-.73.22,2.83,2.83,0,0,1-.4.08,2.9,2.9,0,0,0-.41.16c-.09.05-.25-.08-.34.09-.36-.16-.6.34-1,.16a.11.11,0,0,0-.12,0c-.09.17-.29.13-.43.19a1.13,1.13,0,0,1-.47.22c-.06,0-.13,0-.2,0a.54.54,0,0,0-.54.15.1.1,0,0,1-.1,0c-.12-.07-.21,0-.32,0l-.63.2c-.22.07-.45.13-.67.21s-.38.21-.58.28c-.45.17-.91.33-1.36.48a8.25,8.25,0,0,1-1.36.43,4.26,4.26,0,0,0-.82.3c-.22.1-.5.07-.72.21s-.38.32-.67.27l-.07,0c-.12.23-.37.22-.56.32,0,0-.14,0-.16,0s-.36.14-.49.27a1.09,1.09,0,0,1-.48.27,3.31,3.31,0,0,1-.45.12c-.1,0-.22,0-.25.19-.12,0-.23,0-.33.06l-1.33.59a.82.82,0,0,0-.2.12.89.89,0,0,1-.57.26.58.58,0,0,0-.39.17.72.72,0,0,1-.29.21c-.25.12-.51.22-.74.36a1.44,1.44,0,0,1-.84.13c-.15,0-.29,0-.33.1a.76.76,0,0,1-.25.19,1.81,1.81,0,0,1-.3.25,2.26,2.26,0,0,1-.37.11s-.13,0-.15.09-.26.21-.41.3l-1.08.62a6.77,6.77,0,0,1-1.09.59,1.8,1.8,0,0,0-.54.41,1,1,0,0,1-.7.41c-.08,0-.15.14-.24.17s-.05.19-.21.18-.16.1-.24.15a11.54,11.54,0,0,0-1.33,1.19c-.12.1-.3.16-.3.36,0,0-.06.06-.06.06-.27-.08-.31.09-.33.31,0,.05-.1.09-.15.14a12.24,12.24,0,0,0-1.17,1.22,2.15,2.15,0,0,1-.5.4c-.2.13-.46.24-.53.46a2.93,2.93,0,0,1-.35.56c0,.08-.1.14-.14.21a1.22,1.22,0,0,1-.37.55.18.18,0,0,0-.06.09,2.09,2.09,0,0,1-.08.23,6.73,6.73,0,0,0-.89,1.62l-.08.08-.17.18c-.19.15,0,.49-.31.59.06.16-.07.25-.13.37s-.16.23-.16.34-.13.2-.16.31a.23.23,0,0,0,0,.15.44.44,0,0,1-.14.37c-.08.11-.2.19-.16.35-.21.43-.39.86-.56,1.31-.08.14-.2.27-.28.41a4.26,4.26,0,0,0-.23.49l-.22.45-.21.45c-.06.14-.13.27-.19.41s-.06.33-.15.42a1.76,1.76,0,0,0-.24.42c-.1.2-.18.4-.28.59a2.7,2.7,0,0,1-.4.7.63.63,0,0,0-.21.55.1.1,0,0,1,0,.1c-.17.06-.17.24-.24.36a2.49,2.49,0,0,1-.35.69,3.4,3.4,0,0,0-.29.48,4.53,4.53,0,0,0-.3.46,1.31,1.31,0,0,0-.23.67,7.35,7.35,0,0,0-.38,1c-.2.4-.39.79-.56,1.2-.08.16-.22.31-.16.53a.22.22,0,0,1-.08.13c-.14,0-.15.15-.18.25a.67.67,0,0,0-.13.41c0,.1-.18.2-.24.34a1.36,1.36,0,0,1-.37.62.31.31,0,0,0-.07.22.52.52,0,0,1-.18.43.7.7,0,0,0-.19.29,6.86,6.86,0,0,0-.27.71c-.14.45-.39.85-.51,1.32a6.39,6.39,0,0,0-.37,1c0,.16-.18.28-.27.42s-.23.5-.37.74-.28.45-.39.69a3.4,3.4,0,0,0-.39,1,3.38,3.38,0,0,1-.52,1,2.9,2.9,0,0,1-.52.9,14.85,14.85,0,0,1-.73,1.36c-.15.38-.17.37,0,.73l0,0c.12-.22.23-.46.37-.68.4-.68.85-1.34,1.28-2,.63-1,1.21-2.09,1.88-3.1,0-.19.26-.25.28-.43s.08-.14,0-.24a.19.19,0,0,1,.06-.17c.16,0,.17-.17.21-.28a6.94,6.94,0,0,0,.51-1.23,2.31,2.31,0,0,1,.34-.75c.15-.25.15-.54.28-.79a.7.7,0,0,1,.27-.38,10.48,10.48,0,0,1,.73-1.36,2.32,2.32,0,0,0,.07-.38c0-.15.17-.23.25-.34s0-.06,0-.08,0-.23.09-.33a.56.56,0,0,1,.26-.39c0-.42.3-.72.42-1.09,0-.09.13-.18.12-.26,0-.28.17-.49.2-.75a2.8,2.8,0,0,1,.35-.79c0-.08,0-.2.11-.21s.14-.2.21-.29a1.39,1.39,0,0,0,.21-.27l.82-1.54c.06-.12.11-.25.18-.37s.08-.24.21-.33a.45.45,0,0,0,.18-.36c0-.11,0-.2.11-.23-.07-.14,0-.23.08-.34.23-.5.55-.93.78-1.42.11-.27,0-.6.34-.78a.17.17,0,0,0,0-.1.44.44,0,0,1,.16-.44.79.79,0,0,0,.24-.36c.2-.45.38-.92.59-1.36.33-.68.68-1.34,1-2a.6.6,0,0,0,.12-.32c0-.22.25-.37.24-.62.3-.14.35-.46.52-.69a8.75,8.75,0,0,1,1.24-1.61,1.18,1.18,0,0,0,.25-.3c.09-.1.18-.25.29-.27s.08-.22.19-.3.28-.32.44-.47.33-.26.4-.44a.8.8,0,0,1,.43-.4.18.18,0,0,0,.09-.08c0-.23.26-.29.36-.45a1.43,1.43,0,0,1,.42-.46,2.85,2.85,0,0,1,.3-.16.58.58,0,0,0,.28-.23,1.87,1.87,0,0,1,.54-.51c.13-.11.29-.16.37-.36s.19-.14.29-.16.27-.23.46-.19a.53.53,0,0,1,.24-.25l.44-.29c.14-.08.24-.21.42-.2s.2-.27.38-.31.1-.08.14-.08c.21,0,.35-.12.5-.2.57-.32,1.12-.64,1.69-.93.33-.16.69-.29,1-.44h0c.21.06.34-.12.52-.17a1.75,1.75,0,0,0,.52-.16c.22-.12.45-.2.67-.32a2.4,2.4,0,0,0,.62-.35,3,3,0,0,1,.65-.32c.09,0,.15-.15.24-.18a2.05,2.05,0,0,1,.34-.07.63.63,0,0,0,.28-.2c.05,0,.26,0,.33-.07a1.55,1.55,0,0,1,.66-.37,5.59,5.59,0,0,1,.61-.26c.06,0,.15,0,.17-.09.13-.22.37-.22.55-.3s.43-.19.65-.27c.05,0,.14,0,.18,0a1.67,1.67,0,0,1,.86-.34.76.76,0,0,0,.23-.13s.06-.08.08-.07c.3.06.52-.21.78-.21a1.85,1.85,0,0,0,.79-.23,19.05,19.05,0,0,0,2.45-.94,14.21,14.21,0,0,1,1.55-.42,10.68,10.68,0,0,0,1.37-.38l.08,0c.14-.2.37-.14.54-.24a2.09,2.09,0,0,1,.54-.21c.38-.1.78-.16,1.15-.28s.78,0,1.1-.14a3.59,3.59,0,0,0,.57-.11,1.39,1.39,0,0,0,.35-.29C174.2,199,174.31,199,174.31,198.92ZM9.85,95.18a4.92,4.92,0,0,0-3.63-1.51,4.41,4.41,0,0,0-.52,0A5.09,5.09,0,0,1,9,95.37,5.1,5.1,0,0,1,10,97a5.27,5.27,0,0,1,.34,1.85v8.65A58.83,58.83,0,0,1,0,107.55v.7c1.56.13,3.19.19,4.81.19,1.86,0,3.71-.09,5.47-.26v8.27A5.1,5.1,0,0,1,10,118.3a5,5,0,0,1-1,1.6,5,5,0,0,1-1.49,1.15,5.41,5.41,0,0,1-1.8.53,4.43,4.43,0,0,0,.52,0,5.08,5.08,0,0,0,2-.39,5,5,0,0,0,1.67-1.12,5.16,5.16,0,0,0,1.5-3.64V98.82A4.93,4.93,0,0,0,9.85,95.18Zm201.06,33.31c1.94-.66,4,.23,6.08.2a.81.81,0,0,0,.38-.08.54.54,0,0,0,.2-.37.47.47,0,0,0-.12-.39,1.37,1.37,0,0,0-.72-.45,10,10,0,0,0-3-.69,3.3,3.3,0,0,0-1.08.1,4.48,4.48,0,0,0-1.27.69l-.72.51a.58.58,0,0,0-.32.4A.56.56,0,0,0,210.91,128.49ZM239.45,260c-6.47.38-13.18.56-18.95,3.49a49.79,49.79,0,0,1,14.3-1.11c2.77.18,5.53.59,8.31.53a38.12,38.12,0,0,0,9.06-1.49,23.77,23.77,0,0,0,2.68-4.5C250.17,259.17,244.69,259.72,239.45,260ZM115.76,69.6,113.31,69a4.62,4.62,0,0,0-1.7-.1l-73,10a4.66,4.66,0,0,0-1.49.49,4.58,4.58,0,0,0-1.22,1,4.2,4.2,0,0,0-.8,1.35,4.25,4.25,0,0,0-.29,1.54l-.16,50.5a4.4,4.4,0,0,0,2.39,3.93l1.25.64a4.19,4.19,0,0,0,2.22.47A5,5,0,0,1,39.06,135l.52-50.95a1.9,1.9,0,0,1,.49-1.26,1.88,1.88,0,0,1,1.18-.64C52.36,80.6,115.84,71.55,116,71.76a5.36,5.36,0,0,1,2.66.3,4.28,4.28,0,0,0-1.17-1.56A4.35,4.35,0,0,0,115.76,69.6ZM217.83,264a61.77,61.77,0,0,0-13.53,2.22c-4.77,1.54-9.1,4.21-13.5,6.61a46.94,46.94,0,0,1-10,4.31l.56.32c1.87,1,3.75,1.9,5.54,3.07a6.74,6.74,0,0,1,.84.55c.31.31.57.29.87.52s.66.4.86.58a10.14,10.14,0,0,0,1.15.9l.3.2.15.1a1,1,0,0,1,.19.16l.53.46c.37.34.77.68,1.13,1l35.62-14.65A20.78,20.78,0,0,1,217.83,264ZM254.1,139.69a1.86,1.86,0,0,1-.57-.16,3.5,3.5,0,0,0-.55-.17l-.59-.16-1.64-.45s-3.14-.6-5.23-1.12q-4-1-8-2.22c-.33.17-.23.51,0,.72a1.82,1.82,0,0,0,.77.36c2.48.7,5,1.3,7.5,1.89l2.16.51c.86.2,1.71.41,2.59.56l-1.34,4.86,2.31.62,1.17.31c.47-1.85,1-3.7,1.59-5.53Zm-43.35,83.14-.31.09c6.5.37,13-1.77,19.32-3.48a1.07,1.07,0,0,1,.47-.05c.48.1.56.77.42,1.24-.58,1.92-2.68,2.87-4.45,3.65a20.34,20.34,0,0,1,2.12,13.05,23.31,23.31,0,0,1-2.11,6.46,23,23,0,0,1-3.88,5.56,9,9,0,0,0-5.49-1.08,6.71,6.71,0,0,0-2.67.93,6.55,6.55,0,0,0-2.07,1.92,7.1,7.1,0,0,0-1.1,3.08,7.88,7.88,0,0,0,1.61,5.94,6.52,6.52,0,0,0,2.07,1.66,8.25,8.25,0,0,0,1.79.2,8.17,8.17,0,0,0,1.56-.15,8.41,8.41,0,0,0,1.5-.46,8,8,0,0,0,1.39-.74,7.65,7.65,0,0,0,1.21-1,8.35,8.35,0,0,0,1-1.21,8,8,0,0,0,.73-1.39,7.88,7.88,0,0,0,.46-1.5,8.27,8.27,0,0,0,.15-1.57,7.61,7.61,0,0,0-.13-1.43,24.79,24.79,0,0,0,5.33-7.45,32.41,32.41,0,0,0,2.93-12.74,19.61,19.61,0,0,0-1.66-9.62L248.83,212C246.17,212.84,210.75,222.83,210.75,222.83Zm19.69-36.59c-.09-.21-.2-.52-.22-.59s-.13-.18-.16-.27,0-.24,0-.36a.75.75,0,0,0-.17-.33c0-.05.06-.25,0-.35a1.71,1.71,0,0,1-.28-.75c-.07-.22-.12-.45-.18-.68,0-.07,0-.17-.06-.21-.2-.17-.16-.42-.23-.63s-.12-.49-.16-.73c0-.06,0-.14,0-.19a2,2,0,0,1-.21-1,.79.79,0,0,0-.1-.27s-.06-.09-.05-.11c.1-.3-.13-.58-.09-.85a2.7,2.7,0,0,0-.12-.89,19.11,19.11,0,0,0-.63-2.77c-.05-.43-.15-.86-.2-1.3a.66.66,0,0,1-.05-.15,2.76,2.76,0,0,0-.08-.27l-.16-.29a1.23,1.23,0,0,0-.12-.26c0,.42,0,.83-.05,1.26a11.05,11.05,0,0,0,0,1.29c0,.34,0,.69,0,1s.12.6.17.89a8.63,8.63,0,0,1,.24,1.51,4.1,4.1,0,0,0,.19.91,3.72,3.72,0,0,0,.09.81c.09.24.27.47.17.75a.1.1,0,0,0,0,.09c.2.16.15.43.23.64,0,.05,0,.14,0,.17s.09.42.19.58a1.37,1.37,0,0,1,.21.55c0,.17,0,.34.06.5s0,.25.15.3c-.07.13,0,.25,0,.37.13.49.31,1,.46,1.48a.16.16,0,0,0,.06.08c.09.07.19.2.1.21l-.1,0c-.11,0-.17,0-.21.05s-.07.09-.14.12a1.08,1.08,0,0,1-.18.11,2.56,2.56,0,0,0-.74.69,8.62,8.62,0,0,1-.71.78.52.52,0,0,0-.17.42,1.56,1.56,0,0,1,0,.43s0,.08,0,.13l0,0a.1.1,0,0,1,0,.05h0a.25.25,0,0,1-.12,0h0a.17.17,0,0,0-.06.06c-.06.19-.26.24-.41.34-.37.24-.75.47-1.13.68a6,6,0,0,1-1.15.61,1.81,1.81,0,0,0-.59.4,1.55,1.55,0,0,1-.24.19,3.85,3.85,0,0,0-.5,1.18l0,.06a.18.18,0,0,0,.05-.07.57.57,0,0,1,.34-.15c.18,0,.31-.22.51-.17a.62.62,0,0,1,.27-.26l.5-.28c.15-.08.27-.22.46-.22s.22-.28.43-.32c.05,0,.1-.08.15-.08.22,0,.37-.14.54-.24l.88-.53.44-.27c.18-.11.45-.3.66-.45v-.06a4.26,4.26,0,0,1-.06-.5,1.07,1.07,0,0,1,0-.25,2.28,2.28,0,0,1,.15-.44s0,0,0,0c.19-.07.17-.25.29-.36s.24-.17.35-.27a1.24,1.24,0,0,1,.22-.18l.12-.06a.6.6,0,0,1,.21-.08,2.33,2.33,0,0,1,.51-.11l0-.09s0,0,0,0l0-.1.06-.19c0-.1,0-.21.06-.31s0-.2.06-.31Zm-49.89-8.61c-.2.09-.4.18-.6.29s-.57.39-.86.59c0,0,0,0,0,.06a1,1,0,0,1-.21.11.36.36,0,0,0-.11.22s-.18,0-.18.12-.18.29-.29.42-.19.22-.29.33-.09.06-.08.11c0,.2-.14.25-.22.37a2.52,2.52,0,0,1-.3.35s-.1,0-.12.05a.76.76,0,0,1-.4.48s-.05.11-.07.17,0,.07,0,.07c-.23,0-.23.29-.39.36a.86.86,0,0,0-.39.41,5.75,5.75,0,0,0-1,1.49,9.52,9.52,0,0,1-.65.88,3.67,3.67,0,0,0-.52.82s0,0,0,0c.07.17-.11.24-.13.38a.89.89,0,0,1-.12.38,4.34,4.34,0,0,0-.37.71c-.09.26-.37.41-.4.66a1.11,1.11,0,0,0-.15.37.9.9,0,0,0,.11.34c0,.06,0,.15.08.18a1.32,1.32,0,0,0,.38.13.34.34,0,0,0,.43-.3s0-.06,0-.06.17-.06.13-.18.08-.31.14-.46.07-.16.11-.23,0-.1,0-.14,0-.1,0-.14,0-.05.07-.07l0,0,0-.06a.08.08,0,0,0,0,0l.05,0,.12-.26a.25.25,0,0,1,.1-.21c0-.06.07-.13.1-.18s.09-.13.11-.21,0-.25.09-.33,0-.08.08-.1,0,0,.07,0a.38.38,0,0,1,.09-.13l0,0a.41.41,0,0,0,0-.11.06.06,0,0,1,0-.06.07.07,0,0,0,.06,0,.08.08,0,0,0,0,0s0,0,0,0a.24.24,0,0,1,.07-.12l0,0a1.64,1.64,0,0,1,.14-.22l.2-.29h0l0-.05.07-.08,0,0a2.54,2.54,0,0,1,.16-.38q.26-.4.54-.78a3.08,3.08,0,0,1,.61-.69,2.12,2.12,0,0,0,.35-.44c.1-.14.3-.17.37-.33s.06-.35.29-.37c0,0,0,0,0,0,0-.2.14-.24.21-.36s.09,0,.09-.05.17-.19.2-.31a.49.49,0,0,1,.18-.32c.08-.07.18-.11.25-.17s.14-.08.09-.2c.11,0,.14,0,.19-.11l.56-.6c.22-.33.39-.7.62-1l.18-.23,0-.06.11-.13,0,0h0l0-.1a.27.27,0,0,1,.07-.08A4,4,0,0,0,180.55,177.63Zm15.67,41.6a.38.38,0,0,1,0,.1s0,0,0-.05A.07.07,0,0,0,196.22,219.23Zm-73,55.29a27.07,27.07,0,0,0-4.66-.73,26.87,26.87,0,0,1-10.32-3.25,17.16,17.16,0,0,1-4.27-3.32,16.67,16.67,0,0,1-3-4.49,2.82,2.82,0,0,1,.71-1.69,4.21,4.21,0,0,1,1.75-.31,56.93,56.93,0,0,1,8.85.53,23,23,0,0,0,4.22.39,6.08,6.08,0,0,0,3.92-1.39c.11-.1.22-.29.12-.4a.33.33,0,0,0-.21-.05,5.45,5.45,0,0,0-1.39.28,13.88,13.88,0,0,1-2.8.31,61.43,61.43,0,0,1-9.49-.43,14.6,14.6,0,0,0-3-.16,6.12,6.12,0,0,0-2.18.61,4.52,4.52,0,0,1-.5.23,8.14,8.14,0,0,1-2.86-2.55,7.91,7.91,0,0,1-1.38-3.56c0-.08,0-.16,0-.25a6,6,0,0,0,.2,3.42c.56,2,1.54,4.08,3.42,5a9.77,9.77,0,0,0,3.14,7.21,19.17,19.17,0,0,0,6.91,4.09,39,39,0,0,0,11.82,2.49,6,6,0,0,1,1.63.22,8.85,8.85,0,0,1,1.39.75,4,4,0,0,0,2.55.69,2.07,2.07,0,0,0,1.83-1.75C127.37,276.59,125.33,275.18,123.22,274.52Zm116.88-126c-1-3.4-3.66-6.14-4.71-9.54s-.43-7-.57-10.58a10.18,10.18,0,0,0-1.61-5.67,4.58,4.58,0,0,0-5.22-1.86c-1.39-.63-2.24-2-3.46-3a7.68,7.68,0,0,0-3.74-1.36,13.06,13.06,0,0,0-9.92,2.93c-3.19,2.7-4.86,6.73-6.73,10.47a51.3,51.3,0,0,0-3.75,8.45,12.08,12.08,0,0,0,.54,9c.13.24.27.46.41.67,1.07-.13,2.15-.15,3.24-.19.6-.61,1.19-1.23,1.78-1.84,0-.22,0-.41,0-.63a23.24,23.24,0,0,1,1.64-18,17.52,17.52,0,0,1,7.27-2c2-.07,3.92.19,5.87.23a11,11,0,0,0,5.71-1.13,14.07,14.07,0,0,0,3.66,7.36,44,44,0,0,1-1.29,8.22,14.84,14.84,0,0,1-4.11,7.06,5.7,5.7,0,0,0,.64.56c.27-.45.56-.89.84-1.33a1.68,1.68,0,0,0,1,.13l-.16.29,0,0c.11-.06.22-.1.33-.15a4.75,4.75,0,0,1,.8-.28,2.64,2.64,0,0,1,.4-.12l.45-.09A5.58,5.58,0,0,1,230,146h.06a3.68,3.68,0,0,1,.58-.05,11.27,11.27,0,0,1,4.44.8,11.55,11.55,0,0,1,3.81,2.42,15.62,15.62,0,0,1,1.56,1.69A7.32,7.32,0,0,0,240.1,148.52Zm-11.39-16.43a3,3,0,0,0-1.19-1.87,5.59,5.59,0,0,0-2.06-.94,2.42,2.42,0,0,0-2.05.16c-.18.12-.35.34-.27.55a.5.5,0,0,0,.24.26c1.05.68,2.56.51,3.47,1.39.2.18.36.42.56.61a1,1,0,0,0,.72.35C228.4,132.6,228.76,132.38,228.71,132.09Zm19.85,73.3.12-.13,0-.09c.08-.2.13-.41.22-.6a1.67,1.67,0,0,0,.16-.58c0-.26.1-.52.11-.78a2.89,2.89,0,0,0,0-.66c0-.27-.14-.54-.19-.81a2.14,2.14,0,0,1-.17-.3c-.17.11-.27.25-.24.37s-.08.12,0,.17,0,.12,0,.19,0,.09.07.14,0,0,0,0,0,.25,0,.37-.07.25-.1.37a4.86,4.86,0,0,1-.19.82c0,.09-.11.16,0,.29a.12.12,0,0,1-.09.16c-.1,0-.11.08-.13.13l-.2.32-.21.3c.09.23-.21.13-.23.26s-.07,0,0,.13,0,.1-.06.09-.15,0-.19.09-.43.29-.57.53a.87.87,0,0,1-.41.27c-.16.06-.24.24-.4.32s-.17.1-.29.05a3.42,3.42,0,0,1-.89.28c-.08,0-.12.12-.19.17s-.18,0-.27,0,0,0,0,0-.12.1-.18.13a.26.26,0,0,1-.3,0c-.17.24-.45.19-.67.29-.06,0-.15,0-.17.06s-.3.14-.43.26-.35.12-.52.17-.12.06-.15,0-.16,0-.23,0l-.23,0-1.08.22a2.5,2.5,0,0,1-.26.07c-.08,0-.15.06-.26,0a.18.18,0,0,0-.23.06c-.06.07-.09.13-.17,0,0,.14-.12.1-.19.13-.32.11-.68.08-1,.19-.17,0-.29.29-.51.15,0,0-.05,0-.06,0a.19.19,0,0,1-.27.12.28.28,0,0,0-.28,0c-.3.1-.59.23-.89.32l-1.39.4a.37.37,0,0,0-.19.11c-.1.12-.28,0-.37.22-.22-.13-.38,0-.56.07a5.12,5.12,0,0,1-1.29.28.72.72,0,0,0-.25.07c-.08,0-.18.07-.25,0s-.12.11-.21.11a1.17,1.17,0,0,0-.41.1c-.12,0-.27,0-.37.11a.31.31,0,0,1-.36.1.07.07,0,0,0-.08,0c-.07.18-.24.09-.33.18a.65.65,0,0,1-.37.18h-.18l-.29.08a1.07,1.07,0,0,1-.41.18c-.1,0-.22,0-.29.15s-.15,0-.23,0-.19,0-.29,0l-.07,0a.27.27,0,0,1-.15.1l-.33.09c-.1,0-.18.1-.3,0h0s0,0-.07,0-.09.14-.18.12-.07,0-.09,0l-.1,0-.85.22-.6.17a3.85,3.85,0,0,1-.49.08c-.34.08-.69.18-1,.27s-.78.18-1.17.31a13.49,13.49,0,0,1-1.38.39l-.33.1s-.1,0-.12,0-.24.13-.37.18a2.17,2.17,0,0,1-.42.11s-.1,0-.12,0a.66.66,0,0,1-.57.15c-.06,0-.1.06-.15.09s0,.06-.06.05c-.2-.11-.33.09-.5.05a.91.91,0,0,0-.54.08,10,10,0,0,0-1.41.44l-.12.08c-.41.15-.84.19-1.23.36-.22.1-.45.18-.68.27-.49.22-1,.51-1.44.75s-.88.41-1.31.63l0,.08a.36.36,0,0,0,.21.19.39.39,0,0,0,.28,0,.09.09,0,0,1,.07,0c.08.1.15.09.22,0s.3-.13.45-.2l.25-.07a.66.66,0,0,0,.24-.14c.05,0,.17.1.21-.06.25.17.35-.29.6-.1a.05.05,0,0,0,.08,0c0-.17.17-.1.26-.15s.16-.18.29-.17.08,0,.12,0,.26.06.34-.1.05,0,.08,0,.13,0,.2,0l.4-.11c.15,0,.29-.07.43-.12s.24-.14.36-.18l.88-.25a3,3,0,0,1,.88-.17,1.54,1.54,0,0,0,.53-.14c.16,0,.34,0,.48,0s.25-.24.44-.13c0,0,0,0,.05,0,.08-.18.24-.12.37-.18s.09,0,.1,0,.24-.06.32-.15a.59.59,0,0,1,.32-.17c.1,0,.2,0,.3,0s.15,0,.17-.12c.08.08.15,0,.22,0l.88-.25a.3.3,0,0,0,.14-.06.35.35,0,0,1,.37-.11.24.24,0,0,0,.27-.07.31.31,0,0,1,.2-.11c.17-.06.34-.08.5-.15a.45.45,0,0,1,.34,0c.83-.27,1.68-.45,2.51-.72.42-.15.87-.2,1.29-.35a4.13,4.13,0,0,1,1-.24,3.09,3.09,0,0,1,.77-.23l.11,0s0,0,0,0,.05,0,.05,0l0,0,.23-.07,0,0s.08,0,.12,0c.34-.1.67-.18,1-.29a.47.47,0,0,1,.21,0l.47-.15c.41-.11.85-.19,1.25-.33s.7-.21,1-.31a.1.1,0,0,0,.05,0s0,0,.06,0l.41-.12.07,0,.13,0c.05,0,.13,0,.18-.05h.08l.09,0s0,0,.05,0,.11,0,.16,0l.11,0s0,0,0,0,.15-.11.23-.11.18.05.23-.07a7.67,7.67,0,0,0,.84-.32c.1,0,.22,0,.33,0L238,210l.6-.16c.09,0,.19-.05.28-.09s.17-.13.26-.11a.73.73,0,0,0,.3,0c.14,0,.27-.09.41-.11a1.22,1.22,0,0,1,.5-.08.25.25,0,0,0,.35-.15s0,0,.06,0,.19,0,.28,0,.32-.14.48-.11a2.19,2.19,0,0,0,.36,0,2.06,2.06,0,0,0,.35,0c.15,0,.31,0,.41-.2.24,0,.41-.21.64-.27l.81-.25c.11,0,.25,0,.31-.18s.06,0,.1,0,.14,0,.2,0,.18,0,.25-.15.18,0,.27,0,.27-.18.46-.12.1-.05.12-.1a.23.23,0,0,1,.27-.15.34.34,0,0,0,.24-.06,2.33,2.33,0,0,0,.41-.31,3.48,3.48,0,0,0,.71-.62c.14-.18.39-.27.47-.53s.19-.13.27-.21A2.06,2.06,0,0,0,248.56,205.39Zm-26.95-68.8h0l0,0h0l0,0h0l0,0s0,0,0,0h0a.22.22,0,0,1-.07-.09l0,0v0h0a.72.72,0,0,1-.11-.19l0,.08a.83.83,0,0,0-.08-.12l0,0a.7.7,0,0,1-.06-.09h0l0,0s0,0,0,0h0l0,0a.75.75,0,0,0-.07-.12h0l0-.05v0l0-.07,0,0h0a.3.3,0,0,1-.08-.17l-.08-.16v0h0l-.1-.21a1.61,1.61,0,0,1-.12-.33,2.23,2.23,0,0,1-.23-.76l0,.19,0-.16a1.3,1.3,0,0,1,0-.21s0,.06,0,.09l0-.18s0,.06,0,.09a1.5,1.5,0,0,1,0-.2v0h0a.54.54,0,0,1,0-.22v-.1a.09.09,0,0,0,0,0v0a.65.65,0,0,1,0-.24v0a.49.49,0,0,1,0-.12s0,0,0,0a.14.14,0,0,0,0-.07.06.06,0,0,1,0,0s0,0,0,0a.19.19,0,0,0,0-.09v.1a.49.49,0,0,1,0-.12s0,0,0,0v.09a.41.41,0,0,1,.05-.18l.06-.06h0a.1.1,0,0,1,0-.08c0-.08.08-.17.2-.2a1.88,1.88,0,0,1,.42-.58l0-.11s0,0,0,0a1.1,1.1,0,0,1,0-.18l0-.1,0-.24,0,.19c0-.08,0-.16,0-.24h0v.11a.5.5,0,0,0,0-.12c0-.05-.06-.11-.09-.17l.06.08-.1-.14-.05,0-.1,0-.14,0-.16.1a.33.33,0,0,0-.06.19c0,.08-.16.12-.22.22s-.14.33-.33.41-.07.1-.07.18a.48.48,0,0,1-.18.39.52.52,0,0,0-.18.27,2.38,2.38,0,0,0,0,.6,3.78,3.78,0,0,0,.08,1.11c.09.25,0,.55.23.78s0,.26.05.4a3.2,3.2,0,0,0,.26.6,5.65,5.65,0,0,0,.25.55,2.71,2.71,0,0,0,.41.59.59.59,0,0,1,.09.6c0,.15,0,.35-.21.42-.1.27-.48.38-.76.72s-.25.3-.11.64a.35.35,0,0,0,.11.13.47.47,0,0,0,.59,0s.15,0,.14-.14.14-.07.2-.12a1,1,0,0,0,.1-.17l0,0c.19,0,.27-.23.41-.37a1.41,1.41,0,0,0,.37-.53A1.77,1.77,0,0,0,221.61,136.59ZM208.48,146.9a.81.81,0,0,0,.05.71,5.48,5.48,0,0,0,4.32,3,14.38,14.38,0,0,0,5.46-.51,12.51,12.51,0,0,0,3.75-1.32c.24-.15.5-.43.33-.66a.49.49,0,0,0-.47-.14c-1.33.09-2.62.49-3.95.67a12.89,12.89,0,0,1-4.63-.18,13.06,13.06,0,0,1-4.27-1.79A.53.53,0,0,0,208.48,146.9Zm0,0a.81.81,0,0,0,.05.71,5.48,5.48,0,0,0,4.32,3,14.38,14.38,0,0,0,5.46-.51,12.51,12.51,0,0,0,3.75-1.32c.24-.15.5-.43.33-.66a.49.49,0,0,0-.47-.14c-1.33.09-2.62.49-3.95.67a12.89,12.89,0,0,1-4.63-.18,13.06,13.06,0,0,1-4.27-1.79A.53.53,0,0,0,208.48,146.9Zm14.84-11.51c.46.14,1-.3,1.22-1s0-1.37-.45-1.51-1,.3-1.21,1S222.86,135.24,223.32,135.39Zm-8.89-1.74c.46.14,1-.31,1.22-1s0-1.36-.44-1.51-1,.3-1.23,1S214,133.5,214.43,133.65Zm35.83,64.74a12,12,0,0,0-4-.17c-.24.23-.49.47-.74.69a8.27,8.27,0,0,1,.87.08,8,8,0,0,1,4.55,2.29l.35-.27a8.27,8.27,0,0,0,.71-.74,2.8,2.8,0,0,0,.53-.61,2.21,2.21,0,0,1,.29-.32A6.56,6.56,0,0,0,250.26,198.39Zm-61,87.93a.59.59,0,0,0-.74,0s-.07.05-.1,0a.28.28,0,0,0-.34.09,1.9,1.9,0,0,1-.66.38,3.35,3.35,0,0,1-.38.18,1.48,1.48,0,0,0-.35.25c-.08.06-.26,0-.32.15-.37-.08-.51.45-.9.36a.16.16,0,0,0-.11,0c-.05.2-.26.19-.38.28s-.24.26-.42.3-.12.07-.19.07a.52.52,0,0,0-.5.27.1.1,0,0,1-.1,0c-.13-.05-.21,0-.3.09l-.6.31c-.21.11-.42.21-.62.33s-.34.26-.52.36c-.42.23-.85.47-1.28.69a8,8,0,0,1-1.27.64,3.58,3.58,0,0,0-.77.42c-.21.13-.48.14-.69.31s-.33.38-.62.37a.07.07,0,0,0-.07,0c-.09.23-.34.26-.51.38s-.13,0-.15,0-.34.19-.45.34a1.22,1.22,0,0,1-.44.34c-.13.08-.29.11-.43.19s-.21.07-.22.21c-.13,0-.22.06-.32.12l-1.23.78a.55.55,0,0,0-.18.16.92.92,0,0,1-.52.34.62.62,0,0,0-.37.22.69.69,0,0,1-.26.25c-.22.16-.47.3-.69.47l-.1.06a.27.27,0,0,1-.11.1l-.84.46a3.14,3.14,0,0,0-.39.24l-.36.24-.39.22-.27.19-1,.74a5.87,5.87,0,0,1-1,.7,1.54,1.54,0,0,0-.5.45,1.13,1.13,0,0,1-.66.47c-.08,0-.14.14-.23.17s0,.2-.19.2-.15.12-.23.17a3.84,3.84,0,0,0-.63.58.21.21,0,0,1,0,.17,8,8,0,0,1-.62.69c-.1.11-.19.24-.3.34a1.75,1.75,0,0,0-.29.26c-.21.23-.43.46-.65.68s-.18.2-.28.32a.8.8,0,0,1-.13.13.36.36,0,0,0-.07.1.33.33,0,0,1-.33.17,3.79,3.79,0,0,1-.4.3c-.2.13-.47.22-.55.44a2.42,2.42,0,0,1-.36.54,1,1,0,0,0-.15.2,1,1,0,0,1-.4.52.36.36,0,0,0-.07.1,1.89,1.89,0,0,1-.09.21,8,8,0,0,1-.55.75,3.45,3.45,0,0,0-.43.83s0,.06-.09.09a1.33,1.33,0,0,1-.17.16c-.2.15-.07.48-.36.58.06.16-.07.26-.13.38s-.17.22-.17.33-.14.2-.18.31-.06.1-.05.15-.08.26-.16.36-.21.19-.17.36c-.26.41-.33.9-.55,1.32-.08.15-.21.28-.28.44s-.14.33-.21.5l-.19.46-.19.47a3.12,3.12,0,0,0-.15.43c-.05.15,0,.33-.12.44a1.54,1.54,0,0,0-.19.44l-.23.63a2.91,2.91,0,0,1-.29.76.63.63,0,0,0-.12.59.1.1,0,0,1,0,.1c-.16.09-.13.27-.18.4a3.29,3.29,0,0,1-.21.76,4.15,4.15,0,0,0-.2.53c-.07.17-.15.34-.21.52a1.35,1.35,0,0,0-.07.72,7.91,7.91,0,0,0-.13,1.09c-.1.43-.16.88-.23,1.31,0,.19-.13.37,0,.56a.16.16,0,0,1,0,.15c-.12.07-.1.19-.11.3a.82.82,0,0,0,0,.44c0,.09-.1.25-.12.4a1.42,1.42,0,0,1-.17.7.24.24,0,0,0,0,.23.55.55,0,0,1,0,.47.88.88,0,0,0-.1.35,6.43,6.43,0,0,0,0,.76c0,.47-.09.95,0,1.42a5.36,5.36,0,0,0,0,1.06c.05.16-.06.33-.1.5a7.35,7.35,0,0,0-.07.82,7.22,7.22,0,0,0-.13.79,4.61,4.61,0,0,0,0,1.05,3.56,3.56,0,0,1-.13,1.08,3,3,0,0,1-.13,1,2.29,2.29,0,0,1,0,.37c0,.12,0,.23,0,.35a.31.31,0,0,1,.06.13c0,.23,0,.47,0,.7s.07.37.09.56l.05.06v0a4.59,4.59,0,0,1,.35-.51,3.23,3.23,0,0,0,.25-.49l0-.05a.68.68,0,0,1,0-.14.06.06,0,0,1,0-.06c.12-.22,0-.46.08-.68a5.2,5.2,0,0,0,.11-.67c0-.5.06-1,.08-1.52a.72.72,0,0,0,0-.52.32.32,0,0,1,0-.31.45.45,0,0,0,.07-.3l0-.66.05-.66c-.21-.22.11-.39,0-.59s0-.16,0-.24a.17.17,0,0,1,0-.18c.12-.09.09-.22.09-.34a5.91,5.91,0,0,0,.06-1.33,2.19,2.19,0,0,1,.08-.81c.06-.29,0-.56,0-.84a.79.79,0,0,1,.13-.45,9.49,9.49,0,0,1,.3-1.5c0-.13,0-.26,0-.39a.92.92,0,0,1,.15-.4s0-.07,0-.08,0-.23,0-.35a.61.61,0,0,1,.15-.43,3,3,0,0,1,.13-1.16c0-.09.08-.2.05-.28-.1-.26.06-.51,0-.78a2.42,2.42,0,0,1,.17-.84c0-.08,0-.2.07-.23s.1-.21.15-.32a3,3,0,0,0,.16-.31c.16-.55.36-1.09.54-1.64,0-.13.07-.26.12-.39a.64.64,0,0,1,.17-.35.5.5,0,0,0,.13-.37c0-.12,0-.19.1-.24-.1-.13,0-.24,0-.34a15.93,15.93,0,0,1,.64-1.47c.1-.25,0-.59.3-.77,0,0,0-.08,0-.11a.38.38,0,0,1,.15-.43.72.72,0,0,0,.23-.36c.21-.44.35-.92.59-1.35.36-.66.7-1.32,1.12-1.94a.69.69,0,0,0,.15-.31c0-.21.26-.36.26-.6.29-.14.38-.45.56-.66a8.31,8.31,0,0,1,1.34-1.56l.26-.3c.1-.1.18-.25.29-.27s.09-.22.2-.3a3.31,3.31,0,0,0,.45-.47,2,2,0,0,0,.42-.45.72.72,0,0,1,.42-.4s.09-.06.09-.09c0-.24.27-.29.36-.46a1.36,1.36,0,0,1,.41-.48,2.75,2.75,0,0,1,.29-.17,1.12,1.12,0,0,0,.28-.25c.1-.25.33-.37.51-.55s.28-.19.34-.38.18-.16.29-.19.25-.25.44-.22a.56.56,0,0,1,.22-.28c.14-.1.27-.23.42-.33s.22-.23.4-.25.17-.29.35-.34.09-.09.13-.09c.22,0,.34-.16.49-.27.52-.38,1-.76,1.57-1.13.31-.21.64-.38,1-.57,0,0,0,0,0,0,.22,0,.32-.17.49-.24a2.1,2.1,0,0,0,.5-.24c.19-.15.41-.27.61-.41a2.22,2.22,0,0,0,.56-.45,3.1,3.1,0,0,1,.61-.41c.08-.06.13-.17.21-.22s.22-.07.32-.13a.58.58,0,0,0,.26-.23c0-.06.24,0,.31-.13s.39-.31.6-.45a6.53,6.53,0,0,1,.56-.35c.06,0,.15-.06.17-.11.09-.23.33-.27.5-.39s.4-.25.6-.36.14,0,.18,0a1.66,1.66,0,0,1,.8-.46.68.68,0,0,0,.21-.17s.05-.08.08-.08c.3,0,.47-.28.73-.31a2.08,2.08,0,0,0,.75-.36,18.09,18.09,0,0,0,2.3-1.33,13,13,0,0,1,1.46-.69,10.25,10.25,0,0,0,1.29-.63s.06,0,.07,0c.1-.21.34-.2.49-.33a2.34,2.34,0,0,1,.49-.33c.37-.16.73-.33,1.08-.52s.76-.18,1-.39a2.25,2.25,0,0,0,.52-.24,1.64,1.64,0,0,0,.28-.37c.05-.08.14-.16.13-.22A.74.74,0,0,0,189.21,286.32Zm-121-102.11a172.11,172.11,0,0,1-28.31-4.12v98c1.5,2.34,4.52,4.61,8.13,6.59-1.53-15.54-2.06-31.24.34-46.66C51,220.84,57.56,203.91,69.18,191a232.38,232.38,0,0,0,57.12-14.48,20.52,20.52,0,0,1,4.2-1.33v-1.8C116.58,176.52,92.15,181.61,68.17,184.21Z"
          transform="translate(-0.03 0)" fill="#172545" />
      </g>
    </g>
  </g>
</svg>
