<svg xmlns="http://www.w3.org/2000/svg" viewBox="0 0 342.48 237.22"><g id="Layer_2" data-name="Layer 2"><g id="Layer_1-2" data-name="Layer 1"><path d="M5.29,190.51a11.52,11.52,0,0,1-4.77-3.66,2.76,2.76,0,0,1-.47-2.14C1.9,173.82,3.9,163,6.27,152.17c1-4.61,2.09-9.22,3.19-13.81a10.49,10.49,0,0,0,.18-3.06,102.73,102.73,0,0,1,5.09-36.45c0-.07.09-.12.14-.19.5-.18.84.14,1.18.4,2,1.5,4,3,6,4.31,2.51,1.58,4.43,3.89,7.05,5.33A23.82,23.82,0,0,0,40.85,112c2,0,4.07.24,6.1.33a18.09,18.09,0,0,0,4-.53,13.26,13.26,0,0,1,2.73-.29,11.84,11.84,0,0,0,3.79-.5,2.1,2.1,0,0,1,2.16.17,4.73,4.73,0,0,1,.42,2.67,3.81,3.81,0,0,0,3.15,4.06,7.23,7.23,0,0,0,2,.28c3.94-.09,7.89.22,11.83-.19a1.43,1.43,0,0,1,1.24.29,194.67,194.67,0,0,1,6.91,21.05,30.64,30.64,0,0,1,.59,6.17c.58,10.44.68,20.89.49,31.34,0,1.95-.18,3.9-.18,5.85a2.3,2.3,0,0,1-.69,1.58,20,20,0,0,1-4.58,3.62A3.39,3.39,0,0,1,79.15,189a23.9,23.9,0,0,1-9.65,1.11,1.88,1.88,0,0,1-1.18-.5,29.06,29.06,0,0,1-4.09-1.31,1.47,1.47,0,0,1-.93-1.23c-1.36-7.53-2.43-15.1-3.28-22.69-.56-5.07-1.06-10.15-1.28-15.25a10.67,10.67,0,0,0-.92-4q-5-10.72-10.18-21.34c-.56-1.15-.63-1.16-1.31-.12A226.12,226.12,0,0,0,33.38,146.9c-1,2-1,4.32-1.46,6.5-1.38,7.15-2.53,14.34-3.55,21.55-.48,3.35-.86,6.71-1.29,10.07a1.55,1.55,0,0,1-.14.69c-2.06,2.93-4.22,5.76-7.92,6.76a24.12,24.12,0,0,1-2.7.44,2,2,0,0,1-1.61.25,53.88,53.88,0,0,1-8.14-1.85A2,2,0,0,1,5.29,190.51Z" fill="#1fdb92"/><path d="M236.47,145.43a87,87,0,0,1,13.7-6.47c.76-.29,1.05-.56.88-1.44a3.8,3.8,0,0,1,3.33-4.23c.77-.14,1-.45,1.17-1.18A210.94,210.94,0,0,1,269,90.85a14.5,14.5,0,0,1,7.5-7.52c.42-.19.93-.26,1.2-.72s.69-.63,1.12-.82a53.63,53.63,0,0,1,14.44-4,3.15,3.15,0,0,1,1.4.18,66.82,66.82,0,0,1,7.88,0c5.52.64,9.94,3,13,7.7a21.08,21.08,0,0,1-4.3.83c-4.27.77-8.61.95-12.85,2.11-3.53,1-7,2.26-10.58,3s-6.47,2.44-9.76,3.52a31.64,31.64,0,0,0-4,1.91c-.34.17-.88.33-.62.83s.7.12,1-.06a67.82,67.82,0,0,1,11.93-4.93,78.55,78.55,0,0,1,8.26-2.41c3.74-.8,7.31-2.31,11.18-2.59a83.19,83.19,0,0,0,8.88-1.25,4.26,4.26,0,0,1,1.55,0c4.15,7.76,5.68,16.34,7.71,24.75,1.71,7.09,3,14.28,4.16,21.48a2.44,2.44,0,0,1,0,.47,35.49,35.49,0,0,1-4.12.28,27.71,27.71,0,0,0-14.93,6.51c-5.21,4.29-9.36,9.57-13.53,14.82a83.1,83.1,0,0,1-7.75,8.8,39.22,39.22,0,0,1-7.74,6c-.34.19-.65.48-1.1.35A28,28,0,0,1,268.1,160a31.19,31.19,0,0,1-1.79-3.38c-.59-1.23-.37-1.7,1-1.92a17.15,17.15,0,0,0,10.88-6.18,34.83,34.83,0,0,0,4.86-6.48,3.45,3.45,0,0,0,.25-.41c1.41-3.41,3.29-6.64,3.91-10.37.39-2.32,1.29-4.53,1.91-6.8a75.42,75.42,0,0,0,1.68-8.8,61.59,61.59,0,0,1,1.31-6.06c.1-.43.57-1.07,0-1.26s-.72.6-.85,1.06a31.65,31.65,0,0,0-1.1,5.76c-.19,1.76-.75,3.42-1,5.16-.54,4.25-2.16,8.23-3.26,12.33a45.24,45.24,0,0,1-4.09,9.8,16.12,16.12,0,0,1-3.33,4.21,38.36,38.36,0,0,0-2.5,2.91c-2,2.27-4.7,3.22-7.48,4-4.24,1.24-7.46-.55-10.2-3.57a4.52,4.52,0,0,0-2.76-1.48c-5.39-.93-10.77-1.91-16.21-2.55C238.36,145.9,237.3,146.23,236.47,145.43Z" fill="#595ea3"/><path d="M279.16,170.1A48.21,48.21,0,0,0,290,161.18c3-3.33,5.79-6.9,8.63-10.4,4-4.9,8.1-9.67,13.48-13.13a26.17,26.17,0,0,1,14.68-4.41,13.68,13.68,0,0,1,1.42.15,24.49,24.49,0,0,1,6.24,1.91,19.85,19.85,0,0,1,7.71,7.42,1.79,1.79,0,0,1,.29,1q0,10.47,0,20.94c-.88.68-2.1.33-3.11,1a10.21,10.21,0,0,1,2.26.94,1.47,1.47,0,0,1,.74,1.58c-.05.91-.57,1.87.11,2.76,0,2.6.14,5.19,0,7.77-.09,1.71-1,3.26-1.55,4.87a28,28,0,0,1-3.83,7.65,30.48,30.48,0,0,1-4.19,4.31c-1.22,1.28-2.88,1.8-4.4,2.56-1.68.84-3.52,1.28-5.17,2.17-.56-.71-1.27-.28-1.84-.12a85.5,85.5,0,0,1-13.19,2.32,80.56,80.56,0,0,1-12,.4,56.49,56.49,0,0,1-9.43-1.06,1.72,1.72,0,0,0-1.37.14,46.23,46.23,0,0,1-9.31-2.5,2,2,0,0,1-.77-.55c-1-.95-2.51-1.08-3.65-1.9-.48.7.07,1.5-.43,2.08-.14-.1-.27-.23-.25-.39.16-1.51-.93-2-2-2.63a46.42,46.42,0,0,1-10.38-7.83,9.28,9.28,0,0,1-2.23-3.5,5,5,0,0,1,.64-4.57c1.37-2,3-3.6,5.74-3.77a28.51,28.51,0,0,0,15-5.71C278.21,170.43,278.55,170,279.16,170.1Z" fill="#f6f6f6"/><path d="M78.3,118.31c-4.49.37-9,.2-13.49.2a5,5,0,0,1-4.4-2,3.14,3.14,0,0,1-.7-2.1,15.24,15.24,0,0,0-.22-3.44,2.09,2.09,0,0,1-.33-1.78,65.29,65.29,0,0,0,.64-6.53c.39-6.55.5-13.12,1.2-19.65.13-1.22-.23-2.48.37-3.65.37-.5.89-.4,1.42-.38,3.5.13,6.54-.81,8.67-3.81a14.7,14.7,0,0,1,1.07-1.16,28.54,28.54,0,0,1,3.64-3A2.81,2.81,0,0,0,77.46,68c0-.11-.09-.22-.13-.33a2,2,0,0,0-1.68-.75,13.35,13.35,0,0,0-3.22.26,42.56,42.56,0,0,1-6.58.19c-.39,0-.9.06-1.06-.37s.27-.8.61-1a28.47,28.47,0,0,1,8-4.07,8.42,8.42,0,0,0,2.22-.9c.33-.23.68-.51.62-1s-.54-.53-.92-.61a12.76,12.76,0,0,0-6.84.67,40.75,40.75,0,0,0-4,1.71c-1.54.76-1.91.53-2-1.16,0-.16,0-.32,0-.48,0-.48.14-1,.15-1.43A5.19,5.19,0,0,1,67.9,54c.84,0,1.68,0,2.52,0,7.3.08,14.59-.32,21.89-.21,3.35,0,6.7.24,10,.22a1.62,1.62,0,0,1,1.23.36,1.88,1.88,0,0,0,1.16.19q15,0,30.07,0c2.5,0,5,0,7.51-.14,3.53-.21,5.94,2.18,5.38,5.73a13.48,13.48,0,0,1-2.14,2.84c-1.92,2.4-3.66,4.92-5.34,7.48-.3.45-.75.94-.33,1.51a1.6,1.6,0,0,0,1.84.46c.71-.17,1.25-.69,1.95-.88a.44.44,0,0,1,.37.33c.09.67-.36,1.1-.69,1.59-.9,1.3-2.09,2.37-2.94,3.72a4.5,4.5,0,0,0-.64,3.63,1.22,1.22,0,0,0,1,1.18,3.77,3.77,0,0,1,1.45.74.8.8,0,0,0,1.06.35c.8-.17,1.22-1,2.08-1.1-.37,4-.79,7.92-1.16,11.89-.48,5.11-1.18,10.21-1.54,15.33a47.37,47.37,0,0,1-.58,4.75,4.58,4.58,0,0,1-5,3.83c-2.83-.07-5.67-.27-8.5-.07-4.22.31-8.45.16-12.68.29-3.65.1-7.32.06-11,0-4.59-.1-9.18.2-13.76.27-4,.06-8,0-12.06.07Z" fill="#595ea3"/><path d="M279.16,170.1a31.7,31.7,0,0,1-17,6.78,6.27,6.27,0,0,0-4.49,9.71c1.75,2.49,4.19,4.26,6.56,6.07a33.06,33.06,0,0,0,5.76,3.6c1,.46,1.55,1,1.27,2.14a2.49,2.49,0,0,0,0,.72,20.77,20.77,0,0,0-.25,3c.07,1.15-.34,1.66-1.47,1.66a5.85,5.85,0,0,0-.92.14c-1.45.8-3,.58-4.57.53a40,40,0,0,1-9.91-1.47c-2.54-.83-2.5-.9-2.72-3.62-.42-5.21-.53-10.43-.9-15.64-.1-1.51,0-3,0-4.55a1.24,1.24,0,0,0-1.23-1.44l-1.18-.14c-1.93-.22-1.94-.22-2.22,1.76-1.39,10-3,20-4.59,29.93a2.56,2.56,0,0,1-.56,1.67,14.86,14.86,0,0,1-4.05.91A34.75,34.75,0,0,1,224.6,211a2.17,2.17,0,0,1-1.53-.82,40.55,40.55,0,0,1-6.33-2.7,1.53,1.53,0,0,1-1-1.54c-.05-7.26.13-14.52.33-21.77.14-5.09.45-10.18.69-15.27.28-.54,0-1.14.18-1.68l.07-1.41a1.61,1.61,0,0,0,0-1.24c.46-5,1.81-9.71,5-13.76a19.66,19.66,0,0,1,2.52-2.56,1.85,1.85,0,0,1,.93-.48c1.37-.41,2.53-1.28,3.92-1.64a26.2,26.2,0,0,1,7.11-.72c6.83.61,13.58,1.78,20.31,3.06a1.92,1.92,0,0,1,1.23.79,11,11,0,0,0,7.16,4.41,11.47,11.47,0,0,0,5-.88,16,16,0,0,0,7.48-5.67,48.53,48.53,0,0,0,4.14-5.21,16.23,16.23,0,0,0,1-1.91,70.89,70.89,0,0,0,4.08-11.68,23.3,23.3,0,0,1,1.52-4.87c.59-1.25.26-2.65.63-4,1-3.48,1-7.15,2.08-10.62.06-.19.11-.38.17-.57a.74.74,0,0,1,1-.54c.56.16.6.54.43,1a56.25,56.25,0,0,0-1.9,9.18,73.82,73.82,0,0,1-2.95,11.87c-.58,1.69-.69,3.52-1.36,5.19a49.53,49.53,0,0,1-4.75,9.63,32.24,32.24,0,0,1-6.65,7.18,13.48,13.48,0,0,1-7.28,3c-.31,0-.61.22-.92.22-.82,0-.71.41-.47.93a27.47,27.47,0,0,0,11.83,13.24C278.58,169.5,279.11,169.52,279.16,170.1Z" fill="#172545"/><path d="M103.59,54.33c-5.14.18-10.28-.36-15.42-.21-6.76.2-13.52.14-20.27.23A4.62,4.62,0,0,0,63,58.74c-.06.51-.14,1-.21,1.54-.65,1.28-1.91,2-2.89,2.92a43.66,43.66,0,0,1-3.49,3c-.38.31-.74.76-1.34.57a1,1,0,0,1,.09-1.12c.78-1.34,1.29-2.82,2.11-4.15a25.18,25.18,0,0,0,1.81-3.64,3.86,3.86,0,0,0,.29-1,111.17,111.17,0,0,0-6.82,12.07A16.3,16.3,0,0,1,47,72c-2.68,1.08-5.56,1.4-8.34,2.13a22.4,22.4,0,0,0-5.4,2.24c-1.54.87-3.13,1.44-4.88.54-.57-.3-.78.16-1,.55a10.45,10.45,0,0,0-1.05,7.64,14.6,14.6,0,0,0,2.46,5.67,5.85,5.85,0,0,0,5.63,2.48,29.28,29.28,0,0,0,4.81-1,10.78,10.78,0,0,0,4.3-2.53c3.39-3.08,6.83-6.12,10.23-9.19,1.28-1.15,2.54-2.31,3.87-3.4.58-.47,1.09-.52,1.49.14.59,1,1.77,1.18,2.49,2l-.42,5.46c-.38,4.79-.61,9.59-.79,14.39-.12,3.21-.45,6.41-.68,9.62,0,.33,0,.64-.4.79a10.25,10.25,0,0,1-4.24,1.09c-2.47.12-4.89.74-7.36.72-3.3,0-6.64.29-9.86-.36a25.2,25.2,0,0,1-12.36-5.9,57.13,57.13,0,0,0-7.1-5.22A10.48,10.48,0,0,1,15.12,97c-2.43-3.68-2.43-3.68-1.22-7.94.89-3.13,1.93-6.21,3.09-9.26a10.43,10.43,0,0,1,4.33-5.56c3.89-2.32,6.36-5.82,8.45-9.7q5-9.3,10.08-18.58a32.86,32.86,0,0,1,1.93-3c2.32-3.35,5.75-4.64,9.59-5.13a1.63,1.63,0,0,0,.92-.22,1.2,1.2,0,0,1,.85-.38,18.75,18.75,0,0,0,7.07-2.83A9.41,9.41,0,0,1,64,32.93a2.26,2.26,0,0,1,1.4.17c.4.46.12.94-.06,1.34a4.63,4.63,0,0,0,.19,4.13c1.58,3.26,2.92,6.64,4.55,9.89a26.7,26.7,0,0,0,2,3.14,1,1,0,0,1,.07.1c.89,1,1.85,2.06,3.33,1.71s1.88-1.7,2.13-3c0-.16,0-.32.05-.48a7.2,7.2,0,0,1,.92-3.26A1.6,1.6,0,0,1,80,46.56c.93.23,1.84.51,2.76.75a5.56,5.56,0,0,0,5.49-1.49,25.2,25.2,0,0,0,3.42-4.28c.34-.48.59-1.06,1.22-1.25a1,1,0,0,1,.77.27,29.09,29.09,0,0,1,8.06,9.64,1,1,0,0,1,.13.57C102.25,52.06,103.18,53.07,103.59,54.33Z" fill="#1fdb92"/><path d="M173.9,190.5v-2.56c-1,1.18-1,2.64-1.42,3.95a7.94,7.94,0,0,1-4.55-.45c-1.6-.49-3.23-.85-4.82-1.37a48.42,48.42,0,0,1-7.12-3.3,1.49,1.49,0,0,1-.83-.82,68.87,68.87,0,0,1,0-8.62c.27-2.42.35-4.85.44-7.27a42,42,0,0,1,1.3-9.47,22.25,22.25,0,0,1,3.89-7.63c1.27-1.69,2.56-3.37,3.84-5.05.28-.38.52-.83,1.08-.88.52.43.34,1,.37,1.57a10.94,10.94,0,0,0,2.14,6.48,3.29,3.29,0,0,0,2.6,1.5c.9,0,1.14-.37.86-1.23-.2-.59-.65-1.12-.43-1.81.73-.29,1.32.21,2,.37,2.72,2.18,5.73,3.6,8.62,1.38s6.16-2.66,9.34-3.73a58.49,58.49,0,0,0,8-3.14,6.13,6.13,0,0,0,3.11-3.9c.15-.49.18-1,.71-1.33a2.29,2.29,0,0,1,1.59,1.32,19.32,19.32,0,0,1,2.52,13.24,12.58,12.58,0,0,1-4.57,7.77,30.12,30.12,0,0,1-3.14,2.38,3.78,3.78,0,0,0-1.85,1.95,1,1,0,0,1-.66.66c-1.08.3-1.28,1-1.35,2.07-.21,3-.25,6-.72,9L194,191.67c-.66,1-1.8.86-2.71.9-2.29.11-4.58.43-6.88.33a5.62,5.62,0,0,1-1.3-.11c-2.42-.63-4.94-.87-7.26-1.85A9.51,9.51,0,0,0,173.9,190.5Z" fill="#595ea3"/><path d="M260.53,59a5.3,5.3,0,0,1-4.83-6.1,1.41,1.41,0,0,0-.57-1.55c-1.5-1-1.75-1.79-1.22-3.53A11.56,11.56,0,0,1,257,43c.28-.28.58-.54.89-.84a22.23,22.23,0,0,1-1.83-1.35,2.15,2.15,0,0,1,.48-3.78,22.6,22.6,0,0,1,8.59-2.28c3.81-.38,7.49-1.39,11.24-2.08a13.31,13.31,0,0,1,13.34,4.78c.26.32.38.71,1,.58,4.21-.88,7.37.67,9.34,4.51A20,20,0,0,1,301.8,49a37.82,37.82,0,0,1-.14,13.42,17.22,17.22,0,0,1-4.08,8,5.29,5.29,0,0,0-1.42,2.44c-.58,2.74-1.14,3.23-3.86,3.44-.52.29-.92,0-1.32-.28a18.7,18.7,0,0,1-7.34-9.2,3.75,3.75,0,0,1,.1-2.68,18,18,0,0,0,1.32-7.37,5.84,5.84,0,0,0-1.38-3.61c-1.29-1.44-2.84-1.18-3.57.6A19.61,19.61,0,0,0,279,59.05c-.06.45.12,1.08-.45,1.23s-.85-.37-1.16-.72a7.59,7.59,0,0,1-1.67-3.14,2.27,2.27,0,0,0-1.44-1.61,15.11,15.11,0,0,1-3.75-2.33,4.09,4.09,0,0,0-3.41-1,28.87,28.87,0,0,1-5.26,0c-1,0-1.34.36-1.33,1.3a17.58,17.58,0,0,0,.44,5.11C261.07,58.3,261.37,58.89,260.53,59Z" fill="#172545"/><path d="M101.88,50.77c-1-1.53-1.94-3.11-3-4.59A28.72,28.72,0,0,0,93,40.39c-.22-.46.1-.76.34-1.06A10.68,10.68,0,0,0,95.8,33a30.72,30.72,0,0,1,.83-5.31c.26-1.15.09-1.39-1.07-1.66l-.23-.05c-.83-.11-1.65-.26-1.68-1.33,0-.66.89-1.35,1.82-1.47,1.71-.22,1.71-.22,1.34-2-.44-2.05-.44-2.05-2.13-.85-.72.5-1.47,1-2.23,1.41-.52.31-1.06.65-1.65.19s-.47-1.07-.33-1.65a34.11,34.11,0,0,0,.71-3.89c0-.34.2-.7-.06-1-.38-.1-.58.19-.82.38a66.81,66.81,0,0,1-11.63,7.56,2.27,2.27,0,0,0-1.24,1.51,37.87,37.87,0,0,1-1.3,3.85,1.83,1.83,0,0,1-1,1.17c-.76.3-1.39-.08-1.57-1.12a7,7,0,0,0-2.33-4.2A2.66,2.66,0,0,0,67,25c-1.09,1.58-.87,3.35-.69,5.1a3.36,3.36,0,0,1-1,3.14,8.1,8.1,0,0,0-5.18,1.54,17.1,17.1,0,0,1-7.92,2.81c-.85-3.42-.4-6.72,1.88-9.35,4.13-4.79,6.4-10.45,8.46-16.29,1.43-4,3.67-7.51,7.51-9.7a15.38,15.38,0,0,1,15.28-.4,4.58,4.58,0,0,0,3.41.53,4.15,4.15,0,0,1,3.32.57,22.63,22.63,0,0,1,11,16.91,30.77,30.77,0,0,1-1.3,13.9,10.58,10.58,0,0,0-.37,1.74,1.86,1.86,0,0,0,1.17,2.22,5.6,5.6,0,0,1,1.76,1.42,2.47,2.47,0,0,1-.24,4,1.52,1.52,0,0,0-.48,2.13C104.63,47.54,103.4,49.23,101.88,50.77Z" fill="#172545"/><path d="M236.75,211.59l3.75-.73c4.2-.48,8.33-1.16,11.89-3.7a1.94,1.94,0,0,1,1.56-.44,3,3,0,0,0,1.57,1.95c1,.56,1.85,1.22,2.79,1.83,2.81,1.83,5.66,1.42,8.51.13a1.61,1.61,0,0,0,.93-1.17c.08-.33.05-.73.41-.94a3.69,3.69,0,0,1,1.26,2.75,39.33,39.33,0,0,1-.79,10.87,6.3,6.3,0,0,0-1.78.22,25.51,25.51,0,0,1-13.23-.45,30.9,30.9,0,0,0-10.86-1.58c-1.52,0-2.68-.19-3-1.89a7.48,7.48,0,0,0-.54-1c.47,1.3,1.09,2.36,1.56,3.48a2,2,0,0,1,.29,1.37c-.2.13-.19.32-.16.52a15,15,0,0,1-.85,7.62,7,7,0,0,0-.23,1,30.37,30.37,0,0,1-16.88,2.16,34.92,34.92,0,0,0-8.36-.21A31.54,31.54,0,0,1,199,230.63a29.2,29.2,0,0,1-9-6.18,2.35,2.35,0,0,1-.81-1.17c1.17-2.32,3.32-2.44,5.45-2.25,5.9.52,11.66-.37,17.44-1.32a13,13,0,0,0,6.59-3.53c1.11-1,2.11-2.23,3.82-2.2.82,2.39,2.66,3.88,4.63,5.23a4.6,4.6,0,0,0,3.1.66,13.31,13.31,0,0,0,4.77-1.43,2.16,2.16,0,0,0,1.26-2.33A9.56,9.56,0,0,1,236.75,211.59Z" fill="#595ea3"/><path d="M164.09,135.69c-.66,0-.56-.58-.59-1a4.29,4.29,0,0,1,.36-1.86c1.95-4.9,3.63-9.91,5.77-14.75a7.49,7.49,0,0,1,4-4.58,11.76,11.76,0,0,1,6-1.26,2.37,2.37,0,0,1,1.45.45c.4.57.24,1.23.28,1.86a2,2,0,0,0,1.65,2.19,4.61,4.61,0,0,0,2.36.19,17.69,17.69,0,0,0,8.06-3.71,9.09,9.09,0,0,0,1.51-2,9.12,9.12,0,0,1,11.78,5.52,3.08,3.08,0,0,1,.21,1.64c.1.85.19,1.69.29,2.53a1.64,1.64,0,0,1,.31,1.13c-.15,4.94.38,9.87.25,14.81-.05,1.85-2.46,4.33-4.39,4.53a.94.94,0,0,1-.34-.61c-.4-1.55-.49-1.7-2.1-1.48-2.31.31-4.63.06-6.93.4a4.06,4.06,0,0,0-2.32.8,2.63,2.63,0,0,1-1.16.6,45.87,45.87,0,0,1-7.13,0c-1.21-.73-.41-1.54-.1-2.33.5-.32.7.19,1,.39a1.93,1.93,0,0,0,2.42,0,4.41,4.41,0,0,0,1.31-4.66,3.86,3.86,0,0,0-3.4-2.39,17.17,17.17,0,0,0-3.29.35,1.53,1.53,0,0,1-.84-.63,3.6,3.6,0,0,0-1.89-1.22,8.48,8.48,0,0,1-4.14-1.94,1.84,1.84,0,0,0-2.05-.23,10.45,10.45,0,0,0-4.64,3.83c-.54.86-.28,1.37.65,1.57,1.57.35,1.68.67.69,2a.66.66,0,0,1-.29.2,6.39,6.39,0,0,1-2.78-.31A4,4,0,0,0,164.09,135.69Z" fill="#1fdb92"/><path d="M203.27,141.4a11.89,11.89,0,0,0,3.93-3c.42-.42.23-1,.23-1.48q-.08-8-.19-15.92a18.11,18.11,0,0,1,10.87,4.33c4.36,3.65,6.2,8.59,7.08,14,.06.39.13.77.2,1.16a1.61,1.61,0,0,1-2.38.5,10,10,0,0,0-2-1.05,6.06,6.06,0,0,0,.75,1.92,1.72,1.72,0,0,1-.71,2.35c-.44.31-1.32.55-1.09,1.19.17.48,1,.21,1.56.22,2.09,0,2.67.51,3.2,2.72a1.72,1.72,0,0,1-.29.49c-3.87,3.35-5.73,7.75-6.68,12.64-.2,1.05-.36,2.1-.54,3.15-.14.15-.31.12-.48.11a3.2,3.2,0,0,0-2,.68c-1.55.88-1.88.85-3.19-.22-.36-.28-.68-.9-1.17-.61s-.13.88,0,1.33c.33,1.82.23,2.05-1.37,3a3.3,3.3,0,0,0-1.19.77c.29.51.73.24,1.08.26,2.1.09,2.35.33,2.63,2.55a6.57,6.57,0,0,1-2.32,1.75c-.36.14-.76.28-.79.78a22.65,22.65,0,0,1-6.25,3.19,10.13,10.13,0,0,1-3.52,1.07c-1-.37-1.72.4-2.59.41-1.52,0-.76,1.38-1.25,2,0-3.48.28-6.93.43-10.4,0-.45.17-.64.6-.68.89-.09,1.54-.43,1.57-1.45,0-.51.48-.6.79-.81a25,25,0,0,0,6.14-5.11c2.46-3,2.92-6.57,2.62-10.28a19.43,19.43,0,0,0-2.3-7.63,6.33,6.33,0,0,0-1.7-2A1.31,1.31,0,0,1,203.27,141.4Z" fill="#f6f6f6"/><path d="M260.53,59c.57-.2.25-.58.15-.88a16,16,0,0,1-.46-5.81c0-.79.26-1.19,1.29-1.13A26.78,26.78,0,0,0,268,51a2.67,2.67,0,0,1,2.2.74,17.69,17.69,0,0,0,4.85,3,1.44,1.44,0,0,1,.9,1.13,7.66,7.66,0,0,0,2.67,4.33,28.88,28.88,0,0,1,.76-5.24c.05-.2.06-.4.12-.59.39-1.19.78-2.42,2.26-2.65,1-.16,2.45.91,3,2.33a10.82,10.82,0,0,1,.18,7,32.52,32.52,0,0,1-1,3.32,3,3,0,0,0,0,2.31,19.31,19.31,0,0,0,7.46,9.11,2.42,2.42,0,0,0,.88.33c.5,1,1.67,1.11,2.39,1.8A54.1,54.1,0,0,0,279.27,82l-1.54.65-.81-3.2a7.25,7.25,0,0,1-3.5,1.39,6.65,6.65,0,0,1-7.16-2.94,15,15,0,0,1-1.94-3.55,1.21,1.21,0,0,0-1.21-.88,16.58,16.58,0,0,1-2.68-.56c-1.27-.36-1.51-.89-1.05-2.14.84-2.27,1.61-4.58,2.56-6.8C262.58,62.45,261.73,59.68,260.53,59Z" fill="#9f6741"/><path d="M207,118.43a10.77,10.77,0,0,0-2.85-5.16c-2.22-2-4.91-2.29-7.73-2-.48,0-1,.13-1.43.19-.51-.1-.49-.56-.61-.92a9.37,9.37,0,0,1-.25-1.17c-.36-1.66-.54-3.41-2.18-4.46a2.49,2.49,0,0,1-.52-.66c-1.23-1.67-1.23-1.81.1-3.44a7.65,7.65,0,0,0,1.61-2.91,2.55,2.55,0,0,0-.88-3,2.65,2.65,0,0,0-3,.14,6.65,6.65,0,0,0-1.84,1.86,3.61,3.61,0,0,1-.71.8c-.57.46-.95.37-1-.39a14.36,14.36,0,0,1,0-2.27,2.12,2.12,0,0,0-.95-1.94,37.34,37.34,0,0,1-4.39-4,8.06,8.06,0,0,1-1.86-3c-1.44,1.8-2.81,3.39-3.43,5.46-.11.35,0,.83-.54,1-2.71-.79-4-3.48-3.29-6.5a8.13,8.13,0,0,1,3.51-4.82c6-4,12.45-5.22,19.25-2.34a13.8,13.8,0,0,1,8.68,10.77,14.82,14.82,0,0,1-2,10c-1.14,2-1,2.61,1.17,3.45.74.29.35.87.57,1.27,2-.37,3.22,0,3.88,1.22a3.1,3.1,0,0,1-.67,3.87c1.71.69,2.91,1.83,2.41,3.73-.32,1.21-.79,2.25-.24,3.53A1.59,1.59,0,0,1,207,118.43Z" fill="#172545"/><path d="M88.76,202.23c.44.9,1.5,1,2.13,1.68-.62.73-1.52.63-2.32.77a15.74,15.74,0,0,0-3.32.79,38.23,38.23,0,0,0,6.87-1.32c.7,1.18,2.11,1.21,3.11,1.9-.53.67-1.33.66-2.06.78a8.45,8.45,0,0,0-2.87.74,34.48,34.48,0,0,0,6.83-1.46,1.65,1.65,0,0,0,1.28.81,18,18,0,0,1,2.91.65,3.21,3.21,0,0,1,2.3,3.14,8.12,8.12,0,0,1-1.26,5,2.82,2.82,0,0,1-1.46,1.17,22.28,22.28,0,0,1-10.34,1.44,53.25,53.25,0,0,1-6.54-.65,27,27,0,0,1-7.27-2.34,36.88,36.88,0,0,0-7.21-3.19.78.78,0,0,1-.47-.35c-.72-2.14-1.6-4.24-1.47-6.59a8.83,8.83,0,0,1,.36-2.47,5.66,5.66,0,0,0,.51-3.76,2.34,2.34,0,0,1,.85-2.25c.53,0,.59.46.8.77,1.18,1.71,2.4,2,4.13.79a13.1,13.1,0,0,1,5.62-2.47,4.58,4.58,0,0,1,1.65,0c.76.15,1.1.78,1.41,1.34a12.18,12.18,0,0,0,4.89,4.84,8,8,0,0,1-3.28.83,8.82,8.82,0,0,0-2.63.7,42.28,42.28,0,0,0,5.33-1A4.39,4.39,0,0,1,88.76,202.23Z" fill="#595ea3"/><path d="M23.52,205.36c.63,1.14,1.88,1.31,2.88,1.87a12.46,12.46,0,0,1-3.56.82,10.66,10.66,0,0,0-2.62.69c2.34-.28,4.61-.87,6.92-1.25a18.07,18.07,0,0,1,3.91,2.45c2,2,2.33,3.85,1.15,6.35-.12.25-.22.51-.32.77a2.18,2.18,0,0,1-1,.79,20.33,20.33,0,0,1-10,2,17.19,17.19,0,0,1-7-2.7c-2.42-1.39-4.72-3-7.26-4.17-1-.48-2.21-.49-3-1.39-2.86-4.12-1.74-8.14.38-12.1a1.51,1.51,0,0,0,.14-1.13,2.13,2.13,0,0,1,1.1-2.52c.49.41.36,1,.55,1.54.59,1.67,1.72,2.06,3.09,1a5.27,5.27,0,0,1,5.43-.69c.62.22,1.14.27,1.55-.35A15,15,0,0,1,19.91,202c-1,.75-2.18.64-3.29.85a12.63,12.63,0,0,0-3.09.78,37.34,37.34,0,0,0,6.86-1.35,14.79,14.79,0,0,0,2.19,2.8,4.15,4.15,0,0,1-2.66.79,15.53,15.53,0,0,0-3.23.78A41.55,41.55,0,0,0,23.52,205.36Z" fill="#595ea3"/><path d="M174.39,92.48c.41-2.83,2.35-4.78,4-7,1.25,3.5,4.05,5.45,6.64,7.58a1.82,1.82,0,0,1,.82,1.7c-.08,1,0,2,0,3.08a2,2,0,0,0,1.25-1.07,5.81,5.81,0,0,1,2.42-2.24,2.8,2.8,0,0,1,3.14.31,2.69,2.69,0,0,1,.77,3,7.4,7.4,0,0,1-2.28,3.72c-.55.48-.6.89-.23,1.42a7.26,7.26,0,0,0,1.49,2,4.69,4.69,0,0,1,1.74,3.24,16.49,16.49,0,0,0,.8,3.22,2.11,2.11,0,0,1-.85,1.64,17.2,17.2,0,0,1-8.82,4.22,5.12,5.12,0,0,1-2.36-.2,2.17,2.17,0,0,1-1.83-2.53c0-.6,0-1.19,0-1.79a1.7,1.7,0,0,1-.3-1.36c.05-.84-.31-1.14-1.13-1.12a7.87,7.87,0,0,1-5.18-1.54A5.53,5.53,0,0,1,172,104a2.44,2.44,0,0,0-.91-2.3c-.94-.79-.83-2,.14-3.07a19.12,19.12,0,0,1,2.22-2.19C174.82,95.34,174.79,94,174.39,92.48Z" fill="#9f6741"/><path d="M165.69,147.14c-3.14,4.18-6.88,8-8.39,13.18a49.8,49.8,0,0,0-1.49,11.33c-.1,1.81.14,3.65-.34,5.44-.67.22-1.11-.27-1.61-.55a16.11,16.11,0,0,1-3-2.07c.11-.3,0-.45-.24-.68a21.66,21.66,0,0,1-3.62-3.91c.4-.57,1-.52,1.62-.55a9.86,9.86,0,0,0,2.1-.1c-.06-.57-.45-.75-.74-1-1.21-1-1.25-1.24-.69-2.76.2-.54.63-1,.51-1.69-.64-.11-1.06.3-1.52.58-1.49.88-1.69.88-3.08-.14a8.56,8.56,0,0,0-1.05-.77c-.16-4.83,2.37-8.52,5.19-12.07.38-.48.61-1.14,1.24-1.41a2,2,0,0,0,.7-.15,2.47,2.47,0,0,1,3.16,1.15,2.24,2.24,0,0,0,1,1c.34-1-.14-2.14.65-2.92s1.91-.66,2.86-1.26c-.59-.69-1.39-.73-2.06-1s-1.34-.71-1.24-1.65a59.91,59.91,0,0,1,6.64-5c1-.7,1.82-1.38,1.52-2.75a.79.79,0,0,1,.2-.78,1.59,1.59,0,0,1,.38,1.44,16.48,16.48,0,0,0,1.26,7.24C165.89,145.83,166.25,146.49,165.69,147.14Z" fill="#f6f6f6"/><path d="M275.34,198.94a70.84,70.84,0,0,0,9.62,2.73c.19,0,.39.1.46.32-1.39,3.77-2.79,7.52-4.15,11.29-1.76,4.86-3.49,9.73-5.23,14.59-.62,1.74-1.83,2.65-3.23,2.37s-2.16-1.48-2.08-3.4c0-.32,0-.64.08-1q1.88-11.49,3.77-23C274.8,201.59,275.25,200.3,275.34,198.94Z" fill="#9f6741"/><path d="M323.27,200.31c0-.36.08-.55.47-.67a48.14,48.14,0,0,0,9.1-4.06c1.56,8.53,3,17.1,4.3,25.67.17,1.1.42,2.2.5,3.31a2.67,2.67,0,0,1-2.18,3,2.81,2.81,0,0,1-3-1.88c-1.42-3.93-2.77-7.88-4.19-11.81C326.64,209.33,324.94,204.83,323.27,200.31Z" fill="#9f6741"/><path d="M198.61,179.21a25.43,25.43,0,0,1,4-1.53c2-.78,3.82-1.91,5.8-2.73q.78,4.77,1.57,9.54c1,5.85,2,11.69,3,17.54a11.42,11.42,0,0,1,.1,1.55,2.61,2.61,0,0,1-5.11,1q-1.59-4.25-3.06-8.52C202.89,190.42,200.69,184.83,198.61,179.21Z" fill="#9f6741"/><path d="M176.85,199.55l1.87-2.58a1.62,1.62,0,0,1,1.33-.37,36.69,36.69,0,0,0,9.69-.75,1.18,1.18,0,0,1,1,.12,10.21,10.21,0,0,0,.1,3.12,19.12,19.12,0,0,1-2.67,5.82,30.43,30.43,0,0,1-5.19,7c-2.95,2.72-6.35,3-10,1.85a9.05,9.05,0,0,1-1-.7,4.82,4.82,0,0,1-.94-4.45,8.68,8.68,0,0,1,2.32-4.45c.59-.32,1.16,0,1.73.08a21.69,21.69,0,0,0,3.69.63c-1.36-.54-2.77-.6-4.08-1.06-.29-.1-.64-.07-.81-.4a3.12,3.12,0,0,1,.93-1.17,1.66,1.66,0,0,1,1.38,0,23.11,23.11,0,0,0,3.65.64c-1.33-.5-2.49-.61-3.58-1-.33-.11-.74,0-.91-.44l.9-1.12c.61-.35,1.17,0,1.73.12,1,.23,2,.37,3.2.58a13.09,13.09,0,0,0-2.74-.77C177.91,200.06,177.27,200.05,176.85,199.55Z" fill="#1fdb92"/><path d="M157.63,200.6l.24-2.48c.43-.59,1.13-.49,1.73-.63a22.08,22.08,0,0,0,2.69-.66,7.18,7.18,0,0,0-2,.26,3.09,3.09,0,0,1-2.2,0c-.17-1,.26-1.91,0-2.88-.13-.67-.27-1.35.39-1.86a1.48,1.48,0,0,1,1.15.1,79,79,0,0,0,8.9,2.65c.56.14,1.23.18,1.29,1l.66,1.87a7.8,7.8,0,0,1-1.58,5.7,7.53,7.53,0,0,0-1,4.13c-.2,4.61-3.19,6.46-7.83,6.41a3.38,3.38,0,0,1-3.28-2.83,39.76,39.76,0,0,1,.41-6.63,31.77,31.77,0,0,0,3.58-.9,11.2,11.2,0,0,0-2,.28c-.51.08-1,.24-1.47-.18a7,7,0,0,1,.24-2.24c.51-.63,1.28-.53,1.95-.7s1.31-.28,2-.53a5,5,0,0,0-2,.27A2.29,2.29,0,0,1,157.63,200.6Z" fill="#1fdb92"/><path d="M150.87,174.47c1.13.23,1.82,1.2,2.81,1.67.61.29,1.19.63,1.79,1,0,3,0,6.08,0,9.12a7.86,7.86,0,0,1,.24,1.37,10.28,10.28,0,0,1-.15,3c-.06.29.05.61-.11.9L152,200.87c-.57,1.59-1.81,2.48-3.08,2.22a2.71,2.71,0,0,1-2.16-3.33c.43-3.27,1-6.52,1.54-9.77Q149.6,182.22,150.87,174.47Z" fill="#9f6741"/><path d="M143.74,71.58a3.65,3.65,0,0,1-3.1,1.18c-1.11-.17-1.61-1-1.06-1.86a78.66,78.66,0,0,1,7.93-10.69,1,1,0,0,1,.2-.11,12.38,12.38,0,0,0,2.51.72c.72.2,1.12.57,1,1.37,0,.19,0,.4-.06.59a17.94,17.94,0,0,0-.15,7.79c.56,3.51-1.22,6.48-3.38,9.14-.66.81-1.45,1.49-2.17,2.24-.68.51-1.21,1.23-2.12,1.39-.05-.78.55-1.21,1-1.7A38.25,38.25,0,0,0,148.69,75a.66.66,0,0,0,0-.66,54.35,54.35,0,0,1-2.79,4.79,31.86,31.86,0,0,1-2.34,3.16c-.33.43-.69.93-1.38.61l-1.42-.71c1.76-2.36,2.91-5.1,4.73-7.42a25.55,25.55,0,0,0,2.15-3.1A34.49,34.49,0,0,0,143,78.21a17.23,17.23,0,0,1-1.74,2.85c-.59.81-1.17.74-1.72-.09-.82-2.17.32-3.78,1.57-5.32A18.29,18.29,0,0,0,144,71.82c.84-1.35,2.33-2,3.4-3.12.32-.33.79-.51,1.12-1A26,26,0,0,0,143.74,71.58Z" fill="#9f6741"/><path d="M189.17,223.28a32.85,32.85,0,0,0,9.8,7,31.79,31.79,0,0,0,16.3,2.74,28.06,28.06,0,0,1,7.86.33,27.93,27.93,0,0,0,12.42-.75c1.41-.37,2.72-1.12,4.23-1.09.09.95.28,1.88.3,2.85a.79.79,0,0,1-.78.93c-4.48.66-9,1.35-13.45,1.93a6,6,0,0,1-3.14-.55,19,19,0,0,0-7.09-1.13c-8.41-.22-16.49-1.78-23.65-6.55-1.8-1.2-3.34-2.65-3-5.14C189,223.62,189,223.41,189.17,223.28Z" fill="#172545"/><path d="M165.69,147.14a2.3,2.3,0,0,0-.2-1.4,18.83,18.83,0,0,1-1.49-9.19l.09-.86c.09-.72.56-.61,1-.5l3.7.76a1.35,1.35,0,0,1,.3,1.12,5.18,5.18,0,0,0,1.61,3.87,2.19,2.19,0,0,1,.69,2.26,1.54,1.54,0,0,0,.78,1.81,2.92,2.92,0,0,1,1.47,2.58,1.78,1.78,0,0,1-2.33,1.82,11.92,11.92,0,0,0-1.91-.59,7.49,7.49,0,0,0,1,2.43c.29.77,1,1.39.84,2.31.27.62.55,1.23.8,1.86.37.94,0,1.47-1,1.53a3.69,3.69,0,0,1-3.23-1.7C166,152.85,165.67,150,165.69,147.14Z" fill="#9f6741"/><path d="M236.75,211.59c.1,1.71-.48,3.39-.13,5.12a1.58,1.58,0,0,1-.83,1.62c-2.45,1.35-5,2.44-7.85,1.6-2.3-.68-3.62-2.64-5.15-4.32a1.42,1.42,0,0,1-.32-1.63,20.11,20.11,0,0,0,.6-3.78,30.23,30.23,0,0,0,11.41,1.45C235.23,211.6,236,211.61,236.75,211.59Z" fill="#9f6741"/><path d="M268.16,208.52c-.11,1.92-.33,2.08-2.14,2.8a8.51,8.51,0,0,1-8.79-1.15,32,32,0,0,0-2.79-1.84,1,1,0,0,1-.52-1.46,6.21,6.21,0,0,1,.29-4.14,43.66,43.66,0,0,0,12.15,1.39c.76,0,1.51-.1,2.26-.16C268.47,205.48,268.32,207,268.16,208.52Z" fill="#9f6741"/><path d="M81.52,195.76c-.54.57-1.28.29-1.91.4a10.93,10.93,0,0,0-4.56,2c-2.74,2-4.2,1.61-5.73-1.4q-.51-3.56-1-7.12a21.73,21.73,0,0,0,12.52-1.67,57.67,57.67,0,0,0,.43,6.7C81.32,195,81.44,195.38,81.52,195.76Z" fill="#9f6741"/><path d="M172,104c.51,1.68,1,3.34,2.54,4.48a7.65,7.65,0,0,0,5.27,1.51c1.24-.08,1.44.36,1.33,1.37-.05.47-.05,1-.07,1.43-3.59-.39-7,0-9.56,2.87a26.58,26.58,0,0,0-1.86,2.47,4.32,4.32,0,0,1-2-2.86,2.91,2.91,0,0,1,1.2-2.8c-2.92-2.29-2.23-6.38,1.65-8A13.72,13.72,0,0,1,172,104Z" fill="#172545"/><path d="M69.07,211.78a13.49,13.49,0,0,1,5,1.82,29.92,29.92,0,0,0,10.83,3.86c4.54.52,9.09,1,13.62-.14a12.06,12.06,0,0,0,3.82-1.62,3.89,3.89,0,0,1-2.48,3.35c-5.37,2.79-10.87,2.5-16.44.77a23.57,23.57,0,0,1-5-2.14c-2.15-1.26-4.55-1.57-6.92-2.05S68.41,213.84,69.07,211.78Z" fill="#1fdb92"/><path d="M241,222.3l-2.65-5.7a4.08,4.08,0,0,1,2,2.48c.15.44.23.91.91.88,5.29-.24,10.33,1,15.4,2.37,3.64.95,7.34.28,11-.5.41-.08.86-.44,1,.31l0,.24c-.3,2.33-.33,2.21-2.62,2.65a23.17,23.17,0,0,1-13-1.2c-3.32-1.28-6.83-1.31-10.32-1.44C242.13,222.37,241.58,222.33,241,222.3Z" fill="#172545"/><path d="M15.12,97c3.07,2.31,6.19,4.54,9.35,6.72,1.65,1.14,3.07,2.62,4.76,3.76a15.06,15.06,0,0,0,3.53,1.69A31.48,31.48,0,0,0,42.31,111a98.57,98.57,0,0,0,13.75-.82,25.67,25.67,0,0,1,3.26-.62c.32.46.09,1,.17,1.46-3.91,1-8,1-11.92,1.67-2.1.34-4.36-.4-6.53-.33a22.43,22.43,0,0,1-11-2.78,16.87,16.87,0,0,1-5.68-4.24c-.58-.71-1.52-.86-2.22-1.39-2.21-1.68-4.44-3.32-6.67-5a4.78,4.78,0,0,0-.64-.32C14.53,98,15.14,97.56,15.12,97Z" fill="#172545"/><path d="M190.77,196c-4,1.16-8,1.05-12.05,1-1-.75-2.26-.61-3.39-.88a1.53,1.53,0,0,1-1.39-1.7,22.93,22.93,0,0,1,0-3.21c1.3-.45,2.39.34,3.54.67,3.58,1,7.15,1.82,10.92,1.26,1.64-.24,3.34-.05,5-.56a.74.74,0,0,1,.68.12c.14,2-1.08,2.69-2.76,3A1.55,1.55,0,0,0,190.77,196Z" fill="#595ea3"/><path d="M15.86,197.27c.09.94-.22,1.17-1.15.81-2.17-.86-4.23-.93-6.1.86-.9.86-2.24.4-2.88-.81a4.78,4.78,0,0,1-.49-2.32c0-1.77,0-3.53,0-5.3a40.44,40.44,0,0,0,11,2.4A33.57,33.57,0,0,0,15.86,197.27Z" fill="#9f6741"/><path d="M316.34,86.69c-1.23.24-2.45.56-3.69.73-5.13.7-10.27,1.2-15.28,2.77-3.08,1-6.2,1.91-9.34,2.69A81.5,81.5,0,0,0,276.92,97a16.19,16.19,0,0,0-2.61,1.43c-.57.37-1,.32-1.28-.25s0-.94.52-1.24c3.9-2.17,8.18-3.42,12.26-5.16a27.6,27.6,0,0,1,5.29-1.27A20,20,0,0,0,293,89.8a63.38,63.38,0,0,1,11.53-2.74c2.87-.32,5.71-.91,8.59-1.13.83-.06,1.65-.23,2.49-.22Z" fill="#172545"/><path d="M155.27,190.78l.15-3.42a1.63,1.63,0,0,1,1.46.31,39.65,39.65,0,0,0,14.27,4.68c.43.07.88.13,1.1.59,0,.2-.06.39-.07.59a2.26,2.26,0,0,1-2.36,2.53,1.7,1.7,0,0,0-1-.6,88.87,88.87,0,0,1-10.34-3.07A6.35,6.35,0,0,1,155.27,190.78Z" fill="#595ea3"/><path d="M3.62,211.56c3.85,1,7.07,3.25,10.4,5.28,2.47,1.5,5.08,2.8,8,2.79a20.92,20.92,0,0,0,8.53-2l1.31-.59c.2.82-.33,1.25-.9,1.65a12.54,12.54,0,0,1-11.46,1.85A34.25,34.25,0,0,1,9,215.7a12.64,12.64,0,0,0-4.18-2C3.57,213.36,3.08,212.78,3.62,211.56Z" fill="#1fdb93"/><path d="M211.49,172.42c-.21-.07-.27-.25-.36-.44-.22-.49.11-1.3-.5-1.49a4.51,4.51,0,0,0-2.1-.28c-.48.07-1.09.2-1.25-.35s.51-.68.88-.93c.13-.08.29-.12.43-.19,1.77-.91,1.86-1.1,1.43-3-.06-.27-.13-.54-.17-.81s0-.68.29-.85a.67.67,0,0,1,.85.26c1.34,1.78,2.79,1.7,4.43.4.37-.29.91-.77,1.44-.11a.21.21,0,0,1,0,.27c-.53,1.15-1.74,2.11-1,3.63.12.24-.26.46-.44.65A26.89,26.89,0,0,1,211.49,172.42Z" fill="#595ea4"/><path d="M156.83,211.34c2,2.68,3.25,3.07,6.66,2.06a5.25,5.25,0,0,0,4.1-5.36,9.61,9.61,0,0,1,1.82-5.91,5.66,5.66,0,0,0,.86-3.07c0-.38-.13-.81.21-1.13.89,2.33.79,4.49-1,6.43a2.81,2.81,0,0,0-.48,2.36,8.7,8.7,0,0,1-6.77,9.37C159.16,216.87,156.85,214.75,156.83,211.34Z" fill="#172645"/><path d="M224.73,148.31c-.13-.19-.29-.37-.4-.57-1.1-2.1-1.1-2.1-3.49-1.87l-.83.06a.66.66,0,0,1-.68-.4c-.11-.27.13-.44.3-.59s.56-.44.84-.66c1.51-1.18,1.6-1.73.57-3.41a2.42,2.42,0,0,1-.32-.49c-.09-.24-.36-.47-.08-.76s.59-.14.86,0,.55.45.86.62c1,.54,1.95,1.34,3,.19a38.19,38.19,0,0,1,.05,7.33A.77.77,0,0,1,224.73,148.31Z" fill="#5a5fa4"/><path d="M173,213.46c5.18,1.61,8.76.27,12.34-4.66a45.69,45.69,0,0,0,5.08-8.78c.14-.32.34-.62.5-.93a3.86,3.86,0,0,1-.23,3,43.86,43.86,0,0,1-5.08,8.71,9.5,9.5,0,0,1-7.89,3.91c-1.72,0-3.51.26-5-1C172.63,213.49,172.69,213.37,173,213.46Z" fill="#182646"/><path d="M144.16,163.45c.79-.44,1,.43,1.4.72a1.71,1.71,0,0,0,2.43.08,11.61,11.61,0,0,1,1.55-.86c.23-.12.44-.2.65,0a.49.49,0,0,1,.06.65,2.14,2.14,0,0,1-.1.22c-1.18,1.73-1.18,3.25.78,4.44.21.13.5.35.35.68s-.46.23-.74.25a11,11,0,0,0-3.53.24A13.72,13.72,0,0,1,144.16,163.45Z" fill="#595ea4"/><path d="M155.64,145.1a2.41,2.41,0,0,0,2.17,1.65,5.46,5.46,0,0,1,1.11.44c.25.1.56.21.53.55s-.3.43-.59.51a9.58,9.58,0,0,1-1.26.38c-1.45.14-1.8,1-1.68,2.31a6.16,6.16,0,0,1,0,1c0,.22,0,.5-.25.59s-.45-.06-.58-.29-.2-.25-.29-.37c-.94-1.27-1.9-2.49-3.78-1.69-.09,0-.27-.11-.41-.17Z" fill="#5a5fa4"/><path d="M194,192.67a30.47,30.47,0,0,1-12.35.61,76.08,76.08,0,0,1-7.76-2.1v-.68a.85.85,0,0,1,1-.21,42.17,42.17,0,0,0,7.65,2.06,28.39,28.39,0,0,0,7.31,0,14.67,14.67,0,0,0,4.12-.66A.61.61,0,0,1,194,192.67Z" fill="#182646"/><path d="M172.25,192.94a9.22,9.22,0,0,0-1.87-.36,48.72,48.72,0,0,1-10.3-2.86c-1.61-.66-3.11-1.57-4.66-2.36-.34-.4-.09-.77,0-1.15,1.68.83,3.39,1.63,5,2.52a21.67,21.67,0,0,0,4.25,1.49,36.6,36.6,0,0,0,7.74,1.67.7.7,0,0,1,.41.76C172.82,193.08,172.49,192.91,172.25,192.94Z" fill="#182646"/><path d="M342.41,171c-.62,0-.73-.35-.68-.84s.14-.7.19-1c.3-1.91.14-2.17-1.79-2.8-.19-.06-.39-.1-.57-.17s-.56-.2-.55-.54.33-.44.6-.49c.93-.16,1.87-.28,2.8-.41Z" fill="#5b60a5"/><path d="M92.12,204.15c-.94.92-2.23.87-3.38,1.16s-2.35.42-3.52.64c-.27.05-.57.25-.73-.1s.13-.62.45-.7a26.4,26.4,0,0,1,3.14-.72c1-.12,1.87-.32,2.81-.52C91.28,204.06,91.78,203.69,92.12,204.15Z" fill="#1a2849"/><path d="M23.52,205.36c-.59.8-1.56.71-2.38.91-1.5.37-3,.59-4.56.89-.27.05-.56.23-.69-.16s.13-.55.4-.63a14.93,14.93,0,0,1,2.89-.73c1.16-.09,2.27-.4,3.4-.56C22.89,205.21,23.31,204.93,23.52,205.36Z" fill="#1a2849"/><path d="M20.39,202.28c-.81,1-2.06.81-3.11,1.11-1.21.34-2.48.48-3.73.71-.27,0-.59.18-.73-.15s.2-.55.48-.66a31.38,31.38,0,0,1,5.08-1c.5-.12,1-.16,1.53-.24Z" fill="#192748"/><path d="M88.76,202.23c-1.75,1-3.71,1-5.59,1.42l-1.5.33c-.22.05-.47.2-.58-.15a.45.45,0,0,1,.25-.59,6.52,6.52,0,0,1,1.35-.46c1.7-.3,3.42-.56,5.13-.84C88.13,202,88.55,201.79,88.76,202.23Z" fill="#192647"/><path d="M97.13,206.11c-.07.59-.57.59-1,.68-2,.42-4,.82-5.94,1.23-.23,0-.47.2-.62-.09s.07-.53.33-.65a8.44,8.44,0,0,1,2.87-.73,14.27,14.27,0,0,0,2.44-.5Z" fill="#192748"/><path d="M27.14,207.49c-1.75.95-3.73,1-5.62,1.41l-1.39.31c-.25.06-.56.3-.67-.15s.1-.52.41-.62a7.5,7.5,0,0,1,1.13-.38,41.2,41.2,0,0,1,5.4-.83C26.67,207.27,27,207.14,27.14,207.49Z" fill="#192647"/><path d="M173.9,203.37a36.91,36.91,0,0,1,5.1,1.16c.25.07.64.11.56.49s-.44.14-.68.13a28.77,28.77,0,0,1-5.51-1A1.2,1.2,0,0,1,173.9,203.37Z" fill="#182d48"/><path d="M175.37,201.43l4.61,1c.26.06.61.14.54.5s-.45.22-.69.19a34.16,34.16,0,0,1-5-1Z" fill="#182d48"/><path d="M176.85,199.55c1.71.44,3.52.58,5.08,1.53a15.28,15.28,0,0,1-5.66-.77Z" fill="#182b48"/><path d="M158.05,197.05c1.65.06,3.24-.86,4.94-.35-1.59.94-3.39,1.07-5.12,1.42A1.49,1.49,0,0,1,158.05,197.05Z" fill="#192d49"/><path d="M155.27,190.78a22.21,22.21,0,0,1,3.24,1.61c-.39.53,0,1.25-.42,1.78-1.14-.66-1.77-1.81-2.66-2.71C155.37,191.23,155.32,191,155.27,190.78Z" fill="#1b2a49"/><path d="M157.63,200.6c1.63.13,3.19-.92,5.18-.32a22.44,22.44,0,0,1-5.22,1.39C157.6,201.31,157.61,201,157.63,200.6Z" fill="#182c48"/><path d="M157.35,203.91a11.64,11.64,0,0,0,2.69-.38,2.16,2.16,0,0,1,2,.3c-1.71.43-3.13,1.21-4.8.88C157.28,204.44,157.32,204.17,157.35,203.91Z" fill="#172d48"/><path d="M217,167.24a3.21,3.21,0,0,1-.18,1.68C216.83,168.35,216.61,167.76,217,167.24Z" fill="#edeef2"/><path d="M173,213.46l-.27.26c-.32-.15-.63-.31-.69-.7A1.41,1.41,0,0,1,173,213.46Z" fill="#294359"/><path d="M216.85,164.86v-.27h.36a1.9,1.9,0,0,1-.17,1.24C217,165.51,217.14,165.14,216.85,164.86Z" fill="#edeef2"/><path d="M258.19,134.16a20.83,20.83,0,0,1,4.05,1.46,26.56,26.56,0,0,1,5.69,3c.72.56,1.48,1.19,1,2.17a1.77,1.77,0,0,1-2.32.91,11.09,11.09,0,0,1-2-.66c-.32-.18-.65-.46-.45-.86s.55-.11.84,0a13.08,13.08,0,0,0,1.47.45c.41.07,1,.15,1.15-.37s-.35-.76-.72-.93c-2.43-1.11-4.72-2.48-7.05-3.77-.6-.34-1.19-.71-1.78-1.06Z" fill="#182546"/><path d="M324.76,173.14a12.25,12.25,0,0,1-1.24-.29c-1.45-.53-2.39,0-3.13,1.28-.29.49-.51,1.44-1.26,1.2s-.39-1.1-.41-1.7c-.05-2-.06-2.08-2.14-2.45-.16,0-.32,0-.47-.08-.33-.1-.81,0-.86-.49s.39-.54.72-.67c.15-.06.31-.08.46-.13,2.29-.69,2.26-.69,2.3-3.05,0-.46-.22-1.15.45-1.33s.8.4,1.08.78c1.27,1.69,1.27,1.67,3.23,1,.61-.22,1.45-.77,1.88-.28s-.36,1.16-.7,1.69c-1.13,1.78-1.34,1.19.5,3.61.16.21.48.37.36.7S325.07,173.14,324.76,173.14Z" fill="#595ea4"/><path d="M303.64,168.63c-1.3,2.23.2,3.28,2.12,4.13.27.12.62.34.56.7s-.52.42-.87.48h-.12c-2.5.31-2.5.31-3.15,2.73-.08.29-.05.69-.44.78-.54.14-.45-.43-.66-.67a3.07,3.07,0,0,1-.42-.58c-1.16-2-1.29-2.06-3.57-1.68-.47.08-1,.33-1.29-.22s.32-.82.64-1.11c1.91-1.73,1.91-1.73.55-3.94-.21-.34-.48-.74-.09-1.07s.64.13,1,.25a1.76,1.76,0,0,1,.29.21c2,1.26,2,1.26,3.82-.26.21-.18.45-.32.67-.49C303.38,167.33,303.51,167.83,303.64,168.63Z" fill="#595ea4"/><path d="M325.4,149.86c.08-.5.16-.94.22-1.37.24-1.59,0-2-1.6-2.52-.23-.07-.47-.1-.69-.19s-.66-.22-.65-.6.42-.41.71-.5a1.42,1.42,0,0,1,.36,0c2,0,3.2-.76,3.18-2.94,0-.36,0-.92.47-1s.7.41.9.8c.11.21.24.41.33.63a1.81,1.81,0,0,0,2.53,1.2c.7-.22,1.74-.79,2.19,0,.35.65-.71,1.09-1.17,1.59-1.21,1.3-1.24,1.29-.35,2.84a4.28,4.28,0,0,1,.39.73c.08.25.39.47.16.76s-.58.15-.85,0c-2-1.19-3.7-1.07-5.09,1a.61.61,0,0,1-.82.3C325.31,150.37,325.4,150.06,325.4,149.86Z" fill="#595ea4"/><path d="M318.52,189.15c-1.09,2,.17,3.14,2.09,3.92.29.12.75.29.69.73s-.58.46-1,.52l-.35,0c-2.48.33-2.31-.22-2.77,2.44-.07.4,0,1-.54,1.07s-.49-.56-.74-.85a.53.53,0,0,1-.06-.1c-1.36-2.36-1.36-2.36-4.1-2-.4.06-.86.19-1.06-.27s.19-.72.51-.95a1.05,1.05,0,0,0,.11-.07c2-1.66,2.05-1.83.68-4-.19-.32-.61-.64-.2-1s.66,0,.95.19l.2.13c2.24,1.35,2.24,1.35,4.26-.34.3-.24.59-.63,1-.49S318.54,188.59,318.52,189.15Z" fill="#595ea4"/><path d="M275,182.33c-1.17,2.07.09,3.14,2,3.93.31.12.82.35.66.85s-.56.4-.92.43l-.24,0c-2.37.29-2.36.29-2.91,2.59-.07.32,0,.81-.44.91-.58.15-.59-.47-.71-.77-.81-2.1-2.32-2.72-4.41-2.14-.41.11-.74.05-.92-.31s.23-.62.45-.86a8.22,8.22,0,0,1,.65-.52c1.45-1.29,1.49-1.7.4-3.36-.13-.2-.27-.4-.39-.6s-.23-.52,0-.76.45,0,.66,0a1.43,1.43,0,0,1,.3.2c2.37,1.46,2.37,1.45,4.51-.28.28-.22.53-.59.93-.43S275,181.79,275,182.33Z" fill="#595ea4"/><path d="M113.46,98.83a11.32,11.32,0,0,0-4.09-9.94,8.36,8.36,0,0,1-3.3-7c.23-3.69,1.1-7.21,4.08-9.76,2.16-1.84,4.71-2,7.35-1.37,2.1.5,4.18,1,6.26,1.57a3.28,3.28,0,0,0,2-.16,14.12,14.12,0,0,1,3.86-.8A8.35,8.35,0,0,1,138.39,79a13.49,13.49,0,0,1-3.66,10.88,15,15,0,0,0-3.79,9.56,12,12,0,0,1-.9,4c-.5,1.11-1.19,2.08-2.5,2.13s-2.05-1-2.58-2-.77-1.93-1.25-2.84a2.61,2.61,0,0,0-2.36-1.76c-1.23,0-1.78,1-2.23,1.9s-.68,1.8-1.13,2.63a2.2,2.2,0,0,1-2.37,1.46,2.46,2.46,0,0,1-2-2.07A17.11,17.11,0,0,1,113.46,98.83Z" fill="#f6f6f6"/><path d="M55.18,66.82c2.49-1.83,4.68-4,7-6,.21-.18.43-.34.65-.51,0,1.89,0,1.88,1.81,1,2.93-1.38,5.89-2.69,9.25-2.44.59,0,1.18.16,1.77.23.4.06.86.08,1,.51a1.25,1.25,0,0,1-.45,1.29A4.61,4.61,0,0,1,74.1,62a28.65,28.65,0,0,0-8.34,4.09,6.55,6.55,0,0,0-.66.52,2.15,2.15,0,0,0-.26.43,40.07,40.07,0,0,0,8.51-.34,10.5,10.5,0,0,1,2.74-.12c.79.06,1.49.35,1.61,1.3a27.22,27.22,0,0,1-11.25,3.71A23.89,23.89,0,0,0,77.69,67.9a3,3,0,0,1-1.33,3.38,28,28,0,0,0-3.63,2.91c-2.29.76-4.61,1.44-7,2a19.14,19.14,0,0,0,3.87-.86,2.62,2.62,0,0,1,2.19-.21,8.55,8.55,0,0,1-6.69,4.14,16.66,16.66,0,0,1-3.53,0,4.77,4.77,0,0,1-3.16-2.47l-9.08,8.11c-2.17,1.94-4.29,4-6.55,5.79-2.9,2.37-6.44,2.82-10,2.83A5,5,0,0,1,29.39,92c-2.85-2.79-5.23-9.66-2.29-14.64.39-.66.56-1.29,1.62-.56s2.56.37,3.76-.29a25.59,25.59,0,0,1,7.41-2.95,50.12,50.12,0,0,0,6.16-1.46,22,22,0,0,0,6.48-3.29A7.94,7.94,0,0,1,55.18,66.82Z" fill="#9f6741"/><path d="M95,97.22a13.41,13.41,0,0,1,0,5.09,3.71,3.71,0,0,1-.85,1.69c-1.52,1.7-3.56,1.36-4.49-.74A15.9,15.9,0,0,1,89,99.39a4.48,4.48,0,0,0-.79-2.1c-1.23-1.55-3-1.37-3.77.42-.68,1.49-1.3,3-1.91,4.52a7.09,7.09,0,0,1-1.46,2.3,2.47,2.47,0,0,1-2.62.74,2.26,2.26,0,0,1-1.52-2,14.49,14.49,0,0,1-.2-2.86,42.28,42.28,0,0,0-.24-5.85,2.66,2.66,0,0,1,.85-.82,2.65,2.65,0,0,0,.3-3.91,5,5,0,0,1-1.8-3.49c0-.87-.83-1.28-1.55-1.67-1.43-.78-2.72-1.69-2.89-3.52-.58-4.52,2.76-9.7,7.67-10.11a15.51,15.51,0,0,1,5.66.76,20.37,20.37,0,0,0,8.5.8,2.06,2.06,0,0,1,1.17.15c.61.48.37,1.17.39,1.78.06,1.67.47,2.17,2.13,2.46A2.25,2.25,0,0,1,99.1,79.3c.11,2.76.11,2.76,2.6,3.28.23,0,.33.16.27.41a10.45,10.45,0,0,1-3.64,6.11c-.68.17-1.23-.26-1.83-.42-2-.56-3.24.5-3,2.51a3,3,0,0,1-.4,2.06c-1,1.61-.66,2.56,1.06,3.43A2.66,2.66,0,0,1,95,97.22Z" fill="#f6f6f6"/><path d="M101.7,82.58c-2,.59-3.2-.39-3-2.43s-.36-2.64-2.23-2.85a2.13,2.13,0,0,1-2-2.52,3.84,3.84,0,0,0,0-2c4.46-.44,8.37,4.31,7.75,9.14C102.13,82.26,101.84,82.36,101.7,82.58Z" fill="#172545"/><path d="M71.42,81.19a6.11,6.11,0,0,0,3.11,3.31,2.52,2.52,0,0,1,1.72,2.68c-.09.86.55,1.36,1.1,1.88,2.16,2,1.82,4.31-.84,5.54A11.84,11.84,0,0,0,73.72,89a12.77,12.77,0,0,1-2.46-7.42C71.25,81.48,71.37,81.33,71.42,81.19Z" fill="#172545"/><path d="M133.47,61.08a6.83,6.83,0,0,0,3.72,3.33c.49.16.48.42.24.81a2.79,2.79,0,0,1-1.22,1.11A5.23,5.23,0,0,0,133,70.08a5.09,5.09,0,0,0-3-4c-1.22-.56-1.22-1,0-1.59A6.61,6.61,0,0,0,133.47,61.08Z" fill="#f6f6f6"/><path d="M106.45,99.76c-1-2.14-1.87-4.27-4.11-5.6a8.42,8.42,0,0,0,4.72-3.9A6.33,6.33,0,0,0,109.85,94c.31.17.4.36.09.62a2.11,2.11,0,0,1-.36.31A5.07,5.07,0,0,0,106.45,99.76Z" fill="#f6f6f6"/><path d="M95,97.22a3.61,3.61,0,0,1-1.64-.65,2.15,2.15,0,0,1-.52-3.38,2,2,0,0,0,.45-2,2.1,2.1,0,0,1,2-3,5,5,0,0,1,3,.83,6,6,0,0,1-.78.88,6.08,6.08,0,0,0-2.34,5.23A5.93,5.93,0,0,1,95,97.22Z" fill="#172545"/><path d="M139.58,81c.9.94,1.37.23,1.8-.49,1-1.7,1.94-3.44,3-5.1.9-1.4,2-2.7,2.94-4,.17-.22.29-.54.64-.26s.22.45.06.73a19.66,19.66,0,0,1-2.18,3c-1.54,1.77-2.32,4-3.67,5.82a7.33,7.33,0,0,1-1.41,1.58C140,82.15,139.51,81.83,139.58,81Z" fill="#1a2645"/><path d="M142.2,82.88c1.43-.54,2.13-1.88,2.86-3a30,30,0,0,0,3.38-5.7c.1-.27.23-.42.52-.25a.46.46,0,0,1,.21.7c-.49.94-.9,1.94-1.48,2.83a54.94,54.94,0,0,1-4.38,5.9C142.78,83.57,142.33,83.6,142.2,82.88Z" fill="#1a2745"/><path d="M77.69,67.9c-.39,1.09-1.47,1.3-2.34,1.7a28.36,28.36,0,0,1-8.83,2.3c-.34,0-.8.32-.9-.18s.5-.42.77-.46a33.12,33.12,0,0,0,8.08-2.08c.76-.33,1.51-.71,2.24-1.11.32-.17.59-.43,1-.23Z" fill="#1c2745"/><path d="M71.83,75.12c-2,.48-3.91,1-5.87,1.45-.26.06-.62.38-.79-.13s.2-.63.49-.68a65.56,65.56,0,0,0,6.76-1.71c.09,0,.21.09.31.14A2.86,2.86,0,0,1,71.83,75.12Z" fill="#1d2845"/><path d="M143.74,71.58c-.15-.6.34-.85.68-1.14,1.22-1,2.46-2,3.69-2.94.27-.21.59-.42.85-.14s-.12.5-.33.68L144,71.82Z" fill="#1c2745"/><path d="M65.39,33.23c.89-1.55.69-3.2.51-4.87a5.11,5.11,0,0,1,1-3.81,3,3,0,0,1,4.42-.45,6.88,6.88,0,0,1,2.5,4.36c.08.51.08,1.1.75,1.2s1-.44,1.19-1c.5-1.43,1-2.87,1.41-4.32a1.78,1.78,0,0,1,1-1.22,65.93,65.93,0,0,0,12.2-8c.29-.23.6-.72,1-.53s.18.73.15,1.1a26.8,26.8,0,0,1-.72,4.36c-.15.57-.45,1.19.17,1.63s1-.15,1.39-.38A21.86,21.86,0,0,0,95.84,19c.43-.35.6-.25.75.2a14.85,14.85,0,0,1,.79,3.49c.05.71-.06,1.06-.91.78a2.15,2.15,0,0,0-2.14.4c-.27.24-.58.48-.46.9a1.07,1.07,0,0,0,.82.78c2.54.66,2.55.68,2,3.21A30.19,30.19,0,0,0,96,33.51,11,11,0,0,1,93.22,40a2.1,2.1,0,0,0-.22.42l-3.2,4.27a7.63,7.63,0,0,1-4.4,3.06,8,8,0,0,1-4-.45,15.32,15.32,0,0,0-2.66-.62c-.54,0-.88-.33-1.26-.61a40.5,40.5,0,0,1-4.08-3.32A2.06,2.06,0,0,0,72.29,42a6.16,6.16,0,0,0,1.8,4.76,12.67,12.67,0,0,0,2.85,2.35c.36.24.79.4,1,.85-.17,1.65-.55,3.32-2.39,3.75s-2.89-.85-3.84-2.13c-2.42-3.27-3.7-7.13-5.44-10.75a6.18,6.18,0,0,0-.38-.87A6.36,6.36,0,0,1,65.39,33.23Z" fill="#9f6741"/><path d="M45.17,98.23a12.86,12.86,0,0,0,10.15,2c.3-.06.68-.26.76.23s-.36.37-.6.44c-3.15.85-6.28,1.15-9.28-.52A9.84,9.84,0,0,1,43.57,99c-.85-.88-.69-1.69.41-2.14,2.47-1,5.15-1.38,7.49-2.74a19.27,19.27,0,0,0,3.44-2.57c.3-.28.64-.87,1.05-.5s-.18.76-.39,1.1A10.24,10.24,0,0,1,50,96.26c-1.09.38-2.21.65-3.29,1A2.59,2.59,0,0,0,45.17,98.23Z" fill="#172645"/><path d="M77.9,50a11.59,11.59,0,0,1-5.35-4.94A6,6,0,0,1,72,41.29l6.78,5.36A11.37,11.37,0,0,0,77.9,50Z" fill="#172545"/><path d="M55.18,66.82a7.17,7.17,0,0,1-2.65,1.94A11.1,11.1,0,0,1,54,65.43c1.61-2.61,2.83-5.43,4.58-8a8,8,0,0,1,1.35-1.56,6.16,6.16,0,0,1-.75,2.62C58,61,56.67,63.38,55.4,65.8A1.54,1.54,0,0,0,55.18,66.82Z" fill="#172645"/><path d="M203.27,141.4a5.68,5.68,0,0,0-.35,1.87c-.61,3.49-2.81,5.37-6,6.55a99.42,99.42,0,0,1-11.25,3.6,6.41,6.41,0,0,0-2.24,1.29c-1.93,1.33-3.9,2.54-6.42,1.74-1.12-.35-2-1.26-3.28-1.34-.38,0-.3-.69-.54-1-.49-.81,0-1.44.39-2.09.18-.34.59-.62.47-1.05-.33-1.13.32-1.82,1-2.47a14.76,14.76,0,0,1,3.29-2.54,1.8,1.8,0,0,1,2.3.33,1.45,1.45,0,0,0,2.19.2c.53-.35,1.06-.7,1.6-1a64.07,64.07,0,0,0,5.23-3.91,3.1,3.1,0,0,1,1-.62c1.26-1.58,3.06-1.59,4.85-1.66,2.07-.09,4.15-.1,6.21-.32,1.27-.13,1.64.39,1.59,1.5C203.31,140.76,203.29,141.08,203.27,141.4Z" fill="#9f6741"/><path d="M184.68,145.6,183,146.72c-.93.63-1.73,1.06-2.55-.26a1.44,1.44,0,0,0-2.05-.23,19.87,19.87,0,0,0-3.85,3.18c-.21.21-.47.69-.39.81.79,1.05-.2,1.58-.6,2.28a4,4,0,0,0-.4,1.61,7.94,7.94,0,0,1-1.9-.55q-1.11-2.25-2.21-4.5c-.1-.2-.32-.44-.07-.63a.72.72,0,0,1,.56,0c.53.18,1.05.39,1.57.59.77.3,1.51.38,2-.38a1.92,1.92,0,0,0,0-2.25,3.47,3.47,0,0,0-1.38-1.31,1.12,1.12,0,0,1-.67-1.53,2.21,2.21,0,0,0-.74-2.63c-1.47-1.27-1.68-3.09-1.5-5l.76-1.61c-.1-.26-.33-.14-.5-.15-.67,0-1.42.06-1.81-.65s.09-1.39.53-1.94a13,13,0,0,1,4-3.31,2.73,2.73,0,0,1,3.42.46,4.38,4.38,0,0,0,2.67,1.29,5.08,5.08,0,0,1,3.39,2.23,22.63,22.63,0,0,1,2.26,6.6c.06.69-1.1,1.18-.33,2A5.23,5.23,0,0,1,184.68,145.6Z" fill="#f6f6f6"/><path d="M173.64,170.2c-.42,2.47.18,5.32-.14,8.19-.19,1.78.32,3.62.5,5.44a11.42,11.42,0,0,1,.06,1.55.51.51,0,0,1-.65.51c-.36,0-.37-.31-.35-.63.14-2.1-.41-4.16-.47-6.26,0-.64.07-1.25.09-1.88.11-2.38-.2-4.74-.11-7.13a21.62,21.62,0,0,1,2.59-9.76c.33-.59.61-1.21.89-1.82.16-.37.38-.66.81-.44s.38.57.14,1a26.51,26.51,0,0,0-3.15,7.78A14.66,14.66,0,0,0,173.64,170.2Z" fill="#172545"/><path d="M183.58,138.87a49.87,49.87,0,0,1-2.26-6.6,6.51,6.51,0,0,1,4.53-.32,3.55,3.55,0,0,1,2.66,3.05,4.43,4.43,0,0,1-1.7,4.54A2.35,2.35,0,0,1,183.58,138.87Z" fill="#172545"/><path d="M184.68,145.6a13.48,13.48,0,0,0-1.43-4.75l7.42.07A38.16,38.16,0,0,1,184.68,145.6Z" fill="#595ea3"/><path d="M211,135.53c.07-.35.14-.7.2-1.06.33-1.95.24-2.1-1.7-2.78-.19-.07-.39-.1-.57-.18s-.69-.2-.64-.6.39-.48.72-.53l.11,0c2.19.15,3.43-.75,3.42-3.06,0-.36.14-.82.51-.87s.67.36.76.68c.63,2,2,2.46,3.83,1.77a2.28,2.28,0,0,1,.83-.08c.64,0,.79.37.38.85a8,8,0,0,1-1.26,1.27,1.54,1.54,0,0,0-.37,2.28c.33.58,1.14,1.29.63,1.85s-1.23-.19-1.79-.48a2.25,2.25,0,0,0-3.27.72,7.78,7.78,0,0,1-.75.77c-.2.19-.42.44-.72.3A.68.68,0,0,1,211,135.53Z" fill="#595ea4"/><path d="M272.39,72.59a18.12,18.12,0,0,1-.48,2.09,2.51,2.51,0,0,1-2.85,1.68,5.21,5.21,0,0,1-4-2.91c-.25-.48-.17-.76.33-1a41.13,41.13,0,0,1,5-2.39c.82-.33,1.41-.11,1.64.8C272.13,71.4,272.25,72,272.39,72.59Z" fill="#f6f6f6"/><path d="M266.16,55a9.61,9.61,0,0,0-3.86.66c-.55.21-1.1.6-1.43-.3s-.27-1.64.66-2a10.68,10.68,0,0,1,4.45-.64,15.25,15.25,0,0,1,2.11.36.84.84,0,0,1,.76.92c0,.53-.36.77-.8.92A6.65,6.65,0,0,1,266.16,55Z" fill="#182545"/><path d="M263.29,60.41c0-.82.13-1.55,1.18-1.55.87,0,1.77,1.26,1.68,2.39-.06.76-.23,1.57-1.24,1.59S263.28,61.67,263.29,60.41Z" fill="#182645"/><path d="M181.48,102.25a8.28,8.28,0,0,1-1.65,3.3,2,2,0,0,1-3,.56,6,6,0,0,1-2.66-3.55c-.19-.63,0-.85.66-.79C177,102,179.16,102.09,181.48,102.25Z" fill="#f6f6f5"/><path d="M177.8,89.77a6,6,0,0,1,3.26,1.36c.23.2.54.41.36.79s-.47.29-.74.25c-.67-.09-1.34-.19-2-.34a9.64,9.64,0,0,0-1.78-.14c-.36,0-.88.56-1.09-.12a1.35,1.35,0,0,1,.61-1.55A2.24,2.24,0,0,1,177.8,89.77Z" fill="#192645"/><path d="M178.19,95.06c-.08.71-.21,1.51-1.07,1.62s-.88-.56-.87-1.17.05-1.53,1-1.62C178,93.83,178.13,94.44,178.19,95.06Z" fill="#1a2645"/><path d="M118.25,79.46a1.83,1.83,0,0,1,1.94,1.92,1.86,1.86,0,0,1-2,1.91,1.82,1.82,0,0,1-1.89-1.86A1.92,1.92,0,0,1,118.25,79.46Z" fill="#192646"/><path d="M129.43,81.69a1.92,1.92,0,0,1-2,1.92,1.73,1.73,0,0,1-1.9-1.81,1.94,1.94,0,0,1,1.88-2A2,2,0,0,1,129.43,81.69Z" fill="#192746"/><path d="M126.19,84.74c0,1.37-1.11,2-2.07,2.6-1.31.8-4.45,0-5.36-1.28-.22-.3-.59-.74-.3-1s.58.22.85.39a6.86,6.86,0,0,0,1.85,1.07c1.51.41,2.93.44,3.94-1,.22-.33.45-.65.68-1Z" fill="#1c2a49"/><path d="M82.83,79.46a1.92,1.92,0,0,1,2,1.9,2,2,0,0,1-2,1.93,1.76,1.76,0,0,1-1.9-1.84A1.86,1.86,0,0,1,82.83,79.46Z" fill="#192646"/><path d="M94.69,82a2,2,0,0,1-2,2,1.82,1.82,0,0,1-1.88-1.87A1.93,1.93,0,1,1,94.69,82Z" fill="#192646"/><path d="M89.83,89.63c-2.51-3.79-5.06-2.64-7.64-.48.08-1.85,1.9-2.92,4.54-2.83A3.31,3.31,0,0,1,89.83,89.63Z" fill="#1c2949"/><path d="M82.06,40c0-2.59.14-2.69,2.61-2.23,2.16.4,4.31.82,6.47,1.18.81.13.85.49.42,1a25.36,25.36,0,0,1-4,4.12,2,2,0,0,1-1.46.41A5.13,5.13,0,0,1,82.06,40Z" fill="#f6f6f6"/><path d="M86.8,21.7a4,4,0,0,1,2.57.68A1.43,1.43,0,0,1,90.05,24c-.24.71-.88.48-1.43.37a17.85,17.85,0,0,0-7.35.09c-.5.11-1.11.36-1.34-.3s.3-1.14.89-1.33A18.07,18.07,0,0,1,86.8,21.7Z" fill="#182545"/><path d="M91.66,28.18A9,9,0,0,1,90.9,31a3.8,3.8,0,0,0,1.17,4.19,1.56,1.56,0,0,1,.57,2c-.16.31-.37.58-.72.51s-.28-.48-.16-.76a.92.92,0,0,0-.27-1.08c-2-2-2.24-4.18-.6-6.53C91.13,29,91.1,28.51,91.66,28.18Z" fill="#1b2745"/><path d="M95.47,31.44c0,1.17-.7,2.3-1.35,2.21-.94-.14-1-1-1-1.68,0-1,.79-2.15,1.46-2C95.5,30.08,95.46,30.83,95.47,31.44Z" fill="#192645"/><path d="M88,30.54a2.45,2.45,0,0,1-1.08,2,.63.63,0,0,1-.86-.15,2.08,2.08,0,0,1-.27-2.24c.24-.67.56-1.36,1.4-1.18S88,29.88,88,30.54Z" fill="#1a2645"/><path d="M175.41,144.22a7.3,7.3,0,0,1-2.93-.48c-.48-.23-.92-.5-1-1.09s0-.9.74-.74a14.67,14.67,0,0,0,8.93-.48c.19-.08.41-.18.56,0s0,.44-.1.63a3.78,3.78,0,0,1-2.3,1.61A12.58,12.58,0,0,1,175.41,144.22Z" fill="#182646"/><path d="M178.87,136.57a1.24,1.24,0,0,1-1.35,1.16,1.24,1.24,0,0,1,.08-2.48C178.39,135.25,178.82,135.72,178.87,136.57Z" fill="#1d2a4a"/><path d="M175.11,135a1.17,1.17,0,0,1-1.36,1.13,1.13,1.13,0,0,1-1.17-1.23,1.27,1.27,0,1,1,2.53.1Z" fill="#1a2747"/><path d="M173.59,139.18a7,7,0,0,0,2.36-.32c.19-.07.4-.18.53,0s0,.37-.16.53C175.68,140.25,174.49,140.21,173.59,139.18Z" fill="#253250"/><path d="M174.87,137.74a.82.82,0,0,1-.81.74.61.61,0,0,1-.62-.61c0-.42.16-.7.63-.65S174.81,137.27,174.87,137.74Z" fill="#32de9b"/></g></g></svg>