<?xml version="1.0" encoding="utf-8"?>
<!-- Generator: Adobe Illustrator 26.3.1, SVG Export Plug-In . SVG Version: 6.00 Build 0)  -->
<svg version="1.1" id="Layer_1" xmlns="http://www.w3.org/2000/svg" xmlns:xlink="http://www.w3.org/1999/xlink" x="0px" y="0px"
	 width="384px" height="384px" viewBox="0 0 384 384" enable-background="new 0 0 384 384" xml:space="preserve">
<path d="M0,206.3c2.7-8.1,7.6-13.8,16.4-14.9c4.4-0.5,9,0,13.5-0.3c1.1-0.1,2.7-1.1,3.2-2.1c4.1-8,10.7-12,19.6-12
	c1.2,0,2.4,0,4.1,0c0-1.7,0-3.1,0-4.4c0-16.2-0.2-32.5,0.1-48.7c0.3-20.8,14.3-37.3,34.7-41c3.4-0.6,7-0.6,10.5-0.6
	c56.4,0,112.7,0,169.1-0.1c3.3,0,7.2-0.6,9.9-2.3c11.6-7.5,24.2-8.3,37.4-7.5c11.2,0.7,20.3,5.2,26.4,14.7
	c6.8,10.5,7.4,21.7,1.5,32.7c-5.9,11.2-15.7,16.8-28.3,17.3c-6.1,0.2-12.3,0.3-18.4-0.1c-2.5-0.1-5.2-0.9-7.4-2.2
	c-10.1-6.2-20.9-8.5-32.8-7.7c-9.6,0.7-19.2,0.1-29.9,0.1c2.8,3,5.3,5.2,7.1,7.8c3.9,5.5,8.9,7.4,15.7,6.8c8.2-0.7,14.7,3,18.5,10.3
	c1.6,3.1,2.2,6.9,2.6,10.4c0.4,3.8,0.1,7.7,0.1,12c7.6,0,15,0.1,22.3-0.1c1.1,0,2.3-0.9,3.4-1.5c11.9-6.9,23.7-13.9,35.7-20.6
	c2.5-1.4,5.6-2.2,8.4-2.3c10.1-0.3,20.3,0.1,30.4-0.2c4.6-0.1,8,1.3,10.2,5.3c0,15.2,0,30.5,0,45.8c-3.1,4.6-6.1,6.1-9.7,4.9
	c-3.7-1.2-5.3-4-5.3-9.7c0-4.5,0-9,0-13.5c0-5.8,0-11.7,0-17.8c-8.6,0-16.9,0-25.1,0.1c-1,0-2.1,0.6-3.1,1.2
	c-10.7,6.2-21.3,12.4-32.1,18.5c-2,1.1-2.7,2.4-2.7,4.7c0.1,27.6,0.1,55.2,0,82.8c0,2.1,0.6,3.4,2.5,4.4
	c10.7,6.1,21.4,12.4,32.1,18.6c0.9,0.5,1.8,1.2,2.7,1.2c8.5,0.1,16.9,0.1,25.6,0.1c0-1.8,0-3.1,0-4.5c0-9-0.1-18,0-27
	c0.1-6.2,6.3-9.9,11.2-6.7c1.5,1,2.5,2.7,3.7,4c0,14.7,0,29.5,0,44.2c-2.5,4-6.2,5.1-10.8,5c-10-0.2-20,0.1-30-0.2
	c-2.7-0.1-5.7-0.9-8.1-2.2c-12-6.7-23.8-13.7-35.7-20.6c-1.1-0.6-2.2-1.5-3.4-1.5c-7.3-0.1-14.7-0.1-22.2-0.1
	c-0.1,2.4-0.1,4.6-0.3,6.6c-1.4,10.9-9.8,17.8-21.8,17.9c-46.2,0-92.5,0-138.7,0c-20,0-40,0-60,0c-8,0-14.2-3-18.7-9.8
	c-0.6-1-2.3-1.7-3.5-1.9c-2.5-0.3-5-0.2-7.5-0.1c-11.5,0.8-19.6-3.7-23.3-14.9C0,258.8,0,232.6,0,206.3z M216.1,296.5
	c1.6,0.1,2.7,0.2,3.8,0.2c10.5,0,21,0,31.5,0c5.8,0,7.3-1.6,7.3-7.3c0-41.7,0-83.5,0-125.2c0-5.9-1.5-7.4-7.6-7.4
	c-17.4,0-34.7,0.1-52.1-0.1c-5.6-0.1-10.5,1.5-15,4.8c-11.1,7.9-22.3,15.6-33.4,23.5c-6.8,4.9-14.3,7.3-22.8,7.2
	c-24.6-0.2-49.2-0.1-73.9-0.1c-5.8,0-7.4,1.5-7.4,7.2c0,30.1,0,60.2,0,90.3c0,5.5,1.5,7,7.2,7c12.4,0,24.7,0,37.1,0
	c1.2,0,2.4-0.1,3.7-0.2c0-14.8,0-29.1,0-43.5c0-7.5,2.5-10,9.8-10c33.7,0,67.5,0,101.2,0c8.3,0,10.4,2.1,10.4,10.4
	C216.1,267.7,216.1,281.9,216.1,296.5z M200.9,258.3c-30.6,0-60.9,0-91.2,0c0,12.9,0,25.4,0,38.2c30.5,0,60.7,0,91.2,0
	C200.9,283.7,200.9,271.1,200.9,258.3z M222.6,141.8c-11.8-12.2-22.8-23.6-33.7-35.1c-6-6.4-13.2-9.5-22-9.4
	c-22.2,0.1-44.5,0-66.7,0c-17.1,0.1-28.2,11.3-28.3,28.5c0,15.9,0,31.7,0,47.6c0,1.2,0.1,2.4,0.1,3.4c5.2,0,9.9,0,14.8,0
	c0-1.6,0-3,0-4.3c0-14-0.1-28,0-42c0.1-10.8,7.2-18.1,18.1-18.2c18.6-0.1,37.2,0,55.8,0c7.5,0,13.8,2.7,19.1,8.1
	c6.4,6.5,12.8,13,19.3,19.4c0.9,0.9,2.2,1.9,3.4,1.9C208.9,141.9,215.2,141.8,222.6,141.8z M102,177.1c9.2,0,18.2,0.3,27.1-0.2
	c3.8-0.2,8.1-1.3,11.2-3.4c14.1-9.4,27.9-19.3,42.7-29.6c-4.5-4.3-9-8.3-13.3-12.6c-2.7-2.7-5.8-4.1-9.7-4.1
	c-17.9,0.1-35.7,0.1-53.6,0c-3.4,0-4.6,1.2-4.6,4.6c0.1,14.1,0.1,28.2,0.1,42.4C101.9,175.1,102,175.9,102,177.1z M309.4,87.5
	c-7.7-2.1-14.6,2.6-21.8,6.3c-0.9,0.5-1.7,2.1-1.7,3.2c-0.2,5.2-0.1,10.5,0,15.7c0,0.9,0.2,2.4,0.8,2.6c5,2.4,10,5.5,15.3,6.6
	c5.3,1.1,11,0.4,16.4,0.2c9.6-0.4,16.8-7.9,16.9-17.2c0.1-9.4-6.9-16.8-16.5-17.5C316,87.3,313.3,87.5,309.4,87.5z M273.9,189.8
	c0,27.6,0,54.8,0,82.2c5.8,0,11.3,0,17,0c0-27.5,0-54.8,0-82.2C285.1,189.8,279.7,189.8,273.9,189.8z M31.4,206.3
	c-3.9,0-7.4,0-10.9,0c-4.6,0-5.5,0.9-5.5,5.5c0,16,0,31.9,0,47.9c0,6.9,0,13.7,0,20.6c0,2.4,0.8,4.4,3.3,4.6c4.3,0.3,8.6,0.1,13,0.1
	C31.4,258.5,31.4,232.6,31.4,206.3z M270.6,97.6c-23.2,0-46.1,0-69.8,0c4.8,5,9.1,9.5,13.5,13.8c0.7,0.7,2,0.9,3.1,0.9
	c17.1,0.1,34.2,0,51.3,0c0.6,0,1.2-0.2,2-0.3C270.6,107.2,270.6,102.5,270.6,97.6z M384,229.6c-0.5-0.7-0.9-1.5-1.4-2.2
	c-2.1-2.9-5.7-4-9-2.6c-3.1,1.3-5,4.6-4.5,7.9c0.5,3.4,3.4,6.1,6.8,6.4c3.9,0.3,6.1-2.2,8.1-5C384,232.6,384,231.1,384,229.6z"/>
</svg>
