<?xml version="1.0" encoding="utf-8"?>
<!-- Generator: Adobe Illustrator 26.3.1, SVG Export Plug-In . SVG Version: 6.00 Build 0)  -->
<svg version="1.1" id="Layer_1" xmlns="http://www.w3.org/2000/svg" xmlns:xlink="http://www.w3.org/1999/xlink" x="0px" y="0px"
	 width="384px" height="384px" viewBox="0 0 384 384" enable-background="new 0 0 384 384" xml:space="preserve">
<path d="M0,120c1.9-4.4,3.2-9.2,5.7-13.2c5.8-9.1,14.6-13.7,25.7-14.9c0-3.3,0-6.5,0-9.7c0.1-7.2,4.2-11.4,11.4-11.5
	c9.7-0.1,19.5-0.1,29.2,0c7.1,0.1,11.2,4.3,11.4,11.6c0.1,3,0,6,0,9.4c8.1-0.8,13.7-4.6,17.3-11.2c3.5-6.6,6.7-13.4,10.1-20.1
	c4.6-9,11.7-14.8,21.5-17.2c2.9-0.7,5.9-1,8.9-1.1c33.7-0.1,67.5-0.1,101.2,0c13.7,0,23.9,6.3,30.3,18.4c3.2,5.9,6.2,12,9.1,18
	c4.5,9.2,11.8,13.5,21.9,13.4c14.5,0,29,0,43.5,0c19.8,0,30.9,8.4,36.1,27.5c0.1,0.2,0.3,0.4,0.5,0.5c0,64.5,0,129,0,193.5
	c-0.6,1.9-1.1,3.8-1.7,5.7c-4.3,13-16.3,22-30.1,22.7c-1.2,0.1-2.5,0-3.7,0c-92.5,0-185,0-277.5,0c-1.5,0-3.1,0.1-4.5-0.2
	c-2.9-0.7-4.5-2.7-4.3-5.8c0.2-3,2-4.8,5-5.1c1.5-0.2,3-0.1,4.5-0.1c92.1,0,184.2,0,276.4,0c16,0,24.7-8.7,24.7-24.8
	c0-59.9,0-119.8,0-179.6c0-11.1-6.3-19.7-16.5-22.2c-2.5-0.6-5.2-0.7-7.8-0.7c-14.7-0.1-29.5-0.1-44.2,0c-15,0.1-25.8-6.5-32.5-19.9
	c-2.8-5.7-5.7-11.4-8.6-17.1c-4.4-8.6-11.4-13-21.1-13c-33.5,0-67,0-100.5,0c-9.7,0-16.7,4.3-21.1,12.9c-2.9,5.8-5.8,11.6-8.7,17.4
	c-6.5,13-17.1,19.5-31.6,19.5c-15,0.1-30,0-45,0c-15.2,0-24,8.9-24,24c0,59.8,0,119.5,0,179.3c0,15.3,9,24.2,24.3,24.2
	c2.9,0,5.8-0.1,8.6,0.1c3.2,0.2,5.1,1.9,5.4,5.1c0.3,3.1-1.8,6-4.9,5.9c-7.2-0.2-14.7,0.2-21.5-1.7c-12-3.3-19.2-12-22.3-24.1
	c-0.2-0.8-0.5-1.6-0.8-2.4C0,249,0,184.5,0,120z M72,82.1c-10,0-19.5,0-29.1,0c0,3.3,0,6.4,0,9.6c9.8,0,19.3,0,29.1,0
	C72,88.5,72,85.5,72,82.1z M191.9,117.3c52.5-0.2,95.3,42.5,95.6,95.2c0.3,52.7-42.5,95.7-95.3,95.8c-52.7,0.1-95.3-42.4-95.6-95.2
	C96.3,160.5,139,117.5,191.9,117.3z M192,128.6c-46.4,0-84.1,37.7-84.2,84.2c-0.1,46.5,37.5,84.2,84,84.3
	c46.6,0.1,84.5-37.7,84.4-84.3C276.1,166.3,238.5,128.6,192,128.6z M44.5,154c-10.1-0.1-18.3-8.4-18.2-18.4
	c0.1-10.1,8.5-18.3,18.5-18.2c10.1,0.1,18.2,8.3,18.2,18.5C62.9,146,54.7,154.1,44.5,154z M44.7,128.7c-3.9,0-7.2,3.3-7.1,7.1
	c0.1,3.7,3.1,6.8,6.9,6.9c4,0.1,7.2-3,7.2-6.9C51.8,131.9,48.6,128.7,44.7,128.7z M218.7,81.9c4.2,0,6.6-2.1,6.7-5.4
	c0.1-3.4-2.5-5.8-6.8-5.8c-17.7,0-35.5,0-53.2,0c-4.3,0-7,2.3-6.9,5.7c0,3.4,2.6,5.5,7,5.5c8.9,0,17.7,0,26.6,0
	C201,81.9,209.9,81.9,218.7,81.9z M337.2,123c-3.2,0.3-5.1,2.1-5.2,5.3c-0.2,3.2,1.6,5.4,4.7,5.7c3.4,0.4,7,0.4,10.4,0
	c3.1-0.4,4.9-2.5,4.7-5.8c-0.2-3.2-2.1-4.9-5.3-5.2c-1.5-0.1-3,0-4.5,0C340.4,123,338.8,122.9,337.2,123z M260.9,207.5
	c-1.7-7.4-3.4-14.8-5.5-22.1c-0.9-3.2-4.6-4.3-7.4-3.1c-2.7,1.2-3.9,4.1-2.8,7.2c0.3,1.1,0.8,2.1,1.2,3.2c14,37.6-14,77.9-54.1,78
	c-34.5,0.1-61.4-29.6-57.9-64c2.8-27.8,26.2-50.2,54.1-51.6c16.4-0.9,30.7,4.3,42.9,15.2c3.1,2.8,6.2,2.9,8.6,0.5
	c2.4-2.5,2-5.8-1.1-8.8c-0.5-0.4-0.9-0.9-1.4-1.3c-21.6-18.9-53-22.4-78.4-8.7c-25.6,13.8-39.8,42.1-35.5,70.7
	c5.3,36.1,37.5,62,73.8,59.1c35.9-2.8,63.8-33,63.6-69.2C261,211,261.3,209.2,260.9,207.5z"/>
</svg>
