<?xml version="1.0" encoding="utf-8"?>
<!-- Generator: Adobe Illustrator 26.3.1, SVG Export Plug-In . SVG Version: 6.00 Build 0)  -->
<svg version="1.1" id="Layer_1" xmlns="http://www.w3.org/2000/svg" xmlns:xlink="http://www.w3.org/1999/xlink" x="0px" y="0px"
	 width="384px" height="384px" viewBox="0 0 384 384" enable-background="new 0 0 384 384" xml:space="preserve">
<path d="M192,345c-46.1,0-92.3,0-138.4,0C24.1,345,3.1,324,3.1,294.4c0-68.3,0-136.5,0-204.8C3.1,60,24.1,39,53.6,39
	c92.3,0,184.5,0,276.8,0c29.3,0,50.5,21,50.5,50.2c0,68.5,0,137,0,205.5c0,29.2-21.2,50.2-50.5,50.2C284.2,345,238.1,345,192,345z
	 M219.6,234.2c10.6-11.4,20.9-22.5,31.1-33.6c15.2-16.4,34.4-16.8,50.2-1.1c19.1,19.1,38.2,38.2,57.2,57.3c0.9,0.9,1.9,1.7,3.4,3.1
	c0-1.7,0-2.5,0-3.3c0-56.1,0-112.3,0-168.4c0-17.6-12.6-29.9-30.5-30c-92.7,0-185.5,0-278.2,0c-18,0-30.4,12.4-30.4,30.4
	c0,43.9,0,87.8,0,131.6c0,1,0.1,2.1,0.3,3.6c1.3-1.2,2.2-2.1,3.1-2.9c23.3-23.2,46.9-46.1,69.6-69.8c13.9-14.5,36.7-13.6,49,0.8
	c9.6,11.3,20,22,30.1,33C189.4,201.3,204.4,217.6,219.6,234.2z M232.7,248.4c1.7,1.8,3,3.3,4.4,4.8c7.3,7.9,14.5,15.9,21.8,23.8
	c2.6,2.8,3.3,6.1,1.8,9.7c-1.5,3.6-4.4,5.8-8.2,6.3c-4.2,0.5-6.9-2.1-9.5-5c-37.5-40.9-75-81.9-112.5-122.8
	c-6.7-7.4-14.1-7.5-21.1-0.6c-28.2,28.2-56.4,56.4-84.5,84.6c-1.3,1.3-2.2,3.6-2.3,5.4c-0.2,13.5-0.2,27,0,40.5
	c0,3.3,0.4,6.8,1.4,10c3.9,12.9,15,20.5,29.7,20.5c92.2,0,184.5,0,276.7,0c0.9,0,1.8,0,2.6,0c14.2-0.5,25.5-9.9,28.1-24
	c0.7-3.8,0.6-7.7,0.5-11.6c-0.1-1.5-0.8-3.4-1.9-4.5c-5.3-5.5-10.7-10.9-16.1-16.3c-19.1-19.1-38.1-38.3-57.2-57.3
	c-6.6-6.6-14.2-6.3-20.5,0.5c-3.4,3.7-6.8,7.3-10.2,11C248,231.7,240.5,239.9,232.7,248.4z M215.8,165c-20.9-0.1-36.5-16-36.5-37
	c0-21.1,15.6-36.9,36.6-37c20.9-0.1,36.9,16.2,36.7,37.3C252.4,149.4,236.7,165.1,215.8,165z M233.4,127.9
	c-0.1-10.4-7.5-17.8-17.7-17.7c-9.9,0.1-17.3,7.6-17.4,17.8c-0.1,10.3,7.5,17.9,17.6,17.9C226.1,145.9,233.5,138.3,233.4,127.9z"/>
</svg>
