<?xml version="1.0" encoding="utf-8"?>
<!-- Generator: Adobe Illustrator 26.3.1, SVG Export Plug-In . SVG Version: 6.00 Build 0)  -->
<svg version="1.1" id="Layer_1" xmlns="http://www.w3.org/2000/svg" xmlns:xlink="http://www.w3.org/1999/xlink" x="0px" y="0px"
	 width="512px" height="512px" viewBox="0 0 512 512" enable-background="new 0 0 512 512" xml:space="preserve">
<path d="M0.5,343.8c0-79,0-158,0-237c0.3-0.6,0.7-1.2,0.9-1.8c6.6-31.4,36-58,76-57.4c50.1,0.8,100.3,0.2,150.4,0.2
	c48.3,0,96.6,0,145,0c25.1,0,43.4,14.6,48.6,38.8c0.6,2.9,1.9,3.7,4.6,4.2c14.1,2.5,25,10,32.1,22.4c3.2,5.7,5,12.1,7.6,18.6
	c0.9,0,2.2,0,3.6,0c24.3,0.9,42.1,18.6,42.2,43c0.2,82.1,0.1,164.3,0,246.4c0,14.3-5.9,26.1-17.4,34.8c-8.8,6.6-19,8.4-29.7,8.4
	c-92.8,0-185.6,0-278.4,0c-17.3,0-34.7,0.1-52,0c-25.3-0.2-41.7-14.5-45.2-39.4c-0.1-0.8-0.4-1.5-0.5-2.2c-0.8-0.2-1.2-0.4-1.7-0.5
	c-23.9-2.7-38.3-15.9-43.8-39.2c-0.3-1.4-2.4-3-3.9-3.3c-9-1.9-16.9-5.7-23.8-11.9C7.6,361.3,3.5,352.9,0.5,343.8z M367,359.3
	c3.2,3.3,6,6.3,8.9,9.3c4.6,4.8,9.4,9.5,13.8,14.4c2.8,3.1,4,7.1,1.5,10.6c-1.8,2.6-5.3,5.5-8,5.6c-3.3,0-7.3-2.2-9.8-4.7
	c-10.5-10.2-20.5-20.9-30.8-31.4c-35.7-36.8-71.4-73.7-107.2-110.5c-7-7.2-14.4-8-21.2-2.1c-34.5,30.4-69,60.8-103.4,91.3
	c-1.3,1.1-2.3,3.3-2.4,5c-0.1,25-0.2,50,0,75c0,8,3.2,15.1,10.4,18.7c4.8,2.4,10.7,3.8,16.2,3.8c109.8,0.2,219.6,0.2,329.4,0.1
	c2,0,4-0.1,6-0.3c12.1-1.2,20.7-9.9,20.8-22.1c0.3-18.7,0.1-37.3,0-56c0-1.5-0.9-3.6-2.1-4.5c-17.6-13.5-35.3-26.8-53-40.1
	c-5-3.7-10.7-4.3-15.9-0.7C402.6,333.4,385,346.2,367,359.3z M108.5,316.8c2.1-1.8,3.4-2.8,4.6-3.8c28.6-25.2,57.2-50.5,85.9-75.7
	c17.4-15.3,35.5-14.5,51.7,2.1c32.7,33.7,65.5,67.5,98.1,101.2c1.4,1.4,2.3,3.2,3.3,4.8c18.7-13.6,36.2-26.4,53.7-39.1
	c15-10.9,29.4-10.8,44.1,0.3c12.3,9.2,24.5,18.5,36.7,27.7c1.4,1,2.8,2,4.8,3.4c0-2.5,0-4,0-5.5c0-51.7,0-103.3,0-155
	c0-16.6-9-25.5-25.7-25.5c-110.5,0-221,0-331.5,0c-16.9,0-25.8,8.9-25.8,26c0,35.3,0,70.7,0,106C108.5,294.4,108.5,305,108.5,316.8z
	 M444,131.8c-0.2-1.3-0.3-2.2-0.6-2.9c-0.3-1-0.6-1.9-1.1-2.8c-5.5-11.2-14.7-16.2-27-16.2c-39.5,0-79,0-118.5,0
	c-8.7,0-13.4-3.6-13.4-10c0-6.4,4.8-10,13.4-10c1,0,2,0,3,0c32,0,64,0,96,0c1.8,0,3.5,0,5.6,0c-0.3-1.4-0.3-2.2-0.6-3
	c-3.8-12-14.2-19-28.5-19c-99.2,0-198.3,0-297.5,0.1c-4.8,0-9.7,0.4-14.4,1.5C36,75.2,19.5,96.3,19.5,122.2c-0.1,69.7,0,139.3,0,209
	c0,1.5,0,3,0.2,4.5c1.2,12.3,10.9,22.7,22.3,23.6c0-2.2,0-4.3,0-6.4c0-69.8,0-139.6,0.1-209.5c0-5.5,0.2-11.1,1.7-16.3
	c6.6-23.4,25-37.2,49.4-37.2c35.5,0,71,0,106.5,0c4.2,0,8.3-0.1,12.5,0c6.8,0.2,11.4,4.5,11.2,10.2c-0.1,5.6-4.6,9.5-11.2,9.7
	c-1.3,0-2.7,0-4,0c-37.8,0-75.7,0-113.5,0c-3.5,0-7,0.2-10.4,1c-14,3.2-22.3,14.7-22.3,30.9c0,76.7,0,153.3,0,230c0,2,0.1,4,0.3,6
	c1.3,13.8,11.8,23.8,26.2,24.4c0-2,0-3.9,0-5.9c0-72.8-0.1-145.6,0.2-218.5c0-7.3,1.4-15.2,4.4-21.7c7.9-16.9,22.3-24.2,40.8-24.2
	c101.2,0,202.3,0,303.5,0C439.4,131.8,441.4,131.8,444,131.8z M388,192.6c23.5,0,42.5,19.1,42.6,42.6c0.1,23.6-19.4,43-43,42.7
	c-23.5-0.2-42.5-19.4-42.4-42.8C345.4,211.6,364.6,192.5,388,192.6z M387.8,212.6c-12.7,0.1-22.6,10.3-22.4,23.1
	c0.2,12.5,10.3,22.3,22.9,22.2c12.6-0.1,22.6-10.4,22.4-23.2C410.4,222.3,400.3,212.5,387.8,212.6z M263.4,100
	c0.1-5.4-4.3-9.9-9.7-10c-5.7-0.1-10.3,4.4-10.2,10c0.1,5.4,4.6,9.8,10,9.8C258.8,109.8,263.3,105.4,263.4,100z"/>
</svg>
