<?xml version="1.0" encoding="utf-8"?>
<!-- Generator: Adobe Illustrator 26.3.1, SVG Export Plug-In . SVG Version: 6.00 Build 0)  -->
<svg version="1.1" id="Layer_1" xmlns="http://www.w3.org/2000/svg" xmlns:xlink="http://www.w3.org/1999/xlink" x="0px" y="0px"
	 width="409.6px" height="409.6px" viewBox="0 0 409.6 409.6" enable-background="new 0 0 409.6 409.6" xml:space="preserve">
<path d="M0.4,320.6c1.9-2.8,4.2-5,7.9-3.7c3.6,1.3,4.1,4.4,4.1,7.9c-0.1,8.9-0.1,17.8,0,26.7c0,7.5,4.3,11.9,11.8,12
	c2.1,0.1,4.3,0,6.4,0c117.6,0,235.2,0,352.9,0c4.3,0,8.7-0.2,11.1-4.1c1.6-2.6,2.6-6.1,2.6-9.3c0.1-94.1,0.1-188.1,0.1-282.2
	c0-3.3,0-6.7,0-10c-0.1-7.5-4.4-11.9-11.9-12c-7.6-0.1-15.2,0-22.8,0c-4.8,0-7.5-2-7.6-5.7c-0.2-3.8,2.6-6.3,7.6-6.3
	c9,0,18.1-0.2,27.1,0.5c10.6,0.9,18.4,9.4,19.5,20c0.1,1.3,0.1,2.7,0.1,4c0,97.5,0,195.1,0,292.6c0,11.7-6,20.4-16.4,23.2
	c-3,0.8-6.3,1.1-9.5,1.1c-119,0.1-237.9,0-356.9,0c-14,0-20.5-4.5-25.6-17.7c-0.1-0.2-0.4-0.4-0.5-0.5
	C0.4,345.1,0.4,332.8,0.4,320.6z M0.4,303.8c2.1,2.4,4.3,4.8,8.1,3.3c3.7-1.5,4-4.6,3.9-7.9c0-0.9,0-1.9,0-2.8
	c0-51.6,0-103.3,0-154.9c0-27.7,0.1-55.4,0-83c0-5.2,1.8-9.3,6.5-11.3c2.3-1,5.2-1.1,7.8-1.1c102.9,0,205.7,0,308.6,0
	c1.7,0,3.8,0.5,5.1-0.3c1.9-1.2,4.4-3.2,4.6-5.1c0.2-1.9-1.9-4.3-3.6-5.8c-0.9-0.9-3-0.7-4.6-0.7c-103.9,0-207.8,0-311.7,0
	c-6.3,0-12.5,1.1-16.8,6C5,43.6,2.9,48.2,0.4,52.3C0.4,136.1,0.4,220,0.4,303.8z M144.3,225.1c0.1,8.5-0.2,17,0.4,25.5
	c0.9,12.2,14.9,17.2,23.2,12.9c29-14.8,58.3-29,87.3-43.6c3.2-1.6,6.3-4.7,8-7.9c4.7-8.6,1-17.9-8.6-22.8
	c-13.5-6.9-27.1-13.6-40.6-20.3c-0.9-0.5-1.9-0.9-3-1.2c-3-0.9-5.7,0.3-6.5,3c-0.6,2,0.2,4.8,1.2,6.8c0.5,1.2,2.5,1.8,3.9,2.5
	c12.9,6.5,25.9,13,38.8,19.4c2.3,1.2,5.1,2.5,4.4,5.4c-0.5,1.9-2.4,4.1-4.3,5c-27.7,14-55.5,27.9-83.3,41.8c-5.9,2.9-9,1.1-9-5.4
	c0-27.7,0-55.3,0-83c0-6.5,3.1-8.3,9-5.4c7.3,3.6,14.5,7.3,21.8,10.8c1.7,0.8,4.1,1.8,5.6,1.2c1.9-0.8,3.9-2.8,4.6-4.8
	c1-2.8-1-5.1-3.5-6.4c-8.4-4.3-16.8-8.6-25.4-12.5c-2.8-1.2-6.2-1.8-9.2-1.5c-9.2,1-14.7,7.9-14.7,18.2c-0.1,14,0,27.9,0,41.9
	C144.3,211.6,144.3,218.4,144.3,225.1z M150.6,107.6c5.5-0.1,7.6-2.1,7.7-7.4c0.1-8.9,0.1-17.8,0-26.7c-0.1-5-2.2-7.2-7-7.3
	c-10.4-0.1-20.7-0.1-31.1,0c-4.9,0.1-7,2.3-7.1,7.2c-0.1,9-0.1,18.1,0,27.1c0.1,4.9,2.3,6.9,7.2,7c5,0.1,10.1,0,15.2,0
	C140.5,107.7,145.6,107.7,150.6,107.6z M125.3,95.4c0-5.7,0-11.2,0-17c7,0,13.8,0,20.8,0c0,5.8,0,11.2,0,17
	C139.1,95.4,132.3,95.4,125.3,95.4z M289.1,107.6c5.2-0.1,7.4-2.1,7.4-7.2c0.1-8.9,0.1-17.8,0-26.7c0-5.1-2.2-7.4-7.3-7.4
	c-10.2-0.1-20.5-0.1-30.7,0c-4.9,0.1-7.1,2.2-7.2,7.1c-0.1,9-0.1,18.1,0,27.1c0.1,5.1,2.2,7.1,7.5,7.2c5,0.1,10.1,0,15.2,0
	C279,107.7,284,107.7,289.1,107.6z M263.5,78.5c7,0,13.8,0,20.8,0c0,5.7,0,11.2,0,17c-7,0-13.8,0-20.8,0
	C263.5,89.7,263.5,84.2,263.5,78.5z M120.2,302c-4.9,0.1-7,2.2-7.1,7.2c-0.1,8.9-0.1,17.8,0,26.7c0,5.2,2.1,7.4,7.2,7.5
	c10.2,0.1,20.5,0.1,30.7,0c5-0.1,7.2-2.2,7.3-7c0.1-9.2,0.1-18.3,0-27.5c-0.1-4.7-2.3-6.7-7-6.8c-5.2-0.1-10.4,0-15.5,0
	C130.5,301.9,125.3,301.9,120.2,302z M146.1,331c-6.9,0-13.8,0-20.8,0c0-5.7,0-11.2,0-16.9c6.9,0,13.6,0,20.8,0
	C146.1,319.9,146.1,325.3,146.1,331z M258.7,302c-5.2,0.1-7.3,2.1-7.4,7.3c-0.1,8.9-0.1,17.8,0,26.7c0.1,5.1,2.2,7.3,7.3,7.4
	c10.2,0.1,20.5,0.1,30.7,0c4.9-0.1,7.1-2.3,7.2-7.1c0.1-9,0.1-18.1,0-27.1c-0.1-4.9-2.2-7-7.1-7.1c-5-0.1-10.1,0-15.2,0
	C269.1,301.9,263.9,301.9,258.7,302z M284.4,331.1c-6.9,0-13.7,0-20.8,0c0-5.5,0-11,0-16.8c6.8,0,13.6,0,20.8,0
	C284.4,319.9,284.4,325.3,284.4,331.1z M220.1,107.6c5-0.1,7.1-2.1,7.1-7c0.1-9.2,0.1-18.3,0-27.5c0-4.5-2-6.8-6.5-6.8
	c-10.6-0.2-21.3-0.2-31.9,0c-4.5,0.1-6.5,2.3-6.5,6.8c-0.1,9.2-0.1,18.3,0,27.5c0,4.9,2.1,6.9,7.1,7c5,0.1,10.1,0,15.1,0
	C209.8,107.7,214.9,107.7,220.1,107.6z M215.1,95.5c-6.9,0-13.6,0-20.5,0c0-5.6,0-11.1,0-17c6.8,0,13.6,0,20.5,0
	C215.1,84.2,215.1,89.7,215.1,95.5z M189.7,302c-5.2,0.1-7.3,2.1-7.3,7.2c-0.1,9-0.1,18.1,0,27.1c0,4.7,2,7,6.7,7
	c10.5,0.2,21,0.2,31.5,0c4.7-0.1,6.7-2.3,6.7-7c0.1-9,0.1-18.1,0-27.1c0-5.1-2.1-7.1-7.3-7.2c-5-0.1-10.1,0-15.1,0
	C199.7,301.9,194.7,301.9,189.7,302z M215,314.1c0,5.7,0,11.2,0,17c-6.8,0-13.6,0-20.5,0c0-5.7,0-11.2,0-17
	C201.6,314.1,208.2,314.1,215,314.1z M82,107.6c5-0.1,7-2.2,7.1-7.1c0.1-9,0.1-18.1,0-27.1c0-4.9-2.1-7.1-7-7.2
	c-10.4-0.1-20.7-0.1-31.1,0c-4.8,0.1-6.8,2.2-6.9,6.9c-0.1,9.2-0.1,18.3,0,27.5c0.1,4.9,2.1,6.9,7.2,6.9c5,0.1,10.1,0,15.1,0
	C71.6,107.7,76.8,107.7,82,107.6z M77,95.4c-6.8,0-13.5,0-20.6,0c0-5.5,0-11.1,0-16.9c6.8,0,13.5,0,20.6,0C77,84.3,77,89.7,77,95.4z
	 M358.8,107.6c4.5-0.1,6.6-2.1,6.7-6.6c0.1-9.3,0.1-18.6,0-27.9c-0.1-4.5-2-6.7-6.6-6.8c-10.6-0.2-21.3-0.2-31.9,0
	c-4.4,0.1-6.5,2.4-6.5,6.9c-0.1,9.2-0.1,18.3,0,27.5c0,4.7,2.1,6.8,6.8,6.9c5.2,0.1,10.4,0,15.5,0
	C348.2,107.6,353.5,107.8,358.8,107.6z M332.8,95.5c0-5.7,0-11.3,0-17.1c6.8,0,13.5,0,20.5,0c0,5.7,0,11.2,0,17.1
	C346.3,95.5,339.7,95.5,332.8,95.5z M51.3,302c-5.1,0.1-7.1,2-7.2,7c-0.1,9.2-0.1,18.3,0,27.5c0.1,4.7,2.1,6.8,6.9,6.9
	c10.4,0.1,20.7,0.1,31.1,0c4.9-0.1,7-2.3,7-7.2c0.1-8.9,0.1-17.8,0-26.7c0-5.4-2-7.4-7.5-7.5c-4.9-0.1-9.8,0-14.7,0
	C61.6,301.9,56.5,301.9,51.3,302z M77,331.1c-6.9,0-13.7,0-20.7,0c0-5.6,0-11.1,0-16.9c6.9,0,13.6,0,20.7,0
	C77,319.9,77,325.3,77,331.1z M328.3,302c-5.8,0.1-7.7,2-7.7,7.6c0,8.8,0,17.5,0,26.3c0,5.2,2,7.4,7.1,7.5c10.2,0.1,20.5,0.1,30.7,0
	c5.2-0.1,7.1-2.2,7.1-7.5c0.1-8.9,0.1-17.8,0-26.7c-0.1-5.2-2.1-7.1-7.3-7.2c-5-0.1-10.1,0-15.1,0
	C338.1,301.9,333.2,301.9,328.3,302z M332.7,314.1c6.9,0,13.6,0,20.6,0c0,5.7,0,11.2,0,17c-6.8,0-13.5,0-20.6,0
	C332.7,325.3,332.7,319.8,332.7,314.1z"/>
<path fill="#FFFFFF" d="M145.7,95.8c-7,0-13.8,0-20.8,0c0-5.7,0-11.2,0-17c7,0,13.8,0,20.8,0C145.7,84.6,145.7,90.1,145.7,95.8z"/>
<path fill="#FFFFFF" d="M145.7,314.5c0,5.7,0,11.1,0,16.9c-6.9,0-13.8,0-20.8,0c0-5.7,0-11.2,0-16.9
	C131.8,314.5,138.5,314.5,145.7,314.5z"/>
<path fill="#FFFFFF" d="M284,314.7c0,5.7,0,11.1,0,16.8c-6.9,0-13.7,0-20.8,0c0-5.5,0-11,0-16.8C270,314.7,276.8,314.7,284,314.7z"
	/>
<path fill="#FFFFFF" d="M214.7,78.9c0,5.7,0,11.2,0,17c-6.9,0-13.6,0-20.5,0c0-5.6,0-11.1,0-17C201,78.9,207.8,78.9,214.7,78.9z"/>
<path fill="#FFFFFF" d="M194.1,314.5c7.1,0,13.7,0,20.5,0c0,5.7,0,11.2,0,17c-6.8,0-13.6,0-20.5,0
	C194.1,325.8,194.1,320.3,194.1,314.5z"/>
<path fill="#FFFFFF" d="M76.6,78.8c0,5.8,0,11.2,0,16.9c-6.8,0-13.5,0-20.6,0c0-5.5,0-11.1,0-16.9C62.8,78.8,69.5,78.8,76.6,78.8z"
	/>
<path fill="#FFFFFF" d="M352.9,95.9c-6.9,0-13.5,0-20.5,0c0-5.7,0-11.3,0-17.1c6.8,0,13.5,0,20.5,0C352.9,84.5,352.9,90,352.9,95.9z
	"/>
<path fill="#FFFFFF" d="M76.6,314.6c0,5.7,0,11.2,0,16.9c-6.9,0-13.7,0-20.7,0c0-5.6,0-11.1,0-16.9
	C62.8,314.6,69.5,314.6,76.6,314.6z"/>
</svg>
