<?xml version="1.0" encoding="utf-8"?>
<!-- Generator: Adobe Illustrator 27.0.1, SVG Export Plug-In . SVG Version: 6.00 Build 0)  -->
<svg version="1.1" id="Layer_1" xmlns="http://www.w3.org/2000/svg" xmlns:xlink="http://www.w3.org/1999/xlink" x="0px" y="0px"
	 width="12px" height="12px" viewBox="0 0 409.6 409.6" enable-background="new 0 0 409.6 409.6" xml:space="preserve">
<path d="M106.5,409.2c-15.5-6.3-14.4-20.7-4.3-30.7c57.3-56.4,114-113.3,170.9-170c1.1-1.1,2.5-2,4.5-4.7c-1.4-0.8-3-1.3-4.1-2.4
	C216,144.1,158.5,86.8,101,29.5c-5.2-5.2-8.1-10.8-5.8-18.2c3.4-10.5,16-14.3,24.7-7.5c1.1,0.9,2.2,1.9,3.2,3
	C185,68.4,246.8,130,308.5,191.8c2.8,2.9,5.1,6.9,6.2,10.7c1.4,4.6-0.4,9.2-3.7,12.9c-1.1,1.2-2.2,2.3-3.3,3.4
	C246.9,279.4,186.2,340,125.3,400.5c-3.4,3.4-7.7,5.8-11.6,8.7C111.3,409.2,108.9,409.2,106.5,409.2z"/>
</svg>
