<?xml version="1.0" encoding="utf-8"?>
<!-- Generator: Adobe Illustrator 26.3.1, SVG Export Plug-In . SVG Version: 6.00 Build 0)  -->
<svg version="1.1" id="Layer_1" xmlns="http://www.w3.org/2000/svg" xmlns:xlink="http://www.w3.org/1999/xlink" x="0px" y="0px"
	 width="24px" height="24px" viewBox="0 0 409.6 409.6" enable-background="new 0 0 409.6 409.6" xml:space="preserve">
<path d="M410.2,206.4c-2.1,6.5-7.1,7.8-13.1,7.8c-119.2-0.1-238.4,0-357.6,0c-1.7,0-3.3,0-6,0c1.7,1.9,2.7,3,3.8,4.1
	c23.6,23.6,47.2,47.3,70.8,70.9c0.8,0.8,1.5,1.5,2.2,2.3c3.8,4.3,3.9,9.5,0.3,13.3c-3.5,3.7-8.9,3.6-13.2-0.1
	c-0.9-0.8-1.7-1.6-2.6-2.5c-29.5-29.4-58.9-58.9-88.4-88.3c-6.6-6.6-6.6-11.1-0.1-17.6c29.9-29.9,59.8-59.8,89.8-89.8
	c4.8-4.8,9.9-5.4,14.1-1.7c3.5,3.1,4.2,8.1,1.5,11.9c-1.1,1.6-2.6,3.1-4,4.5c-23.5,23.5-47,47-70.5,70.6c-1,1-2,2.1-3.7,3.9
	c2.6,0,4.2,0,5.9,0c119.3,0,238.7,0,358,0c5.8,0,10.4,1.4,12.9,7.1C410.2,203.8,410.2,205.1,410.2,206.4z"/>
</svg>
