<?xml version="1.0" encoding="utf-8"?>
<!-- Generator: Adobe Illustrator 26.3.1, SVG Export Plug-In . SVG Version: 6.00 Build 0)  -->
<svg version="1.1" id="Layer_1" xmlns="http://www.w3.org/2000/svg" xmlns:xlink="http://www.w3.org/1999/xlink" x="0px" y="0px"
	 width="24px" height="24px" viewBox="0 0 384 384" enable-background="new 0 0 384 384" xml:space="preserve">
<path d="M192,207.8c0.6-0.7,0.9-1.1,1.3-1.5c12.8-12.8,25.7-25.7,38.6-38.5c0.8-0.8,1.9-1.4,3-1.7c1.7-0.5,3.5,0.5,4.3,2.1
	c0.9,1.5,0.8,3.4-0.4,4.8c-0.3,0.4-0.7,0.8-1.1,1.2c-14,14-27.9,27.9-41.9,41.9c-2.7,2.7-4.9,2.7-7.6,0
	c-14.1-14.1-28.2-28.2-42.3-42.3c-1.3-1.3-2.1-2.8-1.5-4.7c0.9-2.9,4.3-4.1,6.8-2.2c0.4,0.3,0.8,0.7,1.2,1.1
	c12.8,12.8,25.6,25.6,38.5,38.5C191.2,206.8,191.5,207.2,192,207.8z"/>
</svg>
