<?xml version="1.0" encoding="utf-8"?>
<!-- Generator: Adobe Illustrator 27.0.1, SVG Export Plug-In . SVG Version: 6.00 Build 0)  -->
<svg version="1.1" id="Layer_1" xmlns="http://www.w3.org/2000/svg" xmlns:xlink="http://www.w3.org/1999/xlink" x="0px" y="0px"
	 width="384px" height="384px" viewBox="0 0 384 384" enable-background="new 0 0 384 384" xml:space="preserve">
<path d="M191.7,208.2c-1.4,1.8-2.2,3.1-3.2,4.2C141,260,93.4,307.5,45.9,355.1c-3.7,3.7-7.7,6-13.1,4.5c-8.5-2.4-11.6-12.4-6-19.2
	c0.9-1.1,1.9-2,2.9-3C77,290,124.4,242.6,171.8,195.3c1-1,2.2-1.7,3.2-2.5c0.2-0.6,0.4-1.1,0.7-1.7c-1.3-0.8-2.8-1.3-3.9-2.3
	c-47.5-47.4-95-94.9-142.3-142.5c-2.3-2.3-4.1-5.8-4.6-9c-0.9-5,1.7-8.9,6.3-11.3c4.6-2.3,9-1.7,13,1.4c1.1,0.8,2,1.9,3,2.9
	c47.2,47.2,94.4,94.4,141.6,141.6c1,1,1.7,2.2,4.2,3.9c0.7-1.3,1.3-2.9,2.3-3.9c47.6-47.7,95.3-95.3,142.9-143c3.8-3.8,8-6,13.4-4.3
	c8.1,2.5,11.1,12.1,5.9,18.8c-1,1.3-2.2,2.4-3.4,3.5c-47.2,47.2-94.4,94.4-141.6,141.6c-1.1,1.1-2.2,2-3.6,3.2
	c1.3,1.4,2.3,2.4,3.3,3.5c47.6,47.5,95.2,95.1,142.6,142.7c2.3,2.3,4.2,5.4,5,8.5c1.3,4.7-1.5,9.6-5.7,12c-4.2,2.4-9.5,2.1-13.4-1
	c-1.2-0.9-2.2-2-3.3-3.1c-47.3-47.3-94.6-94.6-141.9-141.8C194.4,211.5,193.5,210.3,191.7,208.2z"/>
</svg>
