<?xml version="1.0" encoding="utf-8"?>
<!-- Generator: Adobe Illustrator 26.3.1, SVG Export Plug-In . SVG Version: 6.00 Build 0)  -->
<svg version="1.1" id="Layer_1" xmlns="http://www.w3.org/2000/svg" xmlns:xlink="http://www.w3.org/1999/xlink" x="0px" y="0px"
	 width="384px" height="384px" viewBox="0 0 384 384" enable-background="new 0 0 384 384" xml:space="preserve">
<path d="M100.7,119c-14.4-4.6-28.4-9.2-42.4-13.7c-12.9-4.2-25.9-8.4-38.8-12.5c-3.2-1-5.9-2.5-5.9-6.3c0.1-3.6,2.6-5,5.7-6
	c56.5-18.2,113-36.6,169.5-54.7c2-0.6,4.5-0.6,6.5,0c56.5,18.2,113,36.5,169.5,54.7c3.1,1,5.6,2.5,5.6,6.1c0,3.6-2.6,5.1-5.6,6.1
	c-5,1.6-10,3.3-15,4.8c-2,0.6-3,1.5-3,3.9c0.2,7.7,0,15.5,0.2,23.2c0,1.2,1.2,2.9,2.3,3.4c6.4,2.9,9.8,7.8,10.7,14.7
	c0.7,5.3,1.7,10.6,2.6,15.9c0.8,5-1.4,7.8-6.3,7.9c-10.1,0.1-20.2,0.1-30.4,0c-4.7,0-7-2.6-6.4-7.2c0.9-6.6,1.8-13.1,3.3-19.6
	c1.5-6.5,6-10.4,12.4-12.4c0-8.3,0-16.4,0-25.2c-17.4,5.6-34.5,11.2-52,16.9c2,8.2,3.9,16.2,5.8,24.1c3,12.1,5.9,24.2,8.9,36.4
	c1.2,4.8,0.1,6.8-4.6,8.7c-41.4,16.2-84.2,22.7-128.6,18.1c-25.5-2.6-50.1-8.6-74-18.1c-5.1-2-6-3.8-4.7-9.2
	c4.6-19,9.3-38.1,13.9-57.1C100.3,121.1,100.4,120.3,100.7,119z M345,87.6c0-0.4,0-0.8,0.1-1.2c-0.5-0.2-0.9-0.3-1.4-0.5
	C294,69.8,244.2,53.6,194.5,37.6c-1.6-0.5-3.7-0.3-5.4,0.2c-36.8,11.8-73.6,23.8-110.4,35.7c-13.3,4.3-26.5,8.6-40.4,13.1
	C40,87.2,41,87.7,42,88c49.1,15.9,98.3,31.7,147.5,47.5c1.7,0.6,4,0.4,5.7-0.2c36.1-11.6,72.2-23.3,108.3-34.9
	c1-0.3,1.9-0.7,3.8-1.5c-2.1-0.3-3.2-0.5-4.3-0.6c-24.5-1.3-48.9-2.6-73.4-4c-12.6-0.7-25.2-1.4-37.8-2.2c-3.5-0.2-5.7-2.8-5.5-5.9
	c0.1-3.1,2.6-5.4,6-5.5c2.2,0,4.5,0.1,6.7,0.3c20.8,1.2,41.7,2.3,62.5,3.5c24.6,1.4,49.2,2.8,73.7,4C338.5,88.8,341.8,88,345,87.6z
	 M280.1,155c-2.7-10.9-5.2-21.4-7.8-32.1c-1.5,0.5-2.7,0.8-3.8,1.2c-24,7.8-47.9,15.6-71.9,23.2c-2.4,0.8-5.5,1-7.9,0.3
	c-22.7-7.1-45.4-14.6-68-21.9c-2.9-0.9-5.8-1.8-8.9-2.8c-2.6,11-5.1,21.5-7.6,32.2C163,175.5,221.4,175.4,280.1,155z M282.8,165.9
	c-29.7,10.4-59.8,15.7-90.8,15.7c-31,0-61.1-5.3-90.7-15.5c-1.1,4.4-2.1,8.4-3.2,12.9c62.8,23.3,125.3,23.3,187.9,0
	C284.9,174.4,283.9,170.5,282.8,165.9z M350.4,154.9c-0.8-4.2-1.4-8.3-2.3-12.3c-0.6-2.8-2.5-4.1-5.5-4c-3.3,0.1-7.2-0.8-8.4,3.6
	c-1.1,4-1.5,8.2-2.3,12.6C338.4,154.9,344.2,154.9,350.4,154.9z M205.4,323c-2.5,9.4-4.9,18.6-7.3,27.7c-0.3,1-0.5,1.9-0.8,2.9
	c-1.7,5.5-6.7,6.7-10.6,2.5c-5.8-6.4-11.5-12.9-17-19.5c-1.8-2.2-3.3-2.9-6.2-1.7c-7.6,3.1-15.5,5.6-23.2,8.4
	c-2.8,1-5.6,1.8-8.1-0.6c-2.3-2.2-1.9-4.9-1.1-7.7c2.6-9.6,5.1-19.3,7.7-29.5c-4.8-1.2-9.4-2.4-14.1-3.6c-28.3-7.4-56.5-15-84.8-22
	c-14.3-3.5-22.7-12-25.3-26.2c-3.8-20.5,1.4-38.5,16.5-53c8.2-7.8,17.9-10,29.1-7c80.2,21,160.4,41.8,240.6,62.6
	c14,3.6,21.3,12.8,23.7,26.4c3.2,17.6-0.9,33.5-12,47.5c-5.3,6.6-11.9,11.6-20.5,12.7c-3.9,0.5-8,0.2-11.8-0.7
	c-23.8-6-47.6-12.3-71.4-18.4C207.9,323.5,206.8,323.3,205.4,323z M206.1,311c1.2,0.4,1.9,0.7,2.6,0.9c24.3,6.3,48.6,12.5,72.8,19
	c7.9,2.2,14.5,0.3,19.8-5.4c12-12.9,15.9-27.9,11-45c-1.9-6.7-6.4-10.9-13.1-12.6c-24.5-6.4-49-12.7-73.6-19
	c-0.9-0.2-1.8-0.3-2.9-0.5C226.8,271.8,221.8,292.6,206.1,311z M76.2,209.7c7.6,24.7,2,45.4-16.3,63.1c1.4,0.4,2.4,0.7,3.5,1
	c22.1,5.7,44.3,11.3,66.3,17.4c6,1.7,10.2,0,14-4.2c5.2-5.7,8.4-12.4,10.6-19.6c2.9-9.8,4.5-19.7,1.9-29.9c-1.3-5.1-4-8.4-9.7-9.6
	c-10.2-2.2-20.3-5.2-30.5-7.8C102.9,216.6,89.9,213.3,76.2,209.7z M150.7,296.7c11.3,2.9,22.4,5.3,33.2,8.8
	c7.5,2.4,12.2-0.3,16.5-5.7c6-7.6,9.3-16.5,11.1-25.9c1.5-7.9,1.7-15.9-0.8-23.7c-1.2-3.9-3.7-6.4-8-7.5
	c-10.8-2.5-21.5-5.5-32.3-8.3c-1-0.3-2-0.3-3.3-0.5C171.7,257.6,166.2,278.3,150.7,296.7z M188.8,341c1.9-7.3,3.7-14,5.5-21
	c-14.9-3.9-29.4-7.7-44.1-11.5c-1,3.9-2,7.2-2.8,10.6c-0.8,3.3-1.6,6.6-2.5,10.1c0.8-0.1,1.1-0.1,1.3-0.2c6.2-2.2,12.5-4.4,18.7-6.6
	c5.2-1.8,6.2-1.6,9.8,2.5C179.2,330,183.8,335.3,188.8,341z M64.3,213c-0.5-1.2-0.7-1.7-1-2.2c-5.1-7.9-14.3-9.1-22.5-3
	c-14.1,10.4-20.2,34.8-12.8,50.6c4.3,9.2,13.6,12.1,22.2,6.7c5-3.1,8.6-7.4,11.4-12.6c-5.1-1.8-5.1-1.8-7.9,2.1
	c-4.5,6.5-11,7.8-17.6,3.6c-3.8-2.4-6.6-5.8-7.6-10.3c-2.6-11.5,0.3-21.6,8.3-30.1C45.1,209.2,52.8,207.8,64.3,213z M65.1,241
	c1.7-6.7-2.3-16.1-8.1-18.5c-2.1-0.9-5.3-0.8-7.4,0.2c-7.2,3.3-12,14.1-9.9,21.6c0.5,1.8,2,3.3,3.7,5.9c1.4-3.2,2.4-5,3.1-6.9
	c1.6-4.1,3.7-5.4,8.1-4.4C58.2,239.6,61.7,240.3,65.1,241z"/>
</svg>
