<?xml version="1.0" encoding="utf-8"?>
<!-- Generator: Adobe Illustrator 26.3.1, SVG Export Plug-In . SVG Version: 6.00 Build 0)  -->
<svg version="1.1" id="Layer_1" xmlns="http://www.w3.org/2000/svg" xmlns:xlink="http://www.w3.org/1999/xlink" x="0px" y="0px"
	 width="125.9px" height="125.9px" viewBox="0 0 125.9 125.9" enable-background="new 0 0 125.9 125.9" xml:space="preserve">
<path d="M34.5,60c0-0.6,0-1.1,0-1.5c0-5.3,0-10.6,0-15.8c0-4.2,2.5-6.8,6.8-6.8c0.6,0,1.3,0,2,0c0-1.4,0-2.7,0-4
	c-0.1-4.6,0.2-9.1,2-13.4c4.2-10,11.6-16.3,22.3-18c11.1-1.8,20.4,2,27.5,10.9c4,5,5.9,10.9,6,17.3c0,2.4,0,4.8,0,7.3
	c0.9,0,1.7,0,2.5,0c3.8,0.1,6.4,2.7,6.4,6.5c0,15.1,0,30.2,0,45.3c0,3.8-2.6,6.4-6.4,6.4c-1.9,0-3.8,0-5.8,0c0.3-1.3,0.6-2.4,1-3.6
	c1.6,0,3.1,0,4.7,0c1.9,0,2.9-1,2.9-2.9c0-15.1,0-30.2,0-45.2c0-1.9-0.9-2.8-2.9-2.8c-20.8,0-41.6,0-62.4,0c-2,0-2.9,0.9-2.9,2.9
	c0,5,0,10,0,15c0,0.8-0.2,1.3-1.1,1.5C36.3,59.3,35.5,59.6,34.5,60z M87.2,35.9c0-2.5,0-4.8,0-7.1c-0.1-6.8-4.6-12.6-11.1-14.4
	c-6.5-1.7-13.2,1.1-16.8,6.8c-2.9,4.6-2,9.7-2.1,14.7C67.3,35.9,77.2,35.9,87.2,35.9z M97.3,35.9c0-3.3,0.2-6.4,0-9.6
	C96.1,11.9,81.9,1.2,67.7,4.1c-15,3.1-22.5,15.6-20.6,31.8c2.1,0,4.2,0,6.4,0c0-2.5,0-5,0-7.5c0.2-9.4,7.3-16.9,16.9-18.1
	c8.8-1.1,17.7,5.1,19.8,13.9c0.7,3.1,0.5,6.3,0.7,9.5c0,0.7,0,1.4,0,2.2C93.2,35.9,95.2,35.9,97.3,35.9z M56,115.1
	c-3.4-0.4-6.8-0.7-10.2-1.2c-0.8-0.1-1.2,0.1-1.7,0.7c-3.7,4.7-8.1,8.6-14,10.2c-2.3,0.7-4.7,0.8-7.1,1c-1.4,0.1-2.1-0.5-2.2-1.7
	c-0.1-1,0.5-1.8,1.6-2.2c4.1-1.3,6.7-4.1,8-8.1c1-3,0.1-5.1-2.5-7.1c-2.4-1.9-4.8-3.9-6.8-6.2c-7.2-8.7-7-19.6,0.3-28.2
	c4.8-5.6,11-9.1,17.9-11.3c13.2-4,26.2-3.5,38.9,2.2c5,2.2,9.4,5.4,12.8,9.7c6.8,8.5,6.8,18.9,0,27.3c-4.7,5.8-10.8,9.3-17.8,11.7
	C67.7,114.1,61.9,114.9,56,115.1z M31,120.6c0.4-0.2,0.8-0.3,1.2-0.5c4.3-2.1,7.6-5.3,10.3-9.1c0.7-1,1.4-1.3,2.6-1
	c8,1.7,16.1,1.6,24-0.4c7-1.8,13.4-4.8,18.5-10.1c6.9-7.3,7.2-17,0.6-24.6c-2.5-2.9-5.4-5.2-8.7-6.8c-14.4-7.1-29-7.4-43.7-1.4
	c-5.2,2.1-9.7,5.4-13,10.1C18.2,83,18.2,90,22.3,96.4c2,3.1,4.7,5.5,7.7,7.5c3.4,2.2,4.5,5.4,4,9.3C33.7,115.9,32.5,118.3,31,120.6z
	 M54.3,94.6c0,1.5,0.7,2.4,1.9,2.4c1.1,0,1.9-0.9,1.9-2.3c-0.1-3,1.4-5.1,3.4-7.1c0.9-0.8,1.8-1.6,2.6-2.5c1.4-1.6,2.2-3.4,2.2-5.6
	c-0.1-4.7-3.5-8.7-8-9.8c-4.7-1.1-9.5,1.1-11.6,5.4c-0.7,1.4-0.9,3.1-1.1,4.7c-0.1,1,0.8,1.8,1.8,1.8c1.1,0,1.7-0.6,1.9-1.6
	c0.1-0.4,0.1-0.8,0.1-1.2c0.4-3,2.8-5.3,5.8-5.5c3-0.3,5.8,1.5,6.8,4.3c0.7,2,0.5,3.8-1.1,5.3c-0.7,0.7-1.4,1.3-2.1,2
	c-2.6,2.5-4.5,5.4-4.6,9.2C54.3,94.2,54.3,94.4,54.3,94.6z M58.4,102.3c0-1.2-1-2.3-2.2-2.3c-1.3,0-2.4,1-2.4,2.3
	c0,1.3,1,2.3,2.3,2.3C57.4,104.5,58.4,103.6,58.4,102.3z"/>
</svg>
