<?xml version="1.0" encoding="utf-8"?>
<!-- Generator: Adobe Illustrator 26.3.1, SVG Export Plug-In . SVG Version: 6.00 Build 0)  -->
<svg version="1.1" id="Layer_1" xmlns="http://www.w3.org/2000/svg" xmlns:xlink="http://www.w3.org/1999/xlink" x="0px" y="0px"
	 width="270.9px" height="262px" viewBox="0 0 270.9 262" enable-background="new 0 0 270.9 262" xml:space="preserve">
<g>
	<g transform="translate(189.849592, 282.504385)">
	</g>
</g>
<g>
	<g transform="translate(131.01376, 116.097814)">
	</g>
</g>
<g>
	<g transform="translate(241.898001, 114.682355)">
	</g>
</g>
<g>
	<g>
		<g>
			<defs>
				<rect id="SVGID_1_" x="117.8" y="55" width="34.7" height="48.9"/>
			</defs>
			<clipPath id="SVGID_00000142896539270536766780000008289551947890819003_">
				<use xlink:href="#SVGID_1_"  overflow="visible"/>
			</clipPath>
			<g clip-path="url(#SVGID_00000142896539270536766780000008289551947890819003_)">
				<path fill="#008037" d="M118.8,103.1v-48h33.5c0,0,0.4,22.5-8.1,31.5C135.6,95.7,118.8,103.1,118.8,103.1z"/>
			</g>
		</g>
	</g>
	<g>
		<g>
			<defs>
				<rect id="SVGID_00000160886717721050013230000006134453754186517648_" x="63" y="55.9" width="89.4" height="89.3"/>
			</defs>
			<clipPath id="SVGID_00000132078790898793284320000006131236140799042453_">
				<use xlink:href="#SVGID_00000160886717721050013230000006134453754186517648_"  overflow="visible"/>
			</clipPath>
			<g clip-path="url(#SVGID_00000132078790898793284320000006131236140799042453_)">
				<g>
					<g>
						<defs>
							<path id="SVGID_00000058560891186227808500000017035932774370707377_" d="M152.2,56.9c0,5.9-0.7,25.6-10.3,44.7
								c-3,6-7,12-12,17.5c-13.1,14.2-34,25.2-66.9,25.2v-33.5c24.3,0,42-3.7,54.9-9.2c4.6-2,8.6-4.2,12-6.5
								C150.2,81.3,152.2,62.7,152.2,56.9z"/>
						</defs>
						<clipPath id="SVGID_00000168823086104278359110000011334823032508024740_">
							<use xlink:href="#SVGID_00000058560891186227808500000017035932774370707377_"  overflow="visible"/>
						</clipPath>
						<g clip-path="url(#SVGID_00000168823086104278359110000011334823032508024740_)">
							
								<linearGradient id="SVGID_00000108282102532970620630000016048229298303381421_" gradientUnits="userSpaceOnUse" x1="267.175" y1="1220.1477" x2="507.8758" y2="1220.1477" gradientTransform="matrix(0.371 0 0 0.3712 -36.1219 -352.3188)">
								<stop  offset="0" style="stop-color:#C9E265"/>
								<stop  offset="3.125000e-02" style="stop-color:#C9E265"/>
								<stop  offset="4.687500e-02" style="stop-color:#C9E265"/>
								<stop  offset="5.468750e-02" style="stop-color:#C8E265"/>
								<stop  offset="6.250000e-02" style="stop-color:#C7E265"/>
								<stop  offset="7.031250e-02" style="stop-color:#C7E265"/>
								<stop  offset="7.812500e-02" style="stop-color:#C6E264"/>
								<stop  offset="8.593750e-02" style="stop-color:#C5E264"/>
								<stop  offset="9.375000e-02" style="stop-color:#C5E164"/>
								<stop  offset="0.1016" style="stop-color:#C4E164"/>
								<stop  offset="0.1094" style="stop-color:#C4E164"/>
								<stop  offset="0.1172" style="stop-color:#C3E164"/>
								<stop  offset="0.125" style="stop-color:#C2E164"/>
								<stop  offset="0.1328" style="stop-color:#C2E164"/>
								<stop  offset="0.1406" style="stop-color:#C1E164"/>
								<stop  offset="0.1484" style="stop-color:#C1E163"/>
								<stop  offset="0.1562" style="stop-color:#C0E163"/>
								<stop  offset="0.1641" style="stop-color:#BFE163"/>
								<stop  offset="0.1719" style="stop-color:#BFE163"/>
								<stop  offset="0.1797" style="stop-color:#BEE163"/>
								<stop  offset="0.1875" style="stop-color:#BDE163"/>
								<stop  offset="0.1953" style="stop-color:#BDE063"/>
								<stop  offset="0.2031" style="stop-color:#BCE063"/>
								<stop  offset="0.2109" style="stop-color:#BCE062"/>
								<stop  offset="0.2188" style="stop-color:#BBE062"/>
								<stop  offset="0.2266" style="stop-color:#BAE062"/>
								<stop  offset="0.2344" style="stop-color:#BAE062"/>
								<stop  offset="0.2422" style="stop-color:#B9E062"/>
								<stop  offset="0.25" style="stop-color:#B9E062"/>
								<stop  offset="0.2578" style="stop-color:#B8E062"/>
								<stop  offset="0.2656" style="stop-color:#B7E062"/>
								<stop  offset="0.2734" style="stop-color:#B7E062"/>
								<stop  offset="0.2812" style="stop-color:#B6E061"/>
								<stop  offset="0.2891" style="stop-color:#B6E061"/>
								<stop  offset="0.2969" style="stop-color:#B5E061"/>
								<stop  offset="0.3047" style="stop-color:#B4DF61"/>
								<stop  offset="0.3125" style="stop-color:#B4DF61"/>
								<stop  offset="0.3203" style="stop-color:#B3DF61"/>
								<stop  offset="0.3281" style="stop-color:#B2DF61"/>
								<stop  offset="0.3359" style="stop-color:#B2DF61"/>
								<stop  offset="0.3438" style="stop-color:#B1DF61"/>
								<stop  offset="0.3516" style="stop-color:#B1DF60"/>
								<stop  offset="0.3594" style="stop-color:#B0DF60"/>
								<stop  offset="0.3672" style="stop-color:#AFDF60"/>
								<stop  offset="0.375" style="stop-color:#AFDF60"/>
								<stop  offset="0.3828" style="stop-color:#AEDF60"/>
								<stop  offset="0.3906" style="stop-color:#AEDF60"/>
								<stop  offset="0.3984" style="stop-color:#ADDF60"/>
								<stop  offset="0.4062" style="stop-color:#ACDF60"/>
								<stop  offset="0.4141" style="stop-color:#ACDE60"/>
								<stop  offset="0.4219" style="stop-color:#ABDE5F"/>
								<stop  offset="0.4297" style="stop-color:#AADE5F"/>
								<stop  offset="0.4375" style="stop-color:#AADE5F"/>
								<stop  offset="0.4453" style="stop-color:#A9DE5F"/>
								<stop  offset="0.4531" style="stop-color:#A9DE5F"/>
								<stop  offset="0.4609" style="stop-color:#A8DE5F"/>
								<stop  offset="0.4688" style="stop-color:#A7DE5F"/>
								<stop  offset="0.4766" style="stop-color:#A7DE5F"/>
								<stop  offset="0.4844" style="stop-color:#A6DE5E"/>
								<stop  offset="0.4922" style="stop-color:#A6DE5E"/>
								<stop  offset="0.5" style="stop-color:#A5DE5E"/>
								<stop  offset="0.5078" style="stop-color:#A4DE5E"/>
								<stop  offset="0.5156" style="stop-color:#A4DD5E"/>
								<stop  offset="0.5234" style="stop-color:#A3DD5E"/>
								<stop  offset="0.5312" style="stop-color:#A2DD5E"/>
								<stop  offset="0.5391" style="stop-color:#A2DD5E"/>
								<stop  offset="0.5469" style="stop-color:#A1DD5E"/>
								<stop  offset="0.5547" style="stop-color:#A1DD5D"/>
								<stop  offset="0.5625" style="stop-color:#A0DD5D"/>
								<stop  offset="0.5703" style="stop-color:#9FDD5D"/>
								<stop  offset="0.5781" style="stop-color:#9FDD5D"/>
								<stop  offset="0.5859" style="stop-color:#9EDD5D"/>
								<stop  offset="0.5938" style="stop-color:#9EDD5D"/>
								<stop  offset="0.6016" style="stop-color:#9DDD5D"/>
								<stop  offset="0.6094" style="stop-color:#9CDD5D"/>
								<stop  offset="0.6172" style="stop-color:#9CDD5D"/>
								<stop  offset="0.625" style="stop-color:#9BDC5C"/>
								<stop  offset="0.6328" style="stop-color:#9ADC5C"/>
								<stop  offset="0.6406" style="stop-color:#9ADC5C"/>
								<stop  offset="0.6484" style="stop-color:#99DC5C"/>
								<stop  offset="0.6562" style="stop-color:#99DC5C"/>
								<stop  offset="0.6641" style="stop-color:#98DC5C"/>
								<stop  offset="0.6719" style="stop-color:#97DC5C"/>
								<stop  offset="0.6797" style="stop-color:#97DC5C"/>
								<stop  offset="0.6875" style="stop-color:#96DC5B"/>
								<stop  offset="0.6953" style="stop-color:#96DC5B"/>
								<stop  offset="0.7031" style="stop-color:#95DC5B"/>
								<stop  offset="0.7109" style="stop-color:#94DC5B"/>
								<stop  offset="0.7188" style="stop-color:#94DC5B"/>
								<stop  offset="0.7266" style="stop-color:#93DC5B"/>
								<stop  offset="0.7344" style="stop-color:#93DB5B"/>
								<stop  offset="0.7422" style="stop-color:#92DB5B"/>
								<stop  offset="0.75" style="stop-color:#91DB5B"/>
								<stop  offset="0.7578" style="stop-color:#91DB5A"/>
								<stop  offset="0.7656" style="stop-color:#90DB5A"/>
								<stop  offset="0.7734" style="stop-color:#8FDB5A"/>
								<stop  offset="0.7812" style="stop-color:#8FDB5A"/>
								<stop  offset="0.7891" style="stop-color:#8EDB5A"/>
								<stop  offset="0.7969" style="stop-color:#8EDB5A"/>
								<stop  offset="0.8047" style="stop-color:#8DDB5A"/>
								<stop  offset="0.8125" style="stop-color:#8CDB5A"/>
								<stop  offset="0.8203" style="stop-color:#8CDB5A"/>
								<stop  offset="0.8281" style="stop-color:#8BDB59"/>
								<stop  offset="0.8359" style="stop-color:#8BDA59"/>
								<stop  offset="0.8438" style="stop-color:#8ADA59"/>
								<stop  offset="0.8516" style="stop-color:#89DA59"/>
								<stop  offset="0.8594" style="stop-color:#89DA59"/>
								<stop  offset="0.8672" style="stop-color:#88DA59"/>
								<stop  offset="0.875" style="stop-color:#87DA59"/>
								<stop  offset="0.8828" style="stop-color:#87DA59"/>
								<stop  offset="0.8906" style="stop-color:#86DA58"/>
								<stop  offset="0.8984" style="stop-color:#86DA58"/>
								<stop  offset="0.9062" style="stop-color:#85DA58"/>
								<stop  offset="0.9141" style="stop-color:#84DA58"/>
								<stop  offset="0.9219" style="stop-color:#84DA58"/>
								<stop  offset="0.9297" style="stop-color:#83DA58"/>
								<stop  offset="0.9375" style="stop-color:#83DA58"/>
								<stop  offset="0.9453" style="stop-color:#82D958"/>
								<stop  offset="0.9531" style="stop-color:#81D958"/>
								<stop  offset="0.9609" style="stop-color:#81D957"/>
								<stop  offset="0.9688" style="stop-color:#80D957"/>
								<stop  offset="0.9766" style="stop-color:#7FD957"/>
								<stop  offset="0.9844" style="stop-color:#7FD957"/>
								<stop  offset="1" style="stop-color:#7ED957"/>
							</linearGradient>
							<path fill="url(#SVGID_00000108282102532970620630000016048229298303381421_)" d="M63,56.9v87.4h89.3V56.9H63z"/>
						</g>
					</g>
				</g>
			</g>
		</g>
	</g>
	<g>
		<g>
			<defs>
				<rect id="SVGID_00000094582867771435324860000012443916816183245484_" x="117.8" y="139.9" width="34.7" height="49.1"/>
			</defs>
			<clipPath id="SVGID_00000139290744268301078600000009580288189256067001_">
				<use xlink:href="#SVGID_00000094582867771435324860000012443916816183245484_"  overflow="visible"/>
			</clipPath>
			<g clip-path="url(#SVGID_00000139290744268301078600000009580288189256067001_)">
				<path fill="#008037" d="M152.3,140.9v48h-33.5c0,0-0.4-22.5,8.1-31.5S152.3,140.9,152.3,140.9z"/>
			</g>
		</g>
	</g>
	<g>
		<g>
			<defs>
				<rect id="SVGID_00000158720770841494196170000015317762503181311906_" x="117.8" y="98.6" width="90.3" height="89.3"/>
			</defs>
			<clipPath id="SVGID_00000104686450694247132510000005132982246890235269_">
				<use xlink:href="#SVGID_00000158720770841494196170000015317762503181311906_"  overflow="visible"/>
			</clipPath>
			<g clip-path="url(#SVGID_00000104686450694247132510000005132982246890235269_)">
				<g>
					<g>
						<defs>
							<path id="SVGID_00000002372888483550042430000016609029888524552376_" d="M118.8,187.1c0-5.9,0.7-25.6,10.3-44.7
								c3-6,7-12,12-17.5c13.1-14.2,34-25.2,66.9-25.2v33.5c-24.3,0-42,3.7-54.9,9.2c-4.6,2-8.6,4.2-12,6.5
								C120.8,162.7,118.8,181.3,118.8,187.1z"/>
						</defs>
						<clipPath id="SVGID_00000144328163215608619020000010095463311144685707_">
							<use xlink:href="#SVGID_00000002372888483550042430000016609029888524552376_"  overflow="visible"/>
						</clipPath>
						<g clip-path="url(#SVGID_00000144328163215608619020000010095463311144685707_)">
							
								<linearGradient id="SVGID_00000010280188725854722540000012556851196078925225_" gradientUnits="userSpaceOnUse" x1="-778.2863" y1="-1143.8966" x2="-537.5854" y2="-1143.8966" gradientTransform="matrix(-0.371 0 0 -0.3712 -80.7442 -281.2144)">
								<stop  offset="0" style="stop-color:#C9E265"/>
								<stop  offset="3.125000e-02" style="stop-color:#C9E265"/>
								<stop  offset="4.687500e-02" style="stop-color:#C9E265"/>
								<stop  offset="5.468750e-02" style="stop-color:#C8E265"/>
								<stop  offset="6.250000e-02" style="stop-color:#C7E265"/>
								<stop  offset="7.031250e-02" style="stop-color:#C7E265"/>
								<stop  offset="7.812500e-02" style="stop-color:#C6E264"/>
								<stop  offset="8.593750e-02" style="stop-color:#C5E264"/>
								<stop  offset="9.375000e-02" style="stop-color:#C5E164"/>
								<stop  offset="0.1016" style="stop-color:#C4E164"/>
								<stop  offset="0.1094" style="stop-color:#C4E164"/>
								<stop  offset="0.1172" style="stop-color:#C3E164"/>
								<stop  offset="0.125" style="stop-color:#C2E164"/>
								<stop  offset="0.1328" style="stop-color:#C2E164"/>
								<stop  offset="0.1406" style="stop-color:#C1E164"/>
								<stop  offset="0.1484" style="stop-color:#C1E163"/>
								<stop  offset="0.1562" style="stop-color:#C0E163"/>
								<stop  offset="0.1641" style="stop-color:#BFE163"/>
								<stop  offset="0.1719" style="stop-color:#BFE163"/>
								<stop  offset="0.1797" style="stop-color:#BEE163"/>
								<stop  offset="0.1875" style="stop-color:#BDE163"/>
								<stop  offset="0.1953" style="stop-color:#BDE063"/>
								<stop  offset="0.2031" style="stop-color:#BCE063"/>
								<stop  offset="0.2109" style="stop-color:#BCE062"/>
								<stop  offset="0.2188" style="stop-color:#BBE062"/>
								<stop  offset="0.2266" style="stop-color:#BAE062"/>
								<stop  offset="0.2344" style="stop-color:#BAE062"/>
								<stop  offset="0.2422" style="stop-color:#B9E062"/>
								<stop  offset="0.25" style="stop-color:#B9E062"/>
								<stop  offset="0.2578" style="stop-color:#B8E062"/>
								<stop  offset="0.2656" style="stop-color:#B7E062"/>
								<stop  offset="0.2734" style="stop-color:#B7E062"/>
								<stop  offset="0.2812" style="stop-color:#B6E061"/>
								<stop  offset="0.2891" style="stop-color:#B6E061"/>
								<stop  offset="0.2969" style="stop-color:#B5E061"/>
								<stop  offset="0.3047" style="stop-color:#B4DF61"/>
								<stop  offset="0.3125" style="stop-color:#B4DF61"/>
								<stop  offset="0.3203" style="stop-color:#B3DF61"/>
								<stop  offset="0.3281" style="stop-color:#B2DF61"/>
								<stop  offset="0.3359" style="stop-color:#B2DF61"/>
								<stop  offset="0.3438" style="stop-color:#B1DF61"/>
								<stop  offset="0.3516" style="stop-color:#B1DF60"/>
								<stop  offset="0.3594" style="stop-color:#B0DF60"/>
								<stop  offset="0.3672" style="stop-color:#AFDF60"/>
								<stop  offset="0.375" style="stop-color:#AFDF60"/>
								<stop  offset="0.3828" style="stop-color:#AEDF60"/>
								<stop  offset="0.3906" style="stop-color:#AEDF60"/>
								<stop  offset="0.3984" style="stop-color:#ADDF60"/>
								<stop  offset="0.4062" style="stop-color:#ACDF60"/>
								<stop  offset="0.4141" style="stop-color:#ACDE60"/>
								<stop  offset="0.4219" style="stop-color:#ABDE5F"/>
								<stop  offset="0.4297" style="stop-color:#AADE5F"/>
								<stop  offset="0.4375" style="stop-color:#AADE5F"/>
								<stop  offset="0.4453" style="stop-color:#A9DE5F"/>
								<stop  offset="0.4531" style="stop-color:#A9DE5F"/>
								<stop  offset="0.4609" style="stop-color:#A8DE5F"/>
								<stop  offset="0.4688" style="stop-color:#A7DE5F"/>
								<stop  offset="0.4766" style="stop-color:#A7DE5F"/>
								<stop  offset="0.4844" style="stop-color:#A6DE5E"/>
								<stop  offset="0.4922" style="stop-color:#A6DE5E"/>
								<stop  offset="0.5" style="stop-color:#A5DE5E"/>
								<stop  offset="0.5078" style="stop-color:#A4DE5E"/>
								<stop  offset="0.5156" style="stop-color:#A4DD5E"/>
								<stop  offset="0.5234" style="stop-color:#A3DD5E"/>
								<stop  offset="0.5312" style="stop-color:#A2DD5E"/>
								<stop  offset="0.5391" style="stop-color:#A2DD5E"/>
								<stop  offset="0.5469" style="stop-color:#A1DD5E"/>
								<stop  offset="0.5547" style="stop-color:#A1DD5D"/>
								<stop  offset="0.5625" style="stop-color:#A0DD5D"/>
								<stop  offset="0.5703" style="stop-color:#9FDD5D"/>
								<stop  offset="0.5781" style="stop-color:#9FDD5D"/>
								<stop  offset="0.5859" style="stop-color:#9EDD5D"/>
								<stop  offset="0.5938" style="stop-color:#9EDD5D"/>
								<stop  offset="0.6016" style="stop-color:#9DDD5D"/>
								<stop  offset="0.6094" style="stop-color:#9CDD5D"/>
								<stop  offset="0.6172" style="stop-color:#9CDD5D"/>
								<stop  offset="0.625" style="stop-color:#9BDC5C"/>
								<stop  offset="0.6328" style="stop-color:#9ADC5C"/>
								<stop  offset="0.6406" style="stop-color:#9ADC5C"/>
								<stop  offset="0.6484" style="stop-color:#99DC5C"/>
								<stop  offset="0.6562" style="stop-color:#99DC5C"/>
								<stop  offset="0.6641" style="stop-color:#98DC5C"/>
								<stop  offset="0.6719" style="stop-color:#97DC5C"/>
								<stop  offset="0.6797" style="stop-color:#97DC5C"/>
								<stop  offset="0.6875" style="stop-color:#96DC5B"/>
								<stop  offset="0.6953" style="stop-color:#96DC5B"/>
								<stop  offset="0.7031" style="stop-color:#95DC5B"/>
								<stop  offset="0.7109" style="stop-color:#94DC5B"/>
								<stop  offset="0.7188" style="stop-color:#94DC5B"/>
								<stop  offset="0.7266" style="stop-color:#93DC5B"/>
								<stop  offset="0.7344" style="stop-color:#93DB5B"/>
								<stop  offset="0.7422" style="stop-color:#92DB5B"/>
								<stop  offset="0.75" style="stop-color:#91DB5B"/>
								<stop  offset="0.7578" style="stop-color:#91DB5A"/>
								<stop  offset="0.7656" style="stop-color:#90DB5A"/>
								<stop  offset="0.7734" style="stop-color:#8FDB5A"/>
								<stop  offset="0.7812" style="stop-color:#8FDB5A"/>
								<stop  offset="0.7891" style="stop-color:#8EDB5A"/>
								<stop  offset="0.7969" style="stop-color:#8EDB5A"/>
								<stop  offset="0.8047" style="stop-color:#8DDB5A"/>
								<stop  offset="0.8125" style="stop-color:#8CDB5A"/>
								<stop  offset="0.8203" style="stop-color:#8CDB5A"/>
								<stop  offset="0.8281" style="stop-color:#8BDB59"/>
								<stop  offset="0.8359" style="stop-color:#8BDA59"/>
								<stop  offset="0.8438" style="stop-color:#8ADA59"/>
								<stop  offset="0.8516" style="stop-color:#89DA59"/>
								<stop  offset="0.8594" style="stop-color:#89DA59"/>
								<stop  offset="0.8672" style="stop-color:#88DA59"/>
								<stop  offset="0.875" style="stop-color:#87DA59"/>
								<stop  offset="0.8828" style="stop-color:#87DA59"/>
								<stop  offset="0.8906" style="stop-color:#86DA58"/>
								<stop  offset="0.8984" style="stop-color:#86DA58"/>
								<stop  offset="0.9062" style="stop-color:#85DA58"/>
								<stop  offset="0.9141" style="stop-color:#84DA58"/>
								<stop  offset="0.9219" style="stop-color:#84DA58"/>
								<stop  offset="0.9297" style="stop-color:#83DA58"/>
								<stop  offset="0.9375" style="stop-color:#83DA58"/>
								<stop  offset="0.9453" style="stop-color:#82D958"/>
								<stop  offset="0.9531" style="stop-color:#81D958"/>
								<stop  offset="0.9609" style="stop-color:#81D957"/>
								<stop  offset="0.9688" style="stop-color:#80D957"/>
								<stop  offset="0.9766" style="stop-color:#7FD957"/>
								<stop  offset="0.9844" style="stop-color:#7FD957"/>
								<stop  offset="1" style="stop-color:#7ED957"/>
							</linearGradient>
							<path fill="url(#SVGID_00000010280188725854722540000012556851196078925225_)" d="M208,187.1V99.7h-89.3v87.4H208z"/>
						</g>
					</g>
				</g>
			</g>
		</g>
	</g>
	<g>
		<g transform="translate(103.46041, 263.625071)">
			<g>
				<path fill="#008037" d="M-52-26.9v-18.8L-61.3-30H-63l-9.3-15.6v18.7h-3.5v-25.8h3L-62-34.6l10.6-18.1h3v25.8
					C-48.4-26.9-52-26.9-52-26.9z"/>
			</g>
		</g>
	</g>
	<g>
		<g transform="translate(131.701485, 263.625071)">
			<g>
				<path fill="#008037" d="M-47.8-30.1v3.2h-18.7v-25.8h18.2v3.2h-14.5v7.9h12.9v3.1h-12.9v8.3L-47.8-30.1L-47.8-30.1z"/>
			</g>
		</g>
	</g>
	<g>
		<g transform="translate(152.067207, 263.625071)">
			<g>
				<path fill="#008037" d="M-59.7-52.6h10.9c2.7,0,5.1,0.5,7.2,1.6c2.1,1.1,3.8,2.6,4.9,4.5c1.2,2,1.8,4.2,1.8,6.7
					s-0.6,4.8-1.8,6.7c-1.2,1.9-2.8,3.5-4.9,4.5c-2.1,1.1-4.5,1.6-7.2,1.6h-10.9C-59.7-27-59.7-52.6-59.7-52.6z M-49-30.1
					c2.1,0,3.9-0.4,5.5-1.2s2.8-2,3.7-3.4c0.9-1.5,1.3-3.1,1.3-5.1s-0.4-3.6-1.3-5.1c-0.8-1.5-2.1-2.6-3.7-3.4
					c-1.6-0.8-3.4-1.2-5.5-1.2h-7v19.4H-49z"/>
			</g>
		</g>
	</g>
	<g>
		<g transform="translate(176.743643, 263.625071)">
			<g>
				<path fill="#008037" d="M-51.5-52.6h3.7v25.8h-3.7V-52.6z"/>
			</g>
		</g>
	</g>
	<g>
		<g transform="translate(187.161542, 263.625071)">
			<g>
				<path fill="#008037" d="M-36.5-26.6c-2.6,0-4.9-0.6-7-1.7s-3.7-2.7-4.9-4.7s-1.8-4.3-1.8-6.8s0.6-4.8,1.8-6.8s2.8-3.6,4.9-4.7
					c2.1-1.1,4.4-1.7,7-1.7c2,0,3.9,0.3,5.5,1c1.7,0.7,3.1,1.7,4.3,3l-2.4,2.3c-1.9-2-4.4-3.1-7.3-3.1c-1.9,0-3.7,0.4-5.2,1.3
					c-1.5,0.9-2.8,2.1-3.6,3.6c-0.9,1.5-1.3,3.2-1.3,5.1c0,1.9,0.4,3.6,1.3,5.1c0.9,1.5,2.1,2.7,3.6,3.6c1.6,0.9,3.3,1.3,5.2,1.3
					c2.9,0,5.3-1,7.3-3.1l2.4,2.3c-1.2,1.3-2.6,2.3-4.3,3C-32.6-26.9-34.5-26.6-36.5-26.6z"/>
			</g>
		</g>
	</g>
	<g>
		<g transform="translate(208.991798, 263.625071)">
			<g>
				<path fill="#008037" d="M-24.3-33.3H-38l-2.9,6.5h-3.8L-33-52.6h3.6l11.7,25.8h-3.9L-24.3-33.3z M-25.6-36.3l-5.6-12.6
					l-5.6,12.6C-36.8-36.3-25.6-36.3-25.6-36.3z"/>
			</g>
		</g>
	</g>
	<g>
		<g transform="translate(231.070757, 263.625071)">
			<g>
				<path fill="#008037" d="M-16.1-26.9l-5.6-7.9c-0.7,0-1.2,0.1-1.6,0.1h-6.4v7.9h-3.7v-25.8h10.1c3.3,0,6,0.8,7.9,2.4
					c1.9,1.6,2.9,3.8,2.9,6.6c0,2-0.5,3.7-1.5,5.1c-1,1.4-2.4,2.4-4.2,3l6.1,8.7h-4V-26.9z M-23.4-37.8c2.3,0,4.1-0.5,5.3-1.5
					s1.9-2.5,1.9-4.3c0-1.9-0.6-3.3-1.9-4.3c-1.2-1-3-1.5-5.3-1.5h-6.2v11.6C-29.6-37.8-23.4-37.8-23.4-37.8z"/>
			</g>
		</g>
	</g>
	<g>
		<g transform="translate(253.011552, 263.625071)">
			<g>
				<path fill="#008037" d="M-7.3-30.1v3.2H-26v-25.8h18.2v3.2h-14.5v7.9h12.9v3.1h-12.9v8.3L-7.3-30.1L-7.3-30.1z"/>
			</g>
		</g>
	</g>
	<g>
		<g transform="translate(120.140234, 282.504385)">
			<g>
				<path fill="#008037" d="M-63.6-20.6v-7.1l-3.5,6h-0.6l-3.6-5.9v7.1h-1.3v-9.8h1.1l4.1,6.9l4-6.9h1.1v9.8h-1.3V-20.6z"/>
			</g>
		</g>
	</g>
	<g>
		<g transform="translate(132.914358, 282.504385)">
			<g>
				<path fill="#008037" d="M-61.3-21.8v1.2h-7.1v-9.8h6.9v1.2H-67v3h4.9v1.2H-67v3.2C-67-21.8-61.3-21.8-61.3-21.8z"/>
			</g>
		</g>
	</g>
	<g>
		<g transform="translate(142.692635, 282.504385)">
			<g>
				<path fill="#008037" d="M-65.2-30.4h4.1c1,0,2,0.2,2.8,0.6s1.4,1,1.9,1.7c0.4,0.7,0.7,1.6,0.7,2.5c0,1-0.2,1.8-0.7,2.6
					c-0.4,0.7-1.1,1.3-1.9,1.7c-0.8,0.4-1.7,0.6-2.8,0.6h-4.1V-30.4z M-61.2-21.8c0.8,0,1.5-0.2,2.1-0.5s1.1-0.7,1.4-1.3
					c0.3-0.6,0.5-1.2,0.5-1.9c0-0.7-0.2-1.4-0.5-1.9c-0.3-0.6-0.8-1-1.4-1.3c-0.6-0.3-1.3-0.5-2.1-0.5h-2.6v7.4
					C-63.8-21.8-61.2-21.8-61.2-21.8z"/>
			</g>
		</g>
	</g>
	<g>
		<g transform="translate(154.110748, 282.504385)">
			<g>
				<path fill="#008037" d="M-61.4-30.4h1.4v9.8h-1.4V-30.4z"/>
			</g>
		</g>
	</g>
	<g>
		<g transform="translate(160.104797, 282.504385)">
			<g>
				<path fill="#008037" d="M-55-20.5c-1,0-1.9-0.2-2.6-0.6c-0.8-0.4-1.4-1-1.9-1.8c-0.4-0.8-0.7-1.6-0.7-2.6c0-0.9,0.2-1.8,0.7-2.6
					c0.5-0.8,1.1-1.4,1.9-1.8c0.8-0.4,1.7-0.6,2.7-0.6c0.8,0,1.5,0.1,2.1,0.4c0.6,0.2,1.2,0.6,1.6,1.1l-0.9,0.9
					c-0.7-0.8-1.7-1.2-2.8-1.2c-0.7,0-1.4,0.2-2,0.5s-1,0.8-1.4,1.4c-0.3,0.6-0.5,1.2-0.5,1.9c0,0.7,0.2,1.4,0.5,1.9
					c0.3,0.6,0.8,1,1.4,1.4c0.6,0.3,1.3,0.5,2,0.5c1.1,0,2-0.4,2.8-1.2l0.9,0.9c-0.4,0.5-1,0.9-1.6,1.2
					C-53.5-20.6-54.3-20.5-55-20.5z"/>
			</g>
		</g>
	</g>
	<g>
		<g transform="translate(170.440196, 282.504385)">
			<g>
				<path fill="#008037" d="M-49.7-23h-5.2l-1.1,2.5h-1.5l4.5-9.8h1.4l4.5,9.8h-1.5L-49.7-23z M-50.2-24.1l-2.1-4.8l-2.1,4.8
					C-54.4-24.1-50.2-24.1-50.2-24.1z"/>
			</g>
		</g>
	</g>
	<g>
		<g transform="translate(180.870203, 282.504385)">
			<g>
				<path fill="#008037" d="M-52.5-30.4h1.4v8.6h5.3v1.2h-6.7V-30.4z"/>
			</g>
		</g>
	</g>
	<g>
		<g transform="translate(195.412656, 282.504385)">
			<g>
				<path fill="#008037" d="M-43.3-20.5c-1,0-1.9-0.2-2.6-0.6c-0.8-0.4-1.4-1-1.9-1.8c-0.4-0.8-0.7-1.6-0.7-2.6
					c0-0.9,0.2-1.8,0.7-2.6c0.5-0.8,1.1-1.4,1.9-1.8c0.8-0.4,1.7-0.6,2.7-0.6c0.8,0,1.5,0.1,2.1,0.4c0.6,0.2,1.2,0.6,1.6,1.1
					l-0.9,0.9c-0.7-0.8-1.7-1.2-2.8-1.2c-0.7,0-1.4,0.2-2,0.5s-1,0.8-1.4,1.4c-0.3,0.6-0.5,1.2-0.5,1.9c0,0.7,0.2,1.4,0.5,1.9
					c0.3,0.6,0.8,1,1.4,1.4c0.6,0.3,1.3,0.5,2,0.5c1.1,0,2-0.4,2.8-1.2l0.9,0.9c-0.4,0.5-1,0.9-1.6,1.2
					C-41.8-20.6-42.5-20.5-43.3-20.5z"/>
			</g>
		</g>
	</g>
	<g>
		<g transform="translate(205.748055, 282.504385)">
			<g>
				<path fill="#008037" d="M-44.2-30.4h1.4v8.6h5.3v1.2h-6.7V-30.4z"/>
			</g>
		</g>
	</g>
	<g>
		<g transform="translate(214.727443, 282.504385)">
			<g>
				<path fill="#008037" d="M-41.2-30.4h1.4v9.8h-1.4V-30.4z"/>
			</g>
		</g>
	</g>
	<g>
		<g transform="translate(220.721492, 282.504385)">
			<g>
				<path fill="#008037" d="M-30.8-30.4v9.8h-1.1l-5.9-7.3v7.3h-1.4v-9.8h1.1l5.9,7.3v-7.3C-32.2-30.4-30.8-30.4-30.8-30.4z"/>
			</g>
		</g>
	</g>
	<g>
		<g transform="translate(231.992434, 282.504385)">
			<g>
				<path fill="#008037" d="M-35.4-30.4h1.4v9.8h-1.4V-30.4z"/>
			</g>
		</g>
	</g>
	<g>
		<g transform="translate(237.986483, 282.504385)">
			<g>
				<path fill="#008037" d="M-29.1-20.5c-1,0-1.9-0.2-2.6-0.6c-0.8-0.4-1.4-1-1.9-1.8c-0.4-0.8-0.7-1.6-0.7-2.6
					c0-0.9,0.2-1.8,0.7-2.6c0.5-0.8,1.1-1.4,1.9-1.8c0.8-0.4,1.7-0.6,2.7-0.6c0.8,0,1.5,0.1,2.1,0.4c0.6,0.2,1.2,0.6,1.6,1.1
					l-0.9,0.9c-0.7-0.8-1.7-1.2-2.8-1.2c-0.7,0-1.4,0.2-2,0.5s-1,0.8-1.4,1.4c-0.3,0.6-0.5,1.2-0.5,1.9c0,0.7,0.2,1.4,0.5,1.9
					c0.3,0.6,0.8,1,1.4,1.4c0.6,0.3,1.3,0.5,2,0.5c1.1,0,2-0.4,2.8-1.2l0.9,0.9c-0.4,0.5-1,0.9-1.6,1.2
					C-27.6-20.6-28.3-20.5-29.1-20.5z"/>
			</g>
		</g>
	</g>
	<g>
		<g transform="translate(248.321882, 282.504385)">
			<g>
				<path fill="#008037" d="M-27.1-20.5c-0.7,0-1.5-0.1-2.1-0.3c-0.7-0.2-1.2-0.5-1.6-0.9l0.5-1.1c0.4,0.3,0.9,0.6,1.4,0.8
					c0.6,0.2,1.2,0.3,1.8,0.3c0.8,0,1.4-0.1,1.8-0.4s0.6-0.6,0.6-1.1c0-0.3-0.1-0.6-0.3-0.8c-0.2-0.2-0.5-0.4-0.8-0.5
					s-0.8-0.2-1.4-0.4c-0.7-0.2-1.3-0.4-1.8-0.5c-0.5-0.2-0.8-0.4-1.2-0.8c-0.3-0.4-0.5-0.9-0.5-1.5c0-0.5,0.1-1,0.4-1.4
					s0.7-0.8,1.2-1c0.6-0.2,1.3-0.4,2.1-0.4c0.6,0,1.2,0.1,1.7,0.2c0.6,0.1,1.1,0.3,1.5,0.6l-0.5,1.1c-0.4-0.3-0.9-0.5-1.3-0.6
					c-0.5-0.1-0.9-0.2-1.4-0.2c-0.8,0-1.4,0.1-1.8,0.4s-0.6,0.6-0.6,1.1c0,0.3,0.1,0.6,0.3,0.8c0.2,0.2,0.5,0.4,0.8,0.5
					s0.8,0.2,1.4,0.4c0.7,0.2,1.3,0.4,1.8,0.5c0.5,0.2,0.8,0.5,1.2,0.8c0.3,0.4,0.5,0.8,0.5,1.5c0,0.5-0.1,1-0.4,1.4s-0.7,0.8-1.3,1
					C-25.6-20.6-26.3-20.5-27.1-20.5z"/>
			</g>
		</g>
	</g>
	<g>
		<g transform="translate(96.249363, 173.940491)">
			<g>
				<path fill="#008037" d="M-85.4-65l4.9,1.1l-0.3,1.5l-4.9-1.1l-10.5,3.6l0.4-1.6l9-3.1l-6.8-6.6l0.3-1.5L-85.4-65z"/>
			</g>
		</g>
	</g>
	<g>
		<g transform="translate(99.989983, 158.880432)">
			<g>
				<path fill="#008037" d="M-77.4-69.7c-0.6,1.3-1.4,2.4-2.4,3.2c-1,0.8-2.2,1.3-3.5,1.5s-2.6,0-3.8-0.6c-1.3-0.5-2.3-1.3-3.1-2.4
					c-0.8-1-1.2-2.2-1.3-3.5c-0.1-1.3,0.1-2.7,0.6-4c0.6-1.3,1.4-2.4,2.4-3.2c1-0.8,2.2-1.3,3.5-1.5s2.6,0,3.9,0.6
					c1.3,0.5,2.3,1.3,3.1,2.4c0.8,1,1.2,2.2,1.4,3.5C-76.6-72.3-76.8-71-77.4-69.7z M-78.6-70.2c0.4-1,0.6-2.1,0.5-3.1
					c-0.1-1.1-0.5-2-1.1-2.8s-1.5-1.5-2.5-1.9s-2.1-0.6-3.1-0.5s-2,0.5-2.8,1.1s-1.5,1.5-1.9,2.5c-0.4,1.1-0.6,2.1-0.5,3.2
					c0.1,1,0.5,2,1.1,2.8s1.5,1.5,2.5,1.9s2.1,0.6,3.1,0.5s2-0.5,2.8-1.2C-79.7-68.3-79.1-69.2-78.6-70.2z"/>
			</g>
		</g>
	</g>
	<g>
		<g transform="translate(107.843753, 142.01101)">
			<g>
				<path fill="#008037" d="M-73.6-74.1c-1.1,1.5-2.3,2.4-3.8,2.7c-1.5,0.2-3-0.2-4.7-1.4l-6.8-4.7l0.9-1.2l6.8,4.6
					c1.4,0.9,2.6,1.3,3.8,1.2c1.1-0.2,2.1-0.8,2.9-2s1.1-2.3,0.8-3.4c-0.2-1.1-1.1-2.1-2.5-3.1L-83-86l0.8-1.2l6.8,4.7
					c1.7,1.2,2.7,2.5,3,3.9C-72.1-77.1-72.5-75.6-73.6-74.1z"/>
			</g>
		</g>
	</g>
	<g>
		<g transform="translate(118.458347, 127.576642)">
			<g>
				<path fill="#008037" d="M-66.1-80.8l-5.6-1c-0.2,0.3-0.5,0.6-0.8,0.9l-2.8,2.7l3.2,3.2l-1.1,1.1l-10.1-10.2l3.8-3.8
					c1.3-1.3,2.6-2,4-2.1s2.6,0.4,3.7,1.5c0.8,0.8,1.3,1.7,1.4,2.6c0.2,1,0,1.9-0.6,2.9l6,1L-66.1-80.8z M-73.4-81.8
					c1-1,1.6-2,1.6-3c0.1-1-0.2-1.9-1-2.7c-0.8-0.8-1.7-1.2-2.7-1.1s-2,0.6-3,1.6l-2.7,2.7l5.1,5.1L-73.4-81.8z"/>
			</g>
		</g>
	</g>
	<g>
		<g transform="translate(139.168586, 110.377455)">
			<g>
				<path fill="#008037" d="M-69.6-91.9l-4.4,2.4l-0.6-1.1l10.2-5.6l0.6,1.1l-4.5,2.4l6.3,11.5l-1.3,0.7L-69.6-91.9z"/>
			</g>
		</g>
	</g>
	<g>
		<g transform="translate(152.185123, 103.700056)">
			<g>
				<path fill="#008037" d="M-54-87.5l-7.6,2.6l-0.4,4.2l-1.5,0.5L-62-96l1.4-0.5l11,11.5l-1.5,0.5L-54-87.5z M-54.9-88.5l-5.8-6.2
					l-0.8,8.5L-54.9-88.5z"/>
			</g>
		</g>
	</g>
	<g>
		<g transform="translate(168.200656, 98.717688)">
			<g>
				<path fill="#008037" d="M-46.8-90.7l1.5-0.2l0.8,5.4c-0.6,0.7-1.3,1.2-2.2,1.7c-0.9,0.4-1.8,0.7-2.8,0.9c-1.4,0.2-2.8,0.1-4-0.4
					s-2.3-1.2-3.1-2.2s-1.3-2.2-1.5-3.6s0-2.7,0.4-3.9c0.5-1.2,1.3-2.2,2.3-3c1.1-0.8,2.3-1.3,3.8-1.5c1.1-0.2,2.1-0.1,3.1,0.1
					s1.8,0.6,2.5,1.2l-0.8,1.1c-1.3-0.9-2.8-1.3-4.5-1c-1.2,0.2-2.2,0.6-3,1.2s-1.5,1.5-1.9,2.4c-0.4,1-0.5,2-0.4,3.1
					c0.2,1.1,0.6,2.1,1.2,2.9c0.7,0.8,1.5,1.4,2.5,1.8s2.1,0.5,3.2,0.3c1.5-0.2,2.7-0.8,3.6-1.7L-46.8-90.7z"/>
			</g>
		</g>
	</g>
	<g>
		<g transform="translate(185.76345, 96.798886)">
			<g>
				<path fill="#008037" d="M-49.5-96.8h1.5l-0.4,13.1l8.1,0.2v1.3l-9.6-0.3L-49.5-96.8z"/>
			</g>
		</g>
	</g>
	<g>
		<g transform="translate(200.707196, 97.831356)">
			<g>
				<path fill="#008037" d="M-42.6-95.9l1.5,0.2l-2.4,14.2l-1.5-0.2L-42.6-95.9z"/>
			</g>
		</g>
	</g>
	<g>
		<g transform="translate(211.027389, 99.7528)">
			<g>
				<path fill="#008037" d="M-25.6-90.5l-4.6,13.6l-1.2-0.4l-5-14l-3.8,11.1l-1.4-0.5l4.6-13.6l1.2,0.4l5,14L-27-91L-25.6-90.5z"/>
			</g>
		</g>
	</g>
	<g>
		<g transform="translate(228.09952, 106.198026)">
			<g>
				<path fill="#008037" d="M-26.6-74.3l-0.6,1.1l-8.9-5l7.1-12.6l8.6,4.9l-0.6,1.1l-7.3-4.1l-2.5,4.5l6.5,3.7l-0.6,1.1l-6.5-3.7
					l-2.6,4.7L-26.6-74.3z"/>
			</g>
		</g>
	</g>
	<g>
		<g transform="translate(249.677606, 120.794823)">
			<g>
				<path fill="#008037" d="M-10.6-74.1l-10.4,10l-1-1.1l4.8-4.6l-6.2-6.5l-4.8,4.6l-1.1-1.1l10.4-10l1.1,1.1l-4.6,4.4l6.2,6.5
					l4.6-4.4L-10.6-74.1z"/>
			</g>
		</g>
	</g>
	<g>
		<g transform="translate(261.838705, 134.400622)">
			<g>
				<path fill="#008037" d="M-19-60.1l-1.1,0.7l-5.6-8.5l12.1-7.9l5.4,8.3l-1.1,0.7l-4.6-7l-4.3,2.8l4.1,6.2l-1.1,0.7l-4.1-6.2
					l-4.5,2.9L-19-60.1z"/>
			</g>
		</g>
	</g>
	<g>
		<g transform="translate(270.217695, 148.103891)">
			<g>
				<path fill="#008037" d="M-19.4-54.1l3-4.9c-0.2-0.3-0.3-0.7-0.5-1l-1.5-3.6l-4.2,1.8l-0.6-1.4l13.3-5.6l2.1,5
					c0.7,1.7,0.9,3.2,0.5,4.5S-8.6-57-10-56.4c-1,0.4-2,0.5-3,0.3c-0.9-0.2-1.8-0.7-2.5-1.6l-3.2,5.2L-19.4-54.1z M-15.8-60.6
					c0.6,1.3,1.3,2.2,2.1,2.6c0.9,0.5,1.9,0.5,2.9,0c1.1-0.5,1.7-1.2,2-2.1c0.3-0.9,0.1-2.1-0.4-3.4l-1.5-3.5l-6.6,2.8L-15.8-60.6z"
					/>
			</g>
		</g>
	</g>
	<g>
		<g transform="translate(276.286094, 163.866258)">
			<g>
				<path fill="#008037" d="M-18.1-48.2l-1.3,0.3l-2.2-9.9l14-3.2l2.2,9.6L-6.7-51l-1.8-8.2l-5,1.1l1.6,7.3l-1.3,0.3l-1.6-7.3
					l-5.2,1.2L-18.1-48.2z"/>
			</g>
		</g>
	</g>
</g>
</svg>
