<?xml version="1.0" encoding="utf-8"?>
<!-- Generator: Adobe Illustrator 26.3.1, SVG Export Plug-In . SVG Version: 6.00 Build 0)  -->
<svg version="1.1" id="Layer_1" xmlns="http://www.w3.org/2000/svg" xmlns:xlink="http://www.w3.org/1999/xlink" x="0px" y="0px"
	 width="40px" height="40px" viewBox="0 0 384 384" enable-background="new 0 0 384 384" xml:space="preserve">
<path d="M191.8,108c-47.1,0-94.3,0-141.4,0c-1.7,0-3.5,0-5.2-0.4c-5.9-1.4-9.8-6.9-9.2-12.8c0.6-5.9,5.5-10.5,11.6-10.8
	c1-0.1,2,0,3,0c94.3,0,188.6,0,282.9,0c1.7,0,3.5-0.1,5.2,0.3c5.9,1.3,9.9,6.8,9.4,12.7c-0.5,5.9-5.4,10.6-11.4,11
	c-1.2,0.1-2.5,0-3.8,0C285.9,108,238.9,108,191.8,108z M333.1,204c1.3,0,2.5,0.1,3.8,0c6-0.4,10.8-5.2,11.2-11.1
	c0.4-5.9-3.7-11.4-9.6-12.6c-1.6-0.3-3.2-0.3-4.9-0.3c-94.4,0-188.8,0-283.3,0c-1,0-2,0-3,0c-6.1,0.4-10.9,5-11.4,10.9
	c-0.5,6,3.7,11.7,9.7,12.8c1.6,0.3,3.2,0.2,4.9,0.2c47,0,94,0,141.1,0C238.8,204,285.9,204,333.1,204z M245.3,276
	c-17.6,0-35.3,0-52.9,0c-6.6,0-11.7,4.6-12.3,10.7c-0.6,5.9,3.3,11.5,9.2,12.9c1.7,0.4,3.5,0.4,5.2,0.4c46.4,0,92.8,0,139.2,0
	c1.1,0,2.3,0.1,3.4-0.1c5-0.6,8.6-3.2,10.4-8c2.9-8-3-15.9-12-15.9c-23.6,0-47.3,0-70.9,0C258,276,251.7,276,245.3,276z"/>
</svg>
