<?xml version="1.0" encoding="utf-8"?>
<!-- Generator: Adobe Illustrator 26.3.1, SVG Export Plug-In . SVG Version: 6.00 Build 0)  -->
<svg version="1.1" id="Layer_1" xmlns="http://www.w3.org/2000/svg" xmlns:xlink="http://www.w3.org/1999/xlink" x="0px" y="0px"
	 width="384px" height="384px" viewBox="0 0 384 384" enable-background="new 0 0 384 384" xml:space="preserve">
<path d="M383.6,304.5c-0.9,2.5-1.7,5.2-2.8,7.6c-5.1,10.6-13,16.5-25.3,16.4c-109-0.1-218.1-0.2-327.1,0.1
	c-17.6,0.1-28.5-16.2-28-29.7c0.2-4.1,2.4-6.4,6.6-6.4c8.6-0.1,17.2,0,25.8,0c1.4,0,2.7,0,3.5,0c0-4.2,0-8.1,0-11.9
	c0-61.2,0-122.5,0-183.7c0-13.3,7.1-20.4,20.3-20.4c60.1,0,120.3,0,180.4,0c1.2,0,2.5-0.1,3.7,0.1c3.2,0.6,5.2,2.5,5.2,5.8
	c0,3.4-1.9,5.3-5.1,5.9c-1.3,0.3-2.7,0.1-4.1,0.1c-59.9,0-119.8,0-179.6,0c-7.3,0-8.8,1.5-8.8,8.7c0,62.2,0,124.5,0,186.7
	c0,7,1.6,8.6,8.6,8.6c90.1,0,180.1,0,270.2,0c7,0,8.6-1.6,8.6-8.5c0-17.4,0-34.7,0-52.1c0-1.1-0.1-2.3,0.1-3.4c0.7-3.2,2.6-5.1,6-5
	c3.2,0,5.1,1.9,5.7,4.9c0.3,1.2,0.1,2.5,0.1,3.7c0,16.7,0,33.5,0,50.2c0,3.2,0,6.5,0,10.2c3.8,0,8.2,0,12.7,0
	c4.9,0,9.7,0.2,14.6-0.1c3.7-0.2,6.6,0.8,8.7,3.8C383.6,299,383.6,301.7,383.6,304.5z M370.5,304.6c-119,0-238,0-357,0
	c1.7,7.4,7,11.9,14.2,11.9c109.5,0,219.1,0,328.6,0C363.6,316.5,368.9,312,370.5,304.6z M383.6,129c-0.7,7.4-1.7,14.9-2.2,22.3
	c-1.1,17.7-9.2,31.3-23.7,41.3c-8,5.5-16.1,11-24.1,16.5c-3.3,2.3-6.6,4.6-7.8,9.1c-0.4,1.6-3.3,3.5-5,3.4c-1.9-0.1-4.9-1.9-5.4-3.5
	c-1.2-4.4-4.3-6.6-7.5-8.9c-6.7-4.6-13.5-9-20.1-13.7c-4.3-3-8.2-6.5-12.3-9.8c-10.2-8.3-13.8-19.8-15.5-32.2
	c-3.1-23.9-2.7-47.9-1.5-71.9c0.2-4.1,2.3-5.9,6.8-6.3c8.6-0.8,17.1-1.4,25.7-2.5c10-1.2,17.9-6.3,24.2-14.1c3.3-4.1,7.2-4.5,10-0.7
	c8.4,11.3,20.2,15.2,33.5,16.3c5.5,0.4,10.9,0.7,16.4,1.1c5.5,0.4,7.3,2.2,7.5,7.6c0.2,3.6,0.5,7.2,0.8,10.8
	C383.6,105.5,383.6,117.2,383.6,129z M270.7,87.3c-0.2,0.9-0.4,1.6-0.4,2.3c0.4,19.7,0.7,39.4,1.3,59.1c0.4,15.7,8.1,27.1,20.9,35.5
	c9.6,6.3,18.9,12.9,28.6,19.5c1.2-1,2.6-2.2,4.1-3.2c8.5-5.9,17.1-11.7,25.5-17.6c10.8-7.6,17.5-17.5,18.8-31.2
	c1.8-18.9,2.3-37.9,1.8-56.9c-0.1-2.5-0.3-4.9-0.5-7.5c-18.1-1.6-36.4-2-50.1-16.7C306.9,85.3,288.6,85.7,270.7,87.3z M270.1,232.5
	c12,0,19.6-8.8,17.7-20.6c-0.5-3.3-2.6-5.2-5.9-5.2c-3.3,0-5.3,1.9-5.9,5.1c-0.2,1-0.1,2-0.1,3c-0.1,4.5-1.3,5.7-5.8,5.7
	c-52,0-104,0-156,0c-4.5,0-5.8-1.3-5.8-5.8c0-11.6,0-23.2,0-34.9c0-6.7,0.7-7.4,7.2-7.4c41.5,0,83.1,0,124.6,0
	c1.4,0,2.8,0.1,4.1-0.2c3-0.7,4.8-2.7,4.8-5.9c0-3.1-1.8-5.1-4.9-5.8c-1-0.2-2-0.1-3-0.1c-42.5,0-85.1,0-127.6,0
	c-10.6,0-17.2,6.7-17.2,17.4c0,12.2,0,24.5,0,36.7c0,11.4,6.5,17.9,17.9,17.9c25.9,0,51.9,0,77.8,0C218,232.5,244,232.5,270.1,232.5
	z M211.8,280.5c4.4,0,7.1-2.3,7.2-5.9c0.1-3.6-2.6-6-7-6.1c-12.2,0-24.4,0-36.7,0c-4.5,0-7.1,2.3-7.2,5.9c-0.1,3.7,2.7,6.1,7.4,6.1
	c6,0,12,0,18,0C199.5,280.5,205.6,280.5,211.8,280.5z M198.7,106.2c0.1-3.6-2.8-6.7-6.5-6.8c-3.9-0.1-7,2.9-6.9,6.7
	c0,3.7,3,6.6,6.7,6.6C195.6,112.8,198.6,109.9,198.7,106.2z M132.1,190.5c-3.3,0-6,2.6-6,5.9c0,3.3,2.6,6,5.9,6c3.2,0,6-2.7,6-5.9
	C138.1,193.3,135.4,190.5,132.1,190.5z M150.1,196.3c-0.1,3.3,2.5,6,5.8,6.1c3.2,0.1,6-2.6,6.1-5.8c0.1-3.2-2.6-6-5.8-6.1
	C152.9,190.4,150.2,193,150.1,196.3z M179.9,190.5c-3.3,0.1-5.9,2.8-5.8,6.1c0.1,3.3,2.8,5.9,6.1,5.9c3.2-0.1,5.9-2.9,5.8-6.1
	C185.9,193.1,183.1,190.4,179.9,190.5z M203.9,190.5c-3.3,0-5.9,2.7-5.9,6c0,3.3,2.7,6,6,6c3.2,0,6-2.8,6-6
	C209.9,193.2,207.2,190.5,203.9,190.5z M222,196.6c0.1,3.3,2.8,5.9,6.1,5.8c3.2-0.1,5.9-2.9,5.8-6.1c-0.1-3.2-2.9-5.9-6.1-5.8
	C224.5,190.6,221.9,193.3,222,196.6z M251.7,190.5c-3.3,0.1-5.9,2.8-5.8,6.1c0.1,3.3,2.8,5.9,6.1,5.8c3.2-0.1,5.9-2.9,5.8-6.1
	C257.7,193.1,255,190.4,251.7,190.5z"/>
</svg>
