<?xml version="1.0" encoding="utf-8"?>
<!-- Generator: Adobe Illustrator 26.3.1, SVG Export Plug-In . SVG Version: 6.00 Build 0)  -->
<svg version="1.1" id="Layer_1" xmlns="http://www.w3.org/2000/svg" xmlns:xlink="http://www.w3.org/1999/xlink" x="0px" y="0px"
	 width="428.7px" height="428.7px" viewBox="0 0 428.7 428.7" enable-background="new 0 0 428.7 428.7" xml:space="preserve">
<path d="M263.8,0.3c6.1,2.5,12.8,4.1,18.2,7.7c11.8,7.8,16.5,19.8,16.6,33.7c0,3.3,0,6.7,0,10.6c1.8,0,3.2,0,4.7,0
	c14.8,0,29.5-0.1,44.3,0c17.7,0.2,30.7,7.8,37.8,24.4c7.9,18.7-1.9,41.9-20.9,49c-3.8,1.4-4.8,3.3-4.8,7.2
	c0.1,79.6,0.1,159.3,0.1,238.9c0,12.4-2.5,24.1-9.7,34.4c-9.9,14.2-23.7,21.6-41,21.9c-14.6,0.2-29.2,0-43.9,0
	c-47.6,0-95.3-0.4-142.9,0.1c-29.6,0.3-52.5-22-53.1-52.2c-0.5-24.9-0.1-49.8-0.1-74.8c0-56.5,0-113.1,0.1-169.6
	c0-3.2-0.9-4.5-3.9-5.6c-16.2-5.9-26.6-23.2-24.3-40c2.4-18,16.5-32.1,34.3-33.2c12.9-0.8,25.9-0.5,38.8-0.6c5.1-0.1,10.3,0,15.8,0
	c0.3-5.8,0.4-11.5,0.9-17.1c1.8-17.6,15-31.4,32.5-34.3c0.7-0.1,1.3-0.4,1.9-0.7C198,0.3,230.9,0.3,263.8,0.3z M89.1,128.8
	c0,1.6,0,3,0,4.4c0,79.7,0,159.3,0,239c0,3.1,0.2,6.1,0.7,9.1c2.5,15.6,14.7,26.7,30.1,26.7c63,0.1,125.9,0.1,188.9,0
	c10.3,0,18.5-4.4,24.5-12.9c5-7,6.5-15,6.5-23.3c0-79.5,0-159.1,0-238.6c0-1.5-0.1-2.9-0.2-4.5C255.8,128.8,172.6,128.8,89.1,128.8z
	 M214.2,108.5c43.7,0,87.5,0,131.2,0c2.2,0,4.5-0.1,6.7-0.3c8.6-0.9,14.9-7.6,15.6-16.4c0.7-8.5-4.8-16.5-12.9-18.6
	c-2.7-0.7-5.5-0.8-8.3-0.8c-88,0-176,0-264,0c-2.2,0-4.5,0.1-6.7,0.5c-8.4,1.3-14.6,8.5-15,17.1c-0.3,8.1,5.5,16.1,13.5,17.9
	c2.7,0.6,5.5,0.6,8.3,0.6C126.5,108.5,170.4,108.5,214.2,108.5z M150,52c43.2,0,85.7,0,128.2,0c0-5.2,0.4-10-0.1-14.8
	c-1-9.3-8.5-16.6-17.9-16.7c-30.5-0.2-61-0.2-91.5,0c-9,0.1-16.4,6.5-17.9,15.3C149.9,41.1,150.2,46.5,150,52z M165.2,168.7
	c0-1.7,0-3.4-0.3-5c-1-5.6-5.6-8.8-11.2-8.1c-5.6,0.8-8.5,5-8.5,12.4c0,61.4,0,122.8,0,184.2c0,1.8,0.2,3.6,0.7,5.3
	c1.1,4.1,4,6.3,8,6.9c3.9,0.6,7.5-0.7,9.3-4.1c1.3-2.4,2-5.5,2-8.3c0.1-30.8,0.1-61.5,0.1-92.3C165.2,229.4,165.2,199.1,165.2,168.7
	z M204.4,351.3c0,1.9,0,3.9,0.5,5.8c1,4.4,4.9,7.5,9.3,7.6c4.5,0.1,8.6-3,9.7-7.6c0.4-1.9,0.6-3.8,0.6-5.8c0-60.8,0-121.7,0-182.5
	c0-2.2-0.2-4.5-0.8-6.6c-1.6-5.7-8.7-8.4-13.9-5.6c-4.3,2.4-5.4,6.3-5.4,10.9c0,30.8,0,61.5,0,92.3
	C204.4,290.3,204.4,320.8,204.4,351.3z M263.5,351.3c0,8.7,3.3,13.2,9.7,13.4c6.5,0.2,10.3-4.7,10.3-13.4c0-60.8,0-121.6,0-182.5
	c0-8.7-3.7-13.5-10.3-13.3c-6.4,0.1-9.8,4.6-9.8,13.3c0,30.5,0,61,0,91.4C263.5,290.6,263.5,320.9,263.5,351.3z"/>
</svg>
