<?xml version="1.0" encoding="utf-8"?>
<!-- Generator: Adobe Illustrator 26.3.1, SVG Export Plug-In . SVG Version: 6.00 Build 0)  -->
<svg version="1.1" id="Layer_1" xmlns="http://www.w3.org/2000/svg" xmlns:xlink="http://www.w3.org/1999/xlink" x="0px" y="0px"
	 width="96px" height="96px" viewBox="0 0 96 96" enable-background="new 0 0 96 96" xml:space="preserve">
<path d="M95.9,74.5c-0.6,1.7-1.7,3.1-3.6,3.5C91.8,78,91.3,78,90.8,78c-13.3,0-26.7,0-40,0c-0.4,0-0.7,0-1.2,0c0,3,0,6,0,9
	c0.4,0,0.7,0,1,0c7.1,0,14.2,0,21.3,0c0.3,0,0.6,0,0.9,0c0.8,0.1,1.3,0.6,1.3,1.4c0,0.8-0.5,1.4-1.4,1.5c-0.3,0-0.6,0-0.8,0
	c-16,0-32,0-48,0c-0.3,0-0.6,0-0.8,0c-0.8-0.1-1.4-0.8-1.3-1.5c0.1-0.8,0.5-1.3,1.3-1.4c0.3,0,0.6,0,0.8,0c7.1,0,14.2,0,21.3,0
	c0.3,0,0.7,0,1.1,0c0-3,0-5.9,0-9c-0.3,0-0.7,0-1.1,0C32,78,18.6,78,5.2,78c-3.4,0-5.1-1.8-5.1-5.1c0-20.6,0-41.2,0-61.8
	C0.1,7.8,1.9,6,5.2,6c28.3,0,56.7,0,85,0C93,6,95,6.8,95.9,9.6C95.9,31.2,95.9,52.8,95.9,74.5z M47.9,75c14.3,0,28.5,0,42.8,0
	c1.8,0,2.2-0.4,2.2-2.3c0-20.5,0-41,0-61.5c0-1.8-0.4-2.2-2.2-2.2C62.2,9,33.8,9,5.3,9c-1.8,0-2.2,0.4-2.2,2.3c0,20.5,0,41,0,61.5
	c0,1.8,0.4,2.3,2.2,2.3C19.5,75,33.7,75,47.9,75z M48.1,48c9.3,0,18.5,0,27.8,0c3.3,0,5.1,1.8,5.1,5c0,2.8,0,5.5,0,8.3
	c0,2.8-1.9,4.7-4.7,4.7c-18.8,0-37.7,0-56.5,0c-2.8,0-4.7-1.9-4.7-4.7c0-2.8,0-5.6,0-8.3c0-3.1,1.8-4.9,4.9-4.9
	C29.3,48,38.7,48,48.1,48z M47.9,63c9.4,0,18.7,0,28.1,0c1.4,0,1.9-0.5,1.9-1.9c0-2.7,0-5.4,0-8.2c0-1.4-0.5-1.9-1.9-1.9
	c-18.7,0-37.4,0-56.1,0c-1.4,0-1.9,0.5-1.9,1.9c0,2.6,0,5.3,0,7.9c0,1.8,0.4,2.2,2.2,2.2C29.5,63,38.7,63,47.9,63z M69.1,28.5
	c-3.5,0-7,0-10.6,0c-0.2,1.2,0.4,2.9-1.6,2.9c-1.9,0-1.4-1.7-1.5-2.9c-0.5,0-0.9,0-1.3,0c-1,0-1.7-0.7-1.6-1.5
	c0-0.8,0.7-1.4,1.6-1.4c2.9,0,5.8,0,8.7,0c2.1,0,4.2,0,6.2,0c1.8-3.7,4.2-5.1,7.3-4.3c2.7,0.7,4.6,3.2,4.5,6
	c-0.1,2.8-2.1,5.1-4.9,5.7C73.1,33.5,70.6,31.9,69.1,28.5z M74.9,30c1.6,0,3-1.3,3-3c0-1.6-1.3-3-2.9-3c-1.7,0-3.1,1.3-3.1,3
	C72,28.6,73.3,30,74.9,30z M17.7,25.8c-0.7-0.6-1.5-0.6-2.1,0c-0.6,0.6-0.6,1.5,0,2.1c1.2,1.2,2.4,2.4,3.6,3.5
	c0.6,0.6,1.4,0.6,1.9,0.1c1.3-1.2,2.6-2.5,3.8-3.9c0.6-0.6,0.4-1.5-0.2-2c-0.6-0.5-1.3-0.5-2,0c-0.3,0.3-0.6,0.6-1.1,1
	c0.1-0.3,0.1-0.5,0.1-0.6c1.9-6.8,10.5-9,15.5-3.9c0.8,0.9,1.7,0.9,2.4,0.3c0.6-0.6,0.6-1.5-0.2-2.3c-3.7-4-9.7-5-14.5-2.3
	c-3.5,1.9-5.5,4.9-6.4,9C18.3,26.4,18,26.1,17.7,25.8z M39.3,31.3c-2.1,6.4-9.9,8.3-14.9,3.7c-0.9-0.8-1.8-0.9-2.4-0.2
	c-0.6,0.7-0.5,1.5,0.4,2.4c6.3,6.1,16.8,3.7,19.7-4.6c0.2-0.7,0.4-1.4,0.6-2.1c0.4,0.4,0.7,0.7,1.1,1c0.7,0.5,1.5,0.5,2,0
	c0.6-0.6,0.6-1.5,0-2.1c-1.2-1.2-2.4-2.4-3.6-3.5c-0.6-0.5-1.4-0.7-2-0.1c-1.3,1.3-2.6,2.6-3.9,3.9c-0.6,0.6-0.4,1.4,0.1,1.9
	c0.6,0.6,1.3,0.6,1.9,0.1c0.3-0.2,0.5-0.5,1-0.9C39.4,31.1,39.3,31.2,39.3,31.3z M33,55.5c-0.8,0-1.5,0.7-1.5,1.5
	c0,0.8,0.7,1.5,1.5,1.5c0.8,0,1.5-0.7,1.5-1.5C34.5,56.2,33.8,55.5,33,55.5z M37.5,57c0,0.8,0.7,1.5,1.5,1.5c0.8,0,1.5-0.7,1.5-1.5
	c0-0.8-0.7-1.5-1.5-1.5C38.2,55.5,37.5,56.2,37.5,57z M45,55.5c-0.8,0-1.5,0.6-1.5,1.5c0,0.8,0.6,1.5,1.5,1.5c0.8,0,1.5-0.6,1.5-1.5
	C46.5,56.2,45.9,55.5,45,55.5z M51,55.5c-0.8,0-1.5,0.7-1.5,1.5c0,0.8,0.7,1.5,1.5,1.5c0.8,0,1.5-0.7,1.5-1.5
	C52.5,56.2,51.8,55.5,51,55.5z M58.5,57c0-0.8-0.7-1.5-1.5-1.5c-0.8,0-1.5,0.7-1.5,1.5c0,0.8,0.7,1.5,1.5,1.5
	C57.8,58.5,58.5,57.8,58.5,57z M61.5,57c0,0.8,0.7,1.5,1.5,1.5c0.8,0,1.5-0.7,1.5-1.5c0-0.8-0.7-1.5-1.5-1.5
	C62.2,55.5,61.5,56.2,61.5,57z"/>
</svg>
