<?xml version="1.0" encoding="utf-8"?>
<!-- Generator: Adobe Illustrator 26.3.1, SVG Export Plug-In . SVG Version: 6.00 Build 0)  -->
<svg version="1.1" id="Layer_1" xmlns="http://www.w3.org/2000/svg" xmlns:xlink="http://www.w3.org/1999/xlink" x="0px" y="0px"
	 width="40px" height="40px" viewBox="0 0 409.6 409.6" enable-background="new 0 0 409.6 409.6" xml:space="preserve">
<path d="M373.3,409.5c-9.9-1.8-17.1-7.7-24-14.7c-32.5-32.8-65.2-65.3-97.8-98c-1-1-1.8-2.3-2.4-3c-9.8,4.9-18.7,10.1-28.1,14
	c-33.7,13.9-68.3,16.2-103.4,6.3C78,303,47.2,279.9,25.1,245.2c-13.9-21.8-21.9-45.6-24-71.4c-0.1-0.8-0.4-1.5-0.6-2.2
	c0-7.5,0-14.9,0-22.4c0.6-4.3,1-8.7,1.8-12.9C11.3,84.8,38.1,45,84.1,20.4c52.8-28.3,106.4-27,158.1,3.6
	c42.6,25.3,67.7,63.6,75.6,112.3c6.1,37.5-1.2,73-20.6,105.8c-1.2,2-2.5,4.1-3.8,6.3c1.1,1.1,2,2.2,3,3.2
	c34,34,67.9,67.9,101.9,101.9c9.2,9.2,13.1,19.9,9.5,32.7c-3.5,12.4-11.9,19.7-24.3,22.7c-0.8,0.2-1.5,0.5-2.2,0.7
	C378.6,409.5,376,409.5,373.3,409.5z M16.4,160.6c0.3,79.2,64.9,143.6,144,143.5c78.8-0.1,143.6-65,143.4-143.7
	C303.6,81.2,239,16.6,160.1,16.7C81,16.8,16.2,81.7,16.4,160.6z M296.1,319c-0.2-0.3,0.2,0.3,0.6,0.7c22.7,22.7,45.3,45.3,68,68
	c0.9,0.9,1.9,1.8,3,2.6c8.9,6.7,21.6,2.5,24.8-8.2c2-6.9-0.5-12.4-5.4-17.3c-22.5-22.4-45-44.9-67.4-67.4c-0.6-0.6-1.3-1.2-1.1-1
	C311.1,304,303.8,311.3,296.1,319z M284.7,306.8c7.3-7.2,14.8-14.5,21.8-21.4c-8.3-8.4-15.7-15.8-22-22.1
	c-7.2,7.1-14.6,14.5-21.8,21.7C269.2,291.3,276.5,298.6,284.7,306.8z M160.1,32.7c70.2,0,127.7,57.5,127.8,127.7
	c0,70.2-57.5,127.7-127.7,127.8c-70.2,0-127.7-57.5-127.8-127.7C32.3,90.3,89.9,32.7,160.1,32.7z M271.9,160.3
	C271.8,98.9,221.4,48.6,160,48.7C98.6,48.8,48.3,99.1,48.4,160.5c0.1,61.5,50.5,111.8,111.8,111.7
	C221.7,272.1,272,221.7,271.9,160.3z M152.2,72.6c0,5.1,3.7,7.7,11.1,8.2c5,0.3,10.1,0.9,15,2.1c26.5,6.7,45.1,22.8,56,47.8
	c2.4,5.5,6.5,7.5,11,5.6c4.4-1.8,6-6.4,3.7-11.8c-16.3-37.1-45.2-56.3-85-60C156.3,64.5,152.2,67.3,152.2,72.6z M255.9,160.5
	c0.1-4.2-3.6-8-7.8-8c-4.2-0.1-7.9,3.6-8,7.8c-0.1,4.2,3.6,7.9,7.8,8C252,168.4,255.8,164.7,255.9,160.5z"/>
</svg>
