<?xml version="1.0" encoding="utf-8"?>
<!-- Generator: Adobe Illustrator 26.3.1, SVG Export Plug-In . SVG Version: 6.00 Build 0)  -->
<svg version="1.1" id="Layer_1" xmlns="http://www.w3.org/2000/svg" xmlns:xlink="http://www.w3.org/1999/xlink" x="0px" y="0px"
	 width="384px" height="384px" viewBox="0 0 384 384" enable-background="new 0 0 384 384" xml:space="preserve">
<path d="M293.9,215.3c3.3,0.8,6.4,1.3,9.3,2.2c29.8,8.1,49.8,35.8,48,66.6c-1.7,30.7-24.7,56.2-55.1,60.9c-3.8,0.6-7.7,0.8-11.6,0.8
	c-75.5,0-151,0-226.5,0c-15.9,0-25.4-9.5-25.4-25.4c0-85.5,0-171.1,0-256.6c0-16,9.5-25.4,25.5-25.4c49.5,0,99,0,148.5-0.1
	c4.1,0,7.1,1.3,10,4.1c24.3,24.5,48.7,48.9,73.2,73.2c2.9,2.9,4.1,5.9,4.1,10c-0.1,28.4,0,56.8,0,85.2
	C293.9,212.2,293.9,213.7,293.9,215.3z M243.7,330.3c-20.3-19.7-27.9-42.5-19.8-68.9c8.1-26.5,27.3-41.2,54.3-46.1
	c0-28.2,0-56.3,0-84.8c-1.5,0-2.9,0-4.2,0c-15.9,0-31.7,0-47.6,0c-15,0-24.6-9.6-24.7-24.5c0-16,0-32,0-48c0-1.3,0-2.6,0-4.2
	c-2,0-3.3,0-4.7,0c-46.1,0-92.2,0-138.4,0c-8.5,0-10.6,2.1-10.6,10.6c0,83.9,0,167.8,0,251.7c0,1.9,0,3.8,0,5.6
	c0.1,5.7,2.8,8.4,8.6,8.5c0.7,0,1.5,0,2.2,0c60.1,0,120.2,0,180.4,0C240.4,330.3,241.7,330.3,243.7,330.3z M286,330.2
	c27.7,0.1,50-22,50.1-49.5c0.1-27.8-22.1-50.3-49.8-50.3c-27.5-0.1-49.9,22.2-50,49.6C236.2,307.9,258.2,330.2,286,330.2z
	 M216.9,65.8c0,13,0,26.1,0,39.2c0,7.6,2.6,10.2,10.1,10.2c12.1,0,24.2,0,36.3,0c1.1,0,2.1-0.1,2.9-0.2
	C249.8,98.7,233.5,82.4,216.9,65.8z M100.5,161.3c-1.1,0-2.3-0.1-3.4,0.1c-4,0.5-6.9,3.8-6.9,7.6c0,3.7,2.7,6.9,6.6,7.5
	c1.5,0.2,3,0.2,4.5,0.2c40,0,80,0,120,0c1.6,0,3.3,0,4.9-0.3c3.5-0.6,6.1-3.6,6.1-7.1c0-3.6-1.6-6.3-5.1-7.5
	c-1.5-0.5-3.2-0.5-4.8-0.5c-20.3,0-40.5,0-60.8,0C141.3,161.3,120.9,161.3,100.5,161.3z M193.9,222.8c5.1,0,10.3,0.1,15.4,0
	c4.4-0.1,7.4-3.2,7.6-7.2c0.2-4.3-2.6-7.5-7.2-8c-1.2-0.1-2.5-0.1-3.7-0.1c-34.9,0-69.8,0-104.6,0c-1.6,0-3.3,0-4.9,0.3
	c-3.1,0.5-5.1,2.5-5.9,5.5c-1.4,5.2,2.4,9.5,8.4,9.5c18.1,0,36.3,0,54.4,0C166.9,222.8,180.4,222.8,193.9,222.8z M191.7,268.8
	c1.8,0,3.8-0.1,5.5-0.8c3.3-1.2,5-5,4.3-8.3c-0.9-4-3.8-6.2-8.6-6.2c-29.6,0-59.3,0-88.9,0c-2.3,0-4.5-0.1-6.7,0.1
	c-3.9,0.3-6.9,3.7-7,7.5c0,3.9,2.9,7.1,6.9,7.6c1.2,0.1,2.5,0.1,3.7,0.1c15,0,30,0,45,0C161.2,268.8,176.4,268.8,191.7,268.8z
	 M165.6,130.5c5.6,0,9.1-3,9.1-7.7c0-4.7-3.4-7.6-9.2-7.6c-22.1,0-44.2,0-66.3,0c-5.6,0-9.1,3.2-9,7.8c0.1,4.5,3.6,7.4,9,7.4
	c11.1,0,22.2,0,33.4,0C143.6,130.5,154.6,130.5,165.6,130.5z M294.9,274.8c3.1,3.2,6.1,6.5,9.3,9.7c1.2,1.2,2.7,2.3,4.3,2.8
	c3.5,1,6.4-0.1,8.5-3.2c2-3,1.5-6.9-1.5-9.9c-7.6-7.7-15.3-15.4-23-23.1c-4.4-4.4-8.5-4.3-13,0.2c-7.1,7-14.1,14.1-21.2,21.2
	c-4.9,4.9-5.6,9.4-2,13c3.6,3.5,8,2.8,12.9-2.1c2.8-2.8,5.7-5.7,9.1-9.1c0,10.1,0,19.1,0,28.1c0,6.9,2.8,10.6,7.8,10.6
	c5,0,7.7-3.7,7.7-10.7c0-9,0-17.9,0-26.9C294.2,275.1,294.6,275,294.9,274.8z"/>
</svg>
